<?xml version="1.0" encoding="utf-8"?>
<!-- Generator: Adobe Illustrator 11.0, SVG Export Plug-In  -->
<!DOCTYPE svg PUBLIC "-//W3C//DTD SVG 1.0//EN"    "http://www.w3.org/TR/2001/REC-SVG-20010904/DTD/svg10.dtd" [
	<!ENTITY ns_flows "http://ns.adobe.com/Flows/1.0/">
	<!ENTITY ns_svg "http://www.w3.org/2000/svg">
	<!ENTITY ns_xlink "http://www.w3.org/1999/xlink">
]>
<svg  xmlns="&ns_svg;" xmlns:xlink="&ns_xlink;" xmlns:a="http://ns.adobe.com/AdobeSVGViewerExtensions/3.0/"
	 width="512" height="455" viewBox="-0.664 -0.769 512 455" xml:space="preserve">
	<defs>
	</defs>
	<g>
		<path fill="#ED171F" d="M41.256,453.591C18.504,453.591,0,435.087,0,412.263c0-7.2,1.944-14.328,5.616-20.592l214.2-371.016
			c15.912-27.576,55.512-27.504,71.424,0l214.2,371.016c3.672,6.264,5.544,13.392,5.544,20.592
			c0,22.752-18.432,41.256-41.184,41.328H41.256z"/>
		<polygon fill="#FEB82F" points="52.272,405.999 255.528,53.991 458.784,405.999 "/>
		<polygon points="255.528,383.751 109.512,383.751 109.512,364.671 255.528,364.671 401.544,364.671 401.544,383.751 "/>
		<path d="M195.264,355.167h60.264h60.336v-53.352c-14.04-19.152-36.504-30.528-60.336-30.528c0.072,0,0.072,0,0,0
			c-23.688,0-46.08,11.376-60.264,30.528V355.167z"/>
		<path d="M197.136,221.175h58.392h58.392l-18.072,49.392c-12.384-6.48-26.28-9.936-40.32-9.936c0.072,0,0,0,0,0
			c-14.04,0-27.792,3.384-40.248,9.936L197.136,221.175z"/>
		<path d="M363.528,274.527l-39.456-48.24l-21.528,48.312c7.2,4.68,13.608,10.44,19.008,16.992L363.528,274.527z"/>
		<polygon points="366.696,358.407 366.696,284.031 325.368,297.999 325.368,358.407 "/>
		<path d="M208.584,274.599l-21.528-48.312l-39.384,48.168l41.904,17.136c5.544-6.696,11.952-12.384,19.152-17.064L208.584,274.599z
			"/>
		<polygon points="185.688,358.407 185.688,297.999 144.432,284.031 144.432,358.407 "/>
	</g>
</svg>
