<?xml version="1.0" encoding="utf-8"?>
<!-- Generator: Adobe Illustrator 11.0, SVG Export Plug-In  -->
<!DOCTYPE svg PUBLIC "-//W3C//DTD SVG 1.0//EN"    "http://www.w3.org/TR/2001/REC-SVG-20010904/DTD/svg10.dtd" [
	<!ENTITY ns_flows "http://ns.adobe.com/Flows/1.0/">
	<!ENTITY ns_svg "http://www.w3.org/2000/svg">
	<!ENTITY ns_xlink "http://www.w3.org/1999/xlink">
]>
<svg  xmlns="&ns_svg;" xmlns:xlink="&ns_xlink;" xmlns:a="http://ns.adobe.com/AdobeSVGViewerExtensions/3.0/"
	 width="510" height="454" viewBox="-0.312 -0.661 510 454" xml:space="preserve">
	<defs>
	</defs>
	<g>
		<path fill="#ED171F" d="M41.112,452.475C18.432,452.475,0,433.971,0,411.219c0-7.2,1.872-14.328,5.544-20.52L219.24,20.547
			c15.912-27.432,55.44-27.36,71.208,0l213.696,370.152c3.672,6.264,5.544,13.392,5.544,20.52c0,22.752-18.36,41.184-41.112,41.256
			H41.112z"/>
		<polygon fill="#FEB82F" points="52.056,404.955 457.488,404.955 254.808,53.811 "/>
		<path d="M329.112,325.179l6.48,16.848c1.224,2.808,2.448,5.4,3.816,7.992c0.864,1.728,2.088,3.312,3.528,4.68l10.368,10.368
			c0.864,1.008,1.656,1.872,2.52,2.808c0.648,0.72,1.296,1.584,1.8,2.448c0.504,1.152,1.008,2.304,1.368,3.456
			c0.216,0.72,0.36,1.44,0.36,2.16c0,0.792-0.144,1.584-0.432,2.376c-0.504,1.512-1.08,2.952-1.728,4.464
			c-1.08,2.448-3.168,4.248-5.688,5.04c-0.792,0.216-1.584,0.576-2.304,1.008c-0.72,0.432-1.224,1.224-1.368,2.016l-0.504,3.24
			h13.752l19.512-18.072l-22.032-34.488l-3.96-6.48l-0.36-2.016l-2.448-11.52l-3.096-15.768l-3.312-26.352
			c3.24,1.8,5.976,4.32,8.064,7.344l4.392,6.192c1.08,1.368,1.872,2.952,2.376,4.608l5.256,18.216
			c1.584,3.456,4.392,6.192,7.992,7.632c1.296,0.504,2.664,0.792,4.032,0.792c0.792,0,1.44-0.072,2.16-0.216
			c2.376-0.432,4.032-2.52,4.032-4.968c0-2.016-1.224-3.888-3.168-4.68c-0.792-0.36-1.656-0.792-2.304-1.368
			c-1.224-1.08-2.016-2.52-2.16-4.104l-2.376-21.456c-0.072-1.656-0.648-3.24-1.656-4.464L360,268.443l-11.16-12.456
			c-1.944-2.232-4.32-4.176-6.984-5.616l-10.224-5.616c-0.72-0.648-1.368-1.296-1.944-2.016c-1.224-1.656-1.44-3.816-0.576-5.616
			l5.256-10.944c0.936-1.44,1.512-3.024,1.584-4.68c0.072-0.648,0.072-1.224,0.072-1.872c0-6.264-2.232-12.384-6.336-17.208
			c-1.656-2.016-3.96-3.456-6.552-4.032c-1.872-0.432-3.672-0.648-5.616-0.648c-6.552,0-12.888,2.664-17.568,7.344
			c-1.368,1.44-2.16,3.24-2.16,5.184l-0.144,7.128c0,0.072,0,0.144,0,0.288c0,0.504,0.072,1.008,0.216,1.512l3.816,11.952
			c0.288,0.432,0.576,0.864,0.864,1.224c2.232,2.52,4.68,4.752,7.344,6.624c0.72,0.576,1.224,1.512,1.224,2.52
			c0,0.792-0.36,1.584-0.936,2.16c-1.512,1.44-3.024,2.952-4.536,4.536c-3.456,3.6-6.048,7.848-7.632,12.384l-3.528,10.224
			l-6.192,17.856l-4.536,0.36c-0.432-1.224-1.152-2.304-2.232-3.024l-0.36-0.288c1.872-9.936,2.808-19.8,2.808-29.808
			c0-1.224,0-2.448,0-3.672l-0.144-5.688c-0.144-1.44-0.72-2.88-1.728-3.888c-1.44-1.44-2.952-3.096-4.392-4.752
			c-4.968-5.76-10.584-11.016-16.632-15.768c-2.448-1.944-5.112-4.032-7.776-6.048c-4.536-3.528-8.496-5.616-12.672-6.984
			l-6.192-2.016c-1.08-0.72-2.016-1.656-2.736-2.736c-1.512-2.16-1.008-5.184,1.224-6.696c4.248-2.952,5.904-4.104,7.488-5.256
			c0.504-0.288,1.872-2.16,2.448-4.248c0.576-1.8,1.008-3.6,1.296-5.4c0.216-1.8,0.36-3.672,0.36-5.472
			c0-5.544-1.296-10.944-3.744-15.84c-1.8-3.6-5.472-5.832-9.504-5.832c-0.072,0-0.144,0-0.288,0c-2.808,0-5.76,0-8.568-0.072
			c-0.288,0-0.432,0-0.576,0c-1.08,0-2.016,0.072-3.024,0.288c1.584-0.36,0.288-0.072-0.936,0.216c-5.256,1.152-7.2,2.016-9,3.168
			c-1.224,0.792-2.16,1.8-2.952,2.952c-0.504,0.72-1.008,1.368-1.584,1.944c-1.152,1.152-1.728,2.664-1.8,4.32l-0.216,12.528
			c0,0.216,0,0.576,0,0.936c0,3.096,0.576,6.12,1.872,8.928c0.576,1.44,1.584,2.664,2.88,3.456c1.44,0.936,2.736,1.8,4.032,2.808
			c0.936,0.648,1.584,1.8,1.728,3.096c0,0.216,0,0.36,0,0.504c0,2.736-1.656,5.112-4.176,6.048c-1.656,0.504-3.24,1.224-4.752,1.944
			c-1.512,0.72-3.24,1.512-4.968,2.376c-1.584,0.648-2.952,1.512-4.248,2.376c-1.44,1.008-2.592,2.304-3.384,3.744l-21.024,38.448
			l-20.16,14.4c-2.52,2.016-5.184,3.888-7.992,5.544c-1.44,0.864-2.664,2.016-3.6,3.456c-0.288,0.432-0.36,0.864-0.36,1.296
			c0,0.648,0.144,1.152,0.504,1.656c1.8,2.16,3.96,4.032,6.48,5.4c1.296,0.792,2.808,1.152,4.32,1.224c0.072,0,0.144,0,0.216,0
			c1.728,0,3.168-1.296,3.312-3.096l0.216-3.24c-0.144-0.576,0.144-1.152,0.72-1.368l24.984-8.208l13.176-16.704
			c-2.664,6.84-5.76,13.824-9.216,20.52c-4.104,8.064-9.432,15.192-15.84,21.312l-1.944,1.872c5.328,4.968,11.448,9,18.072,11.88
			l1.8,0.792l0,0c-2.88,5.832-4.68,12.24-5.328,18.864c-0.288,2.736-0.504,5.544-0.648,8.424c-0.288,4.824-1.008,9.576-2.16,14.328
			c-0.936,3.672-2.016,7.344-3.24,11.016c-0.72,2.232-2.016,4.248-3.672,5.904c-2.232,2.088-4.752,3.816-7.56,4.968
			c-4.608,1.872-9.504,3.024-14.544,3.456c-1.008,0.144-1.872,0.288-2.736,0.648c-1.008,0.432-1.944,1.008-2.88,1.584
			c-0.864,0.72-1.44,1.584-1.656,2.664l-0.576,2.88l39.744,8.352c2.304-2.016,3.672-4.896,3.672-7.992c0-0.072,0-0.216,0-0.288
			c-0.072-2.304-0.144-4.68-0.288-7.128c-0.216-2.808,0.432-5.04,1.8-6.912c3.168-4.536,6.048-8.784,8.784-13.104
			c2.88-4.536,5.112-9.864,6.408-15.48c0.792-3.528,1.224-7.2,1.224-10.872c0-2.376,0.36-4.824,1.008-7.2
			c0.504-2.016,1.512-3.888,2.952-5.4l1.656-1.872c4.968,1.152,10.008,1.656,15.048,1.656c0.576,0,1.08,0,1.584,0l2.16-0.072
			c0,0.216,0,0.36,0,0.576c0,4.392,0.864,8.712,2.592,12.816c2.376,5.76,5.112,11.448,8.28,16.776
			c1.8,3.096,3.096,6.696,3.744,10.44c0.432,2.952,0.936,5.76,1.584,8.496c0.144,0.72,0.288,1.512,0.288,2.232
			c0,0.936-0.144,1.8-0.432,2.736c-0.576,2.088-1.8,3.888-3.6,5.04c-2.016,1.368-4.32,2.808-6.624,4.176
			c-2.592,1.44-4.896,3.312-6.912,5.472c-0.864,0.864-1.296,2.016-1.296,3.168v1.584h38.664c0.432-1.512,0.648-3.096,0.648-4.68
			c0-2.448-0.504-4.896-1.44-7.128l-3.096-7.272c-0.72-1.224-1.08-2.592-1.224-4.032l-0.936-11.376l-0.216-5.76l-0.072-4.896
			c0.072-0.576,0.072-1.152,0.072-1.656c0-1.728-0.216-3.456-0.576-5.184c-0.288-1.296-0.576-2.664-0.864-4.032
			c-0.432-2.16-1.152-4.104-2.232-5.904c-2.088-3.528-3.312-7.488-3.528-11.592l-0.144-3.312c7.992-2.016,15.696-5.4,22.68-9.864
			l2.304-1.44l-5.904-9.864l-4.032-8.352l-6.768-16.56l-3.816-11.808l-4.608-18l20.304,12.24c0.576,0.576,0.936,1.224,1.008,1.944
			l1.296,10.08l0.504,5.832l0.288,8.136c0.072,0.504,0.072,1.008,0.072,1.512c0,1.296-0.216,2.592-0.648,3.816
			c-0.72,1.8-1.224,3.816-1.44,5.832c0,0.144,0,0.36,0,0.504c0,0.936,0.288,1.872,0.864,2.664c1.584,2.16,3.744,3.888,6.192,5.04
			c0.288,0.072,0.576,0.144,0.936,0.144c0.288,0,0.72-0.072,1.008-0.288c0.36-0.216,0.792-0.288,1.224-0.216
			c0.36,0.072,0.648,0.072,1.008,0.072c0.072,0,0.144,0,0.216,0c0.576,0,1.224,0.144,1.728,0.36c4.464,1.872,9.288,2.88,14.184,2.88
			h2.232l7.416-15.912c0.432,5.04,0.648,10.008,0.648,14.904c0,6.48-0.36,12.96-1.08,19.44c-0.432,4.032-1.296,7.776-2.664,11.448
			l-1.656,4.32l-2.88,8.64l-4.464,16.056l-2.376,8.424c-1.08,1.728-2.592,3.312-4.32,4.392c-1.224,0.792-2.448,1.368-3.744,1.872
			c-1.368,0.504-2.88,1.008-4.392,1.512l-4.68,1.512c-1.224,0.504-2.016,1.656-2.16,2.952l-0.432,3.384l30.384,5.472l7.992-25.848
			l3.6-10.368l1.512-3.6l6.048-12.456L329.112,325.179z"/>
	</g>
</svg>
