<?xml version="1.0" encoding="UTF-8" standalone="no"?>
<!-- Created with Inkscape (http://www.inkscape.org/) -->
<svg
   xmlns:dc="http://purl.org/dc/elements/1.1/"
   xmlns:cc="http://web.resource.org/cc/"
   xmlns:rdf="http://www.w3.org/1999/02/22-rdf-syntax-ns#"
   xmlns:svg="http://www.w3.org/2000/svg"
   xmlns="http://www.w3.org/2000/svg"
   xmlns:sodipodi="http://sodipodi.sourceforge.net/DTD/sodipodi-0.dtd"
   xmlns:inkscape="http://www.inkscape.org/namespaces/inkscape"
   id="svg2"
   sodipodi:version="0.32"
   inkscape:version="0.44"
   width="312.5155"
   height="274.66559"
   version="1.0"
   inkscape:export-xdpi="43.197857"
   inkscape:export-ydpi="43.197857">
  <metadata
     id="metadata7">
    <rdf:RDF>
      <cc:Work
         rdf:about="">
        <dc:format>image/svg+xml</dc:format>
        <dc:type
           rdf:resource="http://purl.org/dc/dcmitype/StillImage" />
      </cc:Work>
    </rdf:RDF>
  </metadata>
  <defs
     id="defs5" />
  <sodipodi:namedview
     inkscape:window-height="573"
     inkscape:window-width="971"
     inkscape:pageshadow="2"
     inkscape:pageopacity="0.0"
     guidetolerance="10.0"
     gridtolerance="10.0"
     objecttolerance="10.0"
     borderopacity="1.0"
     bordercolor="#666666"
     pagecolor="#ffffff"
     id="base"
     inkscape:zoom="1"
     inkscape:cx="174.28868"
     inkscape:cy="128.84232"
     inkscape:window-x="220"
     inkscape:window-y="220"
     inkscape:current-layer="svg2" />
  <path
     sodipodi:type="star"
     style="fill:white;fill-opacity:1;stroke:#d00;stroke-width:30;stroke-linecap:butt;stroke-linejoin:round;stroke-miterlimit:4;stroke-dasharray:none;stroke-opacity:1"
     id="path1957"
     sodipodi:sides="3"
     sodipodi:cx="176"
     sodipodi:cy="499.36218"
     sodipodi:r1="163.1104"
     sodipodi:r2="81.555199"
     sodipodi:arg1="0.52359878"
     sodipodi:arg2="1.5707963"
     inkscape:flatsided="false"
     inkscape:rounded="0"
     inkscape:randomized="0"
     d="M 317.25775,580.91738 L 176,580.91738 L 34.742252,580.91738 L 105.37113,458.58459 L 176,336.25179 L 246.62887,458.58458 L 317.25775,580.91738 z "
     transform="translate(-19.74225,-321.2518)" />
  <g
     id="g7423"
     transform="translate(-297.7424,-388.2518)">
    <path
       id="path6536"
       d="M 441.26594,506.84045 C 432.82494,506.93693 424.28348,507.03585 415.99875,508.80388 C 413.19844,510.30749 412.33015,513.76922 410.98418,516.43909 C 409.32982,520.3943 407.68928,524.46295 405.05594,527.85988 C 403.82348,532.59787 404.32896,537.59322 404.34892,542.44143 C 404.13084,545.39042 405.6271,547.83798 407.4491,549.96432 C 409.13754,553.46852 407.68157,557.58822 409.11063,561.14076 C 412.02179,562.11725 415.14887,561.35012 418.15531,561.26954 C 418.34231,557.32033 418.54618,553.372 418.76688,549.42454 C 433.15469,549.42454 447.5425,549.42454 461.93031,549.42454 C 461.93031,553.54454 461.93031,557.66454 461.93031,561.78454 C 465.02032,561.78454 468.11033,561.78454 471.20035,561.78454 C 471.37117,557.86169 470.66941,553.7609 472.09101,550.01332 C 473.91531,547.84252 475.49309,545.38441 475.23971,542.37686 C 475.36323,536.49773 475.85905,530.15006 472.64943,524.90713 C 470.21411,520.53829 468.45536,515.84417 466.43668,511.28948 C 464.49606,508.19312 460.34339,508.39177 457.13969,507.86823 C 451.86353,507.32625 446.57606,506.81433 441.26594,506.84045 z M 439.78531,511.82954 C 446.16813,511.92856 452.60072,511.71789 458.93688,512.56982 C 462.45593,513.71165 463.20781,517.90906 464.50882,520.90769 C 465.04611,522.68509 467.13283,526.31901 463.61854,525.1375 C 456.78194,524.40537 449.92126,523.91104 443.04032,524.0014 C 434.04986,524.07735 425.01849,524.03478 416.07993,525.09812 C 411.29072,526.87136 415.15621,520.69674 415.70906,518.65326 C 416.81365,515.77185 418.66239,512.17558 422.27417,512.31914 C 428.09661,511.85978 433.948,511.85985 439.78531,511.82954 z M 414.96875,530.94891 C 418.00903,530.53754 422.41931,531.52916 421.76031,535.51951 C 421.76031,536.72119 421.76031,537.92286 421.76031,539.12454 C 416.91073,539.12454 412.06114,539.12454 407.21156,539.12454 C 407.48706,536.87366 407.37199,534.53968 408.03534,532.36282 C 409.62793,530.52279 412.79452,531.32507 414.96875,530.94891 z M 464.0225,531.01329 C 466.59024,531.04772 469.15116,531.2699 471.71535,531.39954 C 471.71535,533.80287 471.71535,536.2062 471.71535,538.60954 C 467.07959,538.79662 462.44458,539.00049 457.81031,539.2211 C 457.92608,536.61242 457.15297,533.08281 460.0076,531.6948 C 461.26074,531.12347 462.66512,531.03946 464.0225,531.01329 z "
       style="fill:white;fill-opacity:1;stroke:none;stroke-width:30;stroke-linecap:butt;stroke-linejoin:round;stroke-miterlimit:4;stroke-dasharray:none;stroke-opacity:1" />
    <path
       sodipodi:nodetypes="cccccc"
       id="path6524"
       d="M 464.03091,532.15954 C 466.52386,532.19297 469.01019,532.40868 471.49969,532.53454 C 471.49969,534.86787 471.49969,537.2012 471.49969,539.53454 C 466.99896,539.71617 462.49895,539.9141 457.99966,540.12829 C 458.11205,537.59559 457.36146,534.16878 460.13295,532.8212 C 461.34959,532.26651 462.71306,532.18495 464.03091,532.15954 z "
       style="fill:white;fill-opacity:1;stroke:none;stroke-width:30;stroke-linecap:butt;stroke-linejoin:round;stroke-miterlimit:4;stroke-dasharray:none;stroke-opacity:1" />
    <path
       sodipodi:nodetypes="cccccc"
       id="path6526"
       d="M 416.40592,532.09703 C 419.35765,531.69764 423.63947,532.66037 422.99967,536.5345 C 422.99967,537.70118 422.99967,538.86785 422.99967,540.03453 C 418.29134,540.03453 413.583,540.03453 408.87467,540.03453 C 409.14214,537.84921 409.03042,535.58321 409.67445,533.46975 C 411.22066,531.68332 414.29502,532.46223 416.40592,532.09703 z "
       style="fill:white;fill-opacity:1;stroke:none;stroke-width:30;stroke-linecap:butt;stroke-linejoin:round;stroke-miterlimit:4;stroke-dasharray:none;stroke-opacity:1" />
    <path
       id="path6528"
       d="M 441.93717,508.69076 C 433.74203,508.78443 425.44935,508.88047 417.40592,510.59701 C 414.68717,512.05682 413.84417,515.41772 412.5374,518.00983 C 410.93123,521.84984 409.33847,525.79999 406.78183,529.09798 C 405.58527,533.69797 406.07603,538.54782 406.0954,543.25482 C 405.88368,546.11792 407.33636,548.49419 409.10529,550.5586 C 410.74455,553.96073 409.33099,557.96044 410.71842,561.40951 C 413.54479,562.35756 416.58079,561.61277 419.49967,561.53454 C 419.68122,557.70036 419.87915,553.86703 420.09342,550.03454 C 434.06217,550.03454 448.03092,550.03454 461.99967,550.03454 C 461.99967,554.03454 461.99967,558.03454 461.99967,562.03454 C 464.99968,562.03454 467.99969,562.03454 470.9997,562.03454 C 471.16555,558.22595 470.48423,554.2446 471.86442,550.60617 C 473.63559,548.4986 475.16741,546.11208 474.92141,543.19213 C 475.04134,537.48424 475.52271,531.32145 472.40658,526.23123 C 470.04219,521.98964 468.33467,517.43224 466.37478,513.01021 C 464.49069,510.00404 460.45897,510.1969 457.34858,509.68861 C 452.22609,509.16241 447.09263,508.6654 441.93717,508.69076 z M 440.49967,513.53454 C 446.69658,513.63068 452.94181,513.42614 459.09342,514.25326 C 462.50998,515.36183 463.23996,519.43699 464.50307,522.34828 C 465.02471,524.07391 467.05066,527.60199 463.63872,526.45489 C 457.00125,525.74408 450.34039,525.26415 443.65987,525.35188 C 434.93127,525.42562 426.16295,525.38429 417.48473,526.41666 C 412.83502,528.13825 416.58792,522.14347 417.12467,520.15951 C 418.19708,517.36203 419.99198,513.8705 423.49856,514.00988 C 429.15141,513.5639 434.83237,513.56397 440.49967,513.53454 z M 416.40592,532.09704 C 419.35765,531.69765 423.63947,532.66038 422.99967,536.53451 C 422.99967,537.70119 422.99967,538.86786 422.99967,540.03454 C 418.29134,540.03454 413.583,540.03454 408.87467,540.03454 C 409.14214,537.84922 409.03042,535.58322 409.67445,533.46976 C 411.22066,531.68333 414.29502,532.46224 416.40592,532.09704 z M 464.03092,532.15954 C 466.52387,532.19297 469.0102,532.40868 471.4997,532.53454 C 471.4997,534.86787 471.4997,537.2012 471.4997,539.53454 C 466.99897,539.71617 462.49896,539.9141 457.99967,540.12829 C 458.11206,537.59559 457.36147,534.16878 460.13296,532.8212 C 461.3496,532.26651 462.71307,532.18495 464.03092,532.15954 z "
       style="fill:black;fill-opacity:1;stroke:none;stroke-width:30;stroke-linecap:butt;stroke-linejoin:round;stroke-miterlimit:4;stroke-dasharray:none;stroke-opacity:1" />
    <path
       sodipodi:nodetypes="ccccccccc"
       id="path6530"
       d="M 440.49967,513.53453 C 446.69658,513.63067 452.94181,513.42613 459.09342,514.25325 C 462.50998,515.36182 463.23996,519.43698 464.50307,522.34827 C 465.02471,524.0739 467.05066,527.60198 463.63872,526.45488 C 457.00125,525.74407 450.34039,525.26414 443.65987,525.35187 C 434.93127,525.42561 426.16295,525.38428 417.48473,526.41665 C 412.83502,528.13824 416.58792,522.14346 417.12467,520.1595 C 418.19708,517.36202 419.99198,513.87049 423.49856,514.00987 C 429.15141,513.56389 434.83237,513.56396 440.49967,513.53453 z "
       style="fill:white;fill-opacity:1;stroke:none;stroke-width:30;stroke-linecap:butt;stroke-linejoin:round;stroke-miterlimit:4;stroke-dasharray:none;stroke-opacity:1" />
  </g>
  <path
     id="path2867"
     d=""
     style="fill:#606060;fill-opacity:1" />
  <path
     id="path2865"
     d=""
     style="fill:#494949;fill-opacity:1" />
  <path
     id="path2863"
     d=""
     style="fill:#333;fill-opacity:1" />
  <path
     style="fill:black"
     d=""
     id="path2855" />
  <g
     id="g7430"
     transform="translate(-268.3852,-354.6642)">
    <path
       id="path7432"
       d="M 441.26594,506.84045 C 432.82494,506.93693 424.28348,507.03585 415.99875,508.80388 C 413.19844,510.30749 412.33015,513.76922 410.98418,516.43909 C 409.32982,520.3943 407.68928,524.46295 405.05594,527.85988 C 403.82348,532.59787 404.32896,537.59322 404.34892,542.44143 C 404.13084,545.39042 405.6271,547.83798 407.4491,549.96432 C 409.13754,553.46852 407.68157,557.58822 409.11063,561.14076 C 412.02179,562.11725 415.14887,561.35012 418.15531,561.26954 C 418.34231,557.32033 418.54618,553.372 418.76688,549.42454 C 433.15469,549.42454 447.5425,549.42454 461.93031,549.42454 C 461.93031,553.54454 461.93031,557.66454 461.93031,561.78454 C 465.02032,561.78454 468.11033,561.78454 471.20035,561.78454 C 471.37117,557.86169 470.66941,553.7609 472.09101,550.01332 C 473.91531,547.84252 475.49309,545.38441 475.23971,542.37686 C 475.36323,536.49773 475.85905,530.15006 472.64943,524.90713 C 470.21411,520.53829 468.45536,515.84417 466.43668,511.28948 C 464.49606,508.19312 460.34339,508.39177 457.13969,507.86823 C 451.86353,507.32625 446.57606,506.81433 441.26594,506.84045 z M 439.78531,511.82954 C 446.16813,511.92856 452.60072,511.71789 458.93688,512.56982 C 462.45593,513.71165 463.20781,517.90906 464.50882,520.90769 C 465.04611,522.68509 467.13283,526.31901 463.61854,525.1375 C 456.78194,524.40537 449.92126,523.91104 443.04032,524.0014 C 434.04986,524.07735 425.01849,524.03478 416.07993,525.09812 C 411.29072,526.87136 415.15621,520.69674 415.70906,518.65326 C 416.81365,515.77185 418.66239,512.17558 422.27417,512.31914 C 428.09661,511.85978 433.948,511.85985 439.78531,511.82954 z M 414.96875,530.94891 C 418.00903,530.53754 422.41931,531.52916 421.76031,535.51951 C 421.76031,536.72119 421.76031,537.92286 421.76031,539.12454 C 416.91073,539.12454 412.06114,539.12454 407.21156,539.12454 C 407.48706,536.87366 407.37199,534.53968 408.03534,532.36282 C 409.62793,530.52279 412.79452,531.32507 414.96875,530.94891 z M 464.0225,531.01329 C 466.59024,531.04772 469.15116,531.2699 471.71535,531.39954 C 471.71535,533.80287 471.71535,536.2062 471.71535,538.60954 C 467.07959,538.79662 462.44458,539.00049 457.81031,539.2211 C 457.92608,536.61242 457.15297,533.08281 460.0076,531.6948 C 461.26074,531.12347 462.66512,531.03946 464.0225,531.01329 z "
       style="fill:white;fill-opacity:1;stroke:none;stroke-width:30;stroke-linecap:butt;stroke-linejoin:round;stroke-miterlimit:4;stroke-dasharray:none;stroke-opacity:1" />
    <path
       sodipodi:nodetypes="cccccc"
       id="path7434"
       d="M 464.03091,532.15954 C 466.52386,532.19297 469.01019,532.40868 471.49969,532.53454 C 471.49969,534.86787 471.49969,537.2012 471.49969,539.53454 C 466.99896,539.71617 462.49895,539.9141 457.99966,540.12829 C 458.11205,537.59559 457.36146,534.16878 460.13295,532.8212 C 461.34959,532.26651 462.71306,532.18495 464.03091,532.15954 z "
       style="fill:white;fill-opacity:1;stroke:none;stroke-width:30;stroke-linecap:butt;stroke-linejoin:round;stroke-miterlimit:4;stroke-dasharray:none;stroke-opacity:1" />
    <path
       sodipodi:nodetypes="cccccc"
       id="path7436"
       d="M 416.40592,532.09703 C 419.35765,531.69764 423.63947,532.66037 422.99967,536.5345 C 422.99967,537.70118 422.99967,538.86785 422.99967,540.03453 C 418.29134,540.03453 413.583,540.03453 408.87467,540.03453 C 409.14214,537.84921 409.03042,535.58321 409.67445,533.46975 C 411.22066,531.68332 414.29502,532.46223 416.40592,532.09703 z "
       style="fill:white;fill-opacity:1;stroke:none;stroke-width:30;stroke-linecap:butt;stroke-linejoin:round;stroke-miterlimit:4;stroke-dasharray:none;stroke-opacity:1" />
    <path
       id="path7438"
       d="M 441.93717,508.69076 C 433.74203,508.78443 425.44935,508.88047 417.40592,510.59701 C 414.68717,512.05682 413.84417,515.41772 412.5374,518.00983 C 410.93123,521.84984 409.33847,525.79999 406.78183,529.09798 C 405.58527,533.69797 406.07603,538.54782 406.0954,543.25482 C 405.88368,546.11792 407.33636,548.49419 409.10529,550.5586 C 410.74455,553.96073 409.33099,557.96044 410.71842,561.40951 C 413.54479,562.35756 416.58079,561.61277 419.49967,561.53454 C 419.68122,557.70036 419.87915,553.86703 420.09342,550.03454 C 434.06217,550.03454 448.03092,550.03454 461.99967,550.03454 C 461.99967,554.03454 461.99967,558.03454 461.99967,562.03454 C 464.99968,562.03454 467.99969,562.03454 470.9997,562.03454 C 471.16555,558.22595 470.48423,554.2446 471.86442,550.60617 C 473.63559,548.4986 475.16741,546.11208 474.92141,543.19213 C 475.04134,537.48424 475.52271,531.32145 472.40658,526.23123 C 470.04219,521.98964 468.33467,517.43224 466.37478,513.01021 C 464.49069,510.00404 460.45897,510.1969 457.34858,509.68861 C 452.22609,509.16241 447.09263,508.6654 441.93717,508.69076 z M 440.49967,513.53454 C 446.69658,513.63068 452.94181,513.42614 459.09342,514.25326 C 462.50998,515.36183 463.23996,519.43699 464.50307,522.34828 C 465.02471,524.07391 467.05066,527.60199 463.63872,526.45489 C 457.00125,525.74408 450.34039,525.26415 443.65987,525.35188 C 434.93127,525.42562 426.16295,525.38429 417.48473,526.41666 C 412.83502,528.13825 416.58792,522.14347 417.12467,520.15951 C 418.19708,517.36203 419.99198,513.8705 423.49856,514.00988 C 429.15141,513.5639 434.83237,513.56397 440.49967,513.53454 z M 416.40592,532.09704 C 419.35765,531.69765 423.63947,532.66038 422.99967,536.53451 C 422.99967,537.70119 422.99967,538.86786 422.99967,540.03454 C 418.29134,540.03454 413.583,540.03454 408.87467,540.03454 C 409.14214,537.84922 409.03042,535.58322 409.67445,533.46976 C 411.22066,531.68333 414.29502,532.46224 416.40592,532.09704 z M 464.03092,532.15954 C 466.52387,532.19297 469.0102,532.40868 471.4997,532.53454 C 471.4997,534.86787 471.4997,537.2012 471.4997,539.53454 C 466.99897,539.71617 462.49896,539.9141 457.99967,540.12829 C 458.11206,537.59559 457.36147,534.16878 460.13296,532.8212 C 461.3496,532.26651 462.71307,532.18495 464.03092,532.15954 z "
       style="fill:black;fill-opacity:1;stroke:none;stroke-width:30;stroke-linecap:butt;stroke-linejoin:round;stroke-miterlimit:4;stroke-dasharray:none;stroke-opacity:1" />
    <path
       sodipodi:nodetypes="ccccccccc"
       id="path7440"
       d="M 440.49967,513.53453 C 446.69658,513.63067 452.94181,513.42613 459.09342,514.25325 C 462.50998,515.36182 463.23996,519.43698 464.50307,522.34827 C 465.02471,524.0739 467.05066,527.60198 463.63872,526.45488 C 457.00125,525.74407 450.34039,525.26414 443.65987,525.35187 C 434.93127,525.42561 426.16295,525.38428 417.48473,526.41665 C 412.83502,528.13824 416.58792,522.14346 417.12467,520.1595 C 418.19708,517.36202 419.99198,513.87049 423.49856,514.00987 C 429.15141,513.56389 434.83237,513.56396 440.49967,513.53453 z "
       style="fill:white;fill-opacity:1;stroke:none;stroke-width:30;stroke-linecap:butt;stroke-linejoin:round;stroke-miterlimit:4;stroke-dasharray:none;stroke-opacity:1" />
  </g>
  <g
     id="g7442"
     transform="translate(-239.0279,-321.0766)">
    <path
       id="path7444"
       d="M 441.26594,506.84045 C 432.82494,506.93693 424.28348,507.03585 415.99875,508.80388 C 413.19844,510.30749 412.33015,513.76922 410.98418,516.43909 C 409.32982,520.3943 407.68928,524.46295 405.05594,527.85988 C 403.82348,532.59787 404.32896,537.59322 404.34892,542.44143 C 404.13084,545.39042 405.6271,547.83798 407.4491,549.96432 C 409.13754,553.46852 407.68157,557.58822 409.11063,561.14076 C 412.02179,562.11725 415.14887,561.35012 418.15531,561.26954 C 418.34231,557.32033 418.54618,553.372 418.76688,549.42454 C 433.15469,549.42454 447.5425,549.42454 461.93031,549.42454 C 461.93031,553.54454 461.93031,557.66454 461.93031,561.78454 C 465.02032,561.78454 468.11033,561.78454 471.20035,561.78454 C 471.37117,557.86169 470.66941,553.7609 472.09101,550.01332 C 473.91531,547.84252 475.49309,545.38441 475.23971,542.37686 C 475.36323,536.49773 475.85905,530.15006 472.64943,524.90713 C 470.21411,520.53829 468.45536,515.84417 466.43668,511.28948 C 464.49606,508.19312 460.34339,508.39177 457.13969,507.86823 C 451.86353,507.32625 446.57606,506.81433 441.26594,506.84045 z M 439.78531,511.82954 C 446.16813,511.92856 452.60072,511.71789 458.93688,512.56982 C 462.45593,513.71165 463.20781,517.90906 464.50882,520.90769 C 465.04611,522.68509 467.13283,526.31901 463.61854,525.1375 C 456.78194,524.40537 449.92126,523.91104 443.04032,524.0014 C 434.04986,524.07735 425.01849,524.03478 416.07993,525.09812 C 411.29072,526.87136 415.15621,520.69674 415.70906,518.65326 C 416.81365,515.77185 418.66239,512.17558 422.27417,512.31914 C 428.09661,511.85978 433.948,511.85985 439.78531,511.82954 z M 414.96875,530.94891 C 418.00903,530.53754 422.41931,531.52916 421.76031,535.51951 C 421.76031,536.72119 421.76031,537.92286 421.76031,539.12454 C 416.91073,539.12454 412.06114,539.12454 407.21156,539.12454 C 407.48706,536.87366 407.37199,534.53968 408.03534,532.36282 C 409.62793,530.52279 412.79452,531.32507 414.96875,530.94891 z M 464.0225,531.01329 C 466.59024,531.04772 469.15116,531.2699 471.71535,531.39954 C 471.71535,533.80287 471.71535,536.2062 471.71535,538.60954 C 467.07959,538.79662 462.44458,539.00049 457.81031,539.2211 C 457.92608,536.61242 457.15297,533.08281 460.0076,531.6948 C 461.26074,531.12347 462.66512,531.03946 464.0225,531.01329 z "
       style="fill:white;fill-opacity:1;stroke:none;stroke-width:30;stroke-linecap:butt;stroke-linejoin:round;stroke-miterlimit:4;stroke-dasharray:none;stroke-opacity:1" />
    <path
       sodipodi:nodetypes="cccccc"
       id="path7446"
       d="M 464.03091,532.15954 C 466.52386,532.19297 469.01019,532.40868 471.49969,532.53454 C 471.49969,534.86787 471.49969,537.2012 471.49969,539.53454 C 466.99896,539.71617 462.49895,539.9141 457.99966,540.12829 C 458.11205,537.59559 457.36146,534.16878 460.13295,532.8212 C 461.34959,532.26651 462.71306,532.18495 464.03091,532.15954 z "
       style="fill:white;fill-opacity:1;stroke:none;stroke-width:30;stroke-linecap:butt;stroke-linejoin:round;stroke-miterlimit:4;stroke-dasharray:none;stroke-opacity:1" />
    <path
       sodipodi:nodetypes="cccccc"
       id="path7448"
       d="M 416.40592,532.09703 C 419.35765,531.69764 423.63947,532.66037 422.99967,536.5345 C 422.99967,537.70118 422.99967,538.86785 422.99967,540.03453 C 418.29134,540.03453 413.583,540.03453 408.87467,540.03453 C 409.14214,537.84921 409.03042,535.58321 409.67445,533.46975 C 411.22066,531.68332 414.29502,532.46223 416.40592,532.09703 z "
       style="fill:white;fill-opacity:1;stroke:none;stroke-width:30;stroke-linecap:butt;stroke-linejoin:round;stroke-miterlimit:4;stroke-dasharray:none;stroke-opacity:1" />
    <path
       id="path7450"
       d="M 441.93717,508.69076 C 433.74203,508.78443 425.44935,508.88047 417.40592,510.59701 C 414.68717,512.05682 413.84417,515.41772 412.5374,518.00983 C 410.93123,521.84984 409.33847,525.79999 406.78183,529.09798 C 405.58527,533.69797 406.07603,538.54782 406.0954,543.25482 C 405.88368,546.11792 407.33636,548.49419 409.10529,550.5586 C 410.74455,553.96073 409.33099,557.96044 410.71842,561.40951 C 413.54479,562.35756 416.58079,561.61277 419.49967,561.53454 C 419.68122,557.70036 419.87915,553.86703 420.09342,550.03454 C 434.06217,550.03454 448.03092,550.03454 461.99967,550.03454 C 461.99967,554.03454 461.99967,558.03454 461.99967,562.03454 C 464.99968,562.03454 467.99969,562.03454 470.9997,562.03454 C 471.16555,558.22595 470.48423,554.2446 471.86442,550.60617 C 473.63559,548.4986 475.16741,546.11208 474.92141,543.19213 C 475.04134,537.48424 475.52271,531.32145 472.40658,526.23123 C 470.04219,521.98964 468.33467,517.43224 466.37478,513.01021 C 464.49069,510.00404 460.45897,510.1969 457.34858,509.68861 C 452.22609,509.16241 447.09263,508.6654 441.93717,508.69076 z M 440.49967,513.53454 C 446.69658,513.63068 452.94181,513.42614 459.09342,514.25326 C 462.50998,515.36183 463.23996,519.43699 464.50307,522.34828 C 465.02471,524.07391 467.05066,527.60199 463.63872,526.45489 C 457.00125,525.74408 450.34039,525.26415 443.65987,525.35188 C 434.93127,525.42562 426.16295,525.38429 417.48473,526.41666 C 412.83502,528.13825 416.58792,522.14347 417.12467,520.15951 C 418.19708,517.36203 419.99198,513.8705 423.49856,514.00988 C 429.15141,513.5639 434.83237,513.56397 440.49967,513.53454 z M 416.40592,532.09704 C 419.35765,531.69765 423.63947,532.66038 422.99967,536.53451 C 422.99967,537.70119 422.99967,538.86786 422.99967,540.03454 C 418.29134,540.03454 413.583,540.03454 408.87467,540.03454 C 409.14214,537.84922 409.03042,535.58322 409.67445,533.46976 C 411.22066,531.68333 414.29502,532.46224 416.40592,532.09704 z M 464.03092,532.15954 C 466.52387,532.19297 469.0102,532.40868 471.4997,532.53454 C 471.4997,534.86787 471.4997,537.2012 471.4997,539.53454 C 466.99897,539.71617 462.49896,539.9141 457.99967,540.12829 C 458.11206,537.59559 457.36147,534.16878 460.13296,532.8212 C 461.3496,532.26651 462.71307,532.18495 464.03092,532.15954 z "
       style="fill:black;fill-opacity:1;stroke:none;stroke-width:30;stroke-linecap:butt;stroke-linejoin:round;stroke-miterlimit:4;stroke-dasharray:none;stroke-opacity:1" />
    <path
       sodipodi:nodetypes="ccccccccc"
       id="path7452"
       d="M 440.49967,513.53453 C 446.69658,513.63067 452.94181,513.42613 459.09342,514.25325 C 462.50998,515.36182 463.23996,519.43698 464.50307,522.34827 C 465.02471,524.0739 467.05066,527.60198 463.63872,526.45488 C 457.00125,525.74407 450.34039,525.26414 443.65987,525.35187 C 434.93127,525.42561 426.16295,525.38428 417.48473,526.41665 C 412.83502,528.13824 416.58792,522.14346 417.12467,520.1595 C 418.19708,517.36202 419.99198,513.87049 423.49856,514.00987 C 429.15141,513.56389 434.83237,513.56396 440.49967,513.53453 z "
       style="fill:white;fill-opacity:1;stroke:none;stroke-width:30;stroke-linecap:butt;stroke-linejoin:round;stroke-miterlimit:4;stroke-dasharray:none;stroke-opacity:1" />
  </g>
</svg>
