<?xml version="1.0" encoding="utf-8"?>
<!-- Generator: Adobe Illustrator 11.0, SVG Export Plug-In  -->
<!DOCTYPE svg PUBLIC "-//W3C//DTD SVG 1.0//EN"    "http://www.w3.org/TR/2001/REC-SVG-20010904/DTD/svg10.dtd" [
	<!ENTITY ns_flows "http://ns.adobe.com/Flows/1.0/">
	<!ENTITY ns_svg "http://www.w3.org/2000/svg">
	<!ENTITY ns_xlink "http://www.w3.org/1999/xlink">
]>
<svg  xmlns="&ns_svg;" xmlns:xlink="&ns_xlink;" xmlns:a="http://ns.adobe.com/AdobeSVGViewerExtensions/3.0/"
	 width="512" height="454" viewBox="-0.808 -0.455 512 454" xml:space="preserve">
	<defs>
	</defs>
	<g>
		<path fill="#ED171F" d="M5.472,391.401L219.6,20.601c15.912-27.504,55.512-27.432,71.352,0l214.056,370.8
			c3.672,6.264,5.544,13.392,5.544,20.592c0,22.752-18.36,41.184-41.184,41.256H41.184C18.432,453.249,0,434.745,0,411.993
			C0,404.721,1.872,397.665,5.472,391.401z"/>
		<polygon fill="#FEB82F" points="52.128,405.729 458.28,405.729 255.168,53.937 "/>
		<path d="M227.808,208.521l-26.064,20.952l-0.36,0.216c-1.368,1.152-2.232,2.808-2.232,4.608c0,3.24,2.664,5.832,5.904,5.832
			c1.224,0,2.376-0.36,3.384-1.08l6.12-4.32l1.872,1.656l20.016-14.976l4.536-7.632l1.872,27.504l-61.128,97.416l-11.664-2.52
			l-5.688,5.184l27.792,15.12l64.152-84.024l21.456,39.24l35.712,32.616l-1.08,4.392l-6.624,1.584l-2.52,5.472h16.92l14.544-22.032
			l-25.2-25.56l-11.952-15.912l-18.288-38.664c1.008-2.664,1.512-5.544,1.512-8.424c0-4.896-1.44-9.72-4.176-13.752
			c-0.648-1.296-0.936-2.808-0.864-4.248l-0.648-27.072l10.152,15.264l5.04,32.472c0.432,2.88,2.88,4.968,5.832,4.968
			c3.168,0,5.832-2.664,5.832-5.904c0-0.144,0-0.288,0-0.432l-0.576-7.056l1.656-0.36l-3.6-33.552l-14.328-25.992
			c-0.792-1.584-1.944-3.024-3.24-4.248c-1.656-1.368-3.456-2.448-5.472-3.24c-3.096-1.368-6.264-2.88-9.36-4.464
			c-1.8-0.72-3.24-2.016-3.96-3.744c-0.792-2.304-1.08-4.752-0.936-7.2c0.504-2.736,1.224-5.472,2.088-8.136
			c0.432-1.872,0.648-3.816,0.648-5.76c0-1.656-0.144-3.312-0.432-4.896c-0.936-4.32-4.104-7.848-8.352-9.072
			c-2.088-0.864-4.32-1.368-6.552-1.368c-3.456,0-6.768,1.08-9.576,3.096c-2.664,2.376-4.248,5.832-4.248,9.36
			c0,1.08,0.144,2.088,0.36,3.096c0.216,0.864,0.288,1.656,0.288,2.448c0,0.504,0,0.936-0.072,1.368
			c-0.36,1.224-0.504,2.52-0.504,3.816c0,3.816,1.44,7.488,4.032,10.296c1.152,0.72,2.592,1.08,4.032,1.08h0.072
			c1.584-0.144,3.024,0.864,3.528,2.376c0,0.216,0,0.36,0,0.576c0,0.72-0.216,1.44-0.72,2.016c-2.664,2.304-5.4,4.608-8.136,6.696
			c-1.872,1.44-3.384,2.808-4.68,4.392c-1.08,1.728-1.728,3.6-2.016,5.544L227.808,208.521z"/>
		<polygon points="98.496,379.089 139.464,379.089 155.736,340.641 120.672,340.641 "/>
		<polygon points="190.152,379.089 231.12,379.089 233.784,340.641 209.016,340.641 195.264,358.569 "/>
		<polygon points="319.68,379.089 278.712,379.089 276.048,340.641 303.768,340.641 309.168,345.609 303.12,347.049 
			297.288,359.649 314.784,359.649 "/>
		<polygon points="409.464,379.089 368.496,379.089 352.224,340.641 387.288,340.641 "/>
	</g>
</svg>
