<?xml version="1.0" encoding="UTF-8" standalone="no"?>
<!-- Created with Inkscape (http://www.inkscape.org/) -->
<svg
   xmlns:dc="http://purl.org/dc/elements/1.1/"
   xmlns:cc="http://web.resource.org/cc/"
   xmlns:rdf="http://www.w3.org/1999/02/22-rdf-syntax-ns#"
   xmlns:svg="http://www.w3.org/2000/svg"
   xmlns="http://www.w3.org/2000/svg"
   xmlns:sodipodi="http://sodipodi.sourceforge.net/DTD/sodipodi-0.dtd"
   xmlns:inkscape="http://www.inkscape.org/namespaces/inkscape"
   width="150.2587"
   height="150.2587"
   id="svg14350"
   sodipodi:version="0.32"
   inkscape:version="0.45.1"
   version="1.0"
   sodipodi:docbase="F:\Inkscape drawings"
   sodipodi:docname="TS_3.svg"
   inkscape:output_extension="org.inkscape.output.svg.inkscape">
  <defs
     id="defs3" />
  <sodipodi:namedview
     inkscape:document-units="mm"
     id="base"
     pagecolor="#ffffff"
     bordercolor="#666666"
     borderopacity="1.0"
     inkscape:pageopacity="0.0"
     inkscape:pageshadow="2"
     inkscape:zoom="0.35"
     inkscape:cx="350"
     inkscape:cy="520"
     inkscape:current-layer="layer1"
     inkscape:window-width="1280"
     inkscape:window-height="968"
     inkscape:window-x="-4"
     inkscape:window-y="-4" />
  <metadata
     id="metadata4">
    <rdf:RDF>
      <cc:Work
         rdf:about="">
        <dc:format>image/svg+xml</dc:format>
        <dc:type
           rdf:resource="http://purl.org/dc/dcmitype/StillImage" />
      </cc:Work>
    </rdf:RDF>
  </metadata>
  <g
     inkscape:label="Layer 1"
     inkscape:groupmode="layer"
     id="layer1"
     transform="translate(-274.87065,-457.23284)">
    <g
       id="g9093"
       transform="translate(-63.038598,293.80858)">
      <rect
         transform="matrix(0.7071068,0.7071068,-0.7071068,0.7071068,0,0)"
         ry="5.2659869"
         y="-176.71758"
         x="407.4072"
         height="106.67611"
         width="106.67611"
         id="rect3047"
         style="fill:#ffff00;fill-opacity:1;stroke:#000000;stroke-width:3.74880409;stroke-miterlimit:4;stroke-dasharray:none;stroke-opacity:1" />
      <g
         transform="matrix(0.6222906,0,0,0.6222906,79.294471,-126.21482)"
         id="g3124">
        <path
           sodipodi:nodetypes="csscccssssssscccscccccsccccccsssssscccssssccsssssssccsscccsssssccssccscccscccccsssc"
           id="path3126"
           d="M 491.44308,625.01177 C 484.05261,622.58821 477.57939,616.83493 474.82445,610.24145 C 471.31874,601.85109 474.53717,588.35644 481.42653,582.55942 C 487.3934,577.53864 490.41465,576.47796 498.66907,576.50605 L 506.3886,576.53232 L 509.41907,568.15719 C 511.08584,563.55087 512.44955,559.37676 512.44955,558.88138 C 512.44955,556.7988 510.01789,552.88437 508.40646,552.37293 C 506.66578,551.82045 505.25715,546.58905 506.18872,544.1366 C 506.53033,543.23725 509.86831,542.8866 518.08792,542.8866 C 527.84669,542.8866 529.60594,543.13058 530.15448,544.56004 C 530.84747,546.36595 525.19578,551.8866 522.65399,551.8866 C 521.89988,551.8866 521.46973,552.4491 521.6981,553.1366 C 521.99528,554.03126 525.80083,554.46553 535.08508,554.66426 L 548.05685,554.94192 L 552.24641,551.07414 C 554.55067,548.94686 556.13903,546.90941 555.77609,546.54648 C 555.41316,546.18354 552.94122,545.8866 550.28288,545.8866 L 545.44955,545.8866 L 545.44955,542.3866 L 545.44955,538.8866 L 554.87812,538.8866 C 562.11622,538.8866 564.67177,539.25168 565.87812,540.45803 C 568.26768,542.84759 567.76698,547.113 564.53138,551.93069 L 561.61321,556.27574 L 564.12951,562.83117 C 565.51348,566.43666 567.29796,571.23749 568.09503,573.49969 L 569.54426,577.61278 L 576.50019,577.11509 C 584.94782,576.51067 590.5703,578.35946 595.8355,583.47296 C 600.687,588.18467 602.57073,592.12067 603.17028,598.79875 C 603.8624,606.5079 602.18236,611.7725 597.23735,617.39034 C 591.90076,623.45302 586.73041,625.84268 578.94955,625.84268 C 571.23558,625.84268 566.00305,623.45837 560.83686,617.58927 C 552.73252,608.38225 552.34303,595.27038 559.88033,585.38846 C 561.79166,582.88258 562.13301,581.57394 561.58026,578.87134 L 560.88865,575.4897 L 552.1691,586.09126 C 546.26129,593.2742 543.44955,597.51505 543.44955,599.24265 C 543.44955,608.00182 533.61235,613.1403 527.85864,607.3866 C 524.31913,603.84709 522.96472,604.24911 520.98762,609.42609 C 517.40123,618.8169 509.43715,624.81358 499.69994,625.45495 C 496.53723,625.66328 492.82164,625.46385 491.44308,625.01177 z M 507.87847,614.50862 C 510.91862,612.18978 514.44955,607.3148 514.44955,605.43626 C 514.44955,605.13395 510.71056,604.8866 506.14068,604.8866 C 500.5286,604.8866 497.20178,604.42452 495.89068,603.46291 C 494.00025,602.07641 494.0475,601.8409 497.69955,594.44637 C 502.44208,584.84387 502.45578,583.8866 497.85068,583.8866 C 487.20026,583.8866 478.71265,594.72252 481.43731,604.84113 C 482.73387,609.6562 486.7921,614.67149 490.89997,616.53542 C 495.68059,618.7046 503.6198,617.75686 507.87847,614.50862 z M 588.03111,615.83619 C 596.02321,610.89681 598.39058,599.92919 593.1681,592.03749 C 590.136,587.45567 586.51913,585.21563 580.80452,584.38032 C 574.08895,583.39871 573.85145,584.6742 579.13866,593.32697 L 583.89358,601.10863 L 581.56078,602.99761 C 580.27774,604.03656 578.64941,604.8866 577.94227,604.8866 C 577.23513,604.8866 574.55302,601.5116 571.98202,597.3866 C 569.41102,593.2616 566.98646,589.8866 566.59412,589.8866 C 565.47438,589.8866 562.75124,595.05567 561.98632,598.63314 C 560.66683,604.80429 564.89944,613.38044 570.66773,616.22352 C 575.40202,618.55695 583.93688,618.36657 588.03111,615.83619 z M 513.35205,593.6366 C 510.88602,588.88557 510.25729,588.63177 508.30154,591.59786 C 505.72651,595.50314 505.92171,595.8866 510.48473,595.8866 C 514.34874,595.8866 514.47037,595.79115 513.35205,593.6366 z M 526.01528,594.57589 C 526.44186,593.46427 524.81128,588.70473 518.24212,571.8866 C 517.3296,569.55039 517.14579,569.76952 515.4365,575.23132 L 513.60737,581.07605 L 517.08309,585.62949 C 518.99474,588.13389 520.81548,591.46627 521.12918,593.03477 C 521.73172,596.04744 525.04909,597.09377 526.01528,594.57589 z M 547.94755,579.88888 C 556.88717,569.72201 557.54851,568.68323 556.70147,566.13888 L 555.78521,563.3866 L 540.50015,563.10992 C 526.19832,562.85104 525.26028,562.94753 525.91745,564.60992 C 526.30374,565.58709 528.38567,571.3366 530.54395,577.3866 C 532.70224,583.4366 534.67481,588.9491 534.92744,589.6366 C 535.9587,592.44296 538.73937,590.36116 547.94755,579.88888 z "
           style="fill:#120b02" />
      </g>
    </g>
  </g>
</svg>
