<?xml version="1.0" encoding="UTF-8" standalone="no"?>
<!-- Created with Inkscape (http://www.inkscape.org/) -->
<svg
   xmlns:dc="http://purl.org/dc/elements/1.1/"
   xmlns:cc="http://creativecommons.org/ns#"
   xmlns:rdf="http://www.w3.org/1999/02/22-rdf-syntax-ns#"
   xmlns:svg="http://www.w3.org/2000/svg"
   xmlns="http://www.w3.org/2000/svg"
   xmlns:sodipodi="http://sodipodi.sourceforge.net/DTD/sodipodi-0.dtd"
   xmlns:inkscape="http://www.inkscape.org/namespaces/inkscape"
   id="svg18076"
   sodipodi:version="0.32"
   inkscape:version="0.46+pre4"
   width="210mm"
   height="297mm"
   sodipodi:docname="bicycle trail black.svg"
   inkscape:output_extension="org.inkscape.output.svg.inkscape">
  <metadata
     id="metadata18081">
    <rdf:RDF>
      <cc:Work
         rdf:about="">
        <dc:format>image/svg+xml</dc:format>
        <dc:type
           rdf:resource="http://purl.org/dc/dcmitype/StillImage" />
        <dc:rights>
          <cc:Agent>
            <dc:title>Public Domain</dc:title>
          </cc:Agent>
        </dc:rights>
        <dc:publisher>
          <cc:Agent>
            <dc:title>clker.com</dc:title>
          </cc:Agent>
        </dc:publisher>
        <dc:creator>
          <cc:Agent>
            <dc:title>Mohamed Ibrahim</dc:title>
          </cc:Agent>
        </dc:creator>
        <cc:license
           rdf:resource="http://creativecommons.org/licenses/publicdomain/" />
        <dc:title>map symbols</dc:title>
        <dc:subject>
          <rdf:Bag>
            <rdf:li>map symbols</rdf:li>
          </rdf:Bag>
        </dc:subject>
      </cc:Work>
      <cc:License
         rdf:about="http://creativecommons.org/licenses/publicdomain/">
        <cc:permits
           rdf:resource="http://creativecommons.org/ns#Reproduction" />
        <cc:permits
           rdf:resource="http://creativecommons.org/ns#Distribution" />
        <cc:permits
           rdf:resource="http://creativecommons.org/ns#DerivativeWorks" />
      </cc:License>
    </rdf:RDF>
  </metadata>
  <defs
     id="defs18079">
    <inkscape:perspective
       sodipodi:type="inkscape:persp3d"
       inkscape:vp_x="0 : 526.18109 : 1"
       inkscape:vp_y="0 : 1000 : 0"
       inkscape:vp_z="744.09448 : 526.18109 : 1"
       inkscape:persp3d-origin="372.04724 : 350.78739 : 1"
       id="perspective18083" />
    <inkscape:perspective
       id="perspective18071"
       inkscape:persp3d-origin="372.04724 : 350.78739 : 1"
       inkscape:vp_z="744.09448 : 526.18109 : 1"
       inkscape:vp_y="0 : 1000 : 0"
       inkscape:vp_x="0 : 526.18109 : 1"
       sodipodi:type="inkscape:persp3d" />
    <inkscape:perspective
       id="perspective21220"
       inkscape:persp3d-origin="372.04724 : 350.78739 : 1"
       inkscape:vp_z="744.09448 : 526.18109 : 1"
       inkscape:vp_y="0 : 1000 : 0"
       inkscape:vp_x="0 : 526.18109 : 1"
       sodipodi:type="inkscape:persp3d" />
    <inkscape:perspective
       id="perspective21262"
       inkscape:persp3d-origin="372.04724 : 350.78739 : 1"
       inkscape:vp_z="744.09448 : 526.18109 : 1"
       inkscape:vp_y="0 : 1000 : 0"
       inkscape:vp_x="0 : 526.18109 : 1"
       sodipodi:type="inkscape:persp3d" />
    <inkscape:perspective
       id="perspective21289"
       inkscape:persp3d-origin="372.04724 : 350.78739 : 1"
       inkscape:vp_z="744.09448 : 526.18109 : 1"
       inkscape:vp_y="0 : 1000 : 0"
       inkscape:vp_x="0 : 526.18109 : 1"
       sodipodi:type="inkscape:persp3d" />
    <inkscape:perspective
       id="perspective21316"
       inkscape:persp3d-origin="372.04724 : 350.78739 : 1"
       inkscape:vp_z="744.09448 : 526.18109 : 1"
       inkscape:vp_y="0 : 1000 : 0"
       inkscape:vp_x="0 : 526.18109 : 1"
       sodipodi:type="inkscape:persp3d" />
    <inkscape:perspective
       id="perspective21355"
       inkscape:persp3d-origin="372.04724 : 350.78739 : 1"
       inkscape:vp_z="744.09448 : 526.18109 : 1"
       inkscape:vp_y="0 : 1000 : 0"
       inkscape:vp_x="0 : 526.18109 : 1"
       sodipodi:type="inkscape:persp3d" />
    <inkscape:perspective
       id="perspective21394"
       inkscape:persp3d-origin="372.04724 : 350.78739 : 1"
       inkscape:vp_z="744.09448 : 526.18109 : 1"
       inkscape:vp_y="0 : 1000 : 0"
       inkscape:vp_x="0 : 526.18109 : 1"
       sodipodi:type="inkscape:persp3d" />
    <inkscape:perspective
       id="perspective21430"
       inkscape:persp3d-origin="372.04724 : 350.78739 : 1"
       inkscape:vp_z="744.09448 : 526.18109 : 1"
       inkscape:vp_y="0 : 1000 : 0"
       inkscape:vp_x="0 : 526.18109 : 1"
       sodipodi:type="inkscape:persp3d" />
    <inkscape:perspective
       id="perspective21466"
       inkscape:persp3d-origin="372.04724 : 350.78739 : 1"
       inkscape:vp_z="744.09448 : 526.18109 : 1"
       inkscape:vp_y="0 : 1000 : 0"
       inkscape:vp_x="0 : 526.18109 : 1"
       sodipodi:type="inkscape:persp3d" />
    <inkscape:perspective
       id="perspective21499"
       inkscape:persp3d-origin="372.04724 : 350.78739 : 1"
       inkscape:vp_z="744.09448 : 526.18109 : 1"
       inkscape:vp_y="0 : 1000 : 0"
       inkscape:vp_x="0 : 526.18109 : 1"
       sodipodi:type="inkscape:persp3d" />
    <inkscape:perspective
       id="perspective21532"
       inkscape:persp3d-origin="372.04724 : 350.78739 : 1"
       inkscape:vp_z="744.09448 : 526.18109 : 1"
       inkscape:vp_y="0 : 1000 : 0"
       inkscape:vp_x="0 : 526.18109 : 1"
       sodipodi:type="inkscape:persp3d" />
    <inkscape:perspective
       id="perspective21568"
       inkscape:persp3d-origin="372.04724 : 350.78739 : 1"
       inkscape:vp_z="744.09448 : 526.18109 : 1"
       inkscape:vp_y="0 : 1000 : 0"
       inkscape:vp_x="0 : 526.18109 : 1"
       sodipodi:type="inkscape:persp3d" />
  </defs>
  <sodipodi:namedview
     inkscape:window-height="710"
     inkscape:window-width="1280"
     inkscape:pageshadow="2"
     inkscape:pageopacity="0.0"
     guidetolerance="10.0"
     gridtolerance="10.0"
     objecttolerance="10.0"
     borderopacity="1.0"
     bordercolor="#666666"
     pagecolor="#ffffff"
     id="base"
     showgrid="false"
     inkscape:zoom="0.43901235"
     inkscape:cx="201.88"
     inkscape:cy="519.21057"
     inkscape:window-x="-4"
     inkscape:window-y="-4"
     inkscape:current-layer="svg18076" />
  <path
     d="m 160.9222,185.86921 c -32.721588,0 -59.334339,26.612751 -59.334339,59.334339 l 0,454.95708 c 0,32.661104 26.612751,59.273855 59.334339,59.273855 l 454.95708,0 c 32.721588,0 59.334339,-26.612751 59.334339,-59.273855 l 0,-454.95708 c 0,-32.721588 -26.612751,-59.334339 -59.334339,-59.334339 z"
     style="fill:#ffffff;fill-opacity:1;fill-rule:nonzero;stroke:none"
     id="path7056" />
  <path
     d="m 615.87929,771.53119 c 39.435259,0 71.491528,-31.935302 71.491528,-71.370561 l 0,-454.95708 c 0,-39.495742 -32.056269,-71.431044 -71.491528,-71.431044 l -454.95708,0 c -39.435259,0 -71.431044,31.935302 -71.431044,71.431044 l 0,454.95708 c 0,39.435259 31.995785,71.370561 71.431044,71.370561 z"
     style="fill:#231f20;fill-opacity:1;fill-rule:nonzero;stroke:none"
     id="path7058" />
  <path
     d="m 125.47886,578.10487 c 0,-58.789987 47.721502,-106.33004 106.33004,-106.33004 58.850471,0 106.51149,47.540051 106.51149,106.33004 0,58.850471 -47.661018,106.45101 -106.51149,106.45101 -58.608537,0 -106.33004,-47.600535 -106.33004,-106.45101 m 106.33004,86.79386 c 47.902953,0 86.79386,-38.830424 86.79386,-86.79386 0,-47.902953 -38.890907,-86.733376 -86.79386,-86.733376 -47.781986,0 -86.612409,38.830424 -86.612409,86.733376 0,47.963436 38.830424,86.79386 86.612409,86.79386"
     style="fill:#ffffff;fill-opacity:1;fill-rule:nonzero;stroke:none"
     id="path7060" />
  <path
     d="m 438.60207,579.19358 c 0,-58.850471 47.721502,-106.39052 106.51149,-106.39052 58.66902,0 106.39052,47.540051 106.39052,106.39052 0,58.789987 -47.721502,106.39052 -106.39052,106.39052 -58.789987,0 -106.51149,-47.600535 -106.51149,-106.39052 m 106.51149,86.733376 c 47.781986,0 86.672893,-38.830424 86.672893,-86.733376 0,-47.902953 -38.890907,-86.79386 -86.672893,-86.79386 -47.902953,0 -86.79386,38.890907 -86.79386,86.79386 0,47.902953 38.890907,86.733376 86.79386,86.733376"
     style="fill:#ffffff;fill-opacity:1;fill-rule:nonzero;stroke:none"
     id="path7062" />
  <path
     d="m 438.90449,319.5378 c 22.076487,0 40.040094,-17.84264 40.040094,-39.979611 0,-22.076487 -17.963607,-40.040094 -40.040094,-40.040094 -22.076487,0 -40.040094,17.963607 -40.040094,40.040094 0,22.136971 17.963607,39.979611 40.040094,39.979611"
     style="fill:#ffffff;fill-opacity:1;fill-rule:nonzero;stroke:none"
     id="path7064" />
  <path
     d="m 440.53754,416.61386 c -5.74593,0.12097 -12.03622,-2.78224 -16.63296,-10.04027 l -26.00792,-40.64493 -53.58841,53.10454 49.71746,26.18937 C 414.46914,455.0209 411.38448,472.98451 411.38448,472.98451 l 0,112.55984 c 0,12.762024 -10.282199,23.16519 -23.044223,23.16519 -12.762024,0 -23.044223,-10.403166 -23.044223,-23.16519 l 0,-90.120454 -86.189026,-47.902954 c -10.2822,-5.74593 -17.29828,-16.75394 -17.29828,-29.27403 0,-8.5886607 3.2056269,-16.512003 8.6491442,-22.439388 L 355.01384,311.07011 c 10.52413,-11.85477 25.16115,-9.97978 25.16115,-9.97978 17.721673,0 27.09662,15.483783 27.09662,15.483783 l 43.91104,68.830247 66.77381,-0.12097 c 23.951476,0 23.951476,31.330466 0,31.330466 l -77.418913,0 z"
     style="fill:#ffffff;fill-opacity:1;fill-rule:nonzero;stroke:none"
     id="path7066" />
</svg>
