<?xml version="1.0" encoding="UTF-8" standalone="no"?>
<!-- Created with Inkscape (http://www.inkscape.org/) -->
<svg
   xmlns:dc="http://purl.org/dc/elements/1.1/"
   xmlns:cc="http://creativecommons.org/ns#"
   xmlns:rdf="http://www.w3.org/1999/02/22-rdf-syntax-ns#"
   xmlns:svg="http://www.w3.org/2000/svg"
   xmlns="http://www.w3.org/2000/svg"
   xmlns:sodipodi="http://sodipodi.sourceforge.net/DTD/sodipodi-0.dtd"
   xmlns:inkscape="http://www.inkscape.org/namespaces/inkscape"
   width="728.62793"
   height="762.50958"
   id="svg2586"
   sodipodi:version="0.32"
   inkscape:version="0.46+pre4"
   version="1.0"
   sodipodi:docname="valentines day2.svg"
   inkscape:output_extension="org.inkscape.output.svg.inkscape">
  <defs
     id="defs2588">
    <inkscape:perspective
       sodipodi:type="inkscape:persp3d"
       inkscape:vp_x="0 : 526.18109 : 1"
       inkscape:vp_y="0 : 1000 : 0"
       inkscape:vp_z="744.09448 : 526.18109 : 1"
       inkscape:persp3d-origin="372.04724 : 350.78739 : 1"
       id="perspective2594" />
    <inkscape:perspective
       id="perspective2603"
       inkscape:persp3d-origin="372.04724 : 350.78739 : 1"
       inkscape:vp_z="744.09448 : 526.18109 : 1"
       inkscape:vp_y="0 : 1000 : 0"
       inkscape:vp_x="0 : 526.18109 : 1"
       sodipodi:type="inkscape:persp3d" />
  </defs>
  <sodipodi:namedview
     id="base"
     pagecolor="#ffffff"
     bordercolor="#666666"
     borderopacity="1.0"
     gridtolerance="10000"
     guidetolerance="10"
     objecttolerance="10"
     inkscape:pageopacity="0.0"
     inkscape:pageshadow="2"
     inkscape:zoom="0.7"
     inkscape:cx="183.10157"
     inkscape:cy="408.5906"
     inkscape:document-units="px"
     inkscape:current-layer="layer1"
     showgrid="false"
     inkscape:window-width="1280"
     inkscape:window-height="975"
     inkscape:window-x="-4"
     inkscape:window-y="-4" />
  <metadata
     id="metadata2591">
    <rdf:RDF>
      <cc:Work
         rdf:about="">
        <dc:format>image/svg+xml</dc:format>
        <dc:type
           rdf:resource="http://purl.org/dc/dcmitype/StillImage" />
        <cc:license
           rdf:resource="http://creativecommons.org/licenses/publicdomain/" />
        <dc:title>Valentines day</dc:title>
        <dc:subject>
          <rdf:Bag>
            <rdf:li>Valentines day feb february pigeons heart love</rdf:li>
          </rdf:Bag>
        </dc:subject>
        <dc:source>http://www.defenselink.mil/afis/editors/lineart/valentine.jpg</dc:source>
      </cc:Work>
      <cc:License
         rdf:about="http://creativecommons.org/licenses/publicdomain/">
        <cc:permits
           rdf:resource="http://creativecommons.org/ns#Reproduction" />
        <cc:permits
           rdf:resource="http://creativecommons.org/ns#Distribution" />
        <cc:permits
           rdf:resource="http://creativecommons.org/ns#DerivativeWorks" />
      </cc:License>
    </rdf:RDF>
  </metadata>
  <g
     inkscape:label="Layer 1"
     inkscape:groupmode="layer"
     id="layer1"
     transform="translate(300.07596,346.40539)">
    <path
       style="fill:#000000"
       d="M 29.35715,415.64148 C 28.53215,415.33194 23.77138,412.03689 18.77767,408.31914 C 5.19847,398.20963 -9.4662,383.23802 -17.06727,371.72398 C -25.73804,358.58954 -26.63938,357.63083 -37.52228,349.96714 C -49.26487,341.69806 -50.12908,341.59373 -49.68533,348.49888 C -49.4415,352.29301 -54.09006,355.36218 -60.08046,355.36218 C -68.50576,355.36218 -77.58159,349.04405 -86.65526,336.86218 C -91.36201,330.54312 -102.03166,320.36218 -103.94729,320.36218 C -104.7464,320.36218 -105.98233,321.76753 -106.6938,323.48519 C -109.33172,329.85369 -117.82204,330.37823 -125.3483,324.63768 C -128.9256,321.90914 -135.8022,312.05729 -140.08709,303.52197 C -143.0509,297.61816 -150.14093,289.36218 -152.24716,289.36218 C -152.98943,289.36218 -154.36076,290.52822 -155.29456,291.95338 C -157.52585,295.35875 -160.53041,296.40245 -165.1215,295.367 C -170.64236,294.12184 -173.78725,290.45678 -179.1036,279.07221 C -191.11999,253.34003 -192.6149,250.36218 -193.51635,250.36218 C -194.04418,250.36218 -195.34024,251.54854 -196.39649,252.99854 C -200.35075,258.42686 -211.01581,255.42106 -215.33287,247.66159 C -218.5114,241.94849 -223.55359,226.99614 -225.71896,216.86218 C -227.79183,207.16107 -229.4278,202.36218 -230.6621,202.36218 C -231.08923,202.36218 -233.39714,203.48176 -235.79078,204.85013 C -241.79827,208.28444 -244.1929,208.04743 -248.6644,203.57593 C -254.2836,197.95672 -254.99424,194.15398 -255.09253,169.17801 C -255.13947,157.25171 -255.51067,147.16103 -255.91742,146.75428 C -256.32417,146.34752 -258.61559,146.9929 -261.00944,148.18845 C -268.92149,152.13992 -273.93565,150.62888 -277.75513,143.14209 C -279.50111,139.71969 -279.76088,137.81752 -279.35077,131.45818 C -279.08135,127.28038 -278.14954,120.26218 -277.2801,115.86218 C -276.41066,111.46218 -275.39942,104.20451 -275.03291,99.73403 L -274.36653,91.60588 L -281.91619,91.73403 C -288.63263,91.84804 -289.75276,91.59346 -292.06558,89.42731 C -298.13414,83.7436 -297.41025,76.15281 -289.13818,58.73046 C -283.70898,47.29567 -281.64285,41.25791 -281.64285,36.82723 L -281.64285,33.36218 L -286.39285,33.35844 C -292.40384,33.35371 -297.27468,30.48758 -299.23172,25.80372 C -301.21023,21.06849 -299.85133,16.20278 -293.66242,5.86218 C -286.1432,-6.70116 -279.58466,-20.03216 -279.35387,-23.22164 C -279.15186,-26.01334 -279.35628,-26.16296 -284.14285,-26.72683 C -290.76584,-27.50702 -292.43529,-28.33576 -294.17984,-31.70934 C -298.00102,-39.09869 -294.52346,-48.62273 -284.14611,-59.18883 C -277.74294,-65.70846 -266.64285,-81.69431 -266.64285,-84.39622 C -266.64285,-84.9917 -268.10535,-85.76587 -269.89285,-86.1166 C -274.86534,-87.09227 -277.67501,-88.79932 -279.2173,-91.78179 C -282.04404,-97.2481 -277.88794,-107.60546 -270.255,-114.11662 C -267.44332,-116.51507 -261.76785,-121.35854 -257.64285,-124.87987 C -253.51785,-128.40121 -249.49746,-132.43038 -248.70865,-133.83358 C -247.37296,-136.20963 -247.48375,-136.65113 -250.32163,-140.26134 C -254.77396,-145.92536 -256.64285,-150.05873 -256.64285,-154.24177 C -256.64285,-157.30719 -255.92229,-158.61026 -252.45938,-161.8072 L -248.2759,-165.66937 L -250.20938,-168.04999 C -251.27279,-169.35933 -254.28706,-173.06473 -256.90776,-176.28421 C -262.44887,-183.09137 -269.98591,-197.14322 -271.65821,-203.78455 C -273.69606,-211.87756 -269.61421,-216.63782 -260.63677,-216.63782 C -258.50503,-216.63782 -256.54507,-216.98702 -256.28129,-217.41382 C -256.01751,-217.84062 -257.32268,-222.5553 -259.18167,-227.89088 C -265.07713,-244.81181 -265.56845,-264.16687 -260.23782,-269.4973 C -258.00397,-271.73107 -256.71498,-272.14031 -251.87002,-272.15398 L -246.14285,-272.17014 L -246.48199,-287.65398 C -246.83827,-303.92034 -246.37131,-307.09102 -241.42235,-322.00911 C -239.83095,-326.80618 -237.97534,-330.05125 -235.2752,-332.75911 C -230.89049,-337.15636 -229.47352,-337.46849 -226.66151,-334.65648 C -224.85535,-332.85032 -224.6888,-331.36941 -224.77772,-317.90648 C -224.90285,-298.96388 -224.27505,-293.85883 -219.9486,-278.63782 C -214.99114,-261.1968 -203.32378,-232.29686 -199.63294,-228.31613 C -198.02677,-226.58381 -197.66486,-226.57555 -192.25631,-228.14786 C -185.50742,-230.10981 -169.871,-237.17341 -167.40587,-239.3738 C -165.77453,-240.82994 -165.88096,-241.15898 -169.15587,-244.78391 C -171.46142,-247.33588 -172.64285,-249.63305 -172.64285,-251.56398 C -172.64285,-258.32479 -162.77043,-264.38464 -147.38505,-267.06762 C -129.55936,-270.17616 -116.64285,-274.25231 -116.64285,-276.76914 C -116.64285,-277.36312 -117.8035,-279.22847 -119.22208,-280.91435 C -121.33282,-283.42282 -121.68289,-284.61086 -121.14934,-287.45491 C -119.45286,-296.49792 -115.94729,-297.78274 -91.80057,-298.21151 C -73.06701,-298.54415 -69.42234,-298.99367 -67.59366,-301.19709 C -66.66382,-302.31748 -66.75729,-303.16353 -68.02456,-305.09763 C -70.4777,-308.84159 -70.05477,-313.15278 -66.89285,-316.6338 C -63.06298,-320.85018 -55.52141,-321.55856 -41.51091,-319.01794 C -30.26165,-316.97803 -15.35642,-316.51965 -13.71574,-318.16317 C -13.0176,-318.86251 -13.05408,-320.36778 -13.83048,-322.89751 C -15.56918,-328.56273 -13.66491,-333.65949 -8.46756,-337.25129 C -4.70185,-339.85371 -3.54526,-340.12511 3.28321,-340.00872 C 9.20975,-339.9077 12.52606,-339.20971 18.52999,-336.79971 C 26.56861,-333.57298 40.71374,-329.63782 44.27376,-329.63782 C 46.09202,-329.63782 46.35763,-330.24231 46.36089,-334.38782 C 46.36593,-340.79296 49.17075,-345.32462 53.65023,-346.16498 C 58.91539,-347.15273 63.98846,-345.25502 76.7922,-337.50816 C 87.77498,-330.86307 99.95106,-325.63782 104.45294,-325.63782 C 106.08854,-325.63782 106.35715,-326.39442 106.35715,-331.00146 C 106.35715,-335.46332 106.8004,-336.80834 108.99351,-339.00146 C 110.73029,-340.73823 112.69232,-341.63033 114.74351,-341.61586 C 118.49727,-341.58938 125.52076,-338.52709 130.28989,-334.83752 C 132.20919,-333.35268 134.75606,-331.46282 135.94961,-330.63782 C 137.14317,-329.81282 141.55739,-326.75536 145.759,-323.84346 C 157.98529,-315.37012 166.35715,-312.45767 166.35715,-316.67766 C 166.35715,-319.554 169.956,-326.26991 171.89634,-327.01448 C 172.78975,-327.35732 174.62337,-327.63782 175.97106,-327.63782 C 181.82104,-327.63782 185.99607,-324.48573 201.97427,-308.00579 C 211.49233,-298.18884 218.65368,-291.57 219.46471,-291.84034 C 220.22005,-292.09212 221.29235,-293.86866 221.8476,-295.78821 C 223.33201,-300.91995 225.7998,-304.16432 229.33148,-305.62718 C 236.96543,-308.78927 247.13461,-301.03343 254.40243,-286.50604 C 261.11051,-273.09749 269.20087,-262.63782 272.86405,-262.63782 C 273.44809,-262.63782 274.74975,-264.03242 275.75662,-265.73693 C 278.27909,-270.00712 283.30036,-271.99947 288.20885,-270.67775 C 293.37343,-269.28708 295.34072,-266.76845 300.34708,-255.13782 C 308.22124,-236.84476 315.24701,-222.89406 316.90612,-222.2574 C 317.96951,-221.84934 319.48348,-222.63205 321.21394,-224.48451 C 324.95628,-228.49071 330.04513,-230.93295 333.06901,-230.174 C 340.74115,-228.24842 342.87374,-223.99112 345.30937,-205.73852 C 347.0926,-192.37494 348.98956,-186.01771 351.91953,-183.58605 C 354.59573,-181.365 379.27325,-206.22741 387.2069,-219.13782 C 395.95475,-233.37316 398.33035,-237.81044 401.12662,-245.13782 C 402.80574,-249.53782 404.91389,-255.71381 405.8114,-258.86224 C 408.77867,-269.27137 415.82868,-274.0858 419.80045,-268.41531 C 423.06722,-263.75134 421.36196,-248.21563 415.94353,-233.27709 L 413.46222,-226.43617 L 416.0457,-222.53227 C 418.48252,-218.84999 418.59881,-218.10355 418.0944,-209.3831 C 417.47601,-198.69209 415.96344,-193.94167 410.66827,-186.06043 C 408.57216,-182.9406 405.96725,-178.89473 404.87959,-177.06959 L 402.90203,-173.75118 L 405.2729,-171.2275 C 407.35081,-169.01566 407.57492,-168.03672 407.08656,-163.30495 C 406.45349,-157.17115 403.24183,-149.33056 399.84974,-145.63782 C 397.97663,-143.59869 397.48572,-141.7552 397.18679,-135.63782 C 396.86281,-129.00767 396.3737,-127.41727 392.9696,-121.92509 C 389.54814,-116.40492 389.19115,-115.23444 389.7672,-111.42509 C 390.72737,-105.07551 391.64488,-103.99226 394.83259,-105.44468 C 398.18405,-106.9717 403.53175,-106.97102 406.88509,-105.44313 C 412.65878,-102.81247 413.87191,-93.87827 410.3334,-80.04778 C 407.33184,-68.31599 404.76588,-48.82909 406.05314,-47.54183 C 406.78594,-46.80903 408.36738,-46.83276 411.29265,-47.62045 C 414.86792,-48.58317 415.93582,-48.48383 418.57232,-46.94325 C 420.27169,-45.95026 422.57314,-43.38182 423.68665,-41.23559 C 425.49667,-37.7469 425.59748,-36.66933 424.63791,-31.0674 C 424.04759,-27.62113 421.53293,-20.3692 419.04979,-14.95202 C 413.52187,-2.89242 410.15011,6.90656 410.5541,9.73811 C 410.82656,11.64777 411.38785,11.82761 416.11467,11.5197 C 420.99207,11.20198 421.6247,11.42973 424.86467,14.6697 C 430.90201,20.70704 429.93542,25.35993 418.90416,43.36218 C 412.85431,53.2351 408.70118,62.01142 407.79622,66.83529 C 407.17601,70.1413 407.26387,70.25385 411.00785,70.94911 C 418.92845,72.41995 422.35715,75.8835 422.35715,82.41376 C 422.35715,88.01927 420.38678,91.21232 409.43026,103.36218 C 405.21443,108.03718 400.12804,114.18436 398.12717,117.02258 C 394.85214,121.66818 390.35715,129.5937 390.35715,130.7226 C 390.35715,130.96465 392.62045,131.70566 395.38672,132.36927 C 401.02343,133.7215 403.36004,136.71115 403.35341,142.56252 C 403.34819,147.17405 400.34514,151.61402 392.05427,159.26815 C 376.41281,173.70835 367.35715,182.78765 367.35715,184.02973 C 367.35715,184.74781 368.87334,185.96884 370.72646,186.74313 C 384.022,192.29836 376.77991,209.17594 357.61339,217.30295 C 351.93159,219.71215 338.06072,228.41477 336.89421,230.30221 C 336.56378,230.83687 337.3634,231.9754 338.67116,232.83227 C 345.82174,237.51751 344.58791,248.35985 336.19229,254.6156 C 333.0528,256.9549 318.27936,263.05289 306.62671,266.81931 C 303.74996,267.74915 300.37496,269.37282 299.12671,270.42748 L 296.85715,272.34505 L 300.34241,275.26987 C 303.34283,277.7878 303.8126,278.76982 303.71927,282.32895 C 303.51698,290.04407 296.07953,294.74153 277.62336,298.81101 C 264.77562,301.64387 249.6407,306.09436 248.92688,307.24935 C 248.66093,307.67966 250.22395,309.71904 252.40024,311.78129 C 256.64467,315.80329 257.1625,317.90412 254.95953,322.1642 C 251.5652,328.72812 248.45377,329.60662 222.35715,331.36941 C 206.82061,332.41888 197.84784,333.53815 196.83263,334.55337 C 196.58775,334.79825 197.28059,336.75056 198.37227,338.89184 C 202.31501,346.62528 199.82209,352.04523 191.2221,354.43727 C 187.59446,355.44629 183.22545,355.28336 165.35715,353.47277 C 141.6427,351.06978 140.45272,351.01534 138.51285,352.24479 C 137.40202,352.94881 137.44544,353.63224 138.76285,356.17982 C 141.00016,360.5063 140.75011,363.79528 137.93594,367.05642 C 135.65211,369.70298 135.09888,369.84987 128.18594,369.64528 C 121.53405,369.44841 116.884,368.44998 96.3012,362.79915 C 92.69543,361.80922 89.01583,361.27918 88.12432,361.62129 C 87.2328,361.96339 84.05713,365.98255 81.06727,370.55274 C 73.53756,382.0624 56.31394,399.8075 43.87019,408.87604 C 33.8666,416.16628 32.47938,416.81295 29.35715,415.64148 z M 35.87196,409.25797 C 53.54167,399.92824 74.14746,376.91987 87.48909,351.6224 C 95.27852,336.85264 100.35715,319.07808 100.35715,306.58587 C 100.35715,299.52922 95.89541,286.04506 91.34157,279.33924 C 88.29596,274.85437 86.23741,273.09306 80.83855,270.35274 C 74.97744,267.3778 72.96222,266.89376 64.99037,266.54614 C 52.10424,265.98424 48.0233,267.29013 41.83906,273.9545 C 39.07911,276.92872 36.48026,279.36218 36.06383,279.36218 C 35.64741,279.36218 32.48018,276.73267 29.02553,273.51883 C 20.32081,265.42084 16.24196,264.03225 2.66779,264.54568 C -5.47224,264.85356 -9.25451,265.4633 -12.64285,267.01389 C -17.84853,269.39614 -27.03141,278.24348 -29.67342,283.42216 C -35.01707,293.8964 -36.29658,313.79014 -32.59397,328.83062 C -29.77037,340.30049 -22.89299,356.48314 -17.28111,364.86218 C -7.93092,378.82285 8.69929,395.90058 25.29533,408.58436 C 29.61307,411.88427 30.75968,411.95729 35.87196,409.25797 z M 100.87565,347.83682 C 110.69082,340.89071 118.9107,335.68963 122.04984,334.43899 C 126.30764,332.74268 132.55223,333.87648 135.34917,336.85369 C 137.1942,338.81763 137.44548,339.87989 136.87032,343.28422 C 136.25851,346.9055 136.4015,347.36218 138.14713,347.36218 C 142.5143,347.36218 148.07227,343.78866 156.73899,335.40845 C 168.20991,324.31675 170.84051,322.15144 176.06731,319.49884 C 183.96055,315.49302 190.95663,317.40467 193.7251,324.32376 C 194.61382,326.54489 195.81695,328.36218 196.39871,328.36218 C 200.67351,328.36218 207.45021,321.17458 218.08383,305.36218 C 223.79609,296.86794 226.62384,293.96269 230.67225,292.42879 C 237.0681,290.00547 242.38051,292.26214 244.48388,298.29588 C 245.99036,302.61737 248.32255,302.17566 253.55945,296.57699 C 256.79366,293.11936 259.07043,289.166 261.76613,282.32699 C 266.25362,270.94222 271.96721,261.39246 275.36683,259.59463 C 279.39008,257.467 287.29706,258.591 289.9426,261.66662 C 291.15432,263.07533 292.35255,264.82062 292.60534,265.54505 C 292.95049,266.53416 293.62634,266.36409 295.31914,264.86218 C 298.91731,261.66974 301.93461,254.6819 304.81856,242.86218 C 307.60742,231.4322 310.81603,224.55503 314.59479,221.90828 C 318.1955,219.38625 322.84014,219.96934 326.79256,223.43961 C 328.72031,225.1322 330.7674,226.22667 331.34164,225.87176 C 334.4093,223.97585 336.48702,216.7856 337.78527,203.57265 C 339.25167,188.64832 340.59657,184.38379 345.22904,179.96935 C 348.12425,177.21041 348.56081,177.10686 354.66155,177.7319 L 361.05836,178.38727 L 363.13199,171.12472 C 364.62172,165.90722 365.38157,159.49758 365.83045,148.36218 C 366.50204,131.7017 366.94556,130.25184 372.68013,125.97036 C 375.0762,124.18143 375.85583,124.08487 379.61834,125.11098 C 383.20972,126.09043 384.03922,126.02808 385.04917,124.70276 C 387.99645,120.83514 387.88192,107.02177 384.76859,90.86218 C 382.66264,79.93134 383.33351,73.73216 387.10781,69.24665 C 389.59155,66.2949 390.03175,66.152 395.04636,66.66955 C 400.08546,67.18963 400.38754,67.08926 400.98841,64.69523 C 402.16895,59.99156 399.61512,49.63484 394.80894,39.63531 C 392.2254,34.26009 389.74349,28.06218 389.29359,25.86218 C 388.16306,20.33392 389.7658,15.03756 393.52693,11.87278 C 396.19826,9.625 397.2442,9.33625 400.63806,9.90964 L 404.61719,10.58191 L 403.91339,5.88867 C 402.80785,-1.48363 400.88903,-5.93508 394.89015,-15.04429 C 391.82205,-19.70315 388.64699,-25.39917 387.83447,-27.70211 C 386.11661,-32.57103 385.91285,-38.93912 387.38679,-41.69321 C 388.60617,-43.97164 393.4163,-46.63782 396.30749,-46.63782 C 397.59318,-46.63782 398.35686,-47.2901 398.35636,-48.38782 C 398.35503,-51.34443 392.86155,-61.89064 388.85002,-66.63782 C 386.75856,-69.11282 382.62435,-74.40032 379.66289,-78.38782 C 376.70144,-82.37532 373.95864,-85.62821 373.56779,-85.61647 C 373.17694,-85.60473 371.54454,-83.74084 369.94025,-81.4745 C 366.6397,-76.81193 366.51861,-78.67602 371.72685,-53.97276 C 375.29506,-37.04832 376.13255,-31.33472 377.72046,-13.08266 C 380.77508,22.02849 378.98086,48.58684 371.36871,80.93733 C 369.69602,88.046 367.92523,94.98718 367.43363,96.36218 C 366.94202,97.73718 365.51194,102.13899 364.25567,106.14399 L 361.97154,113.42579 L 364.71795,118.84977 C 368.7584,126.82939 367.3137,132.14248 360.10026,135.83189 C 357.74757,137.03521 357.66181,137.56287 358.84041,143.58324 C 359.48289,146.86507 359.22002,147.65315 356.61348,150.2597 C 354.8198,152.05338 352.12487,153.47118 349.75761,153.86655 C 343.51269,154.90958 343.35715,155.04315 343.35715,159.36291 C 343.35715,164.74703 341.25327,169.53664 337.72833,172.17724 C 333.71394,175.1845 334.1421,174.64123 325.76096,187.36218 C 292.53324,237.79547 237.21538,282.66933 180.88478,304.88577 C 157.2718,314.19858 128.0071,322.23777 110.05001,324.34451 C 106.30608,324.78375 103.01052,325.37548 102.72655,325.65945 C 101.89241,326.49358 94.35715,348.33286 94.35715,349.91627 C 94.35715,352.05477 95.37376,351.73046 100.87565,347.83682 z M -35.82659,338.4969 C -34.74656,337.81204 -34.78922,336.58601 -36.06431,331.66527 C -36.919,328.36693 -37.96131,322.6121 -38.38057,318.87675 L -39.14285,312.0852 L -52.14285,306.8905 C -67.03626,300.93921 -71.02939,298.98868 -89.64285,288.57285 C -109.23305,277.61045 -124.43702,266.90085 -141.14285,252.29651 C -197.17093,203.31642 -232.87096,138.8435 -244.65236,65.36218 C -249.08176,37.73577 -249.61168,6.942 -246.16122,-22.31738 C -243.37912,-45.90923 -235.60424,-76.02574 -228.09737,-92.28895 C -225.89397,-97.06247 -226.28187,-100.15551 -229.4154,-102.79893 C -233.90877,-106.58947 -235.64285,-109.78988 -235.64285,-114.29223 C -235.64285,-117.82797 -235.16274,-118.8435 -232.64285,-120.63782 C -230.99285,-121.81272 -229.64285,-123.15477 -229.64285,-123.62014 C -229.64285,-124.08551 -231.93385,-125.87594 -234.73397,-127.59887 C -238.91629,-130.17228 -240.09302,-130.5091 -241.32604,-129.48578 C -242.89165,-128.18644 -242.8929,-128.32348 -241.07147,-101.56647 C -240.4872,-92.98353 -240.64217,-91.55948 -242.57211,-87.77648 C -245.63428,-81.77414 -248.45816,-80.74037 -254.64828,-83.35562 C -261.52899,-86.26263 -262.02926,-85.41217 -261.39799,-71.88093 C -261.02093,-63.79877 -260.20205,-59.03246 -258.0919,-52.63782 C -255.01032,-43.29933 -254.52218,-34.76594 -256.79573,-29.97899 C -258.71857,-25.93047 -264.10981,-23.39919 -269.39285,-24.06441 L -273.64285,-24.59956 L -273.64285,-19.15035 C -273.64285,-14.5219 -272.86671,-12.22784 -268.48986,-3.91948 C -257.78143,16.40779 -257.68866,16.63059 -257.66526,22.07738 C -257.64609,26.53797 -258.10698,27.8212 -260.85046,30.94586 C -263.9654,34.49358 -264.2144,34.583 -269.46867,34.04071 L -274.87926,33.48229 L -274.27371,37.26919 C -273.30708,43.31416 -269.00849,52.12422 -261.96543,62.49526 C -255.23756,72.40219 -253.50941,77.71004 -255.03399,83.78448 C -255.73766,86.58809 -260.19006,89.36218 -263.9862,89.36218 C -267.15058,89.36218 -267.72871,91.07154 -266.1336,95.7114 C -264.08299,101.67623 -259.8691,106.99495 -250.01056,116.06167 C -239.72105,125.52475 -238.10419,128.28446 -239.07124,134.73323 C -239.8066,139.63692 -241.46191,141.55298 -246.94056,143.8421 L -250.66507,145.3983 L -248.68412,149.13024 C -245.67819,154.79314 -242.13707,158.31136 -230.48969,167.20699 C -215.49155,178.66175 -212.50213,182.66019 -214.11235,189.11218 C -215.04311,192.84161 -217.22995,195.07081 -221.26377,196.40209 C -225.10189,197.66878 -225.24864,198.07892 -222.85958,200.86218 C -218.03344,206.48466 -209.07854,212.65633 -198.55494,217.61282 C -185.73717,223.64985 -181.86543,227.28386 -180.94571,234.14082 C -180.49892,237.47192 -180.85006,238.41554 -183.53585,241.10133 C -187.24542,244.8109 -187.27104,245.00146 -184.39285,247.4762 C -179.17948,251.9588 -168.82279,256.11558 -157.14285,258.41331 C -145.06564,260.7892 -139.05338,265.8515 -139.98258,272.86218 C -140.37995,275.86026 -141.40573,277.61362 -144.07784,279.86218 C -146.03865,281.51218 -147.64292,283.22332 -147.64289,283.66472 C -147.64287,284.10612 -144.61034,285.88634 -140.90394,287.62077 C -134.96911,290.39802 -132.71841,290.85867 -122.0409,291.48152 C -103.37557,292.57032 -96.64285,296.33355 -96.64285,305.67766 C -96.64285,307.67111 -97.54925,310.24476 -98.82047,311.86086 C -100.89327,314.496 -100.91196,314.69224 -99.20864,315.93773 C -96.48311,317.93069 -87.497,318.70371 -75.22215,318.00115 C -62.24103,317.25816 -54.55656,318.66514 -49.17436,322.77035 C -44.73577,326.15583 -43.78533,329.6144 -46.10824,333.92777 C -47.07507,335.72306 -47.56431,337.68024 -47.19546,338.27705 C -46.41035,339.54739 -37.7474,339.71491 -35.82659,338.4969 z M 36.85988,268.61218 C 37.62785,266.73701 39.65067,217.71664 39.77937,197.86218 C 39.83732,188.9211 38.94424,166.73499 38.40067,163.61218 C 38.25541,162.77766 34.43253,163.57523 33.60747,164.61218 C 32.40806,166.11964 32.4773,267.22536 33.67904,269.11218 C 34.79305,270.86126 36.01761,270.66877 36.85988,268.61218 z M 288.24006,189.25315 C 292.62775,187.7236 294.7107,182.66604 293.98083,175.31416 C 293.40231,169.4868 283.75632,140.73701 278.43108,128.96826 C 274.7144,120.75442 275.07615,118.87581 278.90392,126.51275 C 280.3786,129.45493 282.18978,132.55155 282.92878,133.3941 C 284.85683,135.59235 291.63773,152.32156 294.87316,162.86218 C 298.88794,175.94182 299.45813,177.32874 302.12239,180.49504 C 304.09814,182.84307 305.32349,183.36218 308.89028,183.36218 C 315.20433,183.36218 318.86651,180.01077 318.71855,174.36792 C 318.55251,168.03544 306.52493,144.53714 295.93833,129.86218 C 283.81039,113.05063 284.01774,113.36826 284.71556,112.67044 C 285.73427,111.65172 289.27329,115.37474 294.40361,122.86218 C 297.0416,126.71218 301.26822,132.56218 303.79611,135.86218 C 306.324,139.16218 311.30048,147.79293 314.85494,155.04162 C 318.4094,162.29032 322.32662,168.92782 323.55988,169.79162 C 327.13978,172.29909 334.55057,171.84965 337.26481,168.96047 C 340.3989,165.62438 341.0376,159.61872 338.77594,154.75142 C 336.94328,150.80738 315.07124,128.34081 301.58125,116.54572 C 294.78773,110.60574 293.07136,108.36218 295.32066,108.36218 C 296.69521,108.36218 312.46203,122.54664 329.07396,138.72801 C 343.26457,152.55081 343.32046,152.59177 347.08295,151.92605 C 354.73388,150.57233 357.78737,146.22925 355.30378,140.23333 C 353.65863,136.26158 333.53119,119.60393 315.85518,107.58531 C 304.03646,99.54929 300.33929,96.44524 302.53042,96.39814 C 303.45073,96.37836 305.47573,97.38477 307.03042,98.63461 C 308.58512,99.88445 312.78215,102.8854 316.35715,105.30339 C 326.7682,112.34503 339.15208,121.45818 345.80434,126.97321 C 354.60474,134.26915 355.6114,134.70061 359.77476,132.96105 C 362.51589,131.81574 363.3746,130.7861 363.89293,128.02315 C 365.12199,121.47169 363.25258,119.58587 347.35715,111.34223 C 312.17092,93.09404 293.01864,75.55394 286.18546,55.31979 C 283.26246,46.66432 272.44439,25.74148 265.67474,15.65077 C 255.86032,1.02155 244.30423,-8.78403 229.1481,-15.34285 C 215.46863,-21.26264 210.07477,-26.83578 209.02206,-36.13782 C 206.9993,-54.01137 197.40493,-64.7453 182.03365,-66.33176 C 175.03289,-67.0543 168.90726,-65.53574 159.35715,-60.71018 C 155.23215,-58.62586 149.49465,-56.36203 146.60715,-55.67943 C 143.71965,-54.99683 141.35715,-53.89454 141.35715,-53.22991 C 141.35715,-52.56527 143.16829,-50.69765 145.3819,-49.07965 C 150.45657,-45.37039 156.86369,-35.99635 158.91005,-29.28708 C 160.75214,-23.24752 163.27876,-3.73416 163.33175,4.86218 C 163.38316,13.2019 165.034,22.4676 166.77943,24.21304 C 169.24997,26.68357 176.85245,23.13667 180.65762,17.73824 C 184.07498,12.88999 186.35715,12.09731 186.35715,15.75859 C 186.35715,18.85188 180.69159,23.85911 173.40278,27.2077 C 165.84634,30.67923 154.48287,31.15213 134.64076,28.82079 C 122.35382,27.37715 117.91909,27.22956 112.4171,28.08119 C 98.4265,30.24673 85.82419,38.51043 62.20391,61.00743 C 42.2826,79.98137 25.57451,94.64753 18.61068,99.27303 C 15.40572,101.40182 12.12505,103.93718 11.32031,104.90716 C 8.8294,107.90953 -8.66056,121.48655 -18.63564,128.16121 C -23.85667,131.65478 -37.03795,138.99858 -47.92736,144.48077 C -67.25121,154.20921 -79.24794,158.90988 -90.89285,161.31592 C -102.37206,163.68773 -95.94414,166.71759 -79.64285,166.61872 C -73.31785,166.58036 -65.89285,166.04879 -63.14285,165.43747 C -57.41951,164.16517 -28.45352,151.25405 -15.25794,144.09354 C 7.76835,131.59846 5.68791,133.0407 26.90879,114.86218 C 33.97132,108.81218 42.0674,101.72468 44.90007,99.11218 C 49.89288,94.50746 52.35715,93.27558 52.35715,95.38442 C 52.35715,95.94665 49.09465,100.06865 45.10715,104.54442 C 37.53634,113.04227 23.15096,125.10236 9.73166,134.20173 C -1.41549,141.76039 -25.07841,154.45783 -36.27424,158.88833 C -53.59353,165.74205 -53.97484,168.64011 -37.63161,169.20474 C -30.20637,169.46127 -26.38859,169.11404 -22.42956,167.82209 C -16.26793,165.81136 1.50051,157.05631 5.85715,153.88436 C 7.50715,152.68304 12.45715,149.53258 16.85715,146.88333 C 36.42949,135.09879 60.75737,115.79349 67.78149,106.47251 C 69.69234,103.93683 73.19107,99.29313 75.55645,96.15318 C 77.92184,93.01323 80.41965,90.42573 81.10715,90.40318 C 83.78249,90.31543 83.4656,90.80995 70.15184,107.49928 C 64.89959,114.08318 45.17406,132.02172 38.96349,135.86218 C 37.18464,136.96218 32.833,139.91133 29.29318,142.41584 C 21.24196,148.1123 10.44451,154.68967 -0.90437,160.81096 C -10.8892,166.19653 -12.59577,168.18982 -9.56789,170.93002 C -7.93531,172.40748 -6.10821,172.7079 0.14993,172.52784 C 13.48628,172.14413 20.11451,169.47527 32.85715,159.35827 C 36.70715,156.30156 43.84869,150.66448 48.72723,146.8314 C 53.60577,142.99833 60.80577,137.0955 64.72723,133.71399 C 73.12105,126.47594 93.50265,103.46199 97.34403,96.88465 C 100.82641,90.92198 102.08165,89.68668 103.35958,90.96461 C 104.02948,91.63451 103.50579,93.11066 101.78085,95.41461 C 100.36122,97.31077 97.16851,101.97804 94.68595,105.78631 C 89.7183,113.40673 80.59539,124.11384 72.85715,131.40569 C 65.18466,138.63557 48.5364,152.21813 45.2885,153.89768 C 42.33394,155.42554 40.58352,159.3014 41.89195,161.41848 C 43.06398,163.31488 52.24713,162.01778 58.75923,159.03602 C 71.10642,153.38249 88.45966,139.08743 103.88576,121.86218 C 108.31343,116.91811 117.68993,102.89741 120.03561,97.71327 C 121.99262,93.38812 124.24693,90.36218 125.51214,90.36218 C 127.53246,90.36218 125.87692,94.01715 118.67396,105.45904 C 113.23548,114.09805 107.3923,121.53736 98.67396,130.92225 C 91.89971,138.21442 86.35715,144.67156 86.35715,145.27146 C 86.35715,147.2849 95.52706,146.83987 99.84452,144.6169 C 106.88453,140.99213 122.37349,127.10187 131.3512,116.36218 C 138.45763,107.86103 145.55438,93.51667 147.80136,83.11218 C 148.46138,80.05598 151.35715,79.31052 151.35715,82.1968 C 151.35715,84.72465 144.12937,102.26902 140.40942,108.77082 C 136.9501,114.81709 136.6932,116.55537 138.92858,118.79075 C 143.19629,123.05847 150.90326,118.82232 157.83153,108.40072 C 163.7949,99.43053 167.31271,90.57913 168.17517,82.37436 C 168.70623,77.32227 169.24442,75.81229 170.60715,75.55103 C 171.83024,75.31655 172.35715,75.85562 172.35715,77.34145 C 172.35715,81.57228 169.09851,93.65596 166.28312,99.86517 C 162.40813,108.41129 161.63416,113.60981 163.75491,116.84648 C 165.78277,119.9414 169.56673,120.14151 174.07567,117.39228 C 180.47738,113.48899 186.51717,96.82648 186.47406,83.1877 C 186.45285,76.47842 187.51905,74.12408 189.62496,76.22999 C 190.41636,77.02139 190.22498,80.98988 188.9323,90.59286 C 185.82814,113.65284 185.84304,111.97921 188.72517,113.86766 C 193.92435,117.27429 201.25477,112.13368 204.41878,102.86218 C 205.96073,98.34382 206.36714,77.496 204.99874,73.11218 C 204.31304,70.91547 204.45619,70.36218 205.7102,70.36218 C 208.24852,70.36218 209.58613,77.77002 209.45489,91.10081 C 209.34543,102.2199 209.52308,103.52811 211.39693,105.40196 C 213.90237,107.9074 216.92515,107.29656 219.98145,103.66722 C 225.93893,96.59274 225.70385,81.76794 219.4399,69.51527 C 217.10784,64.95362 217.21663,63.71055 219.85917,64.72458 C 222.82826,65.86393 227.24214,80.02155 227.32202,88.66184 C 227.38495,95.46839 229.3538,97.66567 239.04945,101.74989 C 251.45783,106.97684 256.96984,111.52716 263.29956,121.76906 C 267.12471,127.95839 271.29508,143.7067 273.78437,161.36218 C 277.15386,185.2606 277.87672,187.82584 281.67252,189.3552 C 284.58227,190.52756 284.58438,190.52753 288.24006,189.25315 z M 171.18216,-40.03774 C 164.81563,-43.2118 165.21219,-50.9572 171.80456,-52.19393 C 177.08393,-53.18435 179.92489,-52.0956 181.40872,-48.51331 C 182.50361,-45.87003 182.48097,-44.94911 181.26799,-42.78804 C 179.56365,-39.75154 174.5167,-38.37529 171.18216,-40.03774 z M -42.99981,90.76162 C -33.65678,88.85832 -26.39422,84.98585 -20.81381,78.93183 C -16.29065,74.02477 -8.81249,59.80212 -2.51024,44.1204 C 2.90172,30.65397 7.00943,22.56466 13.37412,12.83936 C 18.28686,5.33265 29.38247,-6.63782 31.42781,-6.63782 C 31.93895,-6.63782 32.35715,-7.08782 32.35715,-7.63782 C 32.35715,-8.18782 31.10737,-8.63782 29.57987,-8.63782 C 27.3711,-8.63782 25.17055,-6.86521 18.82987,0.02164 C 3.25402,16.93913 -6.06391,31.97692 -14.22175,53.36218 C -20.47542,69.75577 -26.95379,78.15158 -37.10268,83.01531 C -49.524,88.96807 -61.64353,87.17945 -71.03851,78.00701 C -78.81179,70.41786 -80.8122,61.87704 -76.36283,55.27463 C -73.65989,51.26374 -70.34616,49.39712 -65.89285,49.37692 C -64.10535,49.36881 -62.64285,48.91218 -62.64285,48.36218 C -62.64285,47.81102 -65.22369,47.36386 -68.39285,47.36592 C -76.44181,47.37115 -79.86104,49.65666 -82.54272,56.8241 C -85.13825,63.76129 -85.14575,65.01227 -82.63007,71.39461 C -78.48453,81.91193 -72.35575,86.69079 -58.28081,90.38074 C -54.35493,91.40996 -51.07848,92.27683 -50.99981,92.30712 C -50.92114,92.3374 -47.32114,91.64193 -42.99981,90.76162 z M 33.49637,81.45052 L 35.85715,79.53886 L 35.85715,45.53387 C 35.85715,26.83112 36.18444,11.20158 36.58445,10.80156 C 36.98447,10.40153 39.01521,11.82653 41.09721,13.96821 C 46.06051,19.07378 57.78174,27.38712 62.28917,28.9987 C 71.9855,32.46552 90.53026,29.30978 101.38184,22.34634 C 107.28703,18.55699 119.69753,5.47956 122.44428,0.15202 C 124.4161,-3.67249 124.97603,-7.63782 123.54424,-7.63782 C 122.4291,-7.63782 118.44476,-3.17559 113.93916,3.11931 C 109.03081,9.9769 103.39938,14.50391 94.81925,18.48947 C 88.13481,21.59446 87.33869,21.72621 74.85715,21.79281 C 63.06597,21.85573 61.40761,21.63903 57.02264,19.46233 C 54.36366,18.14241 49.10073,14.22917 45.32724,10.76625 C 38.56555,4.56104 32.68955,0.69645 31.62898,1.75702 C 31.33071,2.05529 31.00248,16.60097 30.89959,34.08075 C 30.79669,51.56054 30.34071,69.79968 29.88629,74.61218 C 28.99686,84.03174 29.38972,84.7759 33.49637,81.45052 z M -167.95795,66.29856 C -160.46362,63.46701 -155.51045,55.43238 -151.53586,39.66002 C -147.73027,24.55827 -143.11811,14.73684 -136.94365,8.58647 C -128.17305,-0.14993 -123.21009,-1.03143 -99.14285,1.87245 C -72.20074,5.1232 -61.62899,3.02287 -23.14285,-13.22674 L -9.14285,-19.13782 L 1.85715,-19.04493 C 12.84915,-18.9521 28.33459,-16.41466 38.69695,-13.00836 C 44.53911,-11.08794 46.38946,-12.13269 43.89329,-15.94232 C 42.7019,-17.76061 42.00865,-22.23219 41.39935,-32.02867 C 40.43526,-47.52936 39.09788,-51.35608 32.13048,-58.55021 C 23.16796,-67.80438 8.44236,-71.64266 -4.65929,-68.13958 C -8.22525,-67.18612 -12.064,-66.19818 -13.18985,-65.94415 C -14.56053,-65.63488 -16.87332,-66.83843 -20.18985,-69.58689 C -27.99671,-76.05652 -37.772,-81.5354 -45.77555,-83.92721 C -52.21065,-85.8503 -55.4837,-86.12945 -71.64285,-86.13335 C -88.15112,-86.13734 -90.92856,-85.89091 -97.44088,-83.84445 C -101.45479,-82.58309 -104.98605,-80.90702 -105.28813,-80.11983 C -106.85229,-76.0437 -91.41078,-60.99597 -79.64285,-55.12855 C -75.07535,-52.85122 -74.93901,-52.69085 -76.66406,-51.62471 C -78.34428,-50.58628 -87.24826,-55.14763 -92.14285,-59.55423 C -93.79285,-61.03972 -97.66838,-64.10902 -100.75514,-66.37489 C -106.23921,-70.40055 -111.89783,-77.1239 -114.86343,-83.13782 C -117.72179,-88.93427 -127.54036,-119.22473 -129.1259,-127.13782 C -130.82834,-135.63428 -134.50282,-144.36981 -139.35756,-151.46206 C -140.98556,-153.84039 -148.80325,-162.43667 -156.7302,-170.5649 C -180.92274,-195.37171 -194.37787,-211.83626 -203.37622,-227.64389 C -207.24569,-234.44147 -219.43489,-262.48767 -222.96582,-272.7177 C -226.81625,-283.87341 -228.95032,-302.21823 -228.39499,-319.38782 C -227.96345,-332.73008 -228.05142,-333.63782 -229.77593,-333.63782 C -233.73573,-333.63782 -240.2156,-319.02816 -242.64558,-304.62164 C -244.05934,-296.23989 -243.34549,-280.21779 -241.07424,-269.35354 C -238.81799,-258.56106 -233.0638,-242.4416 -227.51276,-231.3632 C -215.39583,-207.181 -199.04974,-186.73469 -172.30175,-162.30317 C -166.98199,-157.44411 -162.88477,-153.0554 -163.19684,-152.55047 C -164.14248,-151.02038 -166.56573,-152.88029 -180.83049,-166.08484 C -208.81342,-191.98797 -225.97513,-216.88342 -239.11722,-250.63782 C -246.72925,-270.18871 -251.51439,-274.55644 -257.95576,-267.8331 C -260.50646,-265.17075 -260.64285,-264.51983 -260.64285,-255.00933 C -260.64285,-239.19839 -255.46458,-223.55209 -244.79937,-207.13782 C -236.9447,-195.04909 -235.67376,-193.45993 -225.20531,-182.63782 C -207.24603,-164.07181 -193.9865,-153.86591 -175.89285,-144.68186 C -169.72882,-141.5531 -168.00691,-139.63782 -171.35805,-139.63782 C -174.40013,-139.63782 -196.81943,-153.69409 -208.14285,-162.70085 C -221.79543,-173.56025 -233.1562,-185.19934 -242.48768,-197.88703 C -249.98393,-208.07943 -256.28336,-213.63782 -260.33834,-213.63782 C -261.65582,-213.63782 -263.89071,-212.48087 -265.30476,-211.06682 C -267.53454,-208.83703 -267.78989,-207.9412 -267.22872,-204.31682 C -265.87029,-195.54328 -255.74273,-178.61215 -247.32094,-171.03522 C -232.5617,-157.75662 -211.60455,-144.8719 -183.39285,-131.73141 C -178.0591,-129.24705 -174.64285,-127.06667 -174.64285,-126.14682 C -174.64285,-125.31687 -175.37702,-124.63782 -176.27435,-124.63782 C -178.24139,-124.63782 -193.60085,-132.35937 -200.89749,-137.01644 C -203.78244,-138.85775 -208.39285,-141.55493 -211.14285,-143.01016 C -213.89285,-144.4654 -219.06785,-147.52278 -222.64285,-149.80434 C -236.91326,-158.91168 -240.14088,-160.63782 -242.89976,-160.63782 C -252.19491,-160.63782 -254.45158,-153.37073 -247.77813,-144.92818 C -242.40403,-138.12943 -233.05687,-129.93986 -227.31267,-126.99725 C -219.29632,-122.89067 -196.49534,-115.90075 -181.89105,-113.07269 C -174.32954,-111.60844 -167.58035,-110.2507 -166.89285,-110.0555 C -164.8416,-109.47309 -165.47744,-107.63782 -167.73047,-107.63782 C -171.18479,-107.63782 -196.31144,-113.48713 -209.34024,-117.32429 C -222.90942,-121.32059 -227.79358,-121.35023 -230.97532,-117.4556 C -233.23427,-114.69053 -232.57732,-110.26142 -229.40784,-106.88766 C -226.66549,-103.96857 -210.4638,-96.06479 -201.69879,-93.37017 C -196.15359,-91.66542 -192.14956,-91.33797 -175.72754,-91.24625 C -161.16387,-91.16492 -156.20776,-90.82546 -155.8942,-89.88782 C -155.46301,-88.59842 -172.06092,-87.99987 -191.81133,-88.59257 C -209.36114,-89.11924 -219.88665,-81.66335 -215.26756,-71.97702 C -212.66778,-66.52521 -203.34325,-63.90023 -196.21036,-66.61215 C -189.49844,-69.16402 -152.2608,-75.58911 -151.07213,-74.40043 C -149.49861,-72.82692 -152.24048,-71.63738 -157.45187,-71.63264 C -163.82486,-71.62684 -197.66178,-63.51066 -201.32805,-61.10843 C -202.5783,-60.28924 -204.2941,-58.27912 -205.14094,-56.64152 C -206.50212,-54.00927 -206.51151,-53.25925 -205.22192,-50.17283 C -203.03396,-44.9363 -198.51234,-42.64605 -190.35301,-42.64156 C -185.71433,-42.639 -182.38772,-43.2286 -179.85301,-44.50253 C -169.29319,-49.80983 -142.18124,-59.50954 -141.05485,-58.38315 C -139.78452,-57.11283 -141.80841,-55.79804 -146.88977,-54.59258 C -153.51784,-53.02019 -165.37721,-48.35855 -173.04704,-44.31077 C -186.4726,-37.22537 -188.9618,-23.63782 -176.83426,-23.63782 C -174.62987,-23.63782 -165.84411,-27.26742 -151.34111,-34.16961 C -139.16984,-39.9621 -128.52108,-44.54096 -127.67719,-44.34486 C -126.64084,-44.10403 -127.22832,-43.36345 -129.48728,-42.06306 C -149.52868,-30.52609 -152.81009,-28.23032 -154.7811,-24.36683 C -158.99081,-16.11511 -153.57945,-12.20895 -142.06891,-15.19063 C -134.7119,-17.09639 -130.98509,-19.52635 -120.77507,-29.07465 C -115.52695,-33.98263 -112.19239,-36.40219 -111.20088,-36.02171 C -110.04223,-35.5771 -109.92193,-34.98486 -110.69635,-33.53786 C -111.25563,-32.49284 -112.03488,-31.63185 -112.42803,-31.62454 C -112.82118,-31.61724 -115.61785,-29.32842 -118.64285,-26.53828 C -130.82585,-15.30117 -140.07471,-11.01133 -150.29209,-11.85864 C -156.73268,-12.39274 -159.64285,-14.82991 -159.64285,-19.68959 C -159.64285,-21.2462 -160.08633,-22.79387 -160.62836,-23.12886 C -163.20351,-24.7204 -193.64393,-11.82243 -211.11204,-1.73832 C -224.91613,6.23059 -234.64285,16.74382 -234.64285,23.6952 C -234.64285,26.57642 -231.10271,31.36218 -228.9714,31.36218 C -225.44696,31.36218 -219.75454,27.41153 -208.32597,17.03385 C -195.67806,5.54894 -178.22755,-8.00008 -174.60096,-9.15111 C -170.65017,-10.40505 -171.54088,-8.88498 -177.02862,-5.00813 C -191.52424,5.23239 -219.78526,30.87756 -221.71878,35.54549 C -224.17834,41.48338 -220.01565,49.36218 -214.41888,49.36218 C -209.57512,49.36218 -206.21944,46.83128 -197.56184,36.64837 C -192.98567,31.26597 -188.99433,26.63718 -188.69219,26.36218 C -188.39005,26.08718 -185.45222,22.71218 -182.16367,18.86218 C -173.98894,9.29178 -163.49392,-1.63782 -162.47879,-1.63782 C -160.41478,-1.63782 -162.04423,0.97473 -166.76679,5.23732 C -171.18815,9.22803 -194.82116,37.7327 -201.40564,47.01655 C -202.82873,49.02304 -203.64285,51.63533 -203.64285,54.19512 C -203.64285,61.12888 -198.67129,63.79047 -191.11212,60.90359 C -186.39371,59.10162 -184.42598,56.8931 -180.37756,48.85551 C -177.88894,43.9147 -173.97494,37.94438 -159.73126,17.36218 C -151.64496,5.67744 -149.64285,3.25851 -149.64285,5.1735 C -149.64285,5.85544 -154.86463,14.28807 -161.24681,23.91268 C -173.82662,42.8836 -180.64285,55.13721 -180.64285,58.78113 C -180.64285,61.79306 -177.20553,66.11192 -174.37292,66.65906 C -173.14638,66.89597 -171.83464,67.1511 -171.45795,67.226 C -171.08125,67.3009 -169.50625,66.88355 -167.95795,66.29856 z M 12.35715,-35.63782 C 7.95095,-40.04402 11.10876,-46.63782 17.62511,-46.63782 C 20.94938,-46.63782 25.35715,-42.67327 25.35715,-39.68327 C 25.35715,-36.48552 21.82429,-33.63782 17.85715,-33.63782 C 15.69048,-33.63782 13.59525,-34.39972 12.35715,-35.63782 z M -138.25773,60.27388 C -133.0586,56.18425 -132.36398,53.34001 -131.56321,32.86218 C -131.15457,22.41218 -130.33031,12.59539 -129.73154,11.04708 C -128.3479,7.4693 -128.35762,7.36218 -130.06612,7.36218 C -135.08673,7.36218 -145.37557,25.12264 -148.05611,38.41624 C -150.99459,52.98907 -151.09783,56.54338 -148.67174,59.61218 C -146.01271,62.97564 -142.01535,63.22963 -138.25773,60.27388 z M 299.31851,52.88216 C 303.55256,50.69265 306.35715,46.60052 306.35715,42.61219 C 306.35715,38.78523 305.98043,38.36712 290.10715,24.57628 C 285.29465,20.39514 281.35715,16.6115 281.35715,16.16819 C 281.35715,14.23345 284.03559,15.75512 290.22331,21.20522 C 302.2136,31.76619 312.38979,37.36218 319.60439,37.36218 C 324.15578,37.36218 328.35715,32.28264 328.35715,26.77992 C 328.35715,23.50218 323.15271,18.28549 318.26532,16.66433 C 311.44654,14.40253 296.93765,7.60369 296.5689,6.49742 C 295.94503,4.62582 297.78638,5.13074 310.96751,10.44566 C 317.95593,13.26354 325.95197,15.77449 328.90881,16.07967 C 333.86685,16.59138 334.45854,16.41464 337.30006,13.57311 C 341.34846,9.52472 341.41295,5.26413 337.48528,1.33647 C 335.90576,-0.24306 333.54326,-1.75962 332.23528,-2.03367 C 330.92731,-2.30772 325.13215,-3.46031 319.35715,-4.59499 C 305.24488,-7.36776 303.06447,-8.01586 302.53838,-9.59413 C 302.20146,-10.60489 302.80961,-10.78355 304.97322,-10.30946 C 306.55938,-9.9619 311.00715,-8.98199 314.85715,-8.13188 C 318.70715,-7.28177 325.25186,-6.3133 329.40094,-5.97971 C 338.17186,-5.27453 341.17068,-6.38354 346.30485,-12.23103 C 349.83088,-16.24696 349.96324,-19.25699 346.82444,-24.04739 C 343.96671,-28.40884 339.44956,-29.78713 331.6899,-28.66528 C 322.69909,-27.36544 308.35715,-27.34856 308.35715,-28.63782 C 308.35715,-29.18782 310.70001,-29.63782 313.5635,-29.63782 C 316.42699,-29.63782 323.28949,-30.36703 328.8135,-31.25829 C 342.83322,-33.52027 350.34509,-37.84946 353.88972,-45.71005 C 355.45964,-49.19151 355.5068,-49.98968 354.2782,-52.28534 C 351.75938,-56.99179 349.29357,-57.30468 339.06557,-54.21563 C 324.04763,-49.67993 304.91314,-44.79632 304.10715,-45.29335 C 302.30017,-46.40766 303.67002,-47.50965 307.60715,-48.10895 C 314.15504,-49.10566 332.14115,-54.59175 339.13799,-57.72644 C 350.41067,-62.77678 359.45425,-70.5454 366.96119,-81.62714 C 370.22614,-86.44686 371.35715,-89.08403 371.35715,-91.87714 C 371.35715,-97.11586 369.71517,-96.80354 359.7382,-89.66709 C 343.27543,-77.8914 313.74578,-62.91586 311.47203,-65.1896 C 310.66839,-65.99325 313.28273,-67.4793 317.60608,-68.67634 C 324.57351,-70.60546 347.7902,-83.63589 358.48036,-91.61713 C 369.89119,-100.13642 388.34359,-118.90421 392.10715,-125.81866 C 394.75722,-130.68741 395.15097,-136.63782 392.82308,-136.63782 C 391.97933,-136.63782 388.48339,-133.95494 385.0543,-130.67587 C 379.2152,-125.0922 368.92827,-116.62416 356.29132,-106.99862 C 351.14709,-103.08027 320.42454,-86.59595 315.60715,-85.16935 C 314.36965,-84.80288 313.35715,-84.93084 313.35715,-85.45369 C 313.35715,-85.97655 319.89498,-89.5896 327.88565,-93.48271 C 342.85535,-100.77602 357.1054,-109.70394 365.85715,-117.27253 C 392.31442,-140.15301 399.85377,-148.61906 402.79012,-158.74516 C 404.64834,-165.1533 403.72159,-169.63782 400.53911,-169.63782 C 399.47412,-169.63782 393.97435,-164.80328 387.74111,-158.38782 C 381.72937,-152.20032 372.32112,-143.55796 366.83391,-139.18259 C 361.34669,-134.80721 354.48255,-129.3273 351.58025,-127.00502 C 343.61464,-120.63129 311.59099,-101.07064 310.65472,-102.00692 C 309.23122,-103.43042 311.85694,-105.63928 319.50954,-109.45595 C 347.20438,-123.26853 389.32747,-159.28112 405.16909,-182.68947 C 410.98505,-191.28341 414.14506,-198.71469 415.47548,-206.92664 C 417.08683,-216.87262 413.56742,-224.44234 410.11562,-218.45488 C 404.48153,-208.68204 389.88366,-188.08963 384.74593,-182.66726 C 381.27537,-179.00442 377.52708,-174.85227 376.41639,-173.44027 C 374.16493,-170.57799 351.08798,-149.76739 344.85715,-144.9804 C 338.00199,-139.71376 313.58753,-123.63782 312.44426,-123.63782 C 310.36179,-123.63782 311.3769,-125.59667 314.22172,-127.06779 C 315.79723,-127.88252 323.03614,-132.57383 330.30817,-137.49293 C 360.72927,-158.07098 394.23398,-193.62747 408.18407,-220.13782 C 411.40706,-226.2627 417.22102,-242.4989 418.34888,-248.52431 C 419.47632,-254.54744 419.67302,-262.6511 418.75016,-265.05603 C 417.94014,-267.16691 414.0534,-267.06863 412.09801,-264.88782 C 411.235,-263.92532 408.84757,-258.18782 406.79261,-252.13782 C 402.30896,-238.93753 395.75233,-225.99666 387.75821,-214.56952 C 376.32115,-198.22088 349.91374,-173.69098 326.68793,-157.84119 C 324.031,-156.02805 318.48215,-152.1948 314.35715,-149.32287 C 310.23215,-146.45093 304.38457,-142.58334 301.36253,-140.72822 C 292.17011,-135.08533 280.731,-125.93527 272.4094,-117.56882 C 265.99975,-111.12462 263.60164,-107.78644 259.70308,-99.88163 C 255.6686,-91.70121 254.83427,-89.02251 254.50314,-83.1867 C 254.04769,-75.15992 255.6396,-65.09781 258.86546,-55.61339 C 261.99059,-46.42514 262.73823,-39.79047 261.38375,-33.26597 C 259.9545,-26.38127 257.1898,-22.22895 250.83937,-17.42929 C 248.1055,-15.36303 245.71115,-13.19983 245.5186,-12.62218 C 245.32605,-12.04453 249.23673,-7.74226 254.209,-3.06158 C 265.16578,7.25268 268.8601,12.65015 279.84042,34.38637 C 284.50978,43.62965 289.04338,51.90555 289.91509,52.77726 C 291.90125,54.76342 295.60075,54.80469 299.31851,52.88216 z M -31.49917,-90.1815 C -29.91967,-95.18146 -28.85909,-96.69336 -24.89373,-99.59777 C -18.31635,-104.41535 -9.92562,-107.18098 2.35715,-108.5798 C 27.6612,-111.46154 35.5911,-113.79102 50.54545,-122.73553 C 64.51833,-131.093 88.31339,-155.98395 108.12337,-182.96521 C 123.68264,-204.157 122.50418,-202.60677 130.2188,-212.03114 C 138.88963,-222.62364 148.96045,-231.97847 164.35715,-243.74242 C 176.61073,-253.10485 185.5335,-258.4762 195.56786,-262.53072 C 206.82997,-267.08133 205.59874,-270.07909 192.82553,-269.20767 C 181.88258,-268.4611 175.83773,-266.51515 162.35715,-259.3993 C 146.3303,-250.93939 141.2666,-247.24694 130.23031,-235.97244 C 119.82997,-225.34761 115.00828,-219.72946 92.60997,-192.13782 C 84.57336,-182.23782 75.47773,-171.21282 72.39745,-167.63782 C 69.31717,-164.06282 64.88341,-158.55032 62.54465,-155.38782 C 60.20589,-152.22532 57.63194,-149.63782 56.82476,-149.63782 C 56.01757,-149.63782 55.35715,-149.92897 55.35715,-150.28483 C 55.35715,-151.02483 63.00365,-160.58628 69.97771,-168.56688 C 73.28159,-172.34758 78.14658,-178.47376 90.35715,-194.22942 C 94.48215,-199.55203 101.00715,-207.61489 104.85715,-212.14689 C 108.70715,-216.6789 114.77365,-223.85628 118.33826,-228.09664 C 121.90288,-232.33699 128.09038,-238.7339 132.08826,-242.31199 C 139.39079,-248.84772 140.64705,-251.3224 137.84353,-253.64913 C 136.62858,-254.65744 135.15922,-254.65689 130.39727,-253.64633 C 123.98145,-252.2848 114.291,-246.7814 102.51262,-237.81008 C 95.66303,-232.59291 80.97666,-216.06716 74.36559,-206.13782 C 72.53461,-203.38782 67.38621,-196.41282 62.9247,-190.63782 C 58.46319,-184.86282 51.27552,-174.83991 46.9521,-168.3647 C 42.62868,-161.88948 38.66194,-156.32619 38.13711,-156.00183 C 37.61229,-155.67747 36.71064,-155.88433 36.13344,-156.46153 C 35.40086,-157.19411 36.58623,-159.41715 40.05951,-163.82439 C 42.79604,-167.29678 47.48413,-173.73782 50.47749,-178.13782 C 53.47085,-182.53782 60.63083,-192.38148 66.38856,-200.01261 C 88.63673,-229.49975 88.37989,-228.93859 79.84778,-229.41858 C 75.5908,-229.65807 73.91652,-229.14354 68.45858,-225.91858 C 54.7427,-217.81419 46.80852,-208.57102 27.87358,-178.63782 C 25.79457,-175.35122 14.0539,-154.84537 12.44875,-151.69734 C 11.37189,-149.58539 9.35715,-149.20914 9.35715,-151.11999 C 9.35715,-153.26719 19.35686,-170.23334 33.07251,-191.35699 C 40.23209,-202.38356 41.53996,-206.05501 39.15715,-208.43782 C 36.13851,-211.45646 25.36246,-207.46165 18.40305,-200.74403 C 11.305,-193.89259 -3.64494,-162.44378 -7.31763,-146.63782 C -8.27611,-142.51282 -9.5289,-138.80721 -10.10159,-138.40313 C -12.30295,-136.84991 -12.89368,-137.79119 -12.32434,-141.94493 C -11.64275,-146.91773 -1.60496,-175.23516 3.80338,-187.4426 C 7.84055,-196.5551 7.99376,-198.97293 4.56498,-199.46156 C -2.51697,-200.47079 -16.20981,-188.18821 -22.61216,-175.08346 C -27.12151,-165.8534 -30.23312,-149.77636 -29.11286,-141.49567 C -28.47369,-136.77111 -29.75507,-134.35004 -31.80815,-136.40312 C -32.97337,-137.56834 -31.68109,-151.18687 -29.02492,-165.73396 C -27.52278,-173.96071 -27.4642,-175.79231 -28.6144,-178.56913 C -30.57356,-183.29897 -32.3279,-184.63782 -36.5664,-184.63782 C -41.94567,-184.63782 -46.61723,-181.15465 -49.97959,-174.63678 C -52.7155,-169.33327 -52.79812,-168.74685 -52.30428,-158.13782 C -51.7733,-146.73115 -49.62766,-137.4487 -45.77754,-129.90184 C -43.4514,-125.34223 -43.04795,-122.63782 -44.69388,-122.63782 C -46.92079,-122.63782 -54.07919,-144.79416 -55.4591,-155.9578 C -56.48069,-164.22265 -58.59,-167.86421 -63.44068,-169.73735 C -66.20089,-170.80324 -71.2437,-168.92306 -74.03867,-165.78597 C -80.15666,-158.91907 -74.47877,-135.62339 -63.45624,-122.36758 C -57.99982,-115.80563 -59.19836,-113.87344 -64.95245,-119.95551 C -67.61268,-122.76737 -71.40272,-128.6632 -74.05552,-134.11635 C -79.39491,-145.09209 -82.08704,-147.63782 -88.35463,-147.63782 C -91.97115,-147.63782 -93.36239,-147.07213 -95.84057,-144.59395 C -98.57617,-141.85835 -98.81835,-141.1241 -98.23187,-137.34395 C -96.64016,-127.0846 -85.66013,-113.61523 -73.11878,-106.53733 C -67.03885,-103.10603 -65.60897,-101.63782 -68.34718,-101.63782 C -70.81477,-101.63782 -80.02884,-107.83678 -86.14285,-113.61024 C -96.12861,-123.03979 -102.53644,-125.38043 -109.91984,-122.29544 C -115.29208,-120.05078 -116.41578,-116.93115 -114.28589,-110.17435 C -112.21414,-103.60201 -105.26131,-96.82545 -96.14285,-92.4913 C -90.31283,-89.72019 -89.68435,-89.63938 -73.95823,-89.63861 C -57.99023,-89.63783 -50.26774,-88.64496 -39.64285,-85.22671 C -37.16785,-84.43045 -34.74638,-83.87936 -34.26181,-84.00207 C -33.77724,-84.12478 -32.53405,-86.90552 -31.49917,-90.1815 z M 386.35715,-104.06639 C 386.35715,-104.85211 385.62985,-106.22227 384.74092,-107.11119 C 383.38469,-108.46742 382.81099,-108.51913 381.17462,-107.43262 C 377.56005,-105.03264 378.68238,-103.84854 385.60715,-102.75613 C 386.01965,-102.69106 386.35715,-103.28068 386.35715,-104.06639 z M 334.36783,-167.06623 C 345.93616,-174.96064 346.95932,-176.03592 345.8387,-179.12142 C 344.31554,-183.3153 335.33355,-188.2387 324.18619,-190.99005 C 309.55699,-194.60078 304.35715,-198.85077 304.35715,-207.19695 C 304.35715,-210.27987 305.07857,-211.63376 308.40991,-214.80279 C 310.63892,-216.9232 312.24145,-219.01601 311.97108,-219.45348 C 310.56153,-221.73418 299.35891,-225.98091 289.18885,-228.08985 C 271.78944,-231.69793 263.61836,-236.41058 261.50766,-244.05489 C 260.08659,-249.20156 261.18585,-252.6042 264.99581,-254.85213 C 266.84455,-255.94292 268.35715,-257.1563 268.35715,-257.54854 C 268.35715,-258.92966 262.60353,-262.49401 258.75284,-263.49838 C 256.61021,-264.05723 249.68215,-264.7685 243.35715,-265.07897 C 227.69333,-265.84784 219.94845,-267.10926 216.03266,-269.52935 C 209.38797,-273.636 208.83929,-279.37649 214.52639,-285.28867 C 217.25017,-288.12025 217.36982,-288.49465 215.70722,-288.98352 C 211.40935,-290.24727 195.01845,-290.66947 184.08933,-289.79794 C 170.57874,-288.72055 165.32622,-289.59038 162.32829,-293.40164 C 160.00947,-296.34954 159.791,-302.02347 161.85715,-305.63782 C 162.64317,-307.01282 163.30223,-308.54076 163.32171,-309.03323 C 163.39061,-310.77408 143.95335,-308.85285 133.35715,-306.07145 C 120.67568,-302.7427 109.12441,-302.24985 105.12999,-304.86709 C 100.65123,-307.80168 100.60278,-314.02631 105.02428,-318.4478 C 107.50684,-320.93036 105.33509,-321.90498 98.42271,-321.4104 C 92.64258,-320.99683 90.21819,-320.11251 80.11443,-314.73225 C 70.00437,-309.34864 67.54992,-308.45378 61.50327,-307.94685 C 55.44053,-307.43857 54.07259,-307.65057 50.94591,-309.58296 C 47.13238,-311.93985 46.24707,-313.99928 46.62349,-319.63782 C 46.83455,-322.79931 46.58491,-323.16903 44.04231,-323.4605 C 38.64477,-324.07925 30.83246,-320.6283 21.40519,-313.46098 C 10.38097,-305.07953 3.44035,-301.66084 -2.5784,-301.64759 C -8.69599,-301.63411 -11.64285,-304.45096 -11.64285,-310.31213 C -11.64285,-314.13426 -11.90478,-314.63668 -13.89285,-314.62805 C -18.99109,-314.60592 -26.30162,-309.92551 -32.5163,-302.70478 C -43.22182,-290.26626 -48.51123,-286.63782 -55.9382,-286.63782 C -61.15929,-286.63782 -63.33943,-288.5731 -63.81467,-293.62963 C -64.01746,-295.78726 -64.72864,-297.23215 -65.67598,-297.41119 C -68.50702,-297.94623 -75.55741,-290.59264 -83.01941,-279.32192 C -91.34828,-266.74186 -93.50359,-264.4296 -99.06815,-262.10458 C -105.96431,-259.22319 -112.5228,-262.327 -114.27299,-269.3003 C -114.99831,-272.19023 -115.64473,-272.21078 -119.14778,-269.45528 C -123.07833,-266.36351 -129.02867,-256.78255 -132.26086,-248.34122 C -137.50265,-234.65155 -143.60305,-228.63782 -152.24824,-228.63782 C -156.81708,-228.63782 -157.77861,-229.01045 -159.9894,-231.63782 C -161.37778,-233.28782 -163.18714,-234.63782 -164.0102,-234.63782 C -167.20235,-234.63782 -171.68521,-225.36235 -175.12616,-211.63782 C -176.02246,-208.06282 -177.16059,-203.60258 -177.65533,-201.72618 C -178.4869,-198.5723 -178.26023,-198.0199 -174.6551,-194.41478 C -170.97165,-190.73132 -170.61064,-190.59082 -168.14676,-191.88178 C -166.71204,-192.6335 -164.77423,-194.40119 -163.84052,-195.80998 C -161.3121,-199.62484 -137.45252,-221.86935 -127.14285,-230.02356 C -99.25264,-252.08273 -65.95841,-269.55789 -30.9555,-280.50947 C 3.83856,-291.39569 23.24797,-294.53007 60.84119,-295.33348 C 90.47377,-295.96677 102.63249,-295.11341 122.85715,-290.98092 C 143.44953,-286.77329 169.95542,-278.81277 179.82075,-273.87301 C 184.30713,-271.6266 185.65702,-271.4333 193.86096,-271.86241 C 198.85309,-272.12354 203.93197,-271.96932 205.14736,-271.51972 C 207.48875,-270.65359 208.03648,-267.77567 206.4309,-264.77563 C 205.64183,-263.30123 207.15018,-262.16323 216.61596,-257.09137 C 239.0335,-245.07983 264.66844,-227.00874 280.33986,-212.16988 C 296.91555,-196.47479 305.97229,-186.40322 321.64978,-166.23108 C 323.18573,-164.25479 325.21553,-162.63782 326.16046,-162.63782 C 327.10538,-162.63782 330.7987,-164.63061 334.36783,-167.06623 z"
       id="path2609" />
  </g>
</svg>
