<?xml version="1.0" encoding="UTF-8" standalone="no"?>
<!-- Generator: Adobe Illustrator 13.0.2, SVG Export Plug-In . SVG Version: 6.00 Build 14948)  -->
<svg
   xmlns:dc="http://purl.org/dc/elements/1.1/"
   xmlns:cc="http://creativecommons.org/ns#"
   xmlns:rdf="http://www.w3.org/1999/02/22-rdf-syntax-ns#"
   xmlns:svg="http://www.w3.org/2000/svg"
   xmlns="http://www.w3.org/2000/svg"
   xmlns:sodipodi="http://sodipodi.sourceforge.net/DTD/sodipodi-0.dtd"
   xmlns:inkscape="http://www.inkscape.org/namespaces/inkscape"
   version="1.0"
   id="Layer_1"
   x="0px"
   y="0px"
   width="485.46039"
   height="241.3031"
   viewBox="-0.258 -0.548 123.547 123.539"
   xml:space="preserve"
   sodipodi:version="0.32"
   inkscape:version="0.46+pre4"
   sodipodi:docname="motorbike-accident.svg"
   inkscape:output_extension="org.inkscape.output.svg.inkscape"><metadata
   id="metadata28"><rdf:RDF><cc:Work
       rdf:about=""><dc:format>image/svg+xml</dc:format><dc:type
         rdf:resource="http://purl.org/dc/dcmitype/StillImage" /><dc:title>motorbike accident compensation</dc:title><dc:subject><rdf:Bag><rdf:li>motorbike accident compensation claim insurace motorcycle hit injured kill die</rdf:li></rdf:Bag></dc:subject></cc:Work></rdf:RDF></metadata><defs
   id="defs26"><inkscape:perspective
   sodipodi:type="inkscape:persp3d"
   inkscape:vp_x="0 : 61.769501 : 1"
   inkscape:vp_y="0 : 1000 : 0"
   inkscape:vp_z="123.547 : 61.769501 : 1"
   inkscape:persp3d-origin="61.773499 : 41.179667 : 1"
   id="perspective30" /><marker
   viewBox="0 0 10 10"
   refY="5"
   refX="10"
   orient="auto"
   markerWidth="4"
   markerUnits="strokeWidth"
   markerHeight="3"
   id="ArrowStart"><path
     id="path2295"
     d="M 10,0 L 0,5 L 10,10 L 10,0 z" /></marker><marker
   viewBox="0 0 10 10"
   refY="5"
   refX="0"
   orient="auto"
   markerWidth="4"
   markerUnits="strokeWidth"
   markerHeight="3"
   id="ArrowEnd"><path
     id="path2292"
     d="M 0,0 L 10,5 L 0,10 L 0,0 z" /></marker><inkscape:perspective
   id="perspective2432"
   inkscape:persp3d-origin="178.5405 : 158.483 : 1"
   inkscape:vp_z="357.08099 : 237.7245 : 1"
   inkscape:vp_y="0 : 1000 : 0"
   inkscape:vp_x="0 : 237.7245 : 1"
   sodipodi:type="inkscape:persp3d" />
	
	
	
	
	
	
	
	
	
	
</defs><sodipodi:namedview
   inkscape:window-height="751"
   inkscape:window-width="1280"
   inkscape:pageshadow="2"
   inkscape:pageopacity="0.0"
   guidetolerance="10.0"
   gridtolerance="10.0"
   objecttolerance="10.0"
   borderopacity="1.0"
   bordercolor="#666666"
   pagecolor="#ffffff"
   id="base"
   showgrid="false"
   inkscape:zoom="1.322187"
   inkscape:cx="263.73383"
   inkscape:cy="143.35187"
   inkscape:window-x="-4"
   inkscape:window-y="-4"
   inkscape:current-layer="Layer_1" />

<g
   id="g2536"
   transform="matrix(0.8388678,0,0,0.8388678,-3.46961,-14.448252)"><path
     style="fill:#000000"
     d="M 68.715029,42.565524 C 71.808572,36.614322 70.618131,29.067421 65.402153,24.381332 C 59.174719,18.786538 49.643796,19.275729 44.061294,25.489482 C 43.120634,26.536509 42.384035,27.600397 41.809302,28.784985 L 46.319357,32.836868 C 45.955958,33.914645 45.909427,34.683752 45.909427,34.683752 C 45.508586,37.852411 46.636805,41.170188 49.186879,43.461201 C 53.354919,47.205812 59.780269,46.861974 63.52488,42.693934 C 64.382781,41.739023 65.406263,41.087805 65.749155,39.9026 L 68.714209,42.566436 L 68.715029,42.565524 z"
     id="path9" /><path
     style="fill:#000000"
     d="M 11.238943,115.48411 C 9.1036002,116.2511 6.6041786,116.40692 4.36898,115.32898 L 18.644241,85.728055 L 41.972984,89.726104 L 42.22196,102.30921 L 11.238943,115.48411 z"
     id="path11" /><path
     style="fill:#000000"
     d="M 44.175531,40.68461 C 44.183856,38.43901 43.264922,36.209171 41.448131,34.576947 C 39.524631,32.848854 36.999411,32.190455 34.640442,32.594512 L 2.7863553,41.047602 C 1.4179156,41.466372 0.15114349,42.259974 -0.86653865,43.392732 C -2.7675226,45.508673 -3.3570518,48.314974 -2.7184285,50.871497 L 6.3131002,77.05136 L -8.96688,94.05915 C -11.130879,96.467845 -10.94554,100.17468 -8.537746,102.33787 C -6.1436306,104.48877 -2.4308972,104.28402 -0.26689745,101.87532 L 18.815881,80.634715 C 18.815881,80.634715 22.433958,77.768799 20.250224,72.459433 L 14.296374,56.499369 L 33.704592,51.35074 L 31.924814,62.075302 C 31.551057,64.224988 32.246519,65.815639 33.335098,66.754075 L 44.531554,76.735623 C 49.070795,80.813725 54.371428,74.913714 49.81252,70.857501 L 40.770518,62.73407 L 44.175531,40.68461 z"
     id="path13" /><path
     style="fill:#000000"
     d="M 70.189291,102.04594 C 70.304513,102.35741 70.309412,102.70007 70.143247,103.04462 C 69.831156,103.69177 69.025788,103.97308 68.37864,103.66099 C 68.197527,103.57365 68.084884,103.51932 67.971872,103.40085 C 66.116486,101.27284 64.932086,99.935305 62.231957,98.633148 C 60.428558,97.763446 57.920554,97.31893 54.355622,98.162831 L 54.246947,92.325376 C 57.635324,92.863689 60.446864,93.251771 62.974715,94.470845 C 67.02051,96.42332 68.7471,98.287761 70.189291,102.04594 z"
     id="path15" /><path
     style="fill:#000000"
     d="M -22.235784,61.918914 L -5.433362,85.580369 L -7.8238668,90.669936 L -27.026504,63.670338 C -28.445774,61.783957 -30.717016,59.987622 -32.51931,59.118453 C -35.219439,57.816296 -37.011826,57.716892 -39.815108,57.599585 C -39.987018,57.580656 -40.107392,57.522605 -40.271939,57.443251 C -40.919087,57.131159 -41.213492,56.330366 -40.9014,55.683218 C -40.730975,55.329827 -40.464047,55.129148 -40.144314,55.016549 C -36.297786,53.808893 -33.192858,54.274487 -29.14653,56.225858 C -27.075347,57.22334 -24.664131,58.684266 -22.235784,61.918914 z"
     id="path17" /><path
     style="fill:#000000"
     d="M -42.506593,109.37701 C -35.05225,112.97192 -26.099899,109.84492 -22.497004,102.37403 C -18.894099,94.903106 -22.021102,85.950766 -29.475445,82.355855 C -36.929788,78.760944 -45.882134,81.887931 -49.485039,89.35885 C -53.087933,96.829747 -49.960936,105.7821 -42.506593,109.37701 z M -55.463441,86.474361 C -50.275048,75.7158 -37.338081,71.182309 -26.587262,76.36697 C -15.811043,81.563879 -11.303743,94.509995 -16.492137,105.26856 C -21.68052,116.02709 -34.613231,120.55176 -45.38945,115.35485 C -56.140802,110.17129 -60.651825,97.232899 -55.463441,86.474361 z"
     id="path19" /><path
     style="fill:#000000"
     d="M 38.050006,148.22601 C 45.522019,151.82945 54.473266,148.70192 58.07616,141.23102 C 61.679065,133.7601 58.552062,124.80776 51.081154,121.20486 C 43.644481,117.61847 34.692135,120.74546 31.08923,128.21638 C 27.486336,135.68727 30.613333,144.63962 38.050006,148.22601 z M 25.101992,125.32763 C 30.290386,114.56907 43.210788,110.02759 53.969337,115.21597 C 64.727887,120.40436 69.252856,133.359 64.064463,144.11756 C 58.876079,154.8761 45.925698,159.39224 35.167149,154.20386 C 24.408599,149.01547 19.913609,136.08616 25.101992,125.32763 z"
     id="path21" /><path
     style="fill:#000000"
     d="M 51.016867,110.37827 L 50.681553,86.884452 C 50.542448,84.020128 48.862638,81.285308 46.092936,79.949599 L 39.915218,76.97035 C 38.698228,76.383448 37.249407,76.917979 36.666765,78.126135 C 36.079863,79.343125 36.580159,80.775436 37.79715,81.362339 L 43.987117,84.316188 C 45.030725,84.819475 45.854428,86.089233 45.795722,87.314575 L 45.949846,109.79541 L 51.016867,110.37827 z"
     id="path23" /><path
     id="path2301"
     d="M 112.59478,35.797186 C 103.52563,35.79718 98.710306,40.770166 96.489286,46.565664 L 84.728966,76.981906 C 80.055216,77.581206 71.740646,83.072436 71.740666,93.465236 L 71.740666,132.19399 L 83.217596,132.19399 L 83.217596,144.5683 C 83.217566,159.80015 104.80181,159.62076 104.8018,144.5683 L 104.8018,132.19399 L 143.57778,132.19399 L 182.35376,132.19399 L 182.35376,144.5683 C 182.35373,159.62076 203.89072,159.80015 203.89072,144.5683 L 203.89072,132.19399 L 215.36765,132.19399 L 215.36765,93.465236 C 215.36762,83.072436 207.10032,77.581206 202.42658,76.981906 L 190.61904,46.565664 C 188.39799,40.770166 183.58268,35.797181 174.51355,35.797186 L 157.84129,35.797186 L 129.45595,35.797186 L 112.59478,35.797186 z M 112.50032,46.896276 L 143.53055,46.896276 L 143.57778,46.896276 L 174.65524,46.896276 C 178.54182,46.932473 180.20417,49.387505 181.31469,52.752818 L 190.19397,76.698516 L 143.57778,76.698516 L 143.53055,76.698516 L 96.914356,76.698516 L 105.79363,52.752818 C 106.90414,49.387505 108.61333,46.932473 112.50032,46.896276 z M 94.363926,88.317146 C 99.863416,88.317146 104.3295,92.945326 104.3295,98.613326 C 104.3295,104.28174 99.863406,108.86228 94.363926,108.86228 C 88.864876,108.86228 84.398356,104.28174 84.398356,98.613326 C 84.398366,92.945326 88.864866,88.317146 94.363926,88.317146 z M 192.79163,88.317146 C 198.29108,88.317146 202.75721,92.945326 202.75719,98.613326 C 202.75718,104.28174 198.29109,108.86228 192.79163,108.86228 C 187.29254,108.86228 182.82606,104.28174 182.82606,98.613326 C 182.82604,92.945326 187.29255,88.317146 192.79163,88.317146 z"
     style="fill:#000000;stroke:#ffffff" /></g><path
   d=""
   style="fill:#ffffff;stroke:none"
   id="path2323" /><path
   d=""
   style="fill:#ffffff;stroke:none"
   id="path2329" /></svg>