<?xml version="1.0" encoding="utf-8"?>
<!-- Generator: Adobe Illustrator 11.0, SVG Export Plug-In  -->
<!DOCTYPE svg PUBLIC "-//W3C//DTD SVG 1.0//EN"    "http://www.w3.org/TR/2001/REC-SVG-20010904/DTD/svg10.dtd" [
	<!ENTITY ns_flows "http://ns.adobe.com/Flows/1.0/">
	<!ENTITY ns_svg "http://www.w3.org/2000/svg">
	<!ENTITY ns_xlink "http://www.w3.org/1999/xlink">
]>
<svg  xmlns="&ns_svg;" xmlns:xlink="&ns_xlink;" xmlns:a="http://ns.adobe.com/AdobeSVGViewerExtensions/3.0/"
	 width="512" height="512" viewBox="-0.88 -0.952 512 512" xml:space="preserve">
	<defs>
	</defs>
	<g>
		<path fill="#ED171F" d="M510.192,255.096C510.192,114.552,395.64,0,255.096,0C114.624,0,0,114.552,0,255.096
			c0,140.472,114.624,255.096,255.096,255.096C395.64,510.192,510.192,395.568,510.192,255.096z"/>
		<path fill="#FEB82F" d="M451.224,255.024c0-108.144-88.056-196.344-196.128-196.344c-107.928,0-196.056,88.2-196.056,196.344
			c0,108.072,88.128,196.344,196.056,196.344C363.168,451.368,451.224,363.096,451.224,255.024z"/>
		<path stroke="#000000" stroke-width="0.216" d="M276.336,320.832c-8.712-20.808-13.104-42.984-13.104-65.736
			s4.392-45.216,13.104-66.024c6.768-14.76,16.92-27.576,29.736-37.944c11.088-9,24.912-13.824,39.168-13.824
			c14.472,0,28.296,5.112,39.384,14.04c12.816,10.152,22.968,23.184,29.736,37.944c8.712,21.096,13.104,43.344,13.104,66.024
			c0,22.032-4.392,44.424-13.104,65.52c-6.768,14.688-16.92,27.792-29.736,37.944c-11.088,8.928-24.912,13.752-39.168,14.04
			c-14.472,0-28.296-5.112-39.384-14.04C293.256,348.624,283.104,335.52,276.336,320.832z"/>
		<path stroke="#000000" stroke-width="0.216" d="M152.856,176.544h79.632v-39.168H118.584l-15.048,113.688l39.168,18.144
			c11.88-23.472,46.008-22.248,55.872,2.16c2.952,6.768,4.392,13.968,4.392,21.456c0,7.992-1.728,15.984-5.112,23.184
			c-12.096,25.2-48.6,22.536-57.024-4.104L103.32,323.28c8.928,29.304,36,49.32,66.744,49.32c27.072,0,51.768-15.479,63.36-39.888
			c5.832-12.528,8.64-26.136,8.64-39.888c0-12.6-2.376-24.84-7.2-36.432c-10.872-26.352-36.288-43.272-64.584-43.272
			c-7.704,0-15.192,1.152-22.464,3.6L152.856,176.544z"/>
		<path fill="#FEB82F" stroke="#000000" stroke-width="0.216" d="M312.192,305.064c-6.336-15.984-9.72-32.832-9.72-50.04
			c0-17.136,3.384-34.344,9.72-50.04c4.32-9.216,10.584-16.92,18.576-23.184c4.104-3.384,9.216-5.328,14.544-5.328
			c5.544,0,10.584,1.944,14.76,5.328c7.92,6.264,14.256,14.256,18.36,23.184c6.48,15.984,9.864,33.12,9.864,50.328
			c0,16.632-3.384,33.48-9.864,49.464c-4.104,9.216-10.44,17.208-18.36,23.472c-4.176,3.384-9.216,5.04-14.76,5.04
			c-5.328,0-10.44-1.656-14.76-5.04C322.776,321.984,316.512,313.992,312.192,305.064z"/>
	</g>
</svg>
