<?xml version="1.0" encoding="UTF-8" standalone="no"?>
<!-- Created with Inkscape (http://www.inkscape.org/) -->

<svg
   xmlns:dc="http://purl.org/dc/elements/1.1/"
   xmlns:cc="http://creativecommons.org/ns#"
   xmlns:rdf="http://www.w3.org/1999/02/22-rdf-syntax-ns#"
   xmlns:svg="http://www.w3.org/2000/svg"
   xmlns="http://www.w3.org/2000/svg"
   xmlns:xlink="http://www.w3.org/1999/xlink"
   xmlns:sodipodi="http://sodipodi.sourceforge.net/DTD/sodipodi-0.dtd"
   xmlns:inkscape="http://www.inkscape.org/namespaces/inkscape"
   width="371.83322"
   height="443.17529"
   id="svg2"
   version="1.1"
   inkscape:version="0.48.0 r9654"
   sodipodi:docname="twitter_bird_28.svg">
  <defs
     id="defs4">
    <linearGradient
       inkscape:collect="always"
       id="linearGradient3828">
      <stop
         style="stop-color:#bab9ff;stop-opacity:1;"
         offset="0"
         id="stop3830" />
      <stop
         style="stop-color:#bab9ff;stop-opacity:0;"
         offset="1"
         id="stop3832" />
    </linearGradient>
    <inkscape:perspective
       sodipodi:type="inkscape:persp3d"
       inkscape:vp_x="0 : 526.18109 : 1"
       inkscape:vp_y="0 : 1000 : 0"
       inkscape:vp_z="744.09448 : 526.18109 : 1"
       inkscape:persp3d-origin="372.04724 : 350.78739 : 1"
       id="perspective10" />
    <radialGradient
       r="17.762894"
       fy="755.89709"
       fx="357.27307"
       cy="755.89709"
       cx="357.27307"
       gradientTransform="matrix(-1.3448616,-1.7331322,1.7350121,-1.3463204,-548.57558,2401.6155)"
       gradientUnits="userSpaceOnUse"
       id="radialGradient4000"
       xlink:href="#linearGradient3961"
       inkscape:collect="always" />
    <linearGradient
       gradientTransform="translate(-0.12521777,-0.12521777)"
       y2="709.34381"
       x2="268.11246"
       y1="727.99298"
       x1="266.30829"
       gradientUnits="userSpaceOnUse"
       id="linearGradient3971"
       xlink:href="#linearGradient3919"
       inkscape:collect="always" />
    <linearGradient
       y2="542.42816"
       x2="367.87439"
       y1="537.79114"
       x1="379.51331"
       gradientTransform="matrix(0.58600563,0,0,0.56458821,70.325158,366.93687)"
       gradientUnits="userSpaceOnUse"
       id="linearGradient3969"
       xlink:href="#linearGradient3799"
       inkscape:collect="always" />
    <linearGradient
       y2="817.84351"
       x2="321.60953"
       y1="860.68597"
       x1="321.60718"
       gradientTransform="translate(-54.139706,-43.111248)"
       gradientUnits="userSpaceOnUse"
       id="linearGradient3888"
       xlink:href="#linearGradient3871"
       inkscape:collect="always" />
    <linearGradient
       y2="817.84351"
       x2="321.60953"
       y1="860.68597"
       x1="321.60718"
       gradientTransform="translate(-54.139706,-43.111248)"
       gradientUnits="userSpaceOnUse"
       id="linearGradient3886"
       xlink:href="#linearGradient3871"
       inkscape:collect="always" />
    <linearGradient
       gradientUnits="userSpaceOnUse"
       y2="817.84351"
       x2="321.60953"
       y1="860.68597"
       x1="321.60718"
       id="linearGradient3877"
       xlink:href="#linearGradient3871"
       inkscape:collect="always" />
    <inkscape:perspective
       sodipodi:type="inkscape:persp3d"
       inkscape:vp_x="0 : 0.5 : 1"
       inkscape:vp_y="0 : 1000 : 0"
       inkscape:vp_z="1 : 0.5 : 1"
       inkscape:persp3d-origin="0.5 : 0.33333333 : 1"
       id="perspective3049" />
    <inkscape:perspective
       id="perspective2941"
       inkscape:persp3d-origin="0.5 : 0.33333333 : 1"
       inkscape:vp_z="1 : 0.5 : 1"
       inkscape:vp_y="0 : 1000 : 0"
       inkscape:vp_x="0 : 0.5 : 1"
       sodipodi:type="inkscape:persp3d" />
    <linearGradient
       id="linearGradient3871">
      <stop
         id="stop3873"
         offset="0"
         style="stop-color:#ffff00;stop-opacity:1;" />
      <stop
         id="stop3875"
         offset="1"
         style="stop-color:#ffff00;stop-opacity:0;" />
    </linearGradient>
    <linearGradient
       id="linearGradient3799">
      <stop
         id="stop3801"
         offset="0"
         style="stop-color:#ff0000;stop-opacity:1;" />
      <stop
         id="stop3803"
         offset="1"
         style="stop-color:#ff0000;stop-opacity:0;" />
    </linearGradient>
    <linearGradient
       id="linearGradient3919"
       inkscape:collect="always">
      <stop
         id="stop3921"
         offset="0"
         style="stop-color:#bab9ff;stop-opacity:1;" />
      <stop
         id="stop3923"
         offset="1"
         style="stop-color:#bab9ff;stop-opacity:0;" />
    </linearGradient>
    <linearGradient
       id="linearGradient3961"
       inkscape:collect="always">
      <stop
         id="stop3963"
         offset="0"
         style="stop-color:#bab9ff;stop-opacity:1;" />
      <stop
         id="stop3965"
         offset="1"
         style="stop-color:#bab9ff;stop-opacity:0;" />
    </linearGradient>
    <radialGradient
       inkscape:collect="always"
       xlink:href="#linearGradient3828"
       id="radialGradient3836"
       cx="240.0703"
       cy="566.08606"
       fx="240.0703"
       fy="566.08606"
       r="22.030525"
       gradientTransform="matrix(1.3714766e-7,-0.58478814,1.5843258,3.7156132e-7,-676.104,723.94018)"
       gradientUnits="userSpaceOnUse" />
    <radialGradient
       inkscape:collect="always"
       xlink:href="#linearGradient3828"
       id="radialGradient3847"
       gradientUnits="userSpaceOnUse"
       gradientTransform="matrix(0.01947766,-1.0132938,1.5840332,0.03044848,-680.61433,809.57542)"
       cx="240.0703"
       cy="566.08606"
       fx="240.0703"
       fy="566.08606"
       r="22.030525" />
    <radialGradient
       inkscape:collect="always"
       xlink:href="#linearGradient3828"
       id="radialGradient3858"
       gradientUnits="userSpaceOnUse"
       gradientTransform="matrix(0.01947766,-1.0132938,1.5840332,0.03044848,-680.61433,809.57542)"
       cx="240.0703"
       cy="566.08606"
       fx="240.0703"
       fy="566.08606"
       r="22.030525" />
    <linearGradient
       inkscape:collect="always"
       xlink:href="#linearGradient3871"
       id="linearGradient3974"
       gradientUnits="userSpaceOnUse"
       gradientTransform="translate(-54.139706,-43.111248)"
       x1="321.60718"
       y1="860.68597"
       x2="321.60953"
       y2="817.84351" />
    <radialGradient
       inkscape:collect="always"
       xlink:href="#linearGradient3961"
       id="radialGradient3976"
       gradientUnits="userSpaceOnUse"
       gradientTransform="matrix(-1.3448616,-1.7331322,1.7350121,-1.3463204,-548.57558,2401.6155)"
       cx="357.27307"
       cy="755.89709"
       fx="357.27307"
       fy="755.89709"
       r="17.762894" />
    <linearGradient
       inkscape:collect="always"
       xlink:href="#linearGradient3799"
       id="linearGradient3978"
       gradientUnits="userSpaceOnUse"
       gradientTransform="matrix(0.58600563,0,0,0.56458821,70.325158,366.93687)"
       x1="379.51331"
       y1="537.79114"
       x2="367.87439"
       y2="542.42816" />
    <linearGradient
       inkscape:collect="always"
       xlink:href="#linearGradient3919"
       id="linearGradient3980"
       gradientUnits="userSpaceOnUse"
       gradientTransform="translate(-0.12521777,-0.12521777)"
       x1="266.30829"
       y1="727.99298"
       x2="268.11246"
       y2="709.34381" />
    <linearGradient
       inkscape:collect="always"
       xlink:href="#linearGradient3871"
       id="linearGradient3982"
       gradientUnits="userSpaceOnUse"
       gradientTransform="translate(-54.139706,-43.111248)"
       x1="321.60718"
       y1="860.68597"
       x2="321.60953"
       y2="817.84351" />
    <radialGradient
       inkscape:collect="always"
       xlink:href="#linearGradient3828"
       id="radialGradient22404"
       gradientUnits="userSpaceOnUse"
       gradientTransform="matrix(0.06198022,-2.8284602,5.0405814,0.08499244,-2347.7112,1083.1377)"
       cx="240.0703"
       cy="566.08606"
       fx="240.0703"
       fy="566.08606"
       r="22.030525" />
    <linearGradient
       inkscape:collect="always"
       xlink:href="#linearGradient3871"
       id="linearGradient22441"
       gradientUnits="userSpaceOnUse"
       gradientTransform="translate(-54.139706,-43.111248)"
       x1="321.60718"
       y1="860.68597"
       x2="321.60953"
       y2="817.84351" />
    <radialGradient
       inkscape:collect="always"
       xlink:href="#linearGradient3961"
       id="radialGradient22443"
       gradientUnits="userSpaceOnUse"
       gradientTransform="matrix(-1.3448616,-1.7331322,1.7350121,-1.3463204,-548.57558,2401.6155)"
       cx="357.27307"
       cy="755.89709"
       fx="357.27307"
       fy="755.89709"
       r="17.762894" />
    <linearGradient
       inkscape:collect="always"
       xlink:href="#linearGradient3799"
       id="linearGradient22445"
       gradientUnits="userSpaceOnUse"
       gradientTransform="matrix(0.58600563,0,0,0.56458821,70.325158,366.93687)"
       x1="379.51331"
       y1="537.79114"
       x2="367.87439"
       y2="542.42816" />
    <linearGradient
       inkscape:collect="always"
       xlink:href="#linearGradient3919"
       id="linearGradient22447"
       gradientUnits="userSpaceOnUse"
       gradientTransform="translate(-0.12521777,-0.12521777)"
       x1="266.30829"
       y1="727.99298"
       x2="268.11246"
       y2="709.34381" />
    <linearGradient
       inkscape:collect="always"
       xlink:href="#linearGradient3871"
       id="linearGradient22449"
       gradientUnits="userSpaceOnUse"
       gradientTransform="translate(-54.139706,-43.111248)"
       x1="321.60718"
       y1="860.68597"
       x2="321.60953"
       y2="817.84351" />
    <linearGradient
       inkscape:collect="always"
       xlink:href="#linearGradient3919"
       id="linearGradient3058"
       gradientUnits="userSpaceOnUse"
       gradientTransform="matrix(2.6723757,0,0,2.2248731,-152.01085,-1243.5968)"
       x1="266.30829"
       y1="727.99298"
       x2="268.11246"
       y2="709.34381" />
    <linearGradient
       inkscape:collect="always"
       xlink:href="#linearGradient3799"
       id="linearGradient3061"
       gradientUnits="userSpaceOnUse"
       gradientTransform="matrix(1.5660272,0,0,1.2561371,36.259023,-426.93023)"
       x1="379.51331"
       y1="537.79114"
       x2="367.87439"
       y2="542.42816" />
    <linearGradient
       inkscape:collect="always"
       xlink:href="#linearGradient3871"
       id="linearGradient3070"
       gradientUnits="userSpaceOnUse"
       gradientTransform="matrix(1.5660272,0,0,1.2561371,-47.471157,-482.88319)"
       x1="321.60718"
       y1="860.68597"
       x2="321.60953"
       y2="817.84351" />
    <radialGradient
       inkscape:collect="always"
       xlink:href="#linearGradient3961"
       id="radialGradient3076"
       gradientUnits="userSpaceOnUse"
       gradientTransform="matrix(-3.5939755,-3.8559992,4.6366042,-2.995392,-1616.6222,4098.1722)"
       cx="357.27307"
       cy="755.89709"
       fx="357.27307"
       fy="755.89709"
       r="17.762894" />
  </defs>
  <sodipodi:namedview
     id="base"
     pagecolor="#ffffff"
     bordercolor="#666666"
     borderopacity="1.0"
     inkscape:pageopacity="0.0"
     inkscape:pageshadow="2"
     inkscape:zoom="0.47702208"
     inkscape:cx="68.713346"
     inkscape:cy="103.68039"
     inkscape:document-units="px"
     inkscape:current-layer="layer1"
     showgrid="false"
     inkscape:snap-grids="false"
     inkscape:snap-to-guides="false"
     inkscape:window-width="800"
     inkscape:window-height="682"
     inkscape:window-x="175"
     inkscape:window-y="175"
     inkscape:window-maximized="0" />
  <metadata
     id="metadata7">
    <rdf:RDF>
      <cc:Work
         rdf:about="">
        <dc:format>image/svg+xml</dc:format>
        <dc:type
           rdf:resource="http://purl.org/dc/dcmitype/StillImage" />
        <dc:title />
      </cc:Work>
    </rdf:RDF>
  </metadata>
  <g
     inkscape:label="Layer 1"
     inkscape:groupmode="layer"
     id="layer1"
     transform="translate(-303.33389,-186.68619)">
    <g
       id="g3875"
       transform="matrix(1.544639,-0.20689631,0.25793765,1.2389812,-107.46778,-367.34381)"
       inkscape:export-filename="/Users/grzegorz/Sites/img/cliparty/kogut.png"
       inkscape:export-xdpi="90"
       inkscape:export-ydpi="90">
      <g
         id="g3877"
         transform="translate(-83.214733,-79.204386)">
        <path
           sodipodi:nodetypes="ccsccscsscssssssscssssssssssscsssssssssssscssssscsscssssssscsscc"
           id="path3879"
           d="m 356.74663,823.78901 c -0.40762,1.44825 -0.72726,3.02484 -0.9375,4.71875 -0.53836,1.18325 -0.98391,2.77373 -1.4375,4.5625 -0.45359,1.78877 -0.91358,3.77276 -1.46875,5.75 2.76724,9.81092 -12.63999,17.05108 -12.59375,20.78125 0.33276,0.58177 0.78341,1.21757 1.25,1.8125 0.93319,1.18986 1.9125,2.20504 2.1875,2.375 0.39711,2.2579 0.5236,4.37125 0.46875,6.40625 -0.0548,2.035 -0.28994,4.00285 -0.59375,5.96875 -0.60762,3.9318 -1.48953,7.89048 -1.875,12.46875 -1.07947,1.56348 -1.90562,3.24652 -2.46875,5 -0.56313,1.75348 -0.87243,3.57161 -0.96875,5.40625 -0.0963,1.83464 0.0228,3.66178 0.34375,5.46875 0.32096,1.80697 0.84255,3.57954 1.53125,5.25 0.6887,1.67046 1.5556,3.26238 2.5625,4.6875 1.0069,1.42512 2.16192,2.67906 3.4375,3.75 1.27558,1.07094 2.66154,1.95458 4.15625,2.5625 1.49471,0.60792 3.08568,0.96393 4.75,1 0.56463,-0.57121 0.93453,-1.22078 1.15625,-1.875 0.22172,-0.65422 0.30966,-1.33894 0.28125,-2.03125 -0.0568,-1.38461 -0.53062,-2.79501 -1.03125,-4.0625 -0.50063,-1.26749 -1.04786,-2.3652 -1.25,-3.15625 -0.10107,-0.39553 -0.11274,-0.72845 0,-0.9375 0.11274,-0.20905 0.36192,-0.3036 0.78125,-0.28125 1.07191,0.0571 2.02431,0.2086 2.875,0.40625 0.85069,0.19765 1.61002,0.429 2.3125,0.71875 1.40496,0.57951 2.56243,1.31135 3.8125,1.96875 1.25007,0.6574 2.57085,1.24579 4.25,1.59375 0.83957,0.17398 1.78741,0.28851 2.84375,0.3125 1.05634,0.024 2.21641,-0.0443 3.5625,-0.21875 0.3441,-0.44169 0.59967,-0.86663 0.75,-1.3125 0.15033,-0.44587 0.20605,-0.89767 0.1875,-1.34375 -0.0371,-0.89215 -0.3742,-1.78715 -0.9375,-2.65625 -0.5633,-0.8691 -1.35961,-1.71704 -2.25,-2.53125 -0.89039,-0.81421 -1.88788,-1.58501 -2.90625,-2.3125 -2.03674,-1.45498 -4.11472,-2.70788 -5.46875,-3.625 -0.67701,-0.45856 -1.16733,-0.84865 -1.375,-1.125 -0.10384,-0.13817 -0.14458,-0.2571 -0.0937,-0.34375 0.0508,-0.0866 0.17586,-0.1251 0.40625,-0.15625 1.61724,-0.21867 2.71406,-0.19226 3.59375,-0.0625 0.87969,0.12976 1.54645,0.3449 2.3125,0.53125 0.76605,0.18635 1.62994,0.33016 2.90625,0.28125 1.27631,-0.0489 2.96452,-0.26772 5.375,-0.84375 0.23645,-0.67503 0.17854,-1.36778 -0.125,-2.03125 -0.30354,-0.66347 -0.83719,-1.30741 -1.5625,-1.9375 -0.72531,-0.63009 -1.65865,-1.23761 -2.6875,-1.8125 -1.02885,-0.57489 -2.16083,-1.12711 -3.375,-1.625 -2.42833,-0.99577 -5.10225,-1.81813 -7.5625,-2.375 -2.46025,-0.55687 -4.70364,-0.83778 -6.25,-0.78125 -0.006,-2.99969 -0.59974,-6.80822 -0.84375,-10.8125 -0.122,-2.00214 -0.16728,-4.07299 0,-6.09375 0.16728,-2.02076 0.52961,-3.99063 1.21875,-5.875 1.32057,-0.27478 2.76031,-0.74318 4.25,-1.375 1.48969,-0.63182 3.04762,-1.44074 4.625,-2.375 1.57738,-0.93426 3.16636,-2.00539 4.75,-3.1875 1.58364,-1.18211 3.14777,-2.46838 4.65625,-3.84375 1.50848,-1.37537 2.9606,-2.82972 4.3125,-4.34375 1.3519,-1.51403 2.60486,-3.08941 3.71875,-4.6875 1.11389,-1.59809 2.08055,-3.21619 2.875,-4.84375 0.79445,-1.62756 1.41891,-3.27256 1.8125,-4.875 0.1676,-1.86785 0.20201,-3.64421 0.125,-5.3125 -0.077,-1.66829 -0.27034,-3.22184 -0.5625,-4.6875 -0.29216,-1.46566 -0.67842,-2.83379 -1.15625,-4.09375 -11.79217,-17.88536 -31.3409,-12.78363 -28.6563,2.0625 z"
           style="fill:#ffffff;fill-opacity:1;fill-rule:evenodd;stroke:none" />
        <path
           sodipodi:nodetypes="cssccccssssssssssssssccssscccscscccscc"
           id="path3881"
           d="m 376.40251,817.20178 c -0.0256,-0.59027 10.51492,7.15124 6.40113,18.06176 -1.57856,4.18663 -4.17089,10.53673 -8.73009,14.9194 -5.23257,5.02997 -12.73789,8.02498 -18.92032,11.55401 -2.30502,1.94648 -2.3607,2.36124 -2.08075,15.49999 l 0.28765,13.5 6,0.583 c 6.52071,0.6336 15.5,4.0964 15.5,5.9774 0,1.1746 -0.38876,1.1322 -8.35943,-0.9102 -3.91417,-1.0029 -10.64057,-0.481 -10.64057,0.8257 0,1.1225 2.98408,3.399 9.75,7.43805 6.10499,3.6444 7.72608,6.0825 4.79268,7.2081 -0.80153,0.3076 -5.55418,-1.6009 -10.56145,-4.241 -7.51356,-3.9615 -9.26083,-4.5466 -10.00107,-3.3489 -1.23023,1.9906 -0.17646,5.851 2.62511,9.6171 1.91206,2.5703 2.09773,3.3524 1.01007,4.2551 -1.81127,1.5032 -5.86788,-1.7479 -9.01801,-7.2274 -3.89167,-6.7694 -4.11868,-9.88195 -1.17462,-16.10515 1.65771,-3.5041 2.57735,-7.1648 2.57746,-10.2599 9e-5,-2.6465 0.68093,-8.36947 1.51297,-12.71763 1.35044,-7.05729 1.35042,-8.15355 -1.8e-4,-10.21481 -2.28387,-3.48563 -1.83521,-6.0138 1.48704,-8.37945 5.6709,-4.72952 7.54786,-13.62314 9.16645,-20.5228 1.02555,-6.59028 0.39499,-14.10271 -2.49564,-12.53009 -0.7421,0.40373 -1.23022,21.84685 -7.7711,28.90401 -3.72859,4.0229 -7.89972,7.41997 -7.89972,9.19562 0,1.55937 3.45776,5.36916 4.00776,5.70908 1.58842,9.0316 -1.25078,15.66473 -2.02172,24.82128 -8.63574,12.50782 0.044,32.83708 13.35855,33.1256 4.51707,-4.56967 -3.42382,-12.51418 -0.0692,-12.33537 8.57524,0.45706 8.90381,6.18543 19.67257,4.7901 5.50561,-7.06704 -15.38421,-14.92417 -11.69803,-15.42259 6.46896,-0.87468 4.54191,2.2055 14.18382,-0.0986 1.89159,-5.40028 -15.38816,-10.77937 -21.57359,-10.55326 -0.0113,-5.99939 -2.35995,-15.24806 0.39659,-22.78555 10.56459,-2.19825 28.59902,-16.53302 30.99238,-29.51478 2.64948,-14.37097 -8.22026,-27.7129 -10.70671,-18.81782 l -3e-5,0 z"
           style="fill:#000000" />
      </g>
      <path
         style="fill:url(#linearGradient22441);fill-opacity:1;fill-rule:evenodd;stroke:none"
         d="m 271.8444,782.58527 c -0.57626,0.48662 -1.01876,0.88835 -1.34375,1.40625 -0.32499,0.5179 -0.55397,1.16158 -0.6875,2.15625 -0.26705,1.98934 -0.20247,5.36812 -0.0625,11.9375 l 0.28125,13.5 6,0.59375 c 1.63018,0.1584 3.42872,0.49437 5.1875,0.9375 1.75878,0.44313 3.47004,0.97249 5,1.5625 1.52996,0.59001 2.86881,1.2447 3.8125,1.84375 0.94369,0.59905 1.5,1.15475 1.5,1.625 0,0.29365 -0.0265,0.52696 -0.1875,0.65625 -0.16099,0.12929 -0.45324,0.15329 -1,0.0937 -1.09352,-0.11908 -3.17092,-0.63505 -7.15625,-1.65625 -0.97854,-0.25072 -2.13147,-0.39706 -3.3125,-0.46875 -1.18103,-0.0717 -2.41456,-0.0842 -3.5,0 -1.08544,0.0842 -2.02699,0.25174 -2.71875,0.46875 -0.69176,0.21701 -1.125,0.48582 -1.125,0.8125 0,0.28062 0.17703,0.65937 0.5625,1.09375 0.38547,0.43438 0.98537,0.92409 1.78125,1.53125 1.59176,1.21432 4.02329,2.79298 7.40625,4.8125 1.52625,0.9111 2.78534,1.7726 3.75,2.53125 0.96466,0.75865 1.63039,1.42836 2.03125,2.03125 0.40086,0.60289 0.54014,1.1187 0.375,1.5625 -0.16514,0.4438 -0.64165,0.81235 -1.375,1.09375 -0.40076,0.1538 -1.77324,-0.23131 -3.6875,-1 -1.91426,-0.76869 -4.34012,-1.92995 -6.84375,-3.25 -3.75678,-1.98075 -6.09396,-3.102 -7.5625,-3.59375 -0.73427,-0.24587 -1.2397,-0.33293 -1.625,-0.28125 -0.3853,0.0517 -0.65869,0.23182 -0.84375,0.53125 -0.30756,0.49765 -0.46956,1.11181 -0.5,1.8125 -0.0304,0.70069 0.0826,1.50141 0.3125,2.34375 0.22993,0.84234 0.58896,1.73363 1.0625,2.65625 0.47354,0.92262 1.04961,1.87097 1.75,2.8125 0.95603,1.28515 1.50678,2.12035 1.65625,2.75 0.0747,0.31483 0.0432,0.57207 -0.0625,0.8125 -0.10567,0.24043 -0.29059,0.46182 -0.5625,0.6875 -0.45282,0.3758 -1.06576,0.46027 -1.75,0.28125 -0.68424,-0.17902 -1.43284,-0.62634 -2.25,-1.28125 -0.81716,-0.65491 -1.67965,-1.51064 -2.53125,-2.5625 -0.8516,-1.05186 -1.71247,-2.28637 -2.5,-3.65625 -0.97292,-1.69235 -1.6962,-3.15901 -2.21875,-4.5 -0.52255,-1.34099 -0.8499,-2.54889 -0.9375,-3.75 -0.0876,-1.20111 0.0431,-2.38354 0.375,-3.65625 0.33192,-1.27271 0.88898,-2.66295 1.625,-4.21875 0.82885,-1.75205 1.46911,-3.54118 1.90625,-5.28125 0.43714,-1.74007 0.6562,-3.4212 0.65625,-4.96875 9e-5,-2.6465 0.69921,-8.37059 1.53125,-12.71875 0.67522,-3.52864 1.00002,-5.55487 1,-6.96875 -1e-5,-0.70694 -0.0812,-1.27834 -0.25,-1.78125 -0.16883,-0.50291 -0.41235,-0.95343 -0.75,-1.46875 -0.57097,-0.87141 -0.99155,-1.67335 -1.21875,-2.4375 -0.2272,-0.76415 -0.27723,-1.47452 -0.15625,-2.15625 0.12098,-0.68173 0.43268,-1.3446 0.90625,-1.96875 0.68674,-3.15172 13.85591,0.42588 8.25,6.68755 z"
         id="path3883"
         sodipodi:nodetypes="csscccsssssssssssssssssssssssssssssssssssssssssssssscc" />
    </g>
    <path
       inkscape:connector-curvature="0"
       style="fill:#ffffff;fill-opacity:1;fill-rule:evenodd;stroke:none"
       d="m 395.36862,321.91453 c 1.80396,0.0538 3.54424,0.24472 5.28535,0.54957 1.74113,0.30483 3.47203,0.73688 5.13852,1.29539 1.55334,0.52059 3.12735,1.22726 4.74702,2.11972 1.6197,0.89249 3.26409,1.93813 4.89384,3.14034 3.25953,2.40442 6.48297,5.36542 9.44511,8.63596 2.96214,3.27054 5.66453,6.88055 7.87908,10.52013 1.10727,1.8198 2.10032,3.63749 2.9363,5.45635 0.83597,1.81886 1.54703,3.62207 2.0554,5.37785 1.10885,3.82965 1.95463,8.65118 2.5448,13.81751 0.59016,5.16631 0.92146,10.68653 0.97875,15.89796 0.0572,5.21146 -0.19535,10.12723 -0.68511,14.09231 -0.24479,1.98254 -0.54552,3.71351 -0.92983,5.1423 -0.38434,1.42879 -0.84476,2.54452 -1.37029,3.2581 -0.87173,1.1837 -1.38071,2.26931 -1.61497,3.21886 -0.23436,0.94956 -0.15874,1.76539 0.19589,2.39452 0.35457,0.62911 0.96491,1.07301 1.85968,1.29539 0.89474,0.22226 2.03937,0.23141 3.42566,-0.0392 1.96706,-0.38406 5.08104,-1.61463 8.66211,-3.45438 3.58106,-1.83973 7.64545,-4.28791 11.50051,-7.18352 2.64563,-1.98721 5.554,-3.86075 8.56419,-5.5741 3.01022,-1.71338 6.10015,-3.26427 9.15147,-4.67128 6.10272,-2.814 11.96965,-5.00479 16.2965,-6.39845 1.77702,-0.57237 5.81191,-1.23068 11.15794,-1.64867 2.67299,-0.20892 5.69734,-0.34323 8.90676,-0.39254 3.20944,-0.0492 6.62161,0.004 10.13026,0.19624 10.87346,0.59228 16.16581,0.93974 22.02224,1.60943 5.85643,0.66968 12.29045,1.66994 25.39901,3.57214 3.00982,0.43677 5.36984,0.60105 7.29182,1.33464 1.69829,4.29612 3.16305,8.58309 4.40445,12.79691 1.24139,4.21382 2.23057,8.36777 2.98523,12.48285 0.75465,4.1151 1.279,8.16891 1.51708,12.16883 0.23811,3.99992 0.21058,7.94725 -0.0978,11.81555 -0.30831,3.8683 -0.87724,7.66353 -1.76179,11.38374 -0.88453,3.72021 -2.08192,7.35701 -3.57249,10.91269 -1.49057,3.55568 -3.30573,7.02766 -5.43216,10.40239 -2.12644,3.37471 -4.5486,6.67554 -7.34075,9.85281 -2.6433,3.0079 -6.01926,6.30035 -9.78768,9.6173 -3.7684,3.31696 -7.92109,6.63778 -12.28352,9.69582 -4.36242,3.05802 -8.93485,5.85529 -13.36017,8.08637 -2.21265,1.11555 -4.38,2.10253 -6.50879,2.90482 -2.12881,0.80231 -4.18769,1.42687 -6.16624,1.84495 -2.9984,0.63358 -6.19657,0.88882 -9.49404,0.90285 -3.29747,0.0134 -6.72239,-0.20758 -10.22812,-0.58881 -7.01146,-0.76255 -14.33077,-2.10253 -21.63074,-3.10109 -3.64998,-0.49926 -7.27838,-0.91641 -10.86433,-1.13836 -3.58595,-0.22204 -7.13955,-0.24033 -10.57066,0.0392 -3.43115,0.27958 -6.74895,0.83962 -9.93451,1.84495 -1.59276,0.50267 -3.13477,1.11882 -4.64913,1.84496 -1.51435,0.72613 -2.97986,1.57387 -4.40445,2.55152 -0.65125,0.44692 -1.27119,0.52981 -1.85965,0.31405 -0.58848,-0.21582 -1.16751,-0.73067 -1.71286,-1.45242 -1.0907,-1.44352 -2.09584,-3.75354 -3.13205,-6.28069 -1.03621,-2.52714 -2.09084,-5.25828 -3.22994,-7.61534 -0.56954,-1.17851 -1.18595,-2.27867 -1.81069,-3.17959 -0.62478,-0.90091 -1.25792,-1.61387 -1.95755,-2.08047 -0.70427,-0.30234 -1.28276,-0.50013 -1.76179,-0.58882 -0.47902,-0.0888 -0.87063,-0.0558 -1.22344,0.1177 -0.70561,0.34741 -1.26029,1.2544 -2.05543,2.94406 -0.61956,1.31662 -1.23076,2.26824 -1.90858,2.86557 -0.67782,0.59734 -1.4139,0.84532 -2.25116,0.70658 -0.83728,-0.13884 -1.78947,-0.63936 -2.88737,-1.53092 -1.09789,-0.89155 -2.35746,-2.18578 -3.81719,-3.84691 -1.41853,-1.61424 -2.70212,-2.86313 -3.8172,-3.76843 -1.11507,-0.90527 -2.05944,-1.4602 -2.83843,-1.64867 -0.77897,-0.18845 -1.35156,-0.026 -1.76177,0.51032 -0.41023,0.53628 -0.62739,1.4396 -0.63621,2.70854 -0.0134,1.8999 -0.72151,4.29049 -1.51708,5.29933 -0.28164,0.35716 -0.61165,0.61226 -0.97876,0.74582 -0.3671,0.1335 -0.74719,0.14685 -1.17453,0.0785 -0.85463,-0.13661 -1.79664,-0.63907 -2.74055,-1.45242 -0.94391,-0.81334 -1.90941,-1.94209 -2.74055,-3.2581 -0.83111,-1.31599 -1.53915,-2.83044 -2.0554,-4.47498 -0.53718,-1.71113 -1.05797,-3.06347 -1.56602,-4.04319 -0.50807,-0.97973 -1.00941,-1.58173 -1.5171,-1.84496 -0.5077,-0.26322 -1.03004,-0.20291 -1.56602,0.23553 -0.53599,0.43841 -1.0709,1.23009 -1.6639,2.35525 -0.44706,0.84825 -0.79792,1.49558 -1.07664,1.84495 -0.27876,0.34937 -0.49303,0.41717 -0.68515,0.15708 -0.38423,-0.52029 -0.6954,-2.38371 -1.22346,-6.00589 -0.60431,-4.14525 -1.1789,-10.78708 -1.2724,-14.75961 -0.0543,-2.30087 -0.31385,-4.0567 -0.73408,-5.29933 -0.4202,-1.24264 -0.97023,-1.96853 -1.61497,-2.11973 -0.32234,-0.0756 -0.67574,-0.007 -1.02769,0.19623 -0.35195,0.20358 -0.7128,0.53391 -1.07664,1.02062 -0.72766,0.97343 -1.43531,2.54 -2.10437,4.67125 -0.83845,2.67094 -1.59345,4.47238 -2.20222,5.45635 -0.30436,0.49201 -0.58546,0.79248 -0.83194,0.86361 -0.24639,0.071 -0.44794,-0.0826 -0.63621,-0.43181 -0.37651,-0.69832 -0.64124,-2.21677 -0.78301,-4.59274 -0.14163,-2.37598 -0.1443,-5.60757 -0.0489,-9.65657 0.22154,-9.39566 0.34856,-13.931 0.0489,-15.85872 -0.14992,-0.96388 -0.41996,-1.27144 -0.83193,-1.21689 -0.412,0.0545 -0.95078,0.47405 -1.71286,0.98137 -1.28592,0.85602 -2.57754,2.17864 -3.8172,3.84692 -1.23963,1.66825 -2.46983,3.71398 -3.57248,6.00591 -1.10265,2.29191 -2.1103,4.84906 -2.98526,7.57607 -0.87494,2.727 -1.59677,5.62317 -2.15327,8.59669 -0.85102,4.54719 -1.59065,7.93423 -2.25118,10.16684 -0.66053,2.23264 -1.25254,3.30763 -1.76176,3.21886 -0.50925,-0.0888 -0.92424,-1.35141 -1.32136,-3.7684 -0.39709,-2.41699 -0.75246,-6.00362 -1.07662,-10.75568 -0.32525,-4.76757 -0.37913,-8.78451 -0.0978,-12.63988 0.28124,-3.85538 0.88472,-7.55894 1.85965,-11.69779 1.46471,-6.21787 3.03617,-13.00329 3.52356,-15.07362 0.0684,-1.32509 -0.0893,-2.10989 -0.44044,-2.47304 -0.35117,-0.36312 -0.85387,-0.29088 -1.51708,0.1177 -1.32638,0.81733 -3.2085,3.00671 -5.13852,5.77038 -1.93004,2.76367 -3.90445,6.11438 -5.57899,9.30327 -1.67451,3.18891 -3.01262,6.18964 -3.57248,8.28266 -0.93381,2.55024 -1.57603,5.51235 -2.00647,8.43966 -0.43044,2.92733 -0.67323,5.83264 -0.83197,8.32192 -0.15874,2.48927 -0.22394,4.53424 -0.34257,5.77038 -0.0593,0.61805 -0.15179,1.06494 -0.24479,1.21687 -0.0927,0.15196 -0.18733,0.0236 -0.34257,-0.39253 -0.64517,-1.30355 -1.01615,-3.223 -1.17451,-5.49559 -0.15847,-2.27262 -0.0975,-4.88184 0.0978,-7.61534 0.39097,-5.46698 1.34022,-11.36176 2.34904,-15.62322 0.28191,-1.76797 1.94509,-5.15038 4.11081,-9.26399 2.16575,-4.11364 4.81477,-8.9759 7.09607,-13.62125 1.14065,-2.32268 2.19621,-4.59699 3.03419,-6.71249 0.83797,-2.1155 1.49642,-4.04954 1.81072,-5.73112 0.31427,-1.68158 0.28362,-3.10078 -0.14672,-4.12169 -0.21512,-0.51047 -0.53591,-0.91411 -0.97875,-1.21689 -0.44287,-0.30278 -1.01476,-0.4828 -1.71286,-0.54957 -1.27783,-0.0632 -2.48178,0.23259 -3.67038,0.82434 -1.18859,0.59177 -2.3391,1.44757 -3.42569,2.51228 -1.08656,1.06472 -2.11131,2.33427 -3.08309,3.68991 -0.97178,1.35562 -1.89637,2.8142 -2.74055,4.27872 -1.68843,2.929 -3.10725,5.8926 -4.2087,8.16489 -1.10147,2.27228 -1.88782,3.84462 -2.30011,4.00394 -0.37135,0.14351 -0.29613,-0.63727 -0.0489,-2.11974 0.2472,-1.48248 0.66997,-3.64955 1.07662,-6.24144 0.40669,-2.59189 0.77376,-5.60826 0.8809,-8.79294 0.10716,-3.18471 -0.0337,-6.55263 -0.68512,-9.81358 -1.76564,1.8613 -3.2766,3.8531 -4.55127,5.96666 -1.27469,2.11354 -2.31184,4.36605 -3.18101,6.67322 -0.86916,2.30717 -1.55526,4.70211 -2.10433,7.14429 -0.54909,2.44215 -0.95794,4.93977 -1.2724,7.45831 -0.62892,5.03706 -0.8736,10.16137 -1.07665,15.15214 -0.2031,4.99079 -0.37124,9.81307 -0.83196,14.28858 -0.39738,0.14617 -0.753,0.17487 -1.07662,0.0785 -0.32365,-0.0963 -0.62363,-0.32148 -0.8809,-0.62806 -0.51456,-0.61318 -0.88126,-1.60369 -1.17453,-2.86557 -0.58651,-2.52377 -0.8263,-6.07762 -0.8809,-9.65655 -0.0548,-3.57893 0.0425,-7.19315 0.0489,-9.77431 0.005,-2.58119 -0.0855,-4.12018 -0.48939,-3.65067 -0.81193,0.94391 -1.55343,3.1072 -2.20223,5.84891 -0.6488,2.74169 -1.176,6.0498 -1.61497,9.26399 -0.8779,6.42839 -1.31823,12.46959 -1.07665,12.83616 -0.85954,-4.75511 -1.22026,-9.80862 -1.1745,-15.1129 0.0457,-5.30429 0.53321,-10.85322 1.41921,-16.52606 0.886,-5.67283 2.156,-11.48963 3.8172,-17.35039 1.66117,-5.86076 3.69704,-11.75712 6.06835,-17.62517 2.37131,-5.86804 5.10736,-11.69496 8.12375,-17.38966 3.01639,-5.69467 6.33808,-11.26386 9.93448,-16.60456 3.59643,-5.3407 7.4381,-10.46384 11.54947,-15.2699 4.11137,-4.80609 8.45631,-9.29492 13.0176,-13.38573 3.86685,-2.78866 7.7725,-5.10292 11.64734,-6.94799 1.93739,-0.92254 3.85297,-1.75124 5.77471,-2.43377 1.92173,-0.68254 3.83154,-1.20888 5.72577,-1.64869 1.89426,-0.43979 3.77292,-0.78703 5.62792,-0.98135 1.855,-0.19423 3.72609,-0.25017 5.53003,-0.19623 z"
       id="path3833" />
    <path
       inkscape:connector-curvature="0"
       sodipodi:nodetypes="cscsssccscsscccc"
       id="path4004"
       d="m 377.92541,351.67203 c 5.83797,-2.02201 14.52995,-2.57774 19.98726,-2.02539 8.47365,0.85767 13.39793,4.38683 20.55129,9.24669 4.59429,4.05044 8.27255,14.61212 8.2435,18.09544 -0.0639,7.6727 -7.65865,5.26457 -12.42347,-2.54147 -3.35752,-5.50051 -12.14531,-10.89696 -20.48357,-12.1266 -9.71462,-1.43262 -16.07685,1.87893 -23.83962,4.83912 -3.23379,1.66449 -16.55024,17.14572 -28.60902,36.19237 -4.77032,5.22774 -12.58186,11.62529 -15.66533,19.57717 -6.99924,18.05024 -6.31151,39.48173 -9.02937,40.49531 -2.93256,-2.92884 -3.02288,-9.03648 -3.70356,-12.53242 -0.61981,-3.18321 -0.79504,-5.89674 -0.66075,-9.26395 0.28151,-7.05899 1.92323,-14.98465 3.68074,-22.05561 9.76409,-21.30031 24.12913,-43.07463 44.26735,-58.91084 5.13176,-3.88086 11.44939,-5.58538 17.68466,-8.98982 l -1.1e-4,0 z"
       style="fill:#00ff00;fill-opacity:1" />
    <path
       inkscape:connector-curvature="0"
       style="fill:#000080;fill-opacity:1"
       d="m 378.59468,324.36986 c 5.83797,-2.02201 14.52995,-2.57774 19.98726,-2.02539 8.47365,0.85766 13.39793,4.38682 20.55129,9.24668 4.59429,4.05045 10.63873,12.64218 10.60968,16.1255 -0.0639,7.6727 -4.87762,3.91206 -9.82066,-1.75349 -2.43694,-2.79312 -5.05052,-3.73776 -7.76486,-5.12588 -3.01216,-1.54044 -8.09612,-3.39898 -12.4821,-4.0458 -9.71462,-1.4326 -20.33598,2.46992 -28.09875,5.43012 -3.23379,1.66449 -17.09078,17.23308 -29.14955,36.27973 -15.87624,19.63764 -24.56451,34.28821 -28.93838,55.69959 -1.90618,9.35673 -3.34491,17.91755 -5.39037,28.12197 -1.72264,0 -0.83039,-21.57052 -0.49554,-28.90412 2.53566,-14.86683 6.26613,-29.17748 12.09806,-42.53702 4.05848,-9.29703 10.48367,-17.98977 16.12209,-26.69013 6.90732,-10.65839 13.89451,-22.36745 25.08728,-30.83194 5.13176,-3.88087 11.44939,-5.58539 17.68466,-8.98982 l -1.1e-4,0 z"
       id="path3997"
       sodipodi:nodetypes="cscsssscccccssscc" />
    <path
       inkscape:connector-curvature="0"
       style="fill:#ff0000;fill-opacity:1"
       d="m 387.20454,371.09836 c 8.47365,0.85766 12.72866,4.38682 18.2089,10.63965 3.59039,6.0006 9.27643,16.56227 9.24738,20.0456 -0.0639,7.67269 -6.32014,1.92144 -11.08496,-5.88459 -3.35752,-5.50051 -12.14531,-10.89696 -20.48357,-12.12661 -13.71105,2.14396 -18.97887,16.40515 -31.58556,23.89943 -11.16604,6.63787 -13.79472,17.71625 -19.79135,25.66474 -4.72003,-22.997 26.29199,-66.28502 55.48916,-62.23822 z"
       id="path4006"
       sodipodi:nodetypes="ccsscscc" />
    <path
       inkscape:connector-curvature="0"
       sodipodi:nodetypes="ccsscscsscc"
       id="path4008"
       d="m 380.57921,391.1919 c 8.47365,0.85766 13.06327,1.87948 18.54351,8.13231 3.59039,6.00059 7.26868,14.33352 7.23963,17.81685 -0.0639,7.6727 -6.86095,3.24876 -13.76199,-2.82005 -4.79248,-4.21451 -5.40202,-9.58845 -15.12952,-8.50491 -18.24976,2.85364 -23.11835,29.6032 -37.91441,50.77196 -5.29042,7.569 -2.85135,17.69039 -5.4749,22.45148 -2.40155,-3.42704 -1.66903,-18.67536 -1.33685,-28.78454 0.34778,-10.59073 15.56255,-18.92604 15.82973,-30.20272 0.446,-18.82338 14.50285,-33.0419 32.00488,-28.86038 l -8e-5,0 z"
       style="fill:#ff7f2a;fill-opacity:1" />
    <path
       inkscape:connector-curvature="0"
       style="fill:#fff22a;fill-opacity:1"
       d="m 392.49739,421.58471 c 3.59039,6.00059 7.26868,6.45369 4.87346,15.64989 -4.87942,4.94227 -8.80997,-3.76598 -16.35075,-2.06619 -7.54075,1.69978 -9.57734,4.29195 -10.44057,9.9104 -1.15316,7.50535 -8.07277,13.69915 -11.57761,21.31885 -5.0214,10.91681 -5.59892,22.45871 -7.41061,21.70366 -2.91821,3.52328 -4.12056,-11.03858 -3.34728,-24.38641 0.36272,-6.26133 2.26748,-12.10184 2.60858,-15.96422 1.57203,-17.80039 6.157,-31.10831 16.71267,-36.85925 8.87592,-2.71144 20.3139,5.23423 24.93211,10.69327 z"
       id="path4010"
       sodipodi:nodetypes="cczsscsscc" />
    <path
       inkscape:connector-curvature="0"
       style="fill:#000000"
       d="m 347.66826,411.84964 c 0.41791,7.93261 -10.9306,19.64668 -11.70906,21.24347 -5.05729,11.11184 -7.67138,11.27639 -7.78915,32.88273 -0.066,12.09032 2.91054,23.3765 3.52949,24.58554 1.80847,3.53257 4.08574,2.5528 5.83943,-2.51228 2.24106,-6.47287 5.32388,-25.00072 6.7163,-29.48271 0.002,3.9963 -0.37988,6.60899 -0.38902,9.6162 -0.005,23.2244 5.48484,46.99052 10.3852,43.05983 1.74207,-1.39733 3.44132,-13.56307 3.59605,-25.74594 0.13095,-10.31785 3.03812,-19.11573 6.31635,-19.11573 1.06534,0 1.64594,5.70586 1.64594,16.17596 0,12.62996 0.4999,16.50876 2.28042,17.69406 3.0436,2.0261 5.08984,0.81633 6.33968,-3.74811 1.32015,-4.8213 3.90811,-3.61168 3.90811,1.82669 0,2.29093 0.44046,5.93178 0.97878,8.09075 1.29544,5.1955 5.95414,5.2849 8.18271,0.15708 0.9008,-2.07263 2.38681,-3.76843 3.30228,-3.76843 0.91548,0 3.56543,3.10895 5.8888,6.90877 5.29841,8.66543 9.83594,8.94196 9.83594,0.59947 0,-4.54448 3.2832,-3.8495 10.0894,2.1357 6.20346,5.45519 9.23054,7.12315 10.12362,4.48761 1.92663,-5.68553 3.03734,-3.87717 7.162,3.76842 1.56545,2.90177 3.38683,6.04516 4.27687,6.90875 0.88998,0.86358 2.85155,1.57018 4.35904,1.57018 21.80915,-11.72453 25.40785,1.77004 82.71944,-2.614 23.66092,-7.87232 47.28811,-25.13905 61.85956,-45.20687 12.27492,-14.55367 19.30158,-55.79412 0.40577,-87.439 l 0,7e-5 c -0.80518,-1.41424 -5.77727,-4.4548 -9.96128,-5.43435 -10.2981,-2.41096 -43.22089,-3.67295 -55.8198,-4.36362 -19.84416,-1.0878 -35.58918,4.41773 -39.70336,5.86982 -11.49362,4.05665 -21.48737,11.69002 -24.33548,11.69002 l -5.98414,0 -0.70024,-15.07365 c -1.25987,-27.12016 -8.06978,-50.10394 -18.67409,-63.02605 -15.80948,-19.26498 -46.82689,-21.81034 -74.11975,-6.08247 -31.64053,18.23328 -51.2431,62.34392 -54.46911,122.56886 -0.57574,10.74954 -0.55896,21.63084 0.0374,24.18063 l -8e-5,0 c 1.19808,5.12257 3.11287,6.72982 5.8435,3.29272 4.26498,-5.36844 2.39538,-4.35269 5.35819,0.14062 4.80558,7.28784 6.96697,0.46491 6.96697,-8.75659 -0.19616,-11.98346 2.10751,-27.17531 8.52912,-39.17421 0.61647,-1.15191 -3.68274,10.53789 -5.16337,22.22197 -1.38189,10.90452 -3.29961,25.93165 -0.26003,25.59436 1.61385,-18.851 9.62053,-39.29593 22.60162,-55.72613 l 0,-1.4e-4 -3e-5,0 z m 1.22847,-3.12014 c -10.22261,-0.50564 -15.4516,23.41775 -17.1008,24.05502 -1.48541,0.57397 2.80968,-11.41885 5.55809,-24.46259 -16.46753,6.25398 -17.86502,35.72623 -19.70781,53.62819 -6.35796,2.33736 -2.80797,-28.40189 -4.42348,-26.52381 -3.24768,3.77555 -5.37711,27.23474 -4.89395,27.9679 -6.87634,-38.04081 16.25772,-96.54583 52.74794,-129.27222 15.46739,-11.15467 31.37578,-14.84818 44.70783,-10.37999 12.42679,4.16478 27.87702,21.22362 31.94401,35.2698 4.43536,15.31865 4.77815,46.49656 0.57394,52.20533 -3.48689,4.73476 -1.67953,7.94156 3.86565,6.85889 3.93405,-0.76812 12.43627,-4.84736 20.14634,-10.63859 10.58256,-7.94887 25.3752,-13.83682 34.02891,-16.62409 3.55407,-1.14477 16.14377,-2.62656 30.17834,-1.86211 21.74694,1.18454 21.19057,1.36881 47.40773,5.17321 3.00982,0.43676 5.38029,0.63711 7.30227,1.3707 13.58643,34.36879 13.02879,66.36794 -9.3084,91.78625 -10.57317,12.03158 -32.27174,28.80767 -48.10014,32.15228 -23.98714,5.06857 -58.99654,-13.27522 -81.79012,2.367 -5.21001,3.57544 -8.09633,-16.56305 -13.69338,-20.29583 -2.81711,-1.20933 -3.43585,-0.90467 -5.0261,2.47466 -2.47825,5.26643 -5.01781,4.84567 -10.85671,-1.79885 -5.67404,-6.45689 -9.05118,-7.27391 -9.08643,-2.19824 -0.0134,1.89991 -0.67485,4.27979 -1.47042,5.28863 -2.25313,2.85725 -7.64532,-1.78911 -9.71034,-8.36723 -2.14865,-6.84445 -3.9498,-7.77832 -6.32183,-3.27766 -1.78822,3.39297 -1.90305,3.2375 -2.95915,-4.00687 -0.6043,-4.14525 -1.1752,-10.78707 -1.26871,-14.75961 -0.21646,-9.20345 -3.92794,-10.07387 -6.60413,-1.54882 -3.35386,10.68373 -4.87995,7.85327 -4.49812,-8.34272 0.44305,-18.79134 0.5472,-18.12123 -2.5011,-16.09199 -5.14368,3.42414 -10.28004,14.10042 -12.50603,25.99455 -3.40404,18.1888 -5.12759,17.88836 -6.42428,-1.11989 -0.65046,-9.53519 -0.17531,-16.05024 1.7747,-24.32792 1.4647,-6.21788 3.06187,-12.99913 3.54926,-15.06949 0.5457,-10.60061 -14.04764,12.62302 -16.28714,20.99506 -3.73521,10.20093 -2.51687,26.67899 -3.75819,23.3504 -2.58058,-5.21417 -0.73528,-20.2136 1.28239,-28.73651 1.12761,-7.07196 24.39901,-40.16465 13.22936,-41.23284 z m 42.24502,11.89469 c -4.01695,-5.461 -9.42274,-8.30114 -17.44217,-9.16392 -7.17629,-0.77208 -7.8419,-1.86645 -2.84327,-4.67482 4.46746,-2.50992 12.07521,-2.50247 16.55828,0.0156 3.71607,2.0878 11.28178,12.9521 11.28178,16.20061 0,3.40662 -4.29379,2.05501 -7.55462,-2.37808 l 0,6.3e-4 z m 12.12123,-11.71173 c -5.27471,-10.19371 -6.83185,-12.10196 -12.27711,-15.04535 -5.76391,-3.11569 -17.0094,-3.85021 -24.40697,-1.59424 -3.52852,1.07609 -4.05706,0.9448 -3.61465,-0.89791 0.83969,-3.49743 10.44316,-7.89928 17.23375,-7.89928 7.74331,0 17.25756,3.86708 21.62866,8.79099 3.82486,4.30857 9.39794,16.20958 9.39794,20.0688 0,4.76576 -4.79002,2.70638 -7.96162,-3.42301 z m 16.5915,-1.57016 c -0.85212,-1.03633 -3.50429,-5.75671 -5.89369,-10.48977 -5.63101,-11.15418 -14.48328,-21.78128 -20.07598,-24.10107 -5.98695,-2.48334 -14.99267,-2.2691 -22.70354,0.54007 -6.07877,2.21459 -10.80957,6.78383 -18.21836,17.59616 -2.66941,3.89571 -7.51146,5.34557 -7.51146,2.24917 0,-2.4689 10.50401,-16.01995 15.90106,-20.51369 2.60509,-2.16907 8.26331,-5.48344 12.57377,-7.36526 6.59198,-2.87783 9.26101,-3.33887 16.79759,-2.90161 14.24475,0.82649 23.24836,7.62733 29.10183,21.98194 2.82456,6.92679 2.84896,26.43388 0.0289,23.00406 l -6e-5,0 -2e-5,0 z m 8.67875,-19.78415 c -1.92144,-5.54971 -2.13643,-11.22907 -0.45657,-12.06184 2.49578,-1.23723 6.95429,2.95205 7.39526,6.94872 1.08576,9.84041 -4.00351,13.59068 -6.93869,5.11312 z m -87.77987,-12.04671 c 0,-4.01332 10.53362,-18.0419 18.99471,-25.29701 7.15203,-6.13264 11.19827,-8.46297 18.19987,-10.48185 15.2374,-4.39359 20.92801,-4.59787 29.58841,-1.06222 4.18184,1.70726 9.10938,4.43191 10.95014,6.05475 4.59429,4.05045 9.96946,12.92077 9.94041,16.4041 -0.0639,7.6727 -7.51862,7.57476 -12.44029,-0.16353 -3.52879,-5.5483 -7.54948,-7.86216 -17.44812,-10.04125 -8.84661,-1.9475 -15.58412,-0.68424 -26.60481,4.98832 -7.40013,3.80898 -24.91622,18.03776 -24.91622,20.2401 0,0.57314 -1.40941,1.04206 -3.13205,1.04206 -1.72264,0 -3.13205,-0.75759 -3.13205,-1.68356 l 0,9e-5 z"
       id="path3822"
       sodipodi:nodetypes="ccsccccsssssssssssssssccccccssscccsssccsscssccccccsccsssssssscssscssssssssssssssccccccccscccsccsscccsccsssssccccscccssccsssssccssccc" />
    <path
       inkscape:connector-curvature="0"
       id="path3955"
       d="m 496.32828,392.57871 c 1.77705,-0.57238 5.81193,-1.23069 11.15794,-1.64868 2.67302,-0.20892 5.69737,-0.34323 8.90679,-0.39253 3.20944,-0.0492 6.62161,0.004 10.13025,0.19623 10.87347,0.59228 16.16582,0.93974 22.02225,1.60943 5.85643,0.66968 12.29044,1.66994 25.39901,3.57214 3.00981,0.43677 5.36984,0.60105 7.29181,1.33464 1.6983,4.29612 3.16305,8.58309 4.40445,12.79691 1.24137,4.21382 2.23058,8.36777 2.98523,12.48285 0.75465,4.11511 1.279,8.16891 1.51708,12.16883 0.23811,3.99993 0.21059,7.94725 -0.0978,11.81555 -0.30831,3.8683 -0.87723,7.66353 -1.76179,11.38374 -0.88453,3.72021 -2.08191,7.35701 -3.57248,10.91269 -1.49057,3.55568 -3.30573,7.02766 -5.43217,10.4024 -2.12643,3.37471 -4.54859,6.67553 -7.34074,9.8528 -2.6433,3.0079 -6.01926,6.30035 -9.78769,9.6173 -3.76839,3.31696 -7.92111,6.63778 -12.28352,9.69582 -4.36241,3.05802 -8.93485,5.85529 -13.36017,8.08637 -2.21264,1.11555 -4.37999,2.10253 -6.50878,2.90482 -2.12882,0.80231 -4.18769,1.42688 -6.16624,1.84495 -2.99841,0.63358 -6.1966,0.88882 -9.49404,0.90286 -3.29747,0.0133 -6.72239,-0.20759 -10.22812,-0.58882 33.71923,-115.02727 -16.15855,-87.8104 -7.78126,-128.9503 z"
       style="fill:url(#radialGradient3076);fill-opacity:1;fill-rule:evenodd;stroke:none"
       sodipodi:nodetypes="cssssscsssssssssssssscc" />
    <path
       inkscape:connector-curvature="0"
       style="fill:#000000"
       d="m 560.65047,186.68619 c -6.66277,0 -9.98344,2.11646 -9.98344,6.43772 0,0.87662 5.77998,6.01955 12.82187,11.42298 10.15615,7.79313 12.40587,10.12315 10.86431,11.3445 -1.53758,1.21816 -4.85122,0.28834 -15.9539,-4.475 -7.71814,-3.31128 -14.73214,-5.67165 -15.56239,-5.26007 -0.87643,0.43448 0.0615,3.24658 2.25115,6.71249 6.74521,10.67699 7.17702,20.08844 1.02772,22.72823 -4.26669,1.83159 -13.84136,-1.14302 -30.14603,-9.42102 -21.82954,-11.08303 -28.24442,-11.61057 -30.39071,-2.43377 -1.72374,7.37005 4.95846,12.98147 21.23924,17.78219 8.5489,2.52083 12.97369,5.59696 11.7452,8.16488 -0.50284,1.05103 -5.73858,4.8365 -11.64734,8.43968 -15.17973,9.25663 -16.50729,15.78612 -4.20869,20.41223 7.56608,2.84597 16.90234,2.56724 32.49507,-0.9421 32.35889,-11.91074 66.94469,-19.53162 75.46826,-45.07584 3.09445,-24.07568 -22.37623,-42.72517 -50.02032,-45.83697 l 0,-1.3e-4 z m 10.57069,10.04911 c 10.02827,0 24.75052,11.05608 32.88657,24.7302 0.71737,30.09358 -42.38059,36.93832 -56.86636,41.92357 -16.64564,5.27502 -37.29103,5.53784 -37.29103,0.47105 0,-1.01083 3.55148,-3.86536 7.87907,-6.3592 4.3276,-2.49382 8.57921,-5.61095 9.44512,-6.90874 2.24909,-3.37091 -1.66369,-7.56135 -12.2346,-13.18945 -14.15699,-7.53738 -18.10871,-11.77628 -11.01114,-11.77628 1.8992,0 10.4263,3.8155 18.93915,8.47893 14.02284,7.6818 16.20093,8.47892 23.29464,8.47892 6.33925,0 8.39161,-0.58238 10.8154,-2.98333 3.43104,-3.39869 4.02708,-12.05376 1.17451,-17.07561 -2.68034,-4.71865 -0.53124,-5.24122 5.72578,-1.41315 11.53558,7.05752 18.89452,6.93548 22.65846,-0.35329 2.58068,-4.99744 -0.36216,-9.37194 -10.66855,-15.89799 -8.45882,-5.35613 -10.07809,-8.12563 -4.74702,-8.12563 z"
       id="path2830"
       sodipodi:nodetypes="cssssssssssssscccccccssssssssssscc" />
    <path
       inkscape:connector-curvature="0"
       style="fill:#ff0000;fill-opacity:1;fill-rule:evenodd;stroke:none"
       d="m 571.21081,196.75283 c 1.25353,0 2.58579,0.14195 3.96399,0.47105 1.3782,0.32901 2.79886,0.82734 4.25763,1.45242 2.91759,1.25015 5.98019,3.06267 8.95572,5.29931 2.97556,2.23665 5.88318,4.89143 8.56422,7.85087 2.68103,2.95943 5.11099,6.23803 7.14499,9.65655 0.0449,1.88086 -0.0628,3.63415 -0.34257,5.33858 -0.27977,1.70445 -0.70334,3.32906 -1.2724,4.86753 -0.56903,1.53848 -1.28137,3.01353 -2.10433,4.39649 -0.82296,1.38296 -1.79696,2.68755 -2.83844,3.92543 -2.08293,2.47575 -4.54694,4.67586 -7.29179,6.63397 -2.74488,1.95811 -5.73398,3.65756 -8.85786,5.18157 -3.12387,1.524 -6.37193,2.86971 -9.5919,4.04318 -3.21997,1.17348 -6.41197,2.19461 -9.44511,3.10109 -6.0663,1.81296 -11.50052,3.18942 -15.12196,4.43573 -4.1614,1.31877 -8.54554,2.29607 -12.82185,2.98333 -4.27631,0.68727 -8.41779,1.05326 -12.03884,1.09911 -3.62101,0.0458 -6.76012,-0.21892 -8.95571,-0.82434 -1.09779,-0.30271 -1.94776,-0.67095 -2.54477,-1.13835 -0.59704,-0.46742 -0.92986,-1.01534 -0.92986,-1.6487 0,-0.5054 0.92024,-1.47832 2.34905,-2.63002 1.42881,-1.15173 3.36626,-2.48225 5.53005,-3.72916 2.1638,-1.24693 4.30731,-2.6722 6.01939,-3.92543 1.71212,-1.25325 2.99274,-2.33442 3.4257,-2.98333 0.56229,-0.84272 0.75403,-1.75371 0.53832,-2.70854 -0.21566,-0.95483 -0.85043,-1.9756 -1.85965,-3.06185 -1.00923,-1.08622 -2.39047,-2.25664 -4.2087,-3.49363 -1.81823,-1.23698 -4.06182,-2.5184 -6.70456,-3.92543 -3.53924,-1.88433 -6.41167,-3.56718 -8.66208,-5.02454 -2.25041,-1.45734 -3.86078,-2.68894 -4.79595,-3.68991 -0.46759,-0.50046 -0.796,-0.95378 -0.92983,-1.33463 -0.13389,-0.38086 -0.0564,-0.72378 0.14671,-0.98137 0.40642,-0.51517 1.45551,-0.74582 3.22992,-0.74582 0.9496,0 3.56489,0.9362 6.99817,2.47301 3.43328,1.53681 7.68455,3.6742 11.94098,6.00591 7.0114,3.84091 11.05695,5.94553 14.24106,7.10502 1.59204,0.57976 2.98358,0.90437 4.40445,1.09913 1.42085,0.19468 2.87569,0.27477 4.64913,0.27477 3.16963,0 5.29184,-0.18243 6.90032,-0.62805 0.80422,-0.22287 1.47205,-0.51064 2.10433,-0.90286 0.63231,-0.39222 1.20479,-0.85217 1.81073,-1.45242 0.85777,-0.84968 1.56163,-2.0473 2.0554,-3.41511 0.4938,-1.36783 0.77026,-2.90609 0.8809,-4.51425 0.11063,-1.60816 0.047,-3.29681 -0.24479,-4.86753 -0.29167,-1.57072 -0.80396,-3.02325 -1.51709,-4.27872 -0.67009,-1.17965 -1.04791,-2.09505 -1.12557,-2.74778 -0.0778,-0.65276 0.14404,-1.05666 0.63618,-1.17765 0.4922,-0.12104 1.26062,0.0156 2.30012,0.4318 1.03947,0.41561 2.35081,1.12345 3.91505,2.08048 2.8839,1.76439 5.50817,3.05829 7.87908,3.92543 2.3709,0.86715 4.4859,1.28585 6.36199,1.25614 0.93805,-0.0156 1.82491,-0.15351 2.64266,-0.39255 0.81774,-0.239 1.6004,-0.55753 2.30011,-1.0206 1.39944,-0.92617 2.53365,-2.29951 3.47462,-4.12171 0.64517,-1.24935 0.95492,-2.47506 0.8809,-3.68991 -0.074,-1.21484 -0.51957,-2.42286 -1.37029,-3.6899 -0.8507,-1.26702 -2.08333,-2.59801 -3.76824,-4.00393 -1.6849,-1.40592 -3.83432,-2.88274 -6.41092,-4.51424 -2.1147,-1.33902 -3.78264,-2.52003 -5.04066,-3.53288 -1.25802,-1.01285 -2.09795,-1.87058 -2.49587,-2.55153 -0.39789,-0.68097 -0.36782,-1.18759 0.0978,-1.53093 0.46569,-0.34332 1.35885,-0.5103 2.69162,-0.5103 z"
       id="path2972" />
    <path
       inkscape:connector-curvature="0"
       style="fill:#ff0000;fill-opacity:1;fill-rule:evenodd;stroke:none"
       d="m 632.0114,273.72525 c 0.70617,0 1.43578,0.22407 2.0554,0.54957 0.61964,0.32547 1.12929,0.75238 1.37029,1.25612 0.19535,0.40846 0.98856,1.0349 1.95754,1.72719 2.88026,1.24141 5.49876,2.52218 7.87907,3.80767 2.38031,1.28548 4.54176,2.58145 6.45986,3.88616 1.91809,1.30473 3.59592,2.62635 5.08959,3.92543 1.49364,1.29908 2.80808,2.57834 3.91506,3.84692 1.10697,1.2686 2.03143,2.51591 2.78947,3.72918 0.75808,1.21324 1.31492,2.39981 1.7618,3.53287 0.89374,2.26612 1.20104,4.32747 1.07664,6.12368 -0.12426,1.79618 -0.67656,3.30829 -1.51708,4.43573 -0.42026,0.56371 -0.87657,1.0539 -1.41922,1.41315 -0.54265,0.35925 -1.1345,0.61593 -1.76179,0.74584 -0.62728,0.12993 -1.33231,0.12415 -2.00647,0 -0.67416,-0.12415 -1.32317,-0.38179 -2.00647,-0.78509 -0.68328,-0.4033 -1.40076,-0.94148 -2.05541,-1.64868 -0.65465,-0.70722 -1.27138,-1.59407 -1.85965,-2.63004 -0.18146,-1.46294 -0.72651,-2.99913 -1.56604,-4.63201 -0.8395,-1.63288 -1.9526,-3.34516 -3.22991,-5.06381 -2.55463,-3.43727 -5.77509,-6.9701 -8.75997,-10.24536 -2.98488,-3.27526 -5.7358,-6.31388 -7.38971,-8.7537 -0.82694,-1.21992 -1.40206,-2.29482 -1.56601,-3.17961 -0.16408,-0.88476 0.0639,-1.57574 0.78301,-2.04121 z"
       id="path2993" />
    <path
       inkscape:connector-curvature="0"
       sodipodi:nodetypes="ccsccscsssssssssssssssssssssssssssssssssscccssssscccsscscscssssssssssssssssssssssscccccsccccssccsccc"
       id="path2959"
       d="m 638.25957,220.99293 c -30.81613,10.28466 -14.87564,14.25034 -48.05747,16.40829 -13.50637,2.91723 -20.18552,12.28761 -33.27807,46.39857 -10.91682,28.44233 -18.65431,43.84081 -27.99274,55.85884 -16.72191,23.78623 -40.39125,26.20284 -53.53856,49.02862 4.33617,12.47237 11.02694,-0.48389 16.34543,0.43178 2.5379,0.43696 0.27236,6.14977 2.30008,6.00591 4.57254,-0.53978 8.94706,-5.54928 10.42387,-5.10306 3.37096,1.01853 -1.21975,7.06433 2.83844,9.14625 4.61762,2.36892 10.13023,-5.55533 10.13023,-3.92543 0,7.39971 3.77331,12.46361 8.71103,7.02653 4.44093,-4.89005 8.1911,-3.21027 8.22165,3.65064 0.0422,9.48299 5.17032,11.57891 8.56421,3.49363 3.25089,-7.74463 5.4811,-6.0859 5.4811,4.12171 0,7.19045 0.66456,10.05476 2.83841,12.20803 4.15306,4.11397 9.27306,2.32535 13.06653,-4.55344 3.5088,-6.36256 5.58999,-6.95458 6.90031,-2.04124 1.68953,6.33528 3.75207,9.10694 6.75349,9.10694 4.05547,0 5.66977,-1.95166 8.66211,-10.32381 1.40725,-3.93738 3.33256,-7.51006 4.25763,-7.96863 3.72465,-1.84644 4.95421,1.42661 9.15147,24.3376 0.0422,0.23039 0.92983,0.2078 2.00647,-0.0779 3.3402,-0.88808 5.56899,-12.18516 5.72578,-29.04812 0.12667,-13.63209 -0.53765,-18.80808 -4.45338,-32.85584 -8.65927,-31.06528 -9.58186,-48.10654 -3.47462,-66.18272 3.25458,-9.63288 5.85253,-10.63122 6.90029,-2.63004 1.38258,10.55764 7.08596,20.52252 15.41559,26.88919 9.56484,7.3108 19.09808,9.84575 26.08413,6.94801 4.68919,-1.94503 7.21528,-5.57137 9.00468,-12.87541 0.78586,-3.2078 2.06392,-4.15677 7.14499,-5.37785 11.21391,-2.69492 13.98177,-12.27149 6.85136,-23.74883 -4.19785,-6.757 -12.83873,-13.57784 -23.00103,-18.17474 -6.68805,-3.02532 -7.33551,-4.81191 -2.44691,-6.59472 4.98991,-1.81973 12.85097,-10.17148 11.7452,-12.48286 -0.65385,-1.36676 -3.08219,-1.92346 -7.97694,-1.92346 -3.85212,0 -7.38746,-0.53958 -7.87907,-1.17763 -1.07878,-1.40007 5.68089,-5.29834 13.21335,-7.61532 3.0146,-0.9273 6.40542,-2.24817 7.5365,-2.94408 6.33329,-3.89669 -13.73085,-3.93474 -21.28817,-0.0392 -1.99049,1.026 -4.25993,1.70792 -5.04066,1.49166 -0.78074,-0.21625 0.97357,-5.18528 3.91505,-11.03045 5.74112,-11.40841 5.44147,-13.85678 -1.76176,-13.85678 l 0,-6e-5 z m -3.67037,7.85087 c 0.67918,0.0276 1.21758,0.17821 1.61497,0.51029 0.67656,0.56541 -1.87232,6.8626 -5.67685,13.97454 -3.80453,7.11192 -6.94925,13.70823 -6.94925,14.6811 0,1.28339 2.61626,1.88765 9.44509,2.15899 5.17666,0.20558 9.40713,0.95779 9.39618,1.64868 -0.0214,1.37443 -6.71672,4.47508 -16.49225,7.69383 l -6.2641,2.08048 4.15977,1.25614 c 3.63149,1.11766 4.03176,1.79245 3.37673,5.77039 -0.64933,3.94341 0.5193,6.06996 9.34722,16.6438 10.29939,12.3363 11.43333,18.33917 11.30477,25.04424 5.31273,17.62921 -23.30355,10.91928 -30.3134,-4.3852 -5.43866,-11.87408 -4.88762,-27.49405 -5.79414,-29.3445 -5.3183,4.68296 -11.38371,6.76607 -14.2722,10.08086 -6.03128,6.92142 -5.63222,14.45093 -7.71007,28.8304 -1.22181,15.15855 0.54231,26.95097 7.34075,49.34263 2.90835,9.5791 4.55127,18.36108 4.55127,24.18066 0,9.25258 -2.04111,12.1606 -3.86613,5.49559 -0.54791,-2.00099 -2.4038,-4.69199 -4.15976,-5.96664 -3.11709,-2.26272 -3.29293,-2.22739 -6.21517,0.6673 -1.64621,1.6307 -4.0816,6.00858 -5.43217,9.73507 -2.72759,7.52594 -4.73812,7.73686 -6.21517,0.70657 -1.63972,-7.80452 -2.38448,-9.02847 -5.28534,-9.02847 -2.81575,0 -6.79545,5.91521 -8.66208,12.87539 -1.0337,3.85435 -4.9176,4.65283 -6.11731,1.25614 -0.42702,-1.20902 -1.27724,-6.89702 -1.85965,-12.60061 -0.58239,-5.7036 -1.70076,-10.67557 -2.49584,-11.06973 -0.79509,-0.39413 -3.44654,1.01513 -5.92156,3.14035 -5.38887,4.62727 -6.41092,4.794 -6.41092,0.98137 0,-1.59515 -0.95449,-3.98433 -2.1533,-5.29934 -1.84746,-2.02662 -2.5728,-2.12135 -4.69806,-0.70658 -1.379,0.91799 -3.24408,3.86701 -4.15977,6.59473 -2.38827,7.11425 -5.53881,5.5117 -4.9917,-2.55153 0.12908,-1.90225 2.65081,-5.40195 -0.34257,-6.24144 -1.93061,-0.54142 -7.25951,5.90769 -11.2069,5.4171 -3.71591,-0.46182 3.6142,-6.10621 -4.45338,-9.1855 -3.4056,-1.29988 -7.38589,6.40016 -10.52173,8.2434 -1.4417,0.84741 4.87243,-4.77418 2.9363,-6.51621 -2.39221,-2.15236 -10.67232,1.39117 -13.50699,3.14034 -0.26403,0.29202 -0.60717,0.54982 -1.07665,0.78507 -0.001,-0.13749 0.4813,-0.41769 1.07665,-0.78507 0.79244,-0.87606 1.09824,-1.9982 3.52355,-3.49362 37.78913,-26.66415 58.32433,-45.59471 69.19882,-86.35943 7.49013,-23.43853 13.48579,-37.95531 18.30297,-44.3181 3.56529,-4.70927 14.60522,-10.32387 20.26045,-10.32387 6.36328,-1.42762 11.67893,0.29771 17.12843,-1.53092 4.69264,-6.66937 15.50609,-13.42125 20.26049,-13.22869 z m -35.0888,23.55257 c -3.19333,0 -6.12763,3.43525 -4.99171,5.80963 0.90735,1.89662 1.22368,1.86398 4.06188,-0.19623 3.5797,-2.59854 4.07462,-5.61335 0.92983,-5.61335 z m 32.59293,21.35433 c 1.41238,0 2.9437,0.79818 3.42569,1.80569 0.19535,0.40846 0.98857,1.0349 1.95754,1.72719 46.08422,19.86249 25.75764,46.95815 16.3454,30.38282 -1.45257,-11.70348 -27.48193,-30.19197 -21.72863,-33.9157 z"
       style="fill:#000000" />
    <path
       inkscape:connector-curvature="0"
       style="fill:#ffffff;fill-opacity:1;fill-rule:evenodd;stroke:none"
       d="m 634.39895,228.95938 c 0.67921,0.0276 1.21759,0.17821 1.61497,0.51032 0.3383,0.28269 -0.0975,2.01952 -1.12558,4.55349 -1.02822,2.53395 -2.64902,5.86506 -4.55127,9.42103 -3.80453,7.11194 -6.94924,13.70822 -6.94924,14.68109 0,0.32087 0.18626,0.62223 0.53832,0.8636 0.35198,0.24136 0.86112,0.45537 1.61497,0.62806 1.50767,0.34542 3.8774,0.53166 7.29179,0.66733 2.58833,0.10279 4.95229,0.36722 6.65563,0.66733 1.70332,0.30009 2.74603,0.63591 2.74055,0.98135 -0.005,0.34361 -0.44001,0.8004 -1.22347,1.33466 -0.78346,0.53425 -1.92755,1.17028 -3.37673,1.84495 -2.89838,1.3493 -7.00427,2.90486 -11.89202,4.51422 l -6.26413,2.08048 4.15977,1.25614 c 0.90789,0.27942 1.61532,0.54176 2.15329,0.82434 0.53798,0.2826 0.93846,0.6178 1.17451,1.02062 0.47213,0.80564 0.37646,1.93646 0.0489,3.92543 -0.16248,0.98584 -0.20524,1.86791 -0.0489,2.78705 0.15607,0.91912 0.51729,1.8887 1.17454,3.06183 1.31446,2.3463 3.80765,5.50801 8.22164,10.79493 2.57484,3.08409 4.56463,5.80182 6.11728,8.20415 1.55265,2.40233 2.69721,4.49727 3.47463,6.43769 0.77742,1.94045 1.219,3.71868 1.46815,5.4171 0.24906,1.69842 0.27683,3.30903 0.24479,4.9853 0.66411,2.20364 0.82605,4.02179 0.53832,5.49559 -0.14377,0.7369 -0.39292,1.39675 -0.73408,1.96271 -0.34112,0.56599 -0.81002,1.0497 -1.32133,1.45242 -1.02258,0.80545 -2.32558,1.29303 -3.86612,1.49167 -1.54055,0.19868 -3.29696,0.11124 -5.13853,-0.23552 -1.84156,-0.34673 -3.80017,-0.9359 -5.72577,-1.76646 -1.92564,-0.83055 -3.83516,-1.88745 -5.62792,-3.14035 -1.79276,-1.25289 -3.45087,-2.70422 -4.89384,-4.31796 -1.44298,-1.61373 -2.64731,-3.38626 -3.52356,-5.29934 -1.35965,-2.96851 -2.3558,-6.17943 -3.08312,-9.34251 -0.72731,-3.16308 -1.18939,-6.29672 -1.51708,-9.10698 -0.6554,-5.62057 -0.7702,-9.98748 -1.22346,-10.91269 -2.65915,2.34145 -5.48369,4.0536 -8.0259,5.5741 -1.27108,0.76024 -2.46564,1.46364 -3.52355,2.19822 -1.05794,0.73461 -1.96949,1.48731 -2.69162,2.31601 -1.5078,1.73037 -2.63143,3.51321 -3.47462,5.4171 -0.84319,1.90391 -1.40273,3.92968 -1.85965,6.20219 -0.91387,4.54499 -1.35904,10.00363 -2.39798,17.19337 -0.30545,3.78963 -0.39343,7.36486 -0.29364,10.95194 0.0997,3.58707 0.40973,7.2095 0.97878,11.03045 0.56903,3.82095 1.39352,7.87389 2.49584,12.36511 1.10233,4.49122 2.46017,9.39722 4.15977,14.99513 1.45417,4.78956 2.60247,9.38314 3.37673,13.50347 0.7743,4.12033 1.17454,7.76737 1.17454,10.67717 0,2.31315 -0.12266,4.2615 -0.34257,5.73112 -0.21994,1.46963 -0.51168,2.4581 -0.8809,2.98333 -0.18466,0.2626 -0.37854,0.42419 -0.58725,0.4318 -0.20871,0.007 -0.46115,-0.1326 -0.68515,-0.39256 -0.44799,-0.52006 -0.914,-1.59185 -1.37026,-3.2581 -0.27397,-1.00048 -0.86301,-2.17588 -1.61497,-3.2581 -0.75195,-1.0822 -1.66681,-2.07121 -2.54479,-2.70854 -1.55853,-1.13135 -2.38213,-1.658 -3.18099,-1.57018 -0.79888,0.0879 -1.57306,0.79016 -3.03418,2.23751 -0.8231,0.81535 -1.85498,2.31831 -2.83844,4.08244 -0.98344,1.76412 -1.91845,3.78938 -2.59373,5.65262 -0.68188,1.88147 -1.31344,3.31046 -1.90858,4.2787 -0.59514,0.96826 -1.14979,1.47358 -1.6639,1.53093 -0.51412,0.0574 -0.98042,-0.32636 -1.41922,-1.17764 -0.43881,-0.85126 -0.8542,-2.16785 -1.22347,-3.92541 -0.81986,-3.90227 -1.39952,-6.13752 -2.15327,-7.41906 -0.37688,-0.64079 -0.81798,-1.05871 -1.32135,-1.29539 -0.50337,-0.23671 -1.08549,-0.31404 -1.81072,-0.31404 -0.70393,0 -1.45292,0.39656 -2.25116,1.05986 -0.79824,0.6633 -1.65682,1.61263 -2.44691,2.78705 -0.79011,1.17442 -1.52264,2.54913 -2.20222,4.08245 -0.67961,1.53333 -1.29514,3.20599 -1.76179,4.94604 -0.25842,0.96357 -0.69525,1.7522 -1.22347,2.31601 -0.52822,0.5638 -1.13669,0.9314 -1.76176,1.0599 -0.6251,0.12838 -1.26177,0.0289 -1.81072,-0.31408 -0.54899,-0.34256 -1.02141,-0.95652 -1.32133,-1.80569 -0.42705,-1.20904 -1.27727,-6.89703 -1.85968,-12.60063 -0.29119,-2.8518 -0.72272,-5.49237 -1.17451,-7.49758 -0.45179,-2.00519 -0.92379,-3.37504 -1.32133,-3.57212 -0.39754,-0.19712 -1.22847,0.0594 -2.30012,0.62806 -1.07162,0.5687 -2.38392,1.44966 -3.62144,2.51228 -2.69442,2.31362 -4.30728,3.50713 -5.23639,3.65064 -0.46456,0.0716 -0.74981,-0.10146 -0.92982,-0.54957 -0.18012,-0.4482 -0.24479,-1.16656 -0.24479,-2.11972 0,-0.79757 -0.24773,-1.78673 -0.63619,-2.74779 -0.38848,-0.96108 -0.91772,-1.89403 -1.51708,-2.55153 -0.92376,-1.01331 -1.57325,-1.54853 -2.25118,-1.64869 -0.67793,-0.10012 -1.38429,0.23472 -2.44691,0.9421 -0.6895,0.45901 -1.49805,1.43709 -2.25115,2.63004 -0.75311,1.19298 -1.45076,2.60083 -1.90861,3.96468 -0.59707,1.77856 -1.23699,3.04421 -1.85966,3.76842 -0.31133,0.3621 -0.58928,0.59485 -0.88089,0.70658 -0.29159,0.11191 -0.5775,0.0906 -0.83194,-0.0392 -0.5089,-0.25962 -0.91879,-0.98602 -1.17454,-2.15897 -0.25574,-1.17298 -0.38145,-2.81246 -0.24479,-4.82829 0.0644,-0.95111 0.7553,-2.276 1.02769,-3.49363 0.13629,-0.60881 0.13362,-1.21206 -0.0489,-1.68794 -0.18252,-0.47586 -0.57299,-0.84997 -1.32133,-1.05986 -0.48266,-0.13528 -1.17373,0.18577 -2.00647,0.70657 -0.83277,0.5208 -1.80495,1.26035 -2.83844,2.00199 -1.03346,0.74164 -2.14506,1.4748 -3.22991,2.00196 -1.08486,0.52714 -2.14523,0.82923 -3.13206,0.70657 -0.46448,-0.0578 -0.7589,-0.188 -0.92982,-0.39253 -0.17103,-0.20447 -0.21513,-0.464 -0.19589,-0.78509 0.0385,-0.64221 0.35853,-1.50691 0.53833,-2.43377 0.17985,-0.92686 0.21165,-1.93541 -0.29362,-2.90481 -0.25254,-0.48471 -0.64455,-0.96322 -1.22346,-1.41315 -0.57892,-0.44994 -1.3406,-0.87124 -2.34905,-1.25615 -0.42568,-0.16241 -0.83151,-0.1682 -1.2724,-0.0785 -0.44089,0.0899 -0.91972,0.30487 -1.37026,0.58881 -0.90107,0.5679 -1.78523,1.43731 -2.69162,2.43377 -0.90638,0.99647 -1.82427,2.10108 -2.69161,3.06184 -0.86735,0.96077 -1.7119,1.77668 -2.49584,2.23749 -0.72085,0.42371 0.50759,-0.75952 1.6639,-2.27675 0.57814,-0.75862 1.12205,-1.59651 1.41922,-2.35526 0.29714,-0.75874 0.33723,-1.44868 -0.14671,-1.8842 -0.59806,-0.53808 -1.53467,-0.72419 -2.69162,-0.66732 -1.15695,0.057 -2.50444,0.36734 -3.86613,0.78509 -2.72339,0.83548 -5.53192,2.14798 -6.94924,3.02258 0,0 0,0 0,0 0.39623,-0.43804 0.69583,-0.91469 1.17451,-1.49167 0.47867,-0.57698 1.1364,-1.25425 2.34904,-2.00196 4.72364,-3.33304 9.20984,-6.54671 13.4091,-9.69582 4.19929,-3.14909 8.13851,-6.22259 11.84309,-9.30326 3.70461,-3.08068 7.13537,-6.13627 10.37494,-9.26402 3.23956,-3.12775 6.2494,-6.32698 9.05358,-9.6173 2.8042,-3.2903 5.43165,-6.67698 7.83014,-10.24537 2.39848,-3.56838 4.58424,-7.30401 6.60667,-11.26598 2.02246,-3.96196 3.854,-8.16886 5.53006,-12.63988 1.67603,-4.47101 3.19193,-9.23222 4.55127,-14.3278 3.74504,-11.71925 7.14184,-21.18351 10.17915,-28.53787 1.51869,-3.67718 2.95004,-6.83833 4.30659,-9.46029 1.35653,-2.62195 2.61289,-4.72924 3.8172,-6.31993 0.89131,-1.17734 2.2414,-2.38353 3.86612,-3.57215 1.62473,-1.18859 3.52481,-2.34045 5.4811,-3.3366 1.95628,-0.99616 3.98662,-1.83383 5.8726,-2.43376 1.88595,-0.59996 3.62684,-0.98137 5.04063,-0.98137 1.59084,-0.35692 3.1219,-0.52125 4.60023,-0.58882 1.4783,-0.0676 2.9038,-0.0133 4.30656,0 1.40276,0.0134 2.79565,-4e-5 4.15977,-0.11769 1.36408,-0.1177 2.6995,-0.36719 4.06187,-0.82434 1.17315,-1.66734 2.75437,-3.33893 4.50234,-4.9068 1.74795,-1.56785 3.68577,-3.02992 5.62789,-4.2787 1.94215,-1.2488 3.87225,-2.27322 5.62792,-2.98333 1.75567,-0.71011 3.31374,-1.10801 4.50234,-1.05986 z"
       id="path2985" />
    <path
       inkscape:connector-curvature="0"
       style="fill:#ff0000;fill-opacity:1;fill-rule:evenodd;stroke:none"
       d="m 611.61425,286.56944 c 0.45323,0.92524 0.56806,5.29213 1.22344,10.91269 0.32771,2.81029 0.78979,5.94393 1.51711,9.10701 0.72731,3.16308 1.72344,6.37399 3.08312,9.34251 0.87621,1.91306 2.08057,3.68559 3.52355,5.29934 1.44298,1.61372 3.10108,3.06507 4.89384,4.31796 1.79274,1.2529 3.70228,2.3098 5.62789,3.14034 1.92563,0.83057 3.88425,1.41974 5.72581,1.76644 1.84153,0.34673 3.59798,0.43416 5.13852,0.23553 1.54055,-0.19868 2.84352,-0.6862 3.86613,-1.49167 0.5113,-0.40272 0.9802,-0.88641 1.32133,-1.4524 0.34115,-0.56598 0.59022,-1.22581 0.73407,-1.96271 0.28774,-1.4738 0.12587,-3.29195 -0.53832,-5.49559 0.0321,-1.67627 0.005,-3.28688 -0.24479,-4.9853 -0.24907,-1.69842 -0.69073,-3.47665 -1.46815,-5.4171 -0.77742,-1.94044 -1.92197,-4.03538 -3.47462,-6.43769 -1.55266,-2.40233 -3.54245,-5.12008 -6.11731,-8.20415 -4.41397,-5.28693 -6.90716,-8.44863 -8.22165,-10.79493 -0.65724,-1.17316 -1.01833,-4.36901 -1.17451,-5.28815 -1.06227,2.44736 -8.16464,9.54526 -15.41557,7.40787 z"
       id="path2987"
       sodipodi:nodetypes="cssssssssssscssssscc" />
    <path
       inkscape:connector-curvature="0"
       id="path3012"
       d="m 634.75435,228.81149 c -1.18859,-0.048 -2.74667,0.34973 -4.50234,1.05987 -1.75567,0.71011 -3.68579,1.73453 -5.62792,2.98331 -1.94212,1.24879 -3.87994,2.71087 -5.62789,4.27872 -1.74797,1.56786 -3.32919,3.23943 -4.50233,4.9068 5.84202,5.28067 7.21619,10.95957 8.44727,16.65121 1.5442,5.58366 -0.52686,9.35491 -3.11316,12.86787 l 6.26413,-2.08048 c 4.88775,-1.60936 8.99364,-3.16493 11.89202,-4.51424 1.44917,-0.67465 2.59327,-1.31068 3.37673,-1.84494 0.78346,-0.53428 1.21794,-0.99104 1.22347,-1.33465 0.005,-0.34544 -1.03723,-0.68126 -2.74055,-0.98135 -1.70334,-0.30011 -4.0673,-0.56449 -6.65563,-0.66733 -3.41439,-0.13572 -5.78412,-0.32191 -7.29182,-0.66733 -0.75382,-0.17265 -1.26296,-0.3867 -1.61494,-0.62806 -0.35198,-0.24137 -0.53832,-0.54273 -0.53832,-0.8636 0,-0.97287 3.14471,-7.56915 6.94924,-14.68109 1.90225,-3.55597 3.52305,-6.88708 4.55127,-9.42103 1.02822,-2.53397 1.46387,-4.2708 1.12558,-4.55351 -0.39738,-0.33209 -0.93576,-0.4828 -1.61497,-0.5103 l 1.6e-4,1.3e-4 z"
       style="fill:url(#linearGradient3061);fill-opacity:1;fill-rule:evenodd;stroke:none"
       sodipodi:nodetypes="csssccccssssssssssscc" />
    <path
       inkscape:connector-curvature="0"
       id="path3902"
       d="m 592.41783,360.49684 c 1.10232,4.49121 2.46016,9.39722 4.15976,14.99513 1.45417,4.78955 2.60247,9.38314 3.37676,13.50347 0.77427,4.12033 1.17451,7.76736 1.17451,10.67716 0,2.31316 -0.12266,4.2615 -0.34257,5.73112 -0.21994,1.46964 -0.51168,2.45811 -0.8809,2.98333 -0.18466,0.2626 -0.37854,0.4242 -0.58725,0.43181 -0.20871,0.007 -0.46112,-0.13261 -0.68514,-0.39256 -0.44797,-0.52007 -0.91401,-1.59185 -1.37026,-3.25811 -0.27398,-1.00048 -0.86302,-2.17588 -1.61497,-3.2581 -0.75196,-1.0822 -1.66679,-2.0712 -2.5448,-2.70854 -1.55853,-1.13135 -2.3821,-1.658 -3.18098,-1.57018 -0.79888,0.0879 -1.57307,0.79016 -3.03419,2.23751 -0.82309,0.81535 -1.85498,2.31832 -2.83841,4.08244 -0.98346,1.76413 -1.91845,3.78938 -2.59376,5.65263 -0.68188,1.88146 -1.31344,3.31045 -1.90858,4.27869 -0.59514,0.96827 -1.14979,1.47358 -1.6639,1.53094 -0.51411,0.0574 -0.98039,-0.32637 -1.41922,-1.17765 -0.4388,-0.85126 -0.85417,-2.16785 -1.22344,-3.92541 -0.81989,-3.90227 -1.39955,-6.13751 -2.15329,-7.41906 -0.37689,-0.64079 -0.81799,-1.05871 -1.32133,-1.29539 -0.50337,-0.2367 -1.08552,-0.31404 -1.81073,-0.31404 -0.70395,0 -1.45294,0.39656 -2.25118,1.05986 -0.79824,0.66331 -1.65679,1.61264 -2.44691,2.78706 -0.79011,1.17442 -1.52263,2.54912 -2.20222,4.08244 -0.67959,1.53334 -1.29511,3.206 -1.76179,4.94605 -0.25842,0.96357 -0.69522,1.7522 -1.22344,2.316 -0.52822,0.56381 -1.13672,0.9314 -1.76179,1.05991 -0.62507,0.12838 -1.26176,0.0289 -1.81072,-0.31409 -0.54896,-0.34256 -1.02141,-0.95651 -1.32133,-1.80568 -0.42702,-1.20904 -1.27726,-6.89704 -1.85966,-12.60064 -0.2912,-2.85179 -0.72274,-5.49236 -1.17453,-7.49757 -0.45177,-2.00519 -0.92379,-3.37505 -1.32133,-3.57213 -0.39754,-0.19712 -1.22846,0.0594 -2.30011,0.62806 -1.07163,0.5687 -2.38392,1.44966 -3.62142,2.51229 -2.69445,2.31362 -4.30728,3.50713 -5.23641,3.65063 -0.46457,0.0716 -0.74982,-0.10145 -0.92983,-0.54956 -0.18012,-0.4482 -0.24479,-1.16657 -0.24479,-2.11973 0,-0.79757 -0.24773,-1.78673 -0.63621,-2.74778 -0.38846,-0.96108 -0.9177,-1.89404 -1.51708,-2.55153 -0.92374,-1.01332 -1.57323,-1.54854 -2.25119,-1.6487 -0.67792,-0.10012 -1.38429,0.23472 -2.4469,0.9421 -0.6895,0.45901 -1.49806,1.43709 -2.25116,2.63005 -0.7531,1.19297 -1.45075,2.60083 -1.90861,3.96468 -0.59706,1.77856 -1.23699,3.0442 -1.85965,3.76842 -0.31133,0.3621 -0.58929,0.59484 -0.8809,0.70657 -0.29158,0.11191 -0.5775,0.0906 -0.83194,-0.0392 -0.5089,-0.25962 -0.91878,-0.98602 -1.17453,-2.15898 -0.25575,-1.17297 -0.38146,-2.81246 -0.24479,-4.82828 0.0644,-0.95111 0.75529,-2.276 1.02771,-3.49363 0.1363,-0.60882 0.13362,-1.21207 -0.0489,-1.68795 -0.18252,-0.47585 -0.57296,-0.84996 -1.32133,-1.05986 -0.48266,-0.13527 -1.17371,0.18578 -2.00647,0.70658 -0.83274,0.52079 -1.80495,1.26034 -2.83841,2.00198 -1.03349,0.74164 -2.14509,1.4748 -3.22994,2.00196 -1.08485,0.52714 -2.1452,0.82924 -3.13205,0.70658 -0.46449,-0.0578 -0.75888,-0.188 -0.92983,-0.39253 -0.17103,-0.20447 -0.21513,-0.464 -0.19589,-0.7851 0.0385,-0.64221 0.35853,-1.5069 0.53833,-2.43376 0.17985,-0.92686 0.21165,-1.93542 -0.29364,-2.90482 -0.25281,-0.48471 -0.64455,-0.96321 -1.22347,-1.41315 -0.57892,-0.44994 -1.3406,-0.87124 -2.34904,-1.25614 -0.42569,-0.16242 -0.83151,-0.1682 -1.27238,-0.0785 -0.44088,0.0899 -0.91975,0.30488 -1.37028,0.58881 -0.90108,0.5679 -1.78523,1.43732 -2.69162,2.43377 -0.90639,0.99648 -1.82424,2.10108 -2.69159,3.06185 -0.86735,0.96077 -1.71192,1.77667 -2.49587,2.23749 -0.72084,0.4237 0.5076,-0.75953 1.66391,-2.27676 0.57814,-0.75861 1.12205,-1.5965 1.41921,-2.35525 0.29715,-0.75875 0.33723,-1.44868 -0.14671,-1.8842 -0.59805,-0.53809 -1.53466,-0.7242 -2.69162,-0.66733 -1.15695,0.057 -2.50444,0.36735 -3.86612,0.78509 -2.72339,0.83549 -5.5319,2.14798 -6.94925,3.02258 0,0 0,0 0,0 0.39624,-0.43803 0.69586,-0.91469 1.17451,-1.49167 0.47868,-0.57697 1.1364,-1.25425 2.34905,-2.00196 4.72363,-3.33304 9.20983,-6.54671 13.40912,-9.69582 4.19927,-3.14908 8.13848,-6.22259 11.84306,-9.30326 3.70461,-3.08067 7.13538,-6.13627 10.37494,-9.26402 29.72144,-29.9463 67.61613,-30.92747 67.87768,3.49357 z"
       style="fill:url(#linearGradient3058);fill-opacity:1;fill-rule:evenodd;stroke:none"
       sodipodi:nodetypes="csssssssssssssssssssssssssssssssssssssssssssssssssssssssssssssssssssssssccscsscc" />
    <path
       inkscape:connector-curvature="0"
       sodipodi:nodetypes="csccs"
       id="path3927"
       d="m 597.51974,254.86987 c -3.19333,0 -6.12763,3.43525 -4.99171,5.80964 0.90736,1.89661 1.22368,1.86397 4.06188,-0.19624 3.57973,-2.59854 4.07463,-5.61335 0.92983,-5.61335 l 0,-5e-5 z"
       style="fill:#000000" />
    <g
       id="g3095"
       transform="matrix(1.5660272,0,0,1.2561371,-93.00344,-528.22112)">
      <path
         inkscape:connector-curvature="0"
         sodipodi:nodetypes="ccsccscsscssssssscssssssssssscsssssssssssscssssscsscssssssscsscc"
         id="path3087"
         d="m 356.74663,823.78901 c -0.40762,1.44825 -0.72726,3.02484 -0.9375,4.71875 -0.53836,1.18325 -0.98391,2.77373 -1.4375,4.5625 -0.45359,1.78877 -0.91358,3.77276 -1.46875,5.75 2.76724,9.81092 -12.63999,17.05108 -12.59375,20.78125 0.33276,0.58177 0.78341,1.21757 1.25,1.8125 0.93319,1.18986 1.9125,2.20504 2.1875,2.375 0.39711,2.2579 0.5236,4.37125 0.46875,6.40625 -0.0548,2.035 -0.28994,4.00285 -0.59375,5.96875 -0.60762,3.9318 -1.48953,7.89048 -1.875,12.46875 -1.07947,1.56348 -1.90562,3.24652 -2.46875,5 -0.56313,1.75348 -0.87243,3.57161 -0.96875,5.40625 -0.0963,1.83464 0.0228,3.66178 0.34375,5.46875 0.32096,1.80697 0.84255,3.57954 1.53125,5.25 0.6887,1.67046 1.5556,3.26238 2.5625,4.6875 1.0069,1.42512 2.16192,2.67906 3.4375,3.75 1.27558,1.07094 2.66154,1.95458 4.15625,2.5625 1.49471,0.60792 3.08568,0.96393 4.75,1 0.56463,-0.57121 0.93453,-1.22078 1.15625,-1.875 0.22172,-0.65422 0.30966,-1.33894 0.28125,-2.03125 -0.0568,-1.38461 -0.53062,-2.79501 -1.03125,-4.0625 -0.50063,-1.26749 -1.04786,-2.3652 -1.25,-3.15625 -0.10107,-0.39553 -0.11274,-0.72845 0,-0.9375 0.11274,-0.20905 0.36192,-0.3036 0.78125,-0.28125 1.07191,0.0571 2.02431,0.2086 2.875,0.40625 0.85069,0.19765 1.61002,0.429 2.3125,0.71875 1.40496,0.57951 2.56243,1.31135 3.8125,1.96875 1.25007,0.6574 2.57085,1.24579 4.25,1.59375 0.83957,0.17398 1.78741,0.28851 2.84375,0.3125 1.05634,0.024 2.21641,-0.0443 3.5625,-0.21875 0.3441,-0.44169 0.59967,-0.86663 0.75,-1.3125 0.15033,-0.44587 0.20605,-0.89767 0.1875,-1.34375 -0.0371,-0.89215 -0.3742,-1.78715 -0.9375,-2.65625 -0.5633,-0.8691 -1.35961,-1.71704 -2.25,-2.53125 -0.89039,-0.81421 -1.88788,-1.58501 -2.90625,-2.3125 -2.03674,-1.45498 -4.11472,-2.70788 -5.46875,-3.625 -0.67701,-0.45856 -1.16733,-0.84865 -1.375,-1.125 -0.10384,-0.13817 -0.14458,-0.2571 -0.0937,-0.34375 0.0508,-0.0866 0.17586,-0.1251 0.40625,-0.15625 1.61724,-0.21867 2.71406,-0.19226 3.59375,-0.0625 0.87969,0.12976 1.54645,0.3449 2.3125,0.53125 0.76605,0.18635 1.62994,0.33016 2.90625,0.28125 1.27631,-0.0489 2.96452,-0.26772 5.375,-0.84375 0.23645,-0.67503 0.17854,-1.36778 -0.125,-2.03125 -0.30354,-0.66347 -0.83719,-1.30741 -1.5625,-1.9375 -0.72531,-0.63009 -1.65865,-1.23761 -2.6875,-1.8125 -1.02885,-0.57489 -2.16083,-1.12711 -3.375,-1.625 -2.42833,-0.99577 -5.10225,-1.81813 -7.5625,-2.375 -2.46025,-0.55687 -4.70364,-0.83778 -6.25,-0.78125 -0.006,-2.99969 -0.59974,-6.80822 -0.84375,-10.8125 -0.122,-2.00214 -0.16728,-4.07299 0,-6.09375 0.16728,-2.02076 0.52961,-3.99063 1.21875,-5.875 1.32057,-0.27478 2.76031,-0.74318 4.25,-1.375 1.48969,-0.63182 3.04762,-1.44074 4.625,-2.375 1.57738,-0.93426 3.16636,-2.00539 4.75,-3.1875 1.58364,-1.18211 3.14777,-2.46838 4.65625,-3.84375 1.50848,-1.37537 2.9606,-2.82972 4.3125,-4.34375 1.3519,-1.51403 2.60486,-3.08941 3.71875,-4.6875 1.11389,-1.59809 2.08055,-3.21619 2.875,-4.84375 0.79445,-1.62756 1.41891,-3.27256 1.8125,-4.875 0.1676,-1.86785 0.20201,-3.64421 0.125,-5.3125 -0.077,-1.66829 -0.27034,-3.22184 -0.5625,-4.6875 -0.29216,-1.46566 -0.67842,-2.83379 -1.15625,-4.09375 -11.79217,-17.88536 -31.3409,-12.78363 -28.6563,2.0625 z"
         style="fill:#ffffff;fill-opacity:1;fill-rule:evenodd;stroke:none" />
      <path
         inkscape:connector-curvature="0"
         sodipodi:nodetypes="cssccccssssssssssssssccssscccscscccscc"
         id="path3055"
         d="m 376.40251,817.20178 c -0.0256,-0.59027 10.51492,7.15124 6.40113,18.06176 -1.57856,4.18663 -4.17089,10.53673 -8.73009,14.9194 -5.23257,5.02997 -12.73789,8.02498 -18.92032,11.55401 -2.30502,1.94648 -2.3607,2.36124 -2.08075,15.49999 l 0.28765,13.5 6,0.583 c 6.52071,0.6336 15.5,4.0964 15.5,5.9774 0,1.1746 -0.38876,1.1322 -8.35943,-0.9102 -3.91417,-1.0029 -10.64057,-0.481 -10.64057,0.8257 0,1.1225 2.98408,3.399 9.75,7.43805 6.10499,3.6444 7.72608,6.0825 4.79268,7.2081 -0.80153,0.3076 -5.55418,-1.6009 -10.56145,-4.241 -7.51356,-3.9615 -9.26083,-4.5466 -10.00107,-3.3489 -1.23023,1.9906 -0.17646,5.851 2.62511,9.6171 1.91206,2.5703 2.09773,3.3524 1.01007,4.2551 -1.81127,1.5032 -5.86788,-1.7479 -9.01801,-7.2274 -3.89167,-6.7694 -4.11868,-9.88195 -1.17462,-16.10515 1.65771,-3.5041 2.57735,-7.1648 2.57746,-10.2599 9e-5,-2.6465 0.68093,-8.36947 1.51297,-12.71763 1.35044,-7.05729 1.35042,-8.15355 -1.8e-4,-10.21481 -2.28387,-3.48563 -1.83521,-6.0138 1.48704,-8.37945 5.6709,-4.72952 7.54786,-13.62314 9.16645,-20.5228 1.02555,-6.59028 0.39499,-14.10271 -2.49564,-12.53009 -0.7421,0.40373 -1.23022,21.84685 -7.7711,28.90401 -3.72859,4.0229 -7.89972,7.41997 -7.89972,9.19562 0,1.55937 3.45776,5.36916 4.00776,5.70908 1.58842,9.0316 -1.25078,15.66473 -2.02172,24.82128 -8.63574,12.50782 0.044,32.83708 13.35855,33.1256 4.51707,-4.56967 -3.42382,-12.51418 -0.0692,-12.33537 8.57524,0.45706 8.90381,6.18543 19.67257,4.7901 5.50561,-7.06704 -15.38421,-14.92417 -11.69803,-15.42259 6.46896,-0.87468 4.54191,2.2055 14.18382,-0.0986 1.89159,-5.40028 -15.38816,-10.77937 -21.57359,-10.55326 -0.0113,-5.99939 -2.35995,-15.24806 0.39659,-22.78555 10.56459,-2.19825 28.59902,-16.53302 30.99238,-29.51478 2.64948,-14.37097 -8.22026,-27.7129 -10.70671,-18.81782 l -3e-5,0 z"
         style="fill:#000000" />
    </g>
    <path
       inkscape:connector-curvature="0"
       style="fill:url(#linearGradient3070);fill-opacity:1;fill-rule:evenodd;stroke:none"
       d="m 463.02882,554.30484 c -0.90244,0.61126 -1.59541,1.11589 -2.10435,1.76644 -0.50894,0.65056 -0.86753,1.45911 -1.07664,2.70855 -0.41821,2.49888 -0.31708,6.74309 -0.0979,14.99514 l 0.44045,16.95785 9.39616,0.74583 c 2.5529,0.19897 5.36947,0.621 8.12376,1.17763 2.7543,0.55663 5.43418,1.22158 7.83014,1.96271 2.39596,0.74114 4.49264,1.56352 5.97048,2.316 1.47784,0.75249 2.34904,1.45053 2.34904,2.04123 0,0.36886 -0.0415,0.66193 -0.29363,0.82434 -0.25211,0.1624 -0.70979,0.19255 -1.56603,0.1177 -1.71248,-0.14958 -4.96574,-0.79771 -11.20688,-2.08048 -1.53242,-0.31494 -3.33794,-0.49876 -5.18746,-0.58881 -1.84953,-0.0901 -3.78127,-0.10577 -5.4811,0 -1.69983,0.10576 -3.17432,0.31622 -4.25764,0.58881 -1.08331,0.27259 -1.76178,0.61026 -1.76178,1.02061 0,0.3525 0.27724,0.82826 0.88089,1.3739 0.60366,0.54564 1.54312,1.16079 2.78949,1.92346 2.49274,1.52535 6.30058,3.50837 11.59839,6.04516 2.39015,1.14447 4.36192,2.22663 5.8726,3.1796 1.51068,0.95297 2.55324,1.79421 3.18099,2.55153 0.62776,0.75731 0.84588,1.40524 0.58726,1.96271 -0.25861,0.55747 -1.00484,1.02042 -2.15328,1.3739 -0.62761,0.19319 -2.77695,-0.29056 -5.77473,-1.25614 -2.99778,-0.96558 -6.79675,-2.42428 -10.7175,-4.08244 -5.88322,-2.4881 -9.54331,-3.89654 -11.84308,-4.51424 -1.14989,-0.30885 -1.9414,-0.41821 -2.54479,-0.35329 -0.60339,0.0649 -1.03153,0.29119 -1.32134,0.66732 -0.48165,0.62512 -0.73534,1.39659 -0.78301,2.27675 -0.0476,0.88016 0.12935,1.88598 0.48938,2.94407 0.36008,1.05809 0.92233,2.17768 1.66391,3.33661 0.74157,1.15894 1.64371,2.3502 2.74054,3.53289 1.49717,1.61432 2.35966,2.66345 2.59374,3.45438 0.11698,0.39547 0.0677,0.71859 -0.0979,1.02061 -0.16548,0.30201 -0.45507,0.58011 -0.88089,0.86359 -0.70913,0.47206 -1.66901,0.57816 -2.74055,0.35329 -1.07154,-0.22487 -2.24387,-0.78677 -3.52356,-1.60943 -1.27969,-0.82265 -2.63038,-1.89757 -3.96401,-3.21885 -1.33363,-1.32128 -2.68177,-2.87199 -3.91506,-4.59275 -1.52362,-2.12582 -2.6563,-3.96815 -3.47463,-5.65261 -0.81832,-1.68447 -1.33096,-3.20176 -1.46815,-4.71052 -0.13718,-1.50876 0.0675,-2.99405 0.58726,-4.59275 0.5198,-1.5987 1.39217,-3.34503 2.5448,-5.29933 1.298,-2.20081 2.30066,-4.44821 2.98524,-6.63397 0.68457,-2.18577 1.02762,-4.2975 1.0277,-6.24143 1.4e-4,-3.32437 1.09498,-10.51461 2.39798,-15.9765 1.05741,-4.43245 1.56606,-6.97768 1.56603,-8.7537 -2e-5,-0.88802 -0.12716,-1.60577 -0.39151,-2.2375 -0.26439,-0.63172 -0.64575,-1.19764 -1.17452,-1.84495 -0.89415,-1.09461 -1.55279,-2.10196 -1.9086,-3.06183 -0.3558,-0.95988 -0.43414,-1.8522 -0.24469,-2.70855 0.18946,-0.85634 0.67759,-1.689 1.41922,-2.47302 1.07545,-3.95899 21.69873,0.53497 12.91972,8.40048 z"
       id="path3089"
       sodipodi:nodetypes="csscccsssssssssssssssssssssssssssssssssssssssssssssscc" />
    <path
       style="fill:#000000;fill-opacity:1;fill-rule:evenodd;stroke:none"
       d="m 504.70748,411.1662 c -45.55113,0.79797 -125.34524,10.77002 -139.91377,61.2353 0,17.44157 -0.34574,13.10755 7.55753,5.93162 0.0525,-0.27495 0.11074,-0.43207 0.19888,-0.78507 -0.043,0.48497 -0.057,0.37988 -0.0993,0.69784 1.75411,-1.58337 3.90898,-3.3214 6.56312,-4.9721 -0.30835,2.97422 -0.27843,6.05224 0.29817,9.24636 3.99343,22.11002 0.99539,8.9548 16.20891,-2.61689 -0.01,4.72073 1.14661,9.50067 3.48044,14.30568 7.80507,16.06948 5.45724,12.22752 9.54636,2.87858 -0.0127,-0.0469 0.0127,-0.038 0,-0.0871 -0.0573,-0.22303 -0.14161,-0.42828 -0.19888,-0.69784 -0.55665,-1.4484 -1.53875,-3.62521 -3.08268,-6.80392 -2.28619,-4.70695 -3.23068,-9.36409 -3.08268,-13.86953 4.95424,-2.58075 11.30002,-4.73288 19.19215,-6.01886 -14.76977,8.5931 -14.1111,21.59756 -13.02679,26.69231 4.43972,-9.61425 17.24861,-18.67027 29.53403,-24.3371 0.16325,-0.0609 0.33219,-0.11528 0.49721,-0.17446 55.9987,34.30985 134.59212,46.26971 117.24118,-36.11312 -8.69816,-17.90823 -27.4655,-25.38817 -50.9139,-24.51157 l 0,-1.4e-4 z m -65.37624,50.4765 c -9.59431,-6.01307 -21.97425,1.16542 -31.19329,3.60026 3.2028,-11.87706 19.75144,-32.4426 37.68417,-39.1157 33.19657,-8.62692 59.20208,-12.10765 76.64282,-4.51719 37.29154,16.22977 34.52456,66.02141 -10.23273,67.72564 -17.80052,0.6778 -42.32243,-13.98928 -72.90097,-27.69301 z m -11.19348,-30.67534 c -22.61048,7.02393 -40.02272,18.18072 -46.53849,32.71116 -5.91759,4.72623 -8.24092,10.60315 -9.04915,13.7823 0.1327,-1.52639 -0.51731,-3.89399 0.19889,-7.24007 4.37843,-20.45595 28.5177,-33.15995 55.38875,-39.25339 z m -23.86589,25.82001 c -0.0627,-3.1e-4 -0.13652,0 -0.19889,0 -5.3702,0 -9.78116,0.82775 -13.524,2.09351 33.00856,-21.266 44.54947,-38.29428 13.72289,-2.09351 z m -5.66815,9.42081 c -0.36451,0.81525 -0.6923,1.61963 -0.99441,2.44244 -7.83594,6.07532 -9.49529,14.14691 -9.74524,17.96933 -0.13842,-1.52366 -0.47748,-3.91468 -1.09385,-7.3273 -0.62211,-3.44428 -0.67509,-6.74346 -0.19889,-9.85696 3.42724,-1.36369 7.44247,-2.48392 12.03239,-3.22751 z"
       id="path3017"
       sodipodi:nodetypes="cccsccscscssscccccccccccssccsccscccccscccc"
       inkscape:export-filename="/Users/grzegorz/Sites/img/cliparty/kogut.png"
       inkscape:export-xdpi="90"
       inkscape:export-ydpi="90"
       inkscape:connector-curvature="0" />
    <path
       style="fill:#ff6600;fill-opacity:1;fill-rule:evenodd;stroke:none"
       d="m 398.63252,466.27822 c -0.36452,0.81524 -0.69231,1.61963 -0.99442,2.44243 -1.95897,1.51883 -3.51178,3.12685 -4.77317,4.79764 -1.26139,1.67079 -2.171,3.34454 -2.8838,4.9721 -1.42556,3.2551 -1.96327,6.28838 -2.08826,8.19959 -0.13843,-1.52366 -0.47748,-3.91467 -1.09386,-7.3273 -0.6221,-3.44427 -0.67508,-6.74346 -0.19888,-9.85696 3.42724,-1.36369 7.44247,-2.48391 12.03239,-3.2275 z"
       id="path3050"
       inkscape:export-filename="/Users/grzegorz/Sites/img/cliparty/kogut.png"
       inkscape:export-xdpi="90"
       inkscape:export-ydpi="90" />
    <path
       style="fill:#ff0000;fill-opacity:1;fill-rule:evenodd;stroke:none"
       d="m 421.23584,436.2201 c 3.15796,-2.39024 -1.6906,2.39861 -17.10389,20.49899 -0.0627,-3e-4 -0.13651,0 -0.19888,0 -5.37021,0 -9.78117,0.82775 -13.52401,2.09352 8.25216,-5.3165 15.14332,-10.37161 20.38545,-14.39291 5.24213,-4.02131 8.86233,-7.00448 10.44133,-8.1996 z"
       id="path3046"
       inkscape:export-filename="/Users/grzegorz/Sites/img/cliparty/kogut.png"
       inkscape:export-xdpi="90"
       inkscape:export-ydpi="90" />
    <path
       style="fill:#0000ff;fill-opacity:1;fill-rule:evenodd;stroke:none"
       d="m 427.99784,431.03753 c -5.65262,1.75599 -10.9968,3.75814 -15.91059,6.01886 -4.9138,2.26071 -9.42764,4.76001 -13.42457,7.50176 -3.99693,2.74175 -7.43992,5.6984 -10.34188,8.89743 -2.90197,3.19903 -5.23249,6.6605 -6.86145,10.29312 -2.95879,2.36313 -5.04213,4.95713 -6.46367,7.41453 -1.42155,2.45739 -2.18138,4.77818 -2.58547,6.36777 0.13269,-1.5264 -0.51732,-3.89399 0.19888,-7.24007 0.54729,-2.55699 1.45391,-5.01034 2.58547,-7.3273 1.13156,-2.31696 2.52721,-4.54804 4.17653,-6.62946 3.29865,-4.16283 7.55909,-7.83084 12.52959,-11.07819 4.9705,-3.24734 10.59591,-6.09377 16.70612,-8.46128 6.11021,-2.36752 12.67327,-4.23381 19.39104,-5.75717 z"
       id="path3042"
       inkscape:export-filename="/Users/grzegorz/Sites/img/cliparty/kogut.png"
       inkscape:export-xdpi="90"
       inkscape:export-ydpi="90" />
    <path
       style="fill:#ffffff;fill-opacity:1;fill-rule:evenodd;stroke:none"
       d="m 490.0782,417.82927 c 6.41553,-0.49987 12.29122,-0.51905 17.70054,0.0871 5.40931,0.60628 10.35709,1.76603 14.71729,3.66365 4.66146,2.02873 8.62654,4.58371 12.03239,7.50176 3.40585,2.91805 6.21038,6.19404 8.35306,9.68251 2.14268,3.48846 3.7023,7.25104 4.5743,10.99095 0.87199,3.73991 1.10231,7.49299 0.69608,11.16541 -0.40623,3.67241 -1.49009,7.26882 -3.18211,10.5548 -1.69203,3.28598 -4.07496,6.2296 -7.06033,8.8102 -2.98537,2.58061 -6.55284,4.72426 -10.83909,6.28055 -4.28625,1.55629 -9.22207,2.57831 -14.81674,2.79135 -4.45013,0.16944 -9.33793,-0.59967 -14.61786,-2.09351 -5.27993,-1.49385 -11.01496,-3.72026 -17.10388,-6.36778 -12.17788,-5.295 -25.87941,-12.4259 -41.16866,-19.27778 -2.39859,-1.50325 -5.00312,-2.1334 -7.65697,-2.26797 -2.65386,-0.13454 -5.43086,0.28586 -8.15418,0.95953 -5.44664,1.34736 -10.80387,3.75467 -15.41339,4.97209 0.80068,-2.96927 2.39171,-6.50337 4.67374,-10.20588 2.28202,-3.7025 5.26182,-7.60978 8.65138,-11.33987 3.38956,-3.73008 7.21304,-7.32833 11.3363,-10.38034 4.12326,-3.05201 8.5436,-5.57179 13.0268,-7.24007 8.29915,-2.15674 16.18877,-3.98736 23.56756,-5.40825 7.37879,-1.42088 14.26824,-2.3787 20.68377,-2.87858 z"
       id="path3038"
       inkscape:export-filename="/Users/grzegorz/Sites/img/cliparty/kogut.png"
       inkscape:export-xdpi="90"
       inkscape:export-ydpi="90" />
    <path
       style="fill:#ffff00;fill-opacity:1;fill-rule:evenodd;stroke:none"
       d="m 408.37775,496.42002 c -0.27111,-1.27369 -0.51375,-3.07668 -0.4972,-5.14655 0.0159,-2.06987 0.32085,-4.41012 1.09385,-6.89115 0.773,-2.48104 1.97934,-5.08183 3.97765,-7.58899 1.99831,-2.50717 4.76007,-4.91733 8.4525,-7.06561 -3.94605,0.64298 -7.44797,1.50828 -10.64021,2.52966 -3.19223,1.02138 -6.07482,2.19883 -8.55194,3.48919 -0.0741,2.25273 0.0932,4.48808 0.59665,6.80392 0.50341,2.31585 1.34295,4.71214 2.48603,7.06561 1.54393,3.17871 2.52603,5.35552 3.08267,6.80392 z"
       id="path3036"
       inkscape:export-filename="/Users/grzegorz/Sites/img/cliparty/kogut.png"
       inkscape:export-xdpi="90"
       inkscape:export-ydpi="90" />
    <path
       id="path3054"
       d="m 491.44365,416.6315 c 6.41553,-0.49987 12.29122,-0.51905 17.70053,0.0871 5.40932,0.60628 10.3571,1.76604 14.7173,3.66365 4.66145,2.02873 8.62653,4.58371 12.03239,7.50176 3.40585,2.91805 6.21038,6.19404 8.35306,9.68251 2.14268,3.48846 3.7023,7.25104 4.57429,10.99095 0.872,3.73991 1.10232,7.49299 0.69609,11.16541 -0.40623,3.67241 -1.49009,7.26882 -3.18212,10.5548 -1.69203,3.28598 -4.07495,6.2296 -7.06032,8.81021 -2.98537,2.5806 -6.55284,4.72425 -10.83909,6.28054 -4.28625,1.55629 -9.22207,2.57831 -14.81674,2.79135 -4.45013,0.16944 -9.33793,-0.59967 -14.61786,-2.09351 -5.27993,-1.49385 -11.01497,-3.72026 -17.10389,-6.36778 -12.17787,-5.295 -25.8794,-12.4259 -41.16865,-19.27777 -2.39859,-1.50326 -5.00312,-2.13341 -7.65698,-2.26798 -2.65385,-0.13454 -5.43086,0.28586 -8.15418,0.95953 -5.44664,1.34736 -10.80386,3.75467 -15.41338,4.9721 0.80068,-2.96928 2.39171,-6.50338 4.67373,-10.20589 2.28203,-3.7025 5.26183,-7.60978 8.65139,-11.33987 3.38956,-3.73008 7.21303,-7.32833 11.3363,-10.38034 4.12326,-3.05201 8.5436,-5.57179 13.02679,-7.24007 8.29916,-2.15674 16.18878,-3.98736 23.56757,-5.40824 7.37879,-1.42089 14.26824,-2.37871 20.68377,-2.87859 z"
       style="fill:url(#radialGradient22404);fill-opacity:1;fill-rule:evenodd;stroke:none"
       inkscape:export-filename="/Users/grzegorz/Sites/img/cliparty/kogut.png"
       inkscape:export-xdpi="90"
       inkscape:export-ydpi="90" />
  </g>
</svg>
