<?xml version="1.0" encoding="UTF-8" standalone="no"?>
<!-- Created with Inkscape (http://www.inkscape.org/) -->
<svg
   xmlns:dc="http://purl.org/dc/elements/1.1/"
   xmlns:cc="http://creativecommons.org/ns#"
   xmlns:rdf="http://www.w3.org/1999/02/22-rdf-syntax-ns#"
   xmlns:svg="http://www.w3.org/2000/svg"
   xmlns="http://www.w3.org/2000/svg"
   xmlns:xlink="http://www.w3.org/1999/xlink"
   xmlns:sodipodi="http://sodipodi.sourceforge.net/DTD/sodipodi-0.dtd"
   xmlns:inkscape="http://www.inkscape.org/namespaces/inkscape"
   width="704.21429"
   height="738.00323"
   id="svg2"
   sodipodi:version="0.32"
   inkscape:version="0.46"
   sodipodi:docname="bot.svg"
   inkscape:output_extension="org.inkscape.output.svg.inkscape"
   version="1.0">
  <defs
     id="defs4">
    <linearGradient
       inkscape:collect="always"
       id="linearGradient3902">
      <stop
         style="stop-color:#f6ffd5;stop-opacity:1"
         offset="0"
         id="stop3904" />
      <stop
         style="stop-color:#ddff55;stop-opacity:1"
         offset="1"
         id="stop3906" />
    </linearGradient>
    <linearGradient
       inkscape:collect="always"
       id="linearGradient3685">
      <stop
         style="stop-color:#222b00;stop-opacity:1;"
         offset="0"
         id="stop3687" />
      <stop
         style="stop-color:#222b00;stop-opacity:0;"
         offset="1"
         id="stop3689" />
    </linearGradient>
    <linearGradient
       inkscape:collect="always"
       id="linearGradient3279">
      <stop
         style="stop-color:#668000;stop-opacity:1;"
         offset="0"
         id="stop3281" />
      <stop
         style="stop-color:#668000;stop-opacity:0;"
         offset="1"
         id="stop3283" />
    </linearGradient>
    <linearGradient
       inkscape:collect="always"
       id="linearGradient3241">
      <stop
         style="stop-color:#222b00;stop-opacity:1;"
         offset="0"
         id="stop3243" />
      <stop
         style="stop-color:#222b00;stop-opacity:0;"
         offset="1"
         id="stop3245" />
    </linearGradient>
    <inkscape:perspective
       sodipodi:type="inkscape:persp3d"
       inkscape:vp_x="0 : 526.18109 : 1"
       inkscape:vp_y="0 : 1000 : 0"
       inkscape:vp_z="744.09448 : 526.18109 : 1"
       inkscape:persp3d-origin="372.04724 : 350.78739 : 1"
       id="perspective10" />
    <filter
       inkscape:collect="always"
       id="filter3237"
       x="-0.16270667"
       width="1.3254133"
       y="-0.093638502"
       height="1.187277">
      <feGaussianBlur
         inkscape:collect="always"
         stdDeviation="5.723858"
         id="feGaussianBlur3239" />
    </filter>
    <filter
       inkscape:collect="always"
       id="filter3275"
       x="-0.18233159"
       width="1.3646632"
       y="-0.060245246"
       height="1.1204906">
      <feGaussianBlur
         inkscape:collect="always"
         stdDeviation="4.8213575"
         id="feGaussianBlur3277" />
    </filter>
    <filter
       inkscape:collect="always"
       id="filter3553"
       x="-0.62319374"
       width="2.2463875"
       y="-0.31544375"
       height="1.6308875">
      <feGaussianBlur
         inkscape:collect="always"
         stdDeviation="7.6044476"
         id="feGaussianBlur3555" />
    </filter>
    <filter
       inkscape:collect="always"
       id="filter3681"
       x="-0.21689971"
       width="1.4337994"
       y="-0.27726725"
       height="1.5545346">
      <feGaussianBlur
         inkscape:collect="always"
         stdDeviation="6.527407"
         id="feGaussianBlur3683" />
    </filter>
    <filter
       inkscape:collect="always"
       id="filter3851"
       x="-0.1481844"
       width="1.2963688"
       y="-0.9062047"
       height="2.8124094">
      <feGaussianBlur
         inkscape:collect="always"
         stdDeviation="19.833774"
         id="feGaussianBlur3853" />
    </filter>
    <radialGradient
       inkscape:collect="always"
       xlink:href="#linearGradient3902"
       id="radialGradient3940"
       gradientUnits="userSpaceOnUse"
       gradientTransform="matrix(-0.8471717,0.8463906,-0.9896077,-0.9905258,1395.9185,1081.7956)"
       cx="409.39401"
       cy="676.30243"
       fx="409.39401"
       fy="676.30243"
       r="344.02594" />
    <linearGradient
       inkscape:collect="always"
       xlink:href="#linearGradient3241"
       id="linearGradient3942"
       gradientUnits="userSpaceOnUse"
       x1="502.04581"
       y1="736.18445"
       x2="538.41132"
       y2="783.66162" />
    <linearGradient
       inkscape:collect="always"
       xlink:href="#linearGradient3279"
       id="linearGradient3944"
       gradientUnits="userSpaceOnUse"
       x1="414.28571"
       y1="446.64789"
       x2="388.57144"
       y2="691.64789" />
    <linearGradient
       inkscape:collect="always"
       xlink:href="#linearGradient3685"
       id="linearGradient3946"
       gradientUnits="userSpaceOnUse"
       x1="495.47983"
       y1="921.0423"
       x2="457.59909"
       y2="980.13629" />
  </defs>
  <sodipodi:namedview
     id="base"
     pagecolor="#ffffff"
     bordercolor="#666666"
     borderopacity="1.0"
     gridtolerance="10000"
     guidetolerance="10"
     objecttolerance="10"
     inkscape:pageopacity="0.0"
     inkscape:pageshadow="2"
     inkscape:zoom="0.24748737"
     inkscape:cx="159.89069"
     inkscape:cy="95.545302"
     inkscape:document-units="px"
     inkscape:current-layer="layer1"
     showgrid="false"
     inkscape:window-width="811"
     inkscape:window-height="837"
     inkscape:window-x="-1"
     inkscape:window-y="-2" />
  <metadata
     id="metadata7">
    <rdf:RDF>
      <cc:Work
         rdf:about="">
        <dc:format>image/svg+xml</dc:format>
        <dc:type
           rdf:resource="http://purl.org/dc/dcmitype/StillImage" />
      </cc:Work>
    </rdf:RDF>
  </metadata>
  <g
     inkscape:label="Layer 1"
     inkscape:groupmode="layer"
     id="layer1"
     transform="translate(-22.451074,-26.138988)">
    <g
       id="g3910"
       transform="matrix(1.0234901,0,0,1.0234901,-29.476052,-381.08228)"
       inkscape:export-filename="C:\Documents and Settings\Smitha\Desktop\clipart\sausage\lilbot.png"
       inkscape:export-xdpi="53.52"
       inkscape:export-ydpi="53.52">
      <rect
         ry="189.16464"
         y="400.21982"
         x="53.080025"
         height="716.37598"
         width="683.36255"
         id="rect3857"
         style="opacity:1;fill:url(#radialGradient3940);fill-opacity:1;stroke:#bcd35f;stroke-width:4.6893549;stroke-miterlimit:4;stroke-dasharray:none;stroke-dashoffset:0;stroke-opacity:1" />
      <g
         transform="translate(-2.0203051,50.507627)"
         id="g3879">
        <path
           sodipodi:type="arc"
           style="opacity:0.3942308;fill:#112b00;fill-opacity:1;stroke:none;stroke-width:3;stroke-miterlimit:4;stroke-dasharray:none;stroke-dashoffset:0;stroke-opacity:1;filter:url(#filter3851)"
           id="path3693"
           sodipodi:cx="411.13208"
           sodipodi:cy="963.46875"
           sodipodi:rx="160.61426"
           sodipodi:ry="26.263966"
           d="M 571.74634,963.46875 A 160.61426,26.263966 0 1 1 250.51782,963.46875 A 160.61426,26.263966 0 1 1 571.74634,963.46875 z"
           transform="matrix(1.2955975,0,0,1.2692308,-124.56006,-256.36498)" />
        <path
           inkscape:transform-center-y="74.788215"
           inkscape:transform-center-x="9.343145"
           id="path3293"
           d="M 440.0813,737.42466 L 421.62496,880.57855 L 413.59811,879.20154 L 432.97157,738.11185 L 440.0813,737.42466 z"
           style="fill:#222b00;fill-opacity:1;fill-rule:evenodd;stroke:none;stroke-width:1px;stroke-linecap:butt;stroke-linejoin:miter;stroke-opacity:1" />
        <path
           style="fill:#445500;fill-rule:evenodd;stroke:none;stroke-width:1px;stroke-linecap:butt;stroke-linejoin:miter;stroke-opacity:1"
           d="M 410.01782,666.92592 C 414.95832,659.36126 484.58554,655.19498 503.92158,672.67953 C 523.25762,690.16406 550.35109,719.72937 548.26637,737.79221 C 546.18165,755.85505 500.9841,812.66693 468.56301,829.26222 C 436.14192,845.8575 398.24089,839.44943 387.82045,824.01075 C 377.4,808.57206 389.25446,698.71774 410.01782,666.92592 z"
           id="path2395"
           sodipodi:nodetypes="csssss" />
        <path
           style="opacity:0.80769228;fill:url(#linearGradient3942);fill-opacity:1;fill-rule:evenodd;stroke:none;stroke-width:1px;stroke-linecap:butt;stroke-linejoin:miter;stroke-opacity:1;filter:url(#filter3237)"
           d="M 506.08643,834.16923 C 506.08643,834.16923 466.69048,860.4332 471.74124,840.23015 C 476.792,820.0271 492.95444,690.72757 515.1778,701.83925 C 537.40115,712.95093 557.60421,729.11337 555.5839,746.28596 C 553.56359,763.45855 533.36054,804.87481 506.08643,834.16923 z"
           id="path2397"
           transform="matrix(0.9934055,0.1146538,-0.1146538,0.9934055,65.623324,-67.11831)" />
        <path
           style="fill:#445500;fill-opacity:1;fill-rule:evenodd;stroke:none;stroke-width:1px;stroke-linecap:butt;stroke-linejoin:miter;stroke-opacity:1"
           d="M 398.31699,566.16191 L 475.08858,688.39037 L 468.01752,692.43098 L 393.26623,571.21268 L 398.31699,566.16191 z"
           id="path2389" />
        <path
           id="path2393"
           d="M 421.23361,568.49911 L 483.86306,669.51437 L 476.792,673.55498 L 416.18285,573.54988 L 421.23361,568.49911 z"
           style="fill:#445500;fill-opacity:1;fill-rule:evenodd;stroke:none;stroke-width:1px;stroke-linecap:butt;stroke-linejoin:miter;stroke-opacity:1"
           sodipodi:nodetypes="ccccc" />
        <path
           style="fill:#88aa00;fill-rule:evenodd;stroke:none;stroke-width:1px;stroke-linecap:butt;stroke-linejoin:miter;stroke-opacity:1"
           d="M 420.22346,606.88491 C 420.22346,606.88491 409.11178,582.64125 426.28437,546.27576 C 459.30383,476.35217 471.74124,447.28081 435.37575,423.03715 C 399.01026,398.79349 359.84883,430.02697 328.29957,508.90012 C 304.05591,569.50927 320.21836,615.97629 320.21836,615.97629 C 320.21836,615.97629 366.68537,662.4433 420.22346,606.88491 z"
           id="path2383"
           sodipodi:nodetypes="cssscc" />
        <path
           style="fill:#668000;fill-rule:evenodd;stroke:none;stroke-width:1px;stroke-linecap:butt;stroke-linejoin:miter;stroke-opacity:1"
           d="M 392.94934,628.09811 C 392.94934,628.09811 344.46202,680.62605 311.12698,680.62605 C 277.79195,680.62605 304.05592,657.39254 315.16759,648.30116 C 326.27927,639.20979 343.45187,628.09811 343.45187,628.09811 L 335.37065,624.0575 C 335.37065,624.0575 299.00515,649.31132 287.89348,661.43315 C 276.7818,673.55498 281.83256,684.66666 287.89348,698.80879 C 293.95439,712.95093 303.04576,741.2352 327.28942,743.2555 C 351.53309,745.27581 420.22346,689.71742 433.35544,673.55498 C 446.48743,657.39254 436.3859,633.14888 429.31483,621.02705 C 422.24376,608.90522 420.22346,584.66155 406.08132,600.82399 C 391.93919,616.98644 386.88842,607.89506 392.94934,628.09811 z"
           id="path2385" />
        <path
           style="fill:url(#linearGradient3944);fill-opacity:1;fill-rule:evenodd;stroke:none;stroke-width:1px;stroke-linecap:butt;stroke-linejoin:miter;stroke-opacity:1;filter:url(#filter3275)"
           d="M 400,431.6479 C 400,431.6479 384.28571,445.93361 392.14286,457.36218 C 400,468.79075 407.14286,475.93361 402.14286,500.93361 C 397.14286,525.93361 384.28571,545.93361 381.42857,567.36218 C 378.57143,588.79075 387.14286,618.79075 387.14286,618.79075 L 409.28571,600.93361 C 409.28571,600.93361 397.14286,560.21932 412.85714,534.50504 C 428.57143,508.79075 445,478.07647 444.28571,464.50504 C 443.57143,450.93361 435.71429,434.50504 425,428.79075 C 414.28571,423.07647 400.71429,430.93361 400,431.6479 z"
           id="path3249" />
        <path
           sodipodi:type="arc"
           style="opacity:1;fill:#445500;fill-opacity:1;stroke:none;stroke-width:3;stroke-miterlimit:4;stroke-dasharray:none;stroke-dashoffset:0;stroke-opacity:1"
           id="path2387"
           sodipodi:cx="415.1727"
           sodipodi:cy="559.91284"
           sodipodi:rx="18.182745"
           sodipodi:ry="24.748737"
           d="M 433.35544,559.91284 A 18.182745,24.748737 0 1 1 396.98995,559.91284 A 18.182745,24.748737 0 1 1 433.35544,559.91284 z"
           transform="matrix(0.9673735,0.2533545,-0.2533545,0.9673735,155.40206,-86.917875)" />
        <path
           sodipodi:type="arc"
           style="opacity:0.80769228;fill:#ddff55;fill-opacity:1;stroke:none;stroke-width:3;stroke-miterlimit:4;stroke-dasharray:none;stroke-dashoffset:0;stroke-opacity:1"
           id="path3287"
           sodipodi:cx="351.07144"
           sodipodi:cy="537.7193"
           sodipodi:rx="14.642858"
           sodipodi:ry="28.928572"
           d="M 365.7143,537.7193 A 14.642858,28.928572 0 1 1 336.42858,537.7193 A 14.642858,28.928572 0 1 1 365.7143,537.7193 z" />
        <path
           transform="matrix(0.7084062,0.2533545,-0.1855311,0.9673735,302.80019,101.65356)"
           d="M 433.35544,559.91284 A 18.182745,24.748737 0 1 1 396.98995,559.91284 A 18.182745,24.748737 0 1 1 433.35544,559.91284 z"
           sodipodi:ry="24.748737"
           sodipodi:rx="18.182745"
           sodipodi:cy="559.91284"
           sodipodi:cx="415.1727"
           id="path3289"
           style="opacity:1;fill:#222b00;fill-opacity:1;stroke:none;stroke-width:3;stroke-miterlimit:4;stroke-dasharray:none;stroke-dashoffset:0;stroke-opacity:1"
           sodipodi:type="arc" />
        <path
           style="fill:#222b00;fill-opacity:1;fill-rule:evenodd;stroke:none;stroke-width:1px;stroke-linecap:butt;stroke-linejoin:miter;stroke-opacity:1"
           d="M 500.0813,745.99609 L 481.62496,889.14998 L 473.59811,887.77297 L 492.97157,746.68328 L 500.0813,745.99609 z"
           id="path3291"
           inkscape:transform-center-x="9.343145"
           inkscape:transform-center-y="74.788215" />
        <path
           id="path3297"
           d="M 432.85714,878.07647 L 401.42857,879.50504 C 401.42857,879.50504 367.14286,890.93361 348.57143,919.50504 C 330,948.07647 330,963.79075 330,963.79075 C 330,963.79075 422.85714,968.07647 450,943.79075 C 477.14286,919.50504 434.28572,876.6479 432.85714,878.07647 z"
           style="fill:#222b00;fill-rule:evenodd;stroke:none;stroke-width:1px;stroke-linecap:butt;stroke-linejoin:miter;stroke-opacity:1" />
        <path
           style="fill:#445500;fill-rule:evenodd;stroke:none;stroke-width:1px;stroke-linecap:butt;stroke-linejoin:miter;stroke-opacity:1"
           d="M 495.71428,885.21933 L 464.28571,886.6479 C 464.28571,886.6479 430,898.07647 411.42857,926.6479 C 392.85714,955.21933 392.85714,970.93361 392.85714,970.93361 C 392.85714,970.93361 482.17875,988.85639 512.85714,950.93361 C 535.76405,922.61747 497.14286,883.79076 495.71428,885.21933 z"
           id="path3295"
           sodipodi:nodetypes="ccscsc" />
        <path
           style="fill:none;fill-rule:evenodd;stroke:#445500;stroke-width:1px;stroke-linecap:butt;stroke-linejoin:miter;stroke-opacity:1"
           d="M 316.42857,739.50504 C 316.42857,739.50504 300,713.07647 300,703.79075 C 300,694.50504 305.71429,680.21933 305.71429,680.21933"
           id="path3299" />
        <path
           d="M 365.7143,537.7193 A 14.642858,28.928572 0 1 1 336.42858,537.7193 A 14.642858,28.928572 0 1 1 365.7143,537.7193 z"
           sodipodi:ry="28.928572"
           sodipodi:rx="14.642858"
           sodipodi:cy="537.7193"
           sodipodi:cx="351.07144"
           id="path3321"
           style="opacity:0.80769228;fill:#668000;fill-opacity:1;stroke:none;stroke-width:3;stroke-miterlimit:4;stroke-dasharray:none;stroke-dashoffset:0;stroke-opacity:1"
           sodipodi:type="arc"
           transform="matrix(0.6097561,0,0,0.6097561,133.43206,209.12738)" />
        <path
           transform="matrix(0.3414634,0,0,0.3414634,227.62196,353.39353)"
           sodipodi:type="arc"
           style="opacity:0.80769228;fill:#222b00;fill-opacity:1;stroke:none;stroke-width:3;stroke-miterlimit:4;stroke-dasharray:none;stroke-dashoffset:0;stroke-opacity:1;filter:url(#filter3553)"
           id="path3323"
           sodipodi:cx="351.07144"
           sodipodi:cy="537.7193"
           sodipodi:rx="14.642858"
           sodipodi:ry="28.928572"
           d="M 365.7143,537.7193 A 14.642858,28.928572 0 1 1 336.42858,537.7193 A 14.642858,28.928572 0 1 1 365.7143,537.7193 z" />
        <path
           sodipodi:type="arc"
           style="opacity:1;fill:#222b00;fill-opacity:1;stroke:none;stroke-width:3;stroke-miterlimit:4;stroke-dasharray:none;stroke-dashoffset:0;stroke-opacity:1"
           id="path3557"
           sodipodi:cx="346.60715"
           sodipodi:cy="537.36218"
           sodipodi:rx="2.3214285"
           sodipodi:ry="6.7857141"
           d="M 348.92858,537.36218 A 2.3214285,6.7857141 0 1 1 344.28572,537.36218 A 2.3214285,6.7857141 0 1 1 348.92858,537.36218 z" />
        <path
           style="fill:url(#linearGradient3946);fill-opacity:1;fill-rule:evenodd;stroke:none;stroke-width:1px;stroke-linecap:butt;stroke-linejoin:miter;stroke-opacity:1;filter:url(#filter3681)"
           d="M 439.41636,964.98399 C 439.41636,964.98399 473.76154,911.4459 488.40876,909.93067 C 503.05597,908.41544 511.64226,918.01189 511.64226,927.10327 C 511.64226,936.19464 507.09658,944.27586 499.01536,951.34693 C 490.93414,958.418 467.70063,963.46876 458.60926,965.48906 C 449.51788,967.50937 439.92143,964.98399 439.41636,964.98399 z"
           id="path3559" />
        <path
           sodipodi:type="arc"
           style="opacity:1;fill:#aad400;fill-opacity:1;stroke:none;stroke-width:3;stroke-miterlimit:4;stroke-dasharray:none;stroke-dashoffset:0;stroke-opacity:1"
           id="path3855"
           sodipodi:cx="411.13208"
           sodipodi:cy="810.25513"
           sodipodi:rx="7.0710678"
           sodipodi:ry="11.441228"
           d="M 418.20315,810.25513 A 7.0710678,11.441228 0 1 1 404.06101,810.25513 A 7.0710678,11.441228 0 1 1 418.20315,810.25513 z" />
      </g>
      <g
         transform="translate(-2.0203051,38.385797)"
         id="g3873">
        <path
           style="fill:#ff2a2a;fill-rule:evenodd;stroke:none;stroke-width:1px;stroke-linecap:butt;stroke-linejoin:miter;stroke-opacity:1"
           d="M 183.84776,520.01179 C 183.84776,520.01179 186.87822,476.57523 204.05081,478.59554 C 221.22341,480.61584 204.05081,521.02194 204.05081,521.02194 C 204.05081,521.02194 225.26402,520.01179 221.22341,532.13362 C 217.1828,544.25545 188.89853,530.11332 188.89853,530.11332 L 183.84776,520.01179 z"
           id="path3859" />
        <path
           id="path3861"
           d="M 183.64178,520.08645 C 183.64178,520.08645 144.86688,500.27672 137.73951,516.03045 C 130.61214,531.78419 174.08582,537.91528 174.08582,537.91528 C 174.08582,537.91528 162.27801,555.56738 174.74694,558.35863 C 187.21587,561.14989 189.69032,529.62408 189.69032,529.62408 L 183.64178,520.08645 z"
           style="fill:#ff2a2a;fill-rule:evenodd;stroke:none;stroke-width:1px;stroke-linecap:butt;stroke-linejoin:miter;stroke-opacity:1" />
        <path
           style="fill:none;fill-rule:evenodd;stroke:#000000;stroke-width:2;stroke-linecap:butt;stroke-linejoin:miter;stroke-miterlimit:4;stroke-dasharray:none;stroke-opacity:1"
           d="M 183.25165,520.17316 C 183.25165,520.17316 180.30508,514.88766 176.2636,515.89925 C 172.22213,516.91084 172.11151,517.93364 172.11151,517.93364"
           id="path3863"
           inkscape:transform-center-x="4.700376"
           inkscape:transform-center-y="-1.8423334" />
        <path
           inkscape:transform-center-y="-7.3814699"
           inkscape:transform-center-x="-3.2970302"
           id="path3865"
           d="M 183.87924,520.54848 C 183.87924,520.54848 179.73039,510.75634 185.49618,506.24377 C 191.26195,501.73121 192.79977,502.68196 192.79977,502.68196"
           style="fill:none;fill-rule:evenodd;stroke:#000000;stroke-width:2;stroke-linecap:butt;stroke-linejoin:miter;stroke-miterlimit:4;stroke-dasharray:none;stroke-opacity:1" />
      </g>
    </g>
  </g>
</svg>
