<?xml version="1.0" encoding="UTF-8" standalone="no"?>
<!-- Created with Inkscape (http://www.inkscape.org/) -->
<svg
   xmlns:svg="http://www.w3.org/2000/svg"
   xmlns="http://www.w3.org/2000/svg"
   version="1.0"
   width="512.81982"
   height="453.10547"
   viewBox="0 0 512.81982 453.10547"
   id="svg2547"
   xml:space="preserve"><defs
   id="defs2564" />
	
		<g
   id="Ebene_2_1_">
			<path
   d="M 508.31982,402.58398 L 285.58545,16.844238 C 279.2124,5.8081055 267.35205,-0.628418 254.62402,0.0483398 C 243.19482,0.6518554 232.95605,6.9331054 227.23291,16.845215 C 227.23291,16.844238 4.4980468,402.58398 4.4980468,402.58398 C -1.5,412.97363 -1.4990234,425.87988 4.5,436.2666 C 10.499023,446.65332 21.676758,453.10547 33.673828,453.10547 L 479.14404,453.10547 C 491.14014,453.10547 502.32373,446.65332 508.32178,436.2666 C 514.31787,425.87891 514.31982,412.97168 508.31982,402.58398 z M 494.06982,428.03711 C 491.00146,433.35059 485.28271,436.65039 479.14209,436.65039 C 479.14014,436.65039 33.669922,436.65039 33.669922,436.65039 C 27.532227,436.65039 21.814941,433.35059 18.746094,428.03906 C 15.678223,422.72754 15.676758,416.12988 18.744141,410.81152 C 18.744141,410.8125 241.479,25.07373 241.479,25.07373 C 244.40625,20.006348 249.64502,16.794433 255.49219,16.47998 C 262.00146,16.133301 268.07373,19.426269 271.32959,25.071777 C 271.32959,25.072754 494.06592,410.8125 494.06592,410.8125 C 497.13623,416.12598 497.13428,422.72461 494.06982,428.03711 z "
   style="fill:#5e240e"
   id="path2552" />
			<path
   d="M 271.3335,25.070801 C 268.07568,19.425293 262.00537,16.133301 255.49512,16.479981 C 249.64697,16.792481 244.40918,20.002441 241.48193,25.073731 C 241.48193,25.073731 18.746094,410.8125 18.74707,410.81152 C 15.681152,416.125 15.682129,422.72559 18.749023,428.03809 C 21.816895,433.35156 27.536133,436.65039 33.672852,436.65039 C 33.672852,436.65039 479.14209,436.65039 479.146,436.65039 C 485.28467,436.65039 490.99951,433.35059 494.07178,428.03711 C 497.13623,422.72559 497.13623,416.12988 494.07373,410.8125 C 494.06982,410.8125 271.3335,25.07373 271.3335,25.070801 z "
   style="fill:#ff3503"
   id="yellow" />
			<polygon
   points="256.4082,79.21582 73.113281,396.65039 439.70459,396.65039 256.4082,79.21582 "
   style="fill:#5e240e"
   id="polygon2555" />
			<g
   id="g2557">
				<path
   d="M 350.37939,332.10352 C 348.09814,328.47852 343.13428,328.88281 339.37744,328.6123 C 336.82764,324.05273 334.4126,319.35645 331.729,314.66113 C 330.65576,320.02734 329.5835,325.52832 328.2417,330.89453 C 325.69189,331.2959 323.27686,332.10352 320.72705,332.50391 C 317.10498,327.94141 313.74951,323.38184 310.39697,318.68555 C 309.45752,323.38184 308.78662,328.21191 307.04248,332.77344 C 303.15088,335.05371 298.45459,335.05371 294.02783,335.32129 C 291.74658,330.49121 289.6001,325.79492 287.31885,320.96582 C 285.7085,325.66211 283.96338,330.35742 282.22021,334.91992 C 277.25439,335.32129 272.2915,335.45703 267.32666,335.1875 C 265.44873,330.625 263.43604,325.92871 261.55713,321.36914 C 259.41162,325.52832 257.39893,329.82031 255.25146,333.97949 C 251.09131,333.44434 246.79834,333.04102 242.50439,332.6377 C 240.62744,328.47852 238.61475,324.32031 236.73584,320.16113 C 235.12549,324.32031 233.51514,328.6123 231.771,332.6377 C 227.74609,332.50391 223.85547,332.50391 219.96436,332.37012 C 217.95166,328.3457 216.07275,324.32031 214.32861,320.29492 C 212.58447,324.05273 210.97412,327.94141 209.49756,331.83301 C 203.86328,331.83301 198.22803,331.83301 192.59229,331.56543 C 199.16748,324.4541 208.42578,320.96582 216.20654,315.33203 C 219.6958,318.14844 223.18506,320.96582 226.80664,323.64941 C 226.67285,319.2207 226.67285,314.66113 226.67285,310.09863 C 230.29443,308.35352 233.91846,306.87793 237.80908,305.53613 C 241.8335,308.62305 245.85889,311.57324 250.01904,314.52441 C 250.15283,309.42773 249.61572,304.19434 250.42041,299.09473 C 253.104,297.08203 256.19092,296.00977 259.14111,294.66895 C 263.97217,297.48535 268.80322,300.30273 273.6333,303.12012 C 272.42529,298.29004 271.35205,293.59375 270.4126,288.76465 C 273.8999,286.75195 277.38916,284.73926 281.01221,282.72656 C 285.0376,285.54395 289.33154,288.09375 293.48975,290.91016 C 292.41748,286.34863 291.47803,281.78809 290.40479,277.22656 C 294.02783,274.67676 297.64893,271.99316 301.13818,269.30957 C 305.56592,272.25977 309.99268,275.21387 314.28662,278.16406 C 313.08057,273.60156 311.73682,269.04199 310.53076,264.3457 C 313.21338,262.33398 315.89697,260.32129 318.58057,258.17187 C 322.47217,260.58789 326.49756,263.00391 330.65576,265.15039 C 329.44775,260.18457 328.10596,255.35547 326.8999,250.52539 C 328.64404,248.64648 331.46045,247.30469 332.26611,244.75488 C 331.86279,242.3418 330.65576,240.05859 328.51025,238.85352 C 322.87451,235.63281 315.89697,234.82812 309.72412,236.4375 C 305.16357,239.25391 302.74854,244.4873 298.72314,247.8418 C 281.27979,263.27148 259.94678,274.40918 237.27295,279.50586 C 223.98926,282.99414 210.97412,273.20117 197.69189,277.35937 C 183.73779,282.32324 177.43115,298.15625 163.74561,303.52344 C 158.78223,305.80371 153.54883,302.58496 148.58447,303.25586 C 145.90088,305.13281 144.55908,308.21973 142.94873,310.90234 C 134.76465,326.33301 125.91016,341.49512 117.99316,357.05859 C 122.95654,357.99707 126.84814,355.0459 129.80029,351.42187 C 135.56934,344.44629 146.30322,342.83691 154.21973,347.12891 C 159.45312,349.94629 162.5376,355.44727 167.9043,357.86328 C 173.80859,358.2666 177.43115,352.76367 181.59131,349.5459 C 187.49414,344.17871 196.75146,343.77539 203.45996,347.5332 C 207.62012,350.08008 209.90137,354.64258 214.06006,357.05859 C 217.41455,358.53418 221.70801,358.80078 224.79395,356.3877 C 229.35596,352.76367 233.11279,347.39648 239.28564,346.05469 C 246.39502,343.50781 254.71533,345.9209 259.54541,351.69141 C 262.36182,354.64258 265.1792,359.20508 269.87549,358.13086 C 278.1958,357.05859 280.60889,346.5918 288.66064,345.11719 C 295.63623,343.50781 302.21143,347.2627 309.05518,348.4707 C 320.86182,351.28809 332.93701,349.00781 344.47607,346.05469 C 347.29248,342.0293 353.33057,337.60352 350.37939,332.10352 z M 226.26904,287.28906 C 223.31836,289.43555 220.23145,291.31445 217.14697,293.32715 C 217.01221,290.24023 216.60986,287.15527 216.60986,284.20215 C 219.83057,285.14258 223.0498,286.08105 226.26904,287.28906 z M 198.36279,289.83887 C 199.70459,284.06836 206.00977,282.72656 211.10938,282.86035 C 211.24316,287.15527 211.78027,291.44824 212.18115,295.74023 C 208.15576,300.70605 195.27588,297.48535 198.36279,289.83887 z "
   style="fill:#ffed21"
   id="path2559" />
				<path
   d="M 325.96045,363.90039 C 331.05811,359.87598 335.21826,353.30078 342.46338,353.16699 C 348.3667,352.89941 351.72119,358.2666 355.61182,361.75488 C 360.57666,366.58398 369.29736,367.38867 374.53076,362.55957 C 379.49365,358.13086 384.4585,353.57031 391.30225,352.49609 C 391.30225,355.85059 391.30225,359.33887 391.16748,362.69238 C 381.37256,364.70508 375.87256,375.97656 365.27197,375.57227 C 357.89307,375.70898 353.19678,369.53516 347.96338,365.24219 C 345.01318,362.42578 340.04834,362.69238 337.09619,365.24219 C 331.32666,369.6709 326.229,375.84277 318.44678,376.51367 C 311.47021,377.18457 306.23682,371.95117 301.54053,367.6582 C 298.05225,364.16797 292.41748,362.02148 288.12354,365.10938 C 281.81689,369.40137 276.854,376.64746 268.66846,376.78125 C 257.93506,377.18457 253.90967,363.22949 243.17529,363.76758 C 234.99023,365.24219 230.83154,373.83008 222.91504,376.11035 C 216.74365,377.98926 210.30371,374.76855 205.74268,370.60937 C 201.85107,367.52246 197.82568,362.69238 192.19043,363.76758 C 183.604,366.04687 178.9082,376.11035 169.38086,376.11035 C 158.51221,377.05078 153.54883,362.29199 142.68164,363.63379 C 135.97314,366.04687 131.81299,372.88965 124.96924,375.17187 C 121.48145,376.24316 117.99316,374.36719 114.63916,373.42676 C 114.63916,370.3418 114.63916,367.12109 114.50537,363.90039 C 117.18896,364.70508 120.00586,365.50977 122.68945,366.18066 C 131.27686,363.76758 135.56934,352.76367 145.22998,353.7041 C 152.47461,353.30078 156.49951,360.14258 161.73291,363.90039 C 166.02686,367.25488 172.6001,367.12109 176.62549,363.63379 C 181.85889,359.74219 186.2876,353.0332 193.53174,353.7041 C 200.37549,353.30078 204.93652,358.80078 209.63281,362.96289 C 214.06006,367.12109 221.84326,368.19336 226.53906,363.90039 C 231.90576,359.47168 237.00342,353.43457 244.51709,353.83789 C 251.49463,353.57031 256.72803,358.9375 261.28857,363.36328 C 263.43603,365.7793 266.521,367.25488 269.87549,366.58398 C 279.40186,366.04687 282.75635,353.16699 292.81982,353.83789 C 300.19873,352.76367 305.02978,358.9375 309.85986,363.36328 C 314.01807,367.6582 321.39795,367.6582 325.96045,363.90039 L 325.96045,363.90039 z "
   style="fill:#ffed21"
   id="path2561" />
			</g>
		</g>
	</svg>