<?xml version="1.0" encoding="iso-8859-1"?>
<!DOCTYPE svg PUBLIC "-//W3C//DTD SVG 1.0//EN" "http://www.w3.org/TR/2001/REC-SVG-20010904/DTD/svg10.dtd">
<!-- Creator: CorelDRAW -->
<svg xmlns="http://www.w3.org/2000/svg" xmlns:odm="http://product.corel.com/CGS/11/cddns/" xml:space="preserve" width="1023px" height="614px" style="shape-rendering:geometricPrecision; text-rendering:geometricPrecision; image-rendering:optimizeQuality; fill-rule:evenodd"
     viewBox="0 0 10230 6138">
 <defs>
  <style type="text/css">
   <![CDATA[
    .str2 {stroke:#000000;stroke-width:11}
    .str1 {stroke:#000000;stroke-width:11;stroke-linecap:round;stroke-linejoin:round}
    .str0 {stroke:#000000;stroke-width:14}
    .fil6 {fill:none}
    .fil3 {fill:#000000}
    .fil5 {fill:#FFFFFF}
    .fil7 {fill:#000000}
    .fil1 {fill:#007168}
    .fil2 {fill:#D21034}
    .fil4 {fill:#FCE100}
    .fil0 {fill:#FFFFFF}
   ]]>
  </style>
 </defs>
 <path class="fil0" d="M0 0l10230 0 0 6138 -10230 0 0 -6138z"/>
 <g id="Layer 1">
  <path class="fil1" d="M0 0l11714 3848 -428 -3848 -11286 0z"/>
  <path class="fil2" d="M11636 4295l-11636 -4295 11013 7507 623 -3212z"/>
  <path class="fil3" d="M9436 6962l-9436 -6962 5446 7702 3990 -740z"/>
  <path class="fil4" d="M0 0l4336 7429 -4336 -214 0 -7215z"/>
  <path class="fil5 str0" d="M2259 2718l0 151c-48,0 -95,-3 -142,-9l20 -150c-41,-6 -80,-14 -119,-24l-39 146c-46,-13 -90,-29 -134,-46l58 -140c-38,-16 -74,-35 -109,-56l-75 133c-42,-25 -81,-51 -118,-79l92 -120c-32,-25 -63,-52 -91,-81l-107 107c-34,-34 -65,-70 -93,-106l120 -93c-25,-32 -48,-66 -68,-101l-130 76c-23,-42 -44,-84 -62,-127l140 -58c-16,-38 -29,-77 -39,-116l-146 40c-12,-46 -21,-93 -27,-139l150 -20c-6,-40 -8,-81 -11,-122l-155 -1c0,-48 4,-95 10,-141l150 19c5,-40 13,-80 23,-119l-145 -39c13,-46 28,-90 46,-133l139 58c16,-38 36,-75 56,-110l-132 -75c24,-41 50,-81 78,-118l121 92c24,-32 51,-63 80,-91l-107 -107c34,-33 70,-65 107,-93l92 120c32,-25 66,-47 101,-68l-75 -130c41,-23 84,-44 127,-62l58 140c37,-16 76,-29 115,-39l-39 -146c46,-12 92,-21 138,-27l20 150c41,-5 81,-8 122,-7l0 -151c47,0 95,3 141,9l-20 150c41,5 80,13 119,24l40 -146c46,13 90,28 134,46l-58 140c38,16 74,35 109,55l75 -132c42,24 81,50 118,79l-92 120c32,25 63,52 91,80l107 -107c34,35 65,70 93,107l-120 92c25,33 48,67 68,101l130 -75c23,42 44,84 62,127l-140 58c16,38 29,76 39,115l146 -39c12,46 21,92 27,139l-150 19c6,41 8,82 11,123l155 1c0,48 -4,95 -10,141l-150 -20c-5,41 -13,81 -23,120l145 38c-13,46 -28,91 -46,134l-139 -58c-16,38 -36,74 -56,109l132 76c-24,41 -50,80 -78,117l-120 -92c-25,33 -52,63 -81,92l107 106c-34,34 -70,65 -107,94l-92 -120c-32,25 -66,47 -101,67l75 131c-41,23 -84,44 -127,61l-58 -139c-37,15 -76,28 -115,39l39 146c-46,12 -92,21 -138,27l-20 -150c-41,5 -81,8 -122,7z"/>
  <g>
   <path class="fil0 str1" d="M1707 2177l450 0c36,41 117,57 194,0 141,-78 414,0 414,0l54 -57 -131 -430 -47 -50c0,0 -101,-61 -292,-40 -192,20 -259,-7 -259,-7 0,0 -168,20 -215,43 -5,5 -54,54 -54,54l-114 487z"/>
   <path class="fil6 str1" d="M1798 2066c0,0 430,-53 554,111 -70,48 -132,52 -198,3 10,-17 154,-167 520,-117"/>
   <path class="fil6 str2" d="M2258 1636l-3 474"/>
   <path class="fil6 str2" d="M2641 1643l80 376"/>
   <path class="fil6 str1" d="M1880 1637l-45 194"/>
   <path class="fil7 str1" d="M1415 2229l106 124c12,7 23,7 34,0l157 -188 66 -82c10,-12 14,-26 13,-38l126 -112c10,1 16,2 26,3 -12,-3 -21,-9 -11,-22l28 -22 22 28c0,0 -31,41 -35,41 -3,0 -34,0 -34,0l-66 59 29 26 43 119 54 -38 -35 -122 75 -82 -28 -44 19 -25c0,0 260,164 361,120 2,1 6,-117 6,-117 0,0 -270,-28 -276,-81 -6,-54 59,-60 59,-60l-28 -41 6 -22 48 60 106 -91 627 715c35,-14 42,-22 44,-56 -1,-1 -614,-706 -614,-706l47 -50c9,-11 12,-15 12,-32l72 -62c22,7 36,20 47,37l199 -168c5,5 21,11 32,5l327 -315 -357 252 -12 -9c0,-10 13,-13 0,-31 -14,-17 -35,15 -38,15 -3,0 -52,-17 -62,-39l-4 58 -91 85 -69 -3 -100 97 -13 38 16 31c0,0 -53,47 -53,44 0,-3 -11,-14 -12,-15l46 -42 6 -28 -15 -24c-5,4 -63,65 -66,59 -5,-6 -170,-192 -170,-192l10 -34 -107 -116c-39,-14 -100,-16 -113,69 -9,20 -91,3 -91,3l-44 9 -247 352 138 166 282 -358 8 -101 60 66c19,3 38,3 56,-6l167 187 -28 27c10,10 16,17 26,27 9,-6 18,-13 27,-20 4,5 9,12 12,17 -14,7 -24,17 -38,25 -22,-15 -44,-33 -42,-62l-94 79 -4 15 -279 232 -25 4 -6 72 182 -151 0 -22 19 16 141 -113c0,0 9,13 6,13 -3,0 -125,112 -125,112l-3 13 -22 19 -13 -10 -169 151 -25 0 -94 94c-25,2 -46,5 -66,19l-169 149z"/>
  </g>
  <path class="fil2" d="M2852 1248l51 154 162 0 -131 96 50 155 -132 -96 -132 96 51 -155 -132 -96 163 0 50 -154zm25 77m107 77m16 48m-41 126m-41 29m-132 0m-40 -29m-41 -126m15 -48m107 -77"/>
 </g>
</svg>
