<?xml version="1.0" encoding="UTF-8" standalone="no"?>
<!-- Created with Inkscape (http://www.inkscape.org/) -->
<svg
   xmlns:dc="http://purl.org/dc/elements/1.1/"
   xmlns:cc="http://web.resource.org/cc/"
   xmlns:rdf="http://www.w3.org/1999/02/22-rdf-syntax-ns#"
   xmlns:svg="http://www.w3.org/2000/svg"
   xmlns="http://www.w3.org/2000/svg"
   xmlns:sodipodi="http://inkscape.sourceforge.net/DTD/sodipodi-0.dtd"
   xmlns:inkscape="http://www.inkscape.org/namespaces/inkscape"
   width="600"
   height="300"
   id="svg2"
   sodipodi:version="0.32"
   inkscape:version="0.43"
   version="1.0"
   sodipodi:docbase="C:\Documents and Settings\David Nelson\Archives\Svg"
   sodipodi:docname="Civil_Ensign_of_Grenada.svg">
  <defs
     id="defs4" />
  <sodipodi:namedview
     id="base"
     pagecolor="#ffffff"
     bordercolor="#666666"
     borderopacity="1.0"
     inkscape:pageopacity="0.0"
     inkscape:pageshadow="2"
     inkscape:zoom="1.1083333"
     inkscape:cx="299.99999"
     inkscape:cy="150.15788"
     inkscape:document-units="px"
     inkscape:current-layer="layer1"
     inkscape:window-width="756"
     inkscape:window-height="540"
     inkscape:window-x="22"
     inkscape:window-y="31" />
  <metadata
     id="metadata7">
    <rdf:RDF>
      <cc:Work
         rdf:about="">
        <dc:format>image/svg+xml</dc:format>
        <dc:type
           rdf:resource="http://purl.org/dc/dcmitype/StillImage" />
      </cc:Work>
    </rdf:RDF>
  </metadata>
  <g
     inkscape:label="Layer 1"
     inkscape:groupmode="layer"
     id="layer1">
    <rect
       width="600"
       height="300"
       x="0"
       y="4.6093752e-005"
       style="fill:#ce1126;fill-opacity:1;fill-rule:evenodd;stroke:none;stroke-width:1pt;stroke-linecap:butt;stroke-linejoin:miter;stroke-opacity:1"
       id="rect1031" />
    <rect
       width="516.00018"
       height="216"
       x="42.000019"
       y="42.000046"
       style="fill:#007a5e;fill-opacity:1;fill-rule:evenodd;stroke:none;stroke-width:1pt;stroke-linecap:butt;stroke-linejoin:miter;stroke-opacity:1"
       id="rect2276" />
    <path
       d="M 42.00002,258.00004 L 300.0001,150.00004 L 558.00018,258.00004 L 42.00002,258.00004 z "
       style="fill:#fcd116;fill-opacity:1;fill-rule:evenodd;stroke:none;stroke-width:1pt;stroke-linecap:butt;stroke-linejoin:miter;stroke-opacity:1"
       id="path3519" />
    <path
       d="M 42.00002,42.000044 L 300.0001,150.00004 L 558.00018,42.000044 L 42.00002,42.000044 z "
       style="fill:#fcd116;fill-opacity:1;fill-rule:evenodd;stroke:none;stroke-width:1pt;stroke-linecap:butt;stroke-linejoin:miter;stroke-opacity:1"
       id="path4762" />
    <path
       d="M 336,150.00003 C 336,130.11778 319.88225,114.00003 300,114.00003 C 280.11775,114.00003 264,130.11778 264,150.00003 C 264,169.88228 280.11775,186.00003 300,186.00003 C 319.88225,186.00003 336,169.88228 336,150.00003 z "
       style="fill:#ce1126;fill-opacity:1;fill-rule:evenodd;stroke:none;stroke-width:1pt;stroke-linecap:butt;stroke-linejoin:miter;stroke-opacity:1"
       id="path4763" />
    <path
       d="M 268.615,139.80416 L 292.59314,139.80416 L 300,117.00003 L 307.40686,139.80416 L 331.385,139.80416 L 311.98907,153.8959 L 319.39593,176.70003 L 300,162.60829 L 280.60407,176.70003 L 288.01093,153.8959 L 268.615,139.80416 z "
       style="fill:#fcd116;fill-opacity:1;fill-rule:evenodd;stroke:none;stroke-width:1pt;stroke-linecap:butt;stroke-linejoin:miter;stroke-opacity:1"
       id="path2203" />
    <g
       id="g2216">
      <path
         id="path6666"
         style="fill:#fcd116;fill-opacity:1;fill-rule:evenodd;stroke:none;stroke-width:1pt;stroke-linecap:butt;stroke-linejoin:miter;stroke-opacity:1"
         d="M 156.45501,16.836208 L 170.62339,16.836208 L 175.00001,3.36 L 179.37663,16.836208 L 193.54501,16.836208 L 182.0842,25.163792 L 186.46082,38.64 L 175.00001,30.312424 L 163.5392,38.64 L 167.91582,25.163792 L 156.45501,16.836208 z " />
      <path
         id="path6672"
         style="fill:#fcd116;fill-opacity:1;fill-rule:evenodd;stroke:none;stroke-width:1pt;stroke-linecap:butt;stroke-linejoin:miter;stroke-opacity:1"
         d="M 281.45501,16.836208 L 295.62339,16.836208 L 300.00001,3.36 L 304.37663,16.836208 L 318.54501,16.836208 L 307.0842,25.163792 L 311.46082,38.64 L 300.00001,30.312424 L 288.5392,38.64 L 292.91582,25.163792 L 281.45501,16.836208 z " />
      <path
         id="path6675"
         style="fill:#fcd116;fill-opacity:1;fill-rule:evenodd;stroke:none;stroke-width:1pt;stroke-linecap:butt;stroke-linejoin:miter;stroke-opacity:1"
         d="M 406.45499,16.836208 L 420.62337,16.836208 L 424.99999,3.36 L 429.37661,16.836208 L 443.54499,16.836208 L 432.08418,25.163792 L 436.4608,38.64 L 424.99999,30.312424 L 413.53918,38.64 L 417.9158,25.163792 L 406.45499,16.836208 z " />
    </g>
    <g
       id="g2221">
      <path
         id="path6678"
         style="fill:#fcd116;fill-opacity:1;fill-rule:evenodd;stroke:none;stroke-width:1pt;stroke-linecap:butt;stroke-linejoin:miter;stroke-opacity:1"
         d="M 156.45501,274.83621 L 170.62339,274.83621 L 175.00001,261.36 L 179.37663,274.83621 L 193.54501,274.83621 L 182.0842,283.16379 L 186.46082,296.64 L 175.00001,288.31242 L 163.5392,296.64 L 167.91582,283.16379 L 156.45501,274.83621 z " />
      <path
         id="path6681"
         style="fill:#fcd116;fill-opacity:1;fill-rule:evenodd;stroke:none;stroke-width:1pt;stroke-linecap:butt;stroke-linejoin:miter;stroke-opacity:1"
         d="M 281.455,274.83621 L 295.62338,274.83621 L 300,261.36 L 304.37662,274.83621 L 318.545,274.83621 L 307.08419,283.16379 L 311.46081,296.64 L 300,288.31242 L 288.53919,296.64 L 292.91581,283.16379 L 281.455,274.83621 z " />
      <path
         id="path6684"
         style="fill:#fcd116;fill-opacity:1;fill-rule:evenodd;stroke:none;stroke-width:1pt;stroke-linecap:butt;stroke-linejoin:miter;stroke-opacity:1"
         d="M 406.45499,274.83621 L 420.62337,274.83621 L 424.99999,261.36 L 429.37661,274.83621 L 443.54499,274.83621 L 432.08418,283.16379 L 436.4608,296.64 L 424.99999,288.31242 L 413.53918,296.64 L 417.9158,283.16379 L 406.45499,274.83621 z " />
    </g>
    <path
       d="M 85.748544,150.40563 C 90.252664,158.79687 99.014104,167.92852 106.66494,171.13693 C 106.78834,162.62229 103.76503,151.70133 99.631112,143.00159 L 85.748544,150.40563 z "
       style="fill:#ce1126;fill-opacity:1;fill-rule:evenodd;stroke:none;stroke-width:1pt;stroke-linecap:butt;stroke-linejoin:miter;stroke-opacity:1"
       id="path7321" />
    <path
       d="M 78.112232,121.63015 C 84.640656,135.24238 61.178576,167.70579 100.26812,175.31993 C 95.44592,168.74056 92.337472,157.87682 93.513376,149.15527 C 101.71379,152.28126 110.34264,161.40536 113.83026,168.38728 C 124.0601,131.23696 87.59044,133.50275 78.112232,121.63015 z "
       style="fill:#fcd116;fill-opacity:1;fill-rule:evenodd;stroke:none;stroke-width:1pt;stroke-linecap:butt;stroke-linejoin:miter;stroke-opacity:1"
       id="path7320" />
  </g>
</svg>
