<?xml version="1.0" encoding="UTF-8" standalone="no"?>
<!-- Created with Inkscape (http://www.inkscape.org/) -->

<svg
   xmlns:dc="http://purl.org/dc/elements/1.1/"
   xmlns:cc="http://creativecommons.org/ns#"
   xmlns:rdf="http://www.w3.org/1999/02/22-rdf-syntax-ns#"
   xmlns:svg="http://www.w3.org/2000/svg"
   xmlns="http://www.w3.org/2000/svg"
   xmlns:sodipodi="http://sodipodi.sourceforge.net/DTD/sodipodi-0.dtd"
   xmlns:inkscape="http://www.inkscape.org/namespaces/inkscape"
   width="343pt"
   height="340pt"
   id="svg4557"
   version="1.1"
   inkscape:version="0.48.1 "
   sodipodi:docname="New document 22">
  <defs
     id="defs4559" />
  <sodipodi:namedview
     pagecolor="#ffffff"
     bordercolor="#666666"
     borderopacity="1.0"
     inkscape:pageopacity="0.0"
     inkscape:pageshadow="2"
     inkscape:zoom="0.8"
     inkscape:cx="210"
     inkscape:cy="210"
     inkscape:document-units="pt"
     inkscape:current-layer="layer1"
     id="namedview4561"
     showgrid="false"
     inkscape:window-width="966"
     inkscape:window-height="589"
     inkscape:window-x="175"
     inkscape:window-y="175"
     inkscape:window-maximized="0" />
  <metadata
     id="metadata4563">
    <rdf:RDF>
      <cc:Work
         rdf:about="">
        <dc:format>image/svg+xml</dc:format>
        <dc:type
           rdf:resource="http://purl.org/dc/dcmitype/StillImage" />
        <dc:title></dc:title>
      </cc:Work>
    </rdf:RDF>
  </metadata>
  <g
     inkscape:label="Layer 1"
     inkscape:groupmode="layer"
     id="layer1">
    <g
       transform="matrix(-4.6634488,-0.03547172,-0.17399345,4.3945536,2362.409,-1695.9268)"
       id="g6619">
      <path
         style="fill:#fcc200;fill-opacity:1;fill-rule:evenodd;stroke:#ddba05;stroke-width:3.8361752;stroke-linecap:butt;stroke-linejoin:round;stroke-miterlimit:4;stroke-opacity:1;stroke-dasharray:none"
         d="m 426.10368,393.97179 c -0.3586,2.07275 -0.22757,6.97407 -0.29365,8.22254 1.98955,2.12946 6.99307,-0.35719 8.80985,1.17465 1.81678,1.53184 2.46873,5.42918 1.46831,7.04789 -0.41309,-0.43692 -2.12561,1.6092 -4.69859,2.34929 -2.84527,0.81842 -7.91353,-1.67492 -11.15916,-0.88098 -3.24563,0.79394 -7.58115,3.39488 -9.39719,5.87324 -1.81604,2.47836 -2.14107,3.67064 -2.34929,9.10352 -0.20822,5.43288 3.16863,19.38342 4.69859,26.42959 1.52996,7.04617 2.42696,16.82253 5.28592,20.55635 2.85896,3.73382 5.6394,3.94704 8.80986,4.99225 3.17046,1.04521 9.26797,0.8044 12.04015,1.46831 2.77218,0.66391 4.47834,2.94838 6.46056,2.3493 1.98222,-0.59908 3.66825,-3.10799 4.40493,-4.40493 1.28474,-0.97556 3.61426,1.98355 5.57958,2.34929 1.96532,0.36574 3.15407,-0.26474 7.04789,-2.34929 3.89382,-2.08455 9.81527,-11.13428 12.33381,-16.15142 2.51854,-5.01714 4.09429,-10.23988 4.69859,-16.44507 0.6043,-6.20519 -0.0112,-19.03932 -2.05563,-24.37396 -2.04445,-5.33464 -5.24865,-9.38655 -8.22254,-10.86549 -2.97389,-1.47894 -6.41018,-0.49716 -8.5162,0 -2.10602,0.49716 -3.85993,-0.55977 -5.28592,-0.88099 -1.16774,-0.26304 -5.37938,-1.32356 -8.80986,-1.46831 -2.03739,-1.97472 -1.81737,-5.4493 -3.52394,-7.92888 -1.70657,-2.47958 -3.60339,-5.92662 -6.46057,-7.04789 -2.85718,-1.12127 -10.49507,-1.26016 -10.8655,0.88099 z"
         id="path6621"
         sodipodi:nodetypes="cczczzzzzzzzzczzzzzzzzczzz"
         inkscape:connector-curvature="0" />
      <path
         style="fill:#faba00;fill-opacity:1;fill-rule:nonzero;stroke:none"
         d="m 433.22748,414.09875 c -6.42509,4.84284 -10.07068,16.15364 -10.07068,32.29366 0,17.91221 11.17601,30.08823 19.6875,32.4375 -14.33495,-18.73646 -15.63854,-26.56978 -14.9743,-36.6875 0.66425,-10.11772 2.32109,-20.29476 5.35748,-28.04366 z"
         id="path6623"
         sodipodi:nodetypes="csczc"
         inkscape:connector-curvature="0" />
      <path
         style="fill:#faba00;fill-opacity:1;fill-rule:nonzero;stroke:none"
         d="m 448.87707,411.20902 c 7.18691,3.61706 12.79456,14.0946 15.67803,29.97496 3.20007,17.62404 -5.62086,31.6008 -13.57571,35.43288 6.05841,-21.877 6.82256,-29.22986 5.24244,-39.06614 -1.57341,-9.79448 -2.97285,-19.25993 -7.34476,-26.3417 z"
         id="path6625"
         sodipodi:nodetypes="csczc"
         inkscape:connector-curvature="0" />
      <path
         style="opacity:0.6259537;fill:#fce94f;fill-opacity:1;fill-rule:nonzero;stroke:none"
         d="m 413.74679,439.16663 c -5.62872,-10.87103 -0.72797,-28.60495 15.33775,-22.73858 -7.56433,1.72611 -11.1768,8.2407 -15.33775,22.73858 z"
         id="path6627"
         sodipodi:nodetypes="ccc"
         inkscape:connector-curvature="0" />
      <path
         style="opacity:0.6259537;fill:#fce94f;fill-opacity:1;fill-rule:evenodd;stroke:none"
         d="m 434.81088,417.98296 c -1.69162,-3.21189 9.89335,-6.61768 13.26154,-3.83162 3.36819,2.78605 0.64873,15.03376 -1.41888,15.27109 -1.54812,0.1777 -10.27065,-8.4547 -11.84266,-11.43947 z"
         id="path6629"
         sodipodi:nodetypes="czzz"
         inkscape:transform-center-x="2.1201628"
         inkscape:connector-curvature="0" />
      <path
         style="fill:#4e9a06;fill-rule:evenodd;stroke:none"
         d="m 427.57199,393.38447 c -1.37503,1.42893 -2.20669,6.66424 -0.58732,8.22253 1.61937,1.55829 5.84582,-1.47115 7.92888,0 2.08305,1.47116 1.4504,10.04707 3.52394,8.51621 2.20513,-1.62801 4.32939,-1.1037 6.75423,-0.88099 2.4157,0.22186 -3.76605,-11.68827 -6.16691,-13.80212 -2.40086,-2.11385 -4.12794,-1.75902 -5.87324,-2.05563 -1.7453,-0.29661 -4.20455,-1.42893 -5.57958,0 z"
         id="path6631"
         sodipodi:nodetypes="czzzzzzz"
         inkscape:connector-curvature="0" />
      <path
         style="fill:none;stroke:#2d8f20;stroke-width:2.93354535;stroke-linecap:butt;stroke-linejoin:miter;stroke-miterlimit:4;stroke-opacity:1;stroke-dasharray:none"
         d="m 426.98467,399.55137 c 0,0 4.68434,1.30702 7.92888,-1.46831 2.93,-2.50628 5.28591,10.27818 5.28591,10.27818"
         id="path6633"
         sodipodi:nodetypes="czz"
         inkscape:connector-curvature="0" />
    </g>
  </g>
</svg>
