<?xml version="1.0" encoding="UTF-8" standalone="no"?>
<!-- Created with Inkscape (http://www.inkscape.org/) -->

<svg
   xmlns:dc="http://purl.org/dc/elements/1.1/"
   xmlns:cc="http://creativecommons.org/ns#"
   xmlns:rdf="http://www.w3.org/1999/02/22-rdf-syntax-ns#"
   xmlns:svg="http://www.w3.org/2000/svg"
   xmlns="http://www.w3.org/2000/svg"
   xmlns:sodipodi="http://sodipodi.sourceforge.net/DTD/sodipodi-0.dtd"
   xmlns:inkscape="http://www.inkscape.org/namespaces/inkscape"
   width="491.58362"
   height="600.72034"
   id="svg2"
   version="1.1"
   inkscape:version="0.48.1 r9760"
   sodipodi:docname="hedgehog.svg"
   style="display:inline">
  <title
     id="title3802">hdgehog</title>
  <defs
     id="defs4" />
  <sodipodi:namedview
     id="base"
     pagecolor="#ffffff"
     bordercolor="#666666"
     borderopacity="1.0"
     inkscape:pageopacity="0.0"
     inkscape:pageshadow="2"
     inkscape:zoom="0.98994949"
     inkscape:cx="176.21745"
     inkscape:cy="330.38404"
     inkscape:document-units="px"
     inkscape:current-layer="layer2"
     showgrid="false"
     inkscape:window-width="1920"
     inkscape:window-height="1152"
     inkscape:window-x="0"
     inkscape:window-y="0"
     inkscape:window-maximized="1"
     inkscape:object-paths="false"
     inkscape:object-nodes="false"
     fit-margin-top="0"
     fit-margin-left="0"
     fit-margin-right="0"
     fit-margin-bottom="0" />
  <metadata
     id="metadata7">
    <rdf:RDF>
      <cc:Work
         rdf:about="">
        <dc:format>image/svg+xml</dc:format>
        <dc:type
           rdf:resource="http://purl.org/dc/dcmitype/StillImage" />
        <dc:title>hdgehog</dc:title>
        <dc:date>2011-08-18</dc:date>
        <dc:creator>
          <cc:Agent>
            <dc:title>tzunghaor (Prim András)</dc:title>
          </cc:Agent>
        </dc:creator>
        <cc:license
           rdf:resource="http://creativecommons.org/licenses/publicdomain/" />
        <dc:publisher>
          <cc:Agent>
            <dc:title>openclipart.org</dc:title>
          </cc:Agent>
        </dc:publisher>
        <dc:subject>
          <rdf:Bag>
            <rdf:li>hedgehog</rdf:li>
            <rdf:li>animal</rdf:li>
            <rdf:li>spike</rdf:li>
            <rdf:li>cartoon</rdf:li>
          </rdf:Bag>
        </dc:subject>
      </cc:Work>
      <cc:License
         rdf:about="http://creativecommons.org/licenses/publicdomain/">
        <cc:permits
           rdf:resource="http://creativecommons.org/ns#Reproduction" />
        <cc:permits
           rdf:resource="http://creativecommons.org/ns#Distribution" />
        <cc:permits
           rdf:resource="http://creativecommons.org/ns#DerivativeWorks" />
      </cc:License>
    </rdf:RDF>
  </metadata>
  <g
     inkscape:groupmode="layer"
     id="layer2"
     inkscape:label="Réteg"
     transform="translate(-62.760968,-48.311622)">
    <path
       style="fill:#000000;fill-opacity:1;stroke:none"
       d="m 285.53125,106.75 a 4.1581306,4.1581306 0 0 0 -0.4375,0.0625 l -85.875,16.15625 a 4.1581306,4.1581306 0 0 0 -1.1875,0.4375 c -18.83858,10.12558 -34.99441,10.11607 -63.75,43.5 -1.08772,-0.7647 -2.39997,-1.42065 -4.0625,-1.375 -2.86321,0.0786 -4.42924,1.95579 -5.375,3.375 -0.94576,1.41921 -1.54469,2.91594 -2.0625,4.40625 -0.90566,2.6066 -1.37431,4.84738 -1.65625,6.28125 -0.12505,0.19143 -0.30422,0.41672 -0.40625,0.59375 -0.53529,0.92874 -1.25677,1.94612 -1.65625,3.625 -0.13093,0.55024 -0.053,1.21312 -0.0312,1.84375 -13.01181,10.30138 -33.968625,26.36895 -38.25,47.65625 a 4.1581306,4.1581306 0 0 0 1.78125,4.28125 l 26.78125,17.6875 a 4.1581306,4.1581306 0 0 0 1.21875,0.5625 c 14.28038,3.74482 36.28375,3.47258 50.0625,1.96875 -0.1044,1.3213 -0.0381,2.7348 0.71875,4.1875 1.18513,2.27485 3.59922,3.78262 6.34375,4.46875 5.95498,1.48874 13.38136,-0.0335 20.5625,-0.96875 3.59057,-0.46762 6.99053,-0.85441 9.5,-0.9375 2.50947,-0.0831 4.05901,0.88844 3,-0.0625 2.31564,2.07932 6.05278,4.4306 9.875,6.4375 1.43981,0.75599 2.81975,1.31209 4.1875,1.84375 l -31.625,100.625 c -0.71305,0.65669 -2.79494,2.5404 -5.75,5.9375 -3.42124,3.93302 -7.29119,8.5927 -8.28125,14.1875 -1.24962,7.06163 -0.6966,14.98502 1.3125,22.3125 1.79323,6.54019 4.7767,12.56038 9.15625,16.90625 -2.38152,41.29491 7.77521,67.41627 18.96875,83.0625 9.43804,13.19241 19.3698,18.84542 22.625,20.46875 0.49076,0.87188 2.97127,5.26696 6.28125,11.65625 3.62108,6.98982 7.64516,15.41094 8.9375,19.71875 1.51577,5.05259 3.90814,13.29853 4.25,19.75 0.17093,3.22573 -0.25659,5.91145 -0.96875,7.28125 -0.71216,1.3698 -1.15767,1.86555 -3.53125,1.96875 -17.01326,0.73971 -25.42908,-1.33004 -32.375,-3.21875 -6.94592,-1.88871 -13.13189,-3.76222 -22.84375,-1.71875 -6.29106,1.3237 -13.10949,5.31272 -18.8125,8.9375 -5.61862,3.57115 -9.84126,6.77792 -9.96875,6.875 -0.002,0.001 -0.15625,0.0937 -0.15625,0.0937 l 0.0312,0.0312 c -0.98616,0.69781 -2.05658,1.53209 -2.5625,3.375 -0.52926,1.92792 0.57522,4.25702 1.59375,5.15625 2.03705,1.79845 3.60522,1.85491 5.3125,2.1875 0.40637,0.0792 0.43662,0.0298 0.84375,0.0937 l -0.34375,0.6875 c -0.55316,1.10632 -0.79397,2.92283 -0.21875,4.34375 0.57522,1.42092 1.58276,2.21547 2.40625,2.71875 1.64698,1.00656 3.15355,1.27698 4.9375,1.5625 3.5679,0.57104 8.1626,0.67636 13.34375,0.59375 10.36231,-0.16522 22.77766,-1.22635 30.71875,-2.21875 6.30967,-0.78852 13.36542,-3.14109 19.5625,-5.25 3.09854,-1.05445 5.97159,-2.07626 8.28125,-2.78125 2.30966,-0.70499 4.26051,-1.03125 4.46875,-1.03125 0.22145,0 2.82013,0.39532 5.65625,0.9375 2.83612,0.54218 6.22085,1.19107 9.625,1.46875 1.086,0.0886 2.16802,0.0574 3.25,0.0625 -4.44618,2.89698 -8.37591,6.20717 -11.34375,9.625 -0.0639,0.0736 -0.15565,0.14513 -0.21875,0.21875 l 0.0625,0.0625 c -0.52525,0.56451 -1.08314,1.21487 -1.375,2.21875 -0.32781,1.1275 -0.19046,2.54856 0.28125,3.5625 0.94342,2.02787 2.29321,2.60416 3.40625,3.125 2.22608,1.04169 4.62745,1.50012 7.1875,1.90625 1.7427,0.27646 2.00642,0.21645 3.59375,0.375 -0.41061,1.28958 -0.63487,2.76314 0.21875,4.53125 1.26842,2.62729 4.07226,3.57774 6.65625,3.75 5.17194,0.3448 23.18255,0.0546 40.125,-6.3125 15.46417,-5.81161 35.375,-0.90625 35.375,-0.90625 l 0,-0.0312 c 0.37419,0.12646 6.3466,2.15656 12.96875,2.5 3.41596,0.17716 7.03399,-0.026 10.40625,-1.75 3.37226,-1.72396 6.0625,-5.67258 6.0625,-10.3125 0,-3.31553 -1.15819,-6.316 -2.78125,-11.65625 -1.62306,-5.34025 -3.85008,-12.60523 -6.375,-22.46875 -3.80055,-14.84676 -7.68772,-35.97017 -8.78125,-42 L 415.625,549.375 A 4.1581306,4.1581306 0 0 0 418.3125,548 l 55.53125,-62.625 a 4.1581306,4.1581306 0 0 0 1,-3.15625 L 451.625,251.90625 A 4.1581306,4.1581306 0 0 0 450.25,249.1875 L 288.625,107.78125 A 4.1581306,4.1581306 0 0 0 285.53125,106.75 z M 261.375,549.28125 c 29.1114,12.00312 42.5999,10.44055 58.78125,8.96875 11.74346,26.09689 16.18963,36.54009 16.25,36.6875 0.15476,1.05064 0.4262,1.80613 0.75,2.75 0.44001,1.28261 0.9728,2.76643 1.53125,4.375 1.1169,3.21713 2.24015,6.97728 2.53125,10.0625 0.2911,3.08522 -0.20092,4.92643 -1.21875,5.84375 -1.01783,0.91732 -3.78896,1.95946 -10.28125,0.75 -18.96934,-3.53385 -34.91342,-9.3718 -51.53125,-6.875 -2.57296,0.38658 -5.06602,1.08699 -7.5,1.90625 0.69492,-1.35585 1.1903,-2.84226 1.15625,-4.4375 -0.11856,-5.55411 -1.57539,-9.15069 -3,-12.40625 -1.42461,-3.25556 -2.90087,-6.47284 -4.09375,-13.4375 -1.3619,-7.95148 -2.41635,-17.43271 -2.96875,-25.15625 -0.25341,-3.5431 -0.37238,-6.56242 -0.40625,-9.03125 z"
       id="path3837" />
    <path
       style="fill:#e9c6af;fill-opacity:1;stroke:none"
       d="m 200.0102,127.06245 c -21.32367,11.46129 -36.55872,9.08839 -69.70052,51.0127 -1.22343,0.67968 -4.59905,1.72051 -6.00843,4.16579 -1.08888,1.88921 -1.85406,3.15634 -0.75167,5.09389 -12.85176,10.26702 -34.709344,26.97804 -38.696767,46.80379 l 26.769047,17.67767 c 15.58203,4.08616 45.02819,3.05056 55.55839,1.01015 0,0 -6.56599,7.57614 1.51523,9.59645 8.08122,2.0203 31.0178,-4.4515 34.85025,-1.01015 3.36207,3.01896 15.15691,9.87817 16.66752,8.08122 l -33.33503,106.06602 c 0,0 -12.29331,11.09431 -13.63706,18.68782 -2.22845,12.59297 2.0203,29.7995 10.6066,36.87057 -5.55584,83.33759 40.40611,102.0254 40.40611,102.0254 0,0 13.13198,23.23351 16.16244,33.33504 3.03045,10.10152 10.12417,33.72932 -4.04061,34.34518 -34.85027,1.51524 -36.67899,-8.81062 -54.54824,-5.05075 -10.17731,2.1414 -27.27412,15.15228 -27.27412,15.15228 -5.05076,3.53553 9.09137,4.04061 9.09137,4.04061 l -3.03046,6.06092 c -2.6169,5.2338 31.43199,2.9522 46.97209,1.01015 11.26753,-1.4081 27.7792,-9.09137 32.82997,-9.09137 5.05076,0 27.5115,7.58508 27.27411,-3.53554 -0.21152,-9.90893 -4.53075,-10.57115 -7.04626,-25.25806 -2.78868,-16.28177 -4.21266,-38.20634 -3.05526,-40.90693 34.57513,15.28916 46.15123,12.1866 65.15484,10.60661 14.14214,31.31473 17.67767,39.90102 17.67767,39.90102 0,3.91442 17.0361,34.36572 -11.45457,29.05813 -19.32718,-3.60051 -34.93281,-9.12335 -50.16474,-6.83478 -11.37993,1.70981 -22.22335,9.09137 -28.28427,16.16244 -4.04061,4.04061 17.17259,5.05077 17.17259,5.05077 0,0 -7.57614,7.07107 0,7.57614 4.15574,0.27705 22.36889,-0.0416 38.3858,-6.06092 17.20987,-6.46766 37.88072,-1.01015 37.88072,-1.01015 0,0 24.24366,8.08123 24.24366,-5.55584 0,-3.61618 -3.95058,-13.1845 -9.04854,-33.0995 -4.45502,-17.40342 -9.63928,-46.70255 -9.63928,-46.70255 L 415.1727,545.2656 470.73109,482.63615 447.49758,252.32137 285.87317,110.90001 z"
       id="path2997"
       inkscape:connector-curvature="0"
       sodipodi:nodetypes="ccsccccssccaccssaccsassscccssccsscsscccccc" />
    <path
       style="fill:#241f1c;fill-opacity:1;stroke:none"
       d="m 107.07617,231.61324 c -8.799441,-2.34051 -16.115232,-4.13281 -22.728433,-2.27284 -8.08122,2.27284 -24.243661,8.33375 -21.213203,15.40482 3.030458,7.07107 19.697975,18.18275 27.274119,17.1726 7.576144,-1.01016 14.647547,-3.6439 17.930207,-5.05076 5.3033,-2.27285 8.73275,-22.59519 -1.26269,-25.25382 z"
       id="path2999"
       inkscape:connector-curvature="0"
       sodipodi:nodetypes="ssssss" />
    <path
       style="fill:#c8beb7;fill-opacity:1;stroke:none"
       d="m 68.690373,237.92669 c 0,0 13.889598,-1.01015 19.445437,3.78808 3.870018,3.34229 21.46574,-5.3033 18.18275,-7.07107 -3.283,-1.76777 -14.647216,-4.79823 -19.192903,-4.29315 -4.545686,0.50507 -10.859139,3.03046 -18.435284,7.57614 z"
       id="path3001"
       inkscape:connector-curvature="0"
       sodipodi:nodetypes="csssc" />
    <path
       style="fill:#241f1c;fill-opacity:1;stroke:none"
       d="m 183.21429,187.71932 c 0,0 1.00179,-13.8117 4.28571,-13.57142 7.32143,0.53571 12.85714,12.85714 12.85714,12.85714 l 6.78572,1.07143 c -7.60367,0.32798 -14.14437,1.93152 -23.92857,-0.35715 z"
       id="path3003"
       inkscape:connector-curvature="0"
       sodipodi:nodetypes="csccc" />
    <path
       style="fill:#241f1c;fill-opacity:1;stroke:none"
       d="m 138.03571,183.07647 1.60715,1.60714 -14.82143,-2.5 c 0,0 2.11742,-12.40612 5.53572,-12.5 4.46616,-0.12265 7.67856,13.39286 7.67856,13.39286 z"
       id="path3005"
       inkscape:connector-curvature="0"
       sodipodi:nodetypes="cccsc" />
    <path
       style="fill:#241f1c;fill-opacity:1;stroke:none"
       d="m 124.46429,149.86218 c 4.41554,-4.05809 7.14285,-6.25 11.25,-7.14286 4.10714,-0.89285 12.85714,3.03572 5.71428,5.35715 -7.14286,2.32142 -10.31425,1.81514 -13.21428,5.53571 -1.08676,1.39425 -5.05157,-2.55379 -3.75,-3.75 z"
       id="path3007"
       inkscape:connector-curvature="0"
       sodipodi:nodetypes="sssss" />
    <path
       style="fill:#241f1c;fill-opacity:1;stroke:none"
       d="m 179.46429,152.71932 c -7.44221,1.56324 0.69374,7.9277 3.03571,6.96429 4.55629,-1.87432 17.98539,4.48262 19.46429,5.17857 3.03571,1.42857 1.23536,-2.88196 -0.89286,-4.82143 -3.95542,-3.60461 -10.88531,-9.57355 -21.60714,-7.32143 z"
       id="path3009"
       inkscape:connector-curvature="0"
       sodipodi:nodetypes="sssss" />
    <path
       style="fill:#c09172;fill-opacity:1;stroke:none"
       d="m 385,280.9375 c 0,0 12.30234,64.10666 12.76602,72.37754 2.21364,39.48602 -13.42038,64.83953 -31.5625,98.94241 -1.25155,2.35263 8.16586,26.56911 6.60898,28.74255 -1.83295,2.55884 -10.99088,-6.51925 -13.15625,-4.34375 -0.82816,0.83203 -1.66356,1.66193 -2.5,2.5 -1.18266,1.18497 5.13186,5.59132 0.71875,7.5 -2.38828,1.03293 -8.58207,-6.4617 -9.53125,-4 -5.63812,14.6224 -28.07175,32.12318 -43,43.625 -31.22134,15.66152 -56.13668,7.68797 -92.65625,-0.9375 6.52229,5.74249 11.5625,7.8125 11.5625,7.8125 0,0 2.47235,4.41768 5.5,10.15625 l 19.90625,9.75 c 0,0 12.84002,44.1143 13.5625,51.09375 1.17009,11.30349 -17.38682,2.9965 -26.0625,4.625 -18.12772,3.40273 -54.3125,10.71875 -54.3125,10.71875 l -9.09375,4.75 c 10.62347,0.0806 25.13565,-1.1305 33.84375,-2.21875 11.26753,-1.4081 27.76173,-9.09375 32.8125,-9.09375 5.05076,0 27.51864,7.58937 27.28125,-3.53125 -0.21152,-9.90893 -4.51574,-10.56309 -7.03125,-25.25 -2.78868,-16.28177 -4.2199,-38.20566 -3.0625,-40.90625 34.57513,15.28916 46.15264,12.17374 65.15625,10.59375 1.99153,4.40981 3.31565,7.42089 4.90625,10.96875 l 19.84375,0.75 c 0,0 8.02986,38.65215 13.5625,64.3125 2.79531,12.96458 -46.77242,-2.39564 -68.90625,3.90625 -6.42558,1.82947 -15.33426,6.81795 -22.28125,11.0625 6.48911,0.0423 22.1727,-0.8581 36.1875,-6.125 17.20987,-6.46766 37.90625,-1.03125 37.90625,-1.03125 0,0 24.21875,8.07457 24.21875,-5.5625 0,-3.61618 -3.93329,-13.17875 -9.03125,-33.09375 C 354.70123,581.62783 349.5,552.34375 349.5,552.34375 l 42.75,-4.625 39.625,-21.28125 29.65625,-33.46875 L 464.75,423.40625 451.375,290.875 z"
       id="path3000"
       inkscape:connector-curvature="0"
       sodipodi:nodetypes="cssssssscccccssccssssccccsscscssccccccc" />
    <path
       id="path3791"
       style="fill:#8b5e41;fill-opacity:1;stroke:none"
       d="m 214.12957,430.5794 c -5.24279,-1.01728 -10.1208,-3.24987 -15.13244,-5.00945 -2.52989,1.58589 -0.50349,6.25439 1.86661,7.49379 1.40051,1.35968 4.89864,2.52125 4.63194,4.54049 -6.81141,-0.0372 -12.65204,-4.23465 -18.00022,-8.01176 -3.93804,-2.91443 -7.49271,-6.3515 -10.50831,-10.21405 l -0.36991,-0.14862 -0.39849,-0.0111 0,0 0,5e-5 c -2.23797,1.40093 0.74506,4.10523 1.34882,5.8617 3.62256,6.21111 9.49222,10.98325 16.27589,13.35145 4.03531,1.52568 8.27575,2.82595 12.60905,2.95017 3.87721,0.22726 5.45349,-4.97234 1.7908,-6.61168 -1.05289,-0.63463 -5.23358,-2.70647 -4.14537,-3.22422 3.95767,1.47433 8.11097,3.50277 12.45136,2.82108 2.94091,-0.39391 5.82811,-3.3836 4.27213,-6.42786 -1.24151,-2.76766 -3.86807,-2.84536 -8.22576,-4.68862 -3.23245,-1.3673 -5.95622,-2.6584 -7.12512,-4.73975 4.87749,0.4397 9.92974,1.12436 14.72495,-0.19913 3.66004,-1.3909 3.185,-6.79367 -0.37339,-8.01487 -3.16152,-1.13187 -6.45092,-1.92919 -9.39659,-3.61874 -3.102,-1.55141 -6.10334,-3.39549 -8.58617,-5.84081 -0.97216,-4.2727 5.05699,-2.78562 7.48557,-3.35008 3.77368,-1.40513 6.29352,-6.81804 3.45513,-10.16071 -2.74941,-2.72529 -6.99854,-2.28899 -10.55248,-2.3767 -4.96108,0.15734 -10.02508,1.49153 -14.00877,4.54996 -3.79333,-0.50654 -3.66948,-5.21931 -2.26213,-7.83394 0.57733,-1.13423 2.27669,-3.9177 -0.11292,-4.1035 -2.17717,1.40553 -2.76116,4.2448 -3.96002,6.394 -1.36893,3.1195 -0.10015,6.92074 3.11193,8.21781 2.6059,2.42338 4.78991,-0.69751 7.10248,-1.8199 4.67349,-2.445 10.19255,-2.87991 15.33152,-2.10058 3.83067,1.67457 -0.87405,6.11109 -3.68804,5.51019 -3.41088,0.28378 -7.50432,2.37128 -7.53849,6.253 0.32723,2.71097 3.44699,3.49193 5.36285,4.90713 4.88355,2.82252 10.07375,5.05092 15.18402,7.4196 0.99604,3.72792 -4.1728,1.97472 -6.21956,2.0366 -3.45024,-0.32636 -6.84986,-1.03172 -10.2914,-1.42684 -2.57542,2.47021 0.2786,6.75658 3.14968,7.79182 2.26306,0.63325 5.46443,2.71639 8.9071,4.18795 4.28707,1.83249 5.25394,6.86591 1.83375,5.64612 z m 179.27668,-66.36065 c -2.27351,4.22663 -1.80386,10.00803 -3.1994,14.84845 -2.72385,15.69699 -6.89677,31.28265 -14.42113,45.41399 -4.61408,9.54186 -9.73,18.82769 -14.6359,28.21985 3.3444,8.32569 7.72312,16.53078 8.31788,25.64987 -3.63005,4.16154 -6.84881,-5.11559 -9.56819,-7.25522 -0.40357,-3.20404 -8.98369,-9.44532 -6.90726,-2.63435 0.36739,4.72309 3.76706,11.60293 1.79749,15.03542 -6.14413,-1.37692 -5.01097,-9.86423 -6.86466,-14.66277 -1.28477,-2.95611 0.0912,-9.77557 -3.22951,-10.24361 -3.47073,7.15555 -5.82948,15.12798 -10.97677,21.40967 -6.69387,-1.61245 -0.49844,-10.19525 0.15223,-14.57667 2.24026,-6.86655 4.91725,-14.19853 11.07467,-18.5313 7.60135,-6.75984 15.41535,-14.29884 17.99075,-24.51181 3.83125,-11.27359 7.72136,-22.55393 10.48521,-34.14814 -0.1874,-6.61508 -7.62597,-9.51335 -10.74367,-14.69076 -0.82916,-3.16153 -7.15912,-5.00948 -3.49998,-0.59262 2.08651,2.80877 4.17302,5.61753 6.25953,8.4263 -3.98474,1.93279 -12.1984,1.01729 -13.62092,4.85711 5.24108,0.55487 11.32871,-1.94511 16.56479,0.68786 2.13407,5.77704 -1.16786,11.75435 -2.21552,17.43769 -3.27911,10.77194 -6.68375,21.87876 -13.26394,31.13532 -5.33806,5.52859 -13.27658,8.73123 -16.31078,16.27918 -4.81119,8.89479 -8.52723,18.78215 -8.35121,29.027 1.3242,7.75384 11.96254,5.48481 12.3667,-1.62646 1.4641,-2.65902 3.57362,-8.22732 4.80972,-8.99749 0.68907,6.41825 1.62422,14.03265 7.7019,17.70853 6.91094,3.5072 9.05009,-6.32612 5.91243,-10.83422 -0.95866,-5.70167 4.5988,5.76558 7.29414,5.97841 7.45644,3.91856 9.7949,-7.74548 6.22664,-12.46477 -1.96542,-5.8159 -5.77009,-11.31749 -5.55145,-17.65691 10.1127,-19.69465 22.46456,-38.81311 26.67096,-60.89947 1.38288,-6.10283 2.55054,-12.25206 3.64154,-18.41303 2.18321,-1.23978 10.59103,-0.11602 8.70359,-3.6423 -4.23469,-1.82477 -8.29231,-4.15338 -12.60988,-5.73275 z M 255.0625,248.78125 c 0,0 -9.83598,12.37325 -19.9375,15.65625 -10.10153,3.28299 -30.5625,-3.78125 -30.5625,-3.78125 l -0.40625,1.28125 c 3.97574,3.20991 14.63121,9.26509 16.0625,7.5625 L 216.75,280.53125 c 0,0 12.12772,1.39699 17.09375,-1.4375 3.67242,-2.09613 7.34375,-10.34375 7.34375,-10.34375 l 19.4375,-5.5625 -12.375,-1.03125 z m -28.28125,-25.5 c 0,0 0.26427,-0.005 5.0625,9.84375 2.23261,4.58273 -7.30473,14.03361 -23.03125,16.03125 -22.54221,2.8634 -41.625,3.65625 -41.625,3.65625 0,0 26.68962,-0.16533 38.375,-1 14.14213,-1.01015 25.5,-10.09375 25.5,-10.09375 4.97912,0.45672 4.19969,3.782 2.53125,7.5625 0,0 5.30996,-9.34201 5.5625,-12.625 0.25253,-3.283 -12.375,-13.375 -12.375,-13.375 z m -42.9375,-36.125 c 0,0 -2.5111,0.91026 -3.78125,2.03125 -2.90137,2.56066 17.58104,9.51702 18.1875,9.34375 0,0 -5.32519,-6.07344 -4.0625,-8.09375 0.66922,-1.07076 -10.09375,-1.25 -10.09375,-1.25 z"
       inkscape:connector-curvature="0" />
    <path
       style="fill:#8a5f42;fill-opacity:1;stroke:none"
       d="m 212.90625,424.875 c -1.1187,-0.59678 -2.15813,-1.15142 -3.40625,-1.84375 1.13453,0.70311 2.29538,1.33129 3.40625,1.84375 z"
       id="path3032"
       inkscape:connector-curvature="0" />
    <path
       style="fill:#241f1c;fill-opacity:1;stroke:none"
       d="m 269.9375,48.3125 c -0.40038,0.01689 -1.08929,0.285714 -2.09375,0.84375 0,0 -49.55932,30.112394 -65,53.5625 -3.75006,5.6953 -5.30829,11.8635 -6.0625,18.21875 -0.006,0.047 0.005,0.10814 0,0.15625 -7.1514,-8.99904 -22.51468,-12.77048 -37.1875,-16.25 -9.59645,1.01016 16.17814,7.58011 20.21875,15.15625 -22.64707,6.1167 -27.14889,10.38247 -26.28125,14.125 8.02686,0.22272 21.18956,-4.6579 20.71875,4.0625 -0.78508,0.44687 -1.52381,0.86671 -2.28125,1.3125 l 23.38594,-8.77871 c 0.24518,1.65299 1.26524,2.81813 2.48906,2.71621 13.80074,-1.14932 25.375,-9.28125 25.375,-9.28125 0,0 -3.23922,3.99679 -1.78125,5 8.23167,5.6641 22.125,-5 22.125,-5 0,0 -8.31844,7.03054 -5.34375,7.125 8.41444,0.26721 15.34375,-0.34375 15.34375,-0.34375 0,0 -9.48577,4.18123 -6.78125,4.625 10.98203,1.80199 18.9375,1.09375 18.9375,1.09375 0,0 -11.53603,7.51802 -7.15625,7.84375 14.75036,1.09697 19.02268,6.38515 19.02268,6.38515 L 282.5,158.4375 c 2.31937,6.74795 -2.63646,14.7731 4.71018,14.57265 4.09917,8.4595 -1.64928,11.01669 -6.78125,13.9375 l -14.36643,11.8336 c 5.43962,2.75598 10.79729,6.17935 17.15625,2.5 -3.25921,2.69632 -6.07839,5.58114 -13.9375,6.4375 2.81746,2.00397 4.02546,8.01372 8.5625,5.71875 l -11.0625,7.84375 L 272.5,222 c 0,0 -5.01339,3.92411 -2.15625,4.28125 2.85715,0.35715 17.0679,4.7789 23.9375,0.71875 4.72102,-2.79028 7.5,-14.625 7.5,-14.625 l -2.84375,-2.5 10.71875,-7.15625 3.5625,8.5625 c 11.27679,4.04942 14.11721,-3.70407 21.0625,-5.71875 0,0 -10.70536,10.375 -8.5625,10.375 2.14285,0 12.125,-0.375 12.125,-0.375 l -7.5,4.65625 c 0,0 0.2124,7.30186 2.875,8.9375 5.75335,3.53431 20,-3.21875 20,-3.21875 l -7.15625,8.5625 -2.84375,12.875 19.625,-2.875 -13.1875,9.65625 8.5625,3.5625 L 345,279.15625 c 4.51937,3.10412 10.12722,4.00896 17.5,1.40625 l -7.84375,3.59375 c 6.99037,8.54867 14.55826,11.30878 22.5,10.34375 l -3.59375,3.21875 22.875,3.9375 -18.9375,1.0625 c 3.70566,4.10382 2.13125,11.08304 11.4375,12.15625 l 15.71875,2.84375 -12.875,2.84375 c 4.09286,13.60383 14.55755,18.9062 24.65625,24.65625 8.86176,4.00997 18.27107,6.34157 25.34375,15.71875 0,0 -13.99148,-0.53191 -18.9375,3.5625 -2.75873,2.28372 6.09375,12.5 6.09375,12.5 -16.98351,7.0787 -12.55855,6.98447 -5,9.28125 l -0.375,7.875 c -0.18412,4.05049 10.95577,6.10243 8.21875,16.40625 0,0 -13.69594,-1.51894 -15.34375,3.59375 C 414.34187,420.65839 430,429.5 430,429.5 c 0,0 -7.9978,1.75844 -7.5,4.65625 0.4744,2.7616 8.21875,1.78125 8.21875,1.78125 0,0 -30.92369,5.52732 -23.9375,13.21875 12.68148,13.96167 14.29464,16.42857 18.9375,25 4.64285,8.57143 12.85268,26.43304 1.78125,13.21875 -11.07143,-13.21428 -9.5785,-13.90753 -14.28125,-10.375 -6.47327,4.86248 8.21875,22.875 8.21875,22.875 0,0 -10.5021,-7.32409 -13.9375,-3.9375 -4.66525,4.59898 0.84887,16.10909 4.46875,22.4375 -2.71832,-3.99342 -7.07329,-9.19084 -10.90625,-8.5 -6.65443,1.19938 -8.90625,18.1875 -8.90625,18.1875 l 8.5625,8.9375 c 0,0 -9.77115,-6.26457 -15,-5.34375 -9.74251,1.71569 -14.49485,12.45178 -23.5625,16.40625 -4.18237,1.82397 -12.875,4.3125 -12.875,4.3125 l 5.375,7.125 9.625,-1.4375 2.15625,11.8125 c 2.4252,19.19722 7.48935,29.42827 16.0625,40 2.95879,3.64855 15,-41.4375 15,-41.4375 5.26599,15.14183 5.0999,28.15204 1.78125,45 -2.11472,10.7359 20.17395,-29.39583 21.0625,-46.0625 8.62948,4.34671 15.1793,10.75076 20,18.90625 2.98063,5.04253 -3.5625,-43.90625 -3.5625,-43.90625 0,0 5.55511,6.21111 8.21875,11.40625 9.79487,19.1039 3.74833,68.50669 9.28125,63.9375 7.05316,-5.82463 11.78125,-86.4375 11.78125,-86.4375 9.18709,10.03945 10.42751,23.26471 15.375,35 -1.93502,-16.69626 -2.96682,-33.69062 -10.375,-48.5625 2.01434,4.44145 17.78592,14.09992 28.9375,28.5625 -3.69224,-13.29248 -8.12306,-26.10149 -14.65625,-37.5 0,0 4.50051,0.1164 6.09375,2.5 7.74342,11.58469 15.71875,39.65625 15.71875,39.65625 2.91604,-0.38986 0.71409,-59.59951 -3.21875,-63.5625 -5.47094,-5.51289 25.34375,20.6875 25.34375,20.6875 2.18055,-0.3115 -21.15683,-42.04655 -23.46875,-43.84375 2.31842,1.26573 25.25,12.78125 25.25,12.78125 1.55726,-1.19153 -28.08859,-42.84779 -22.84375,-38.21875 1.04879,0.92565 14.56394,10.21817 25.5625,23 11.97926,13.92154 21.43096,31.25641 20.5,27.71875 -5.90107,-26.93974 -19.66024,-55.03002 -36.4375,-80 11.49389,0.20335 21.5073,9.38328 32.15625,14.65625 -10.30475,-15.82276 -19.95893,-32.00644 -38.5625,-43.21875 l 17.125,3.21875 c -3.43888,-12.30609 -14.94243,-21.92098 -23.5625,-32.5 15.34822,5.7897 25.05624,19.62013 36.4375,31.0625 3.66471,-2.29045 -30.71307,-47.8272 -36.09375,-52.5 -2.42261,-2.10389 6.59234,2.11138 17.03125,9.46875 13.25966,9.34544 29.0625,22.6875 29.0625,22.6875 -14.72337,-27.11808 -30.9409,-53.79531 -57.875,-77.15625 0,0 1.0323,-4.44262 2.5,-3.9375 12.81708,4.41107 40.21249,21.6694 37.875,18.59375 -6.78571,-8.92857 -39.29018,-37.51786 -50.71875,-42.875 0,0 11.79002,2.01576 23.34375,7.3125 11.05076,5.06615 21.87117,13.47652 22,11.625 0.44761,-6.43314 -52.16072,-40.77414 -56.40625,-41.4375 -1.33682,-0.20888 10.03134,-6.29395 19.1875,-3.5 21.43751,6.54155 44.01217,19.31915 39.71875,13.5 -12.51093,-16.95685 -41.39576,-25.59262 -65.34375,-36.78125 17.2619,-0.52876 39.51935,10.99809 56.78125,16.4375 -26.33922,-14.78712 -54.70238,-36.05746 -92.5,-46.4375 0,0 12.74115,-0.44375 32.5625,5.0625 17.08562,4.74628 34.88414,8.12265 31.71875,6.375 -21.11696,-11.65893 -35.93053,-19.34607 -65.34375,-27.875 l 38.90625,-2.125 c -18.56508,-7.40521 -40.83273,-10.58657 -66.0625,-10.375 5.43114,-8.42664 23.51435,-7.37205 35.71875,-10.71875 -22.20027,-3.86984 -44.30233,-8.07819 -69.28125,-1.78125 l 38.9375,-14.625 c -17.1389,-1.1626 -34.28009,-4.88525 -51.4375,1.0625 1.04529,-8.24312 -4.57105,-11.63139 -14.28125,-19.28125 1.69918,-2.18344 14.69518,-2.95087 23.21875,-4.28125 -7.36664,-2.026672 -12.26328,-4.553595 -23.9375,-5.71875 l 25,-6.78125 c -13.35553,-1.2209 -24.77797,-3.775623 -50,3.21875 L 343.9375,65.9375 c -21.06459,7.909752 -48.12313,8.263446 -65.375,23.375 -6.38314,0.42509 -10.44718,4.200434 -13.21875,0.5625 -0.41977,-0.402957 3.67052,-5.412007 10.3125,-9.0625 8.98514,-4.938311 22.88993,-9.77516 16.65625,-10.78125 -21.19549,-0.61234 -29.51247,2.216716 -45.34375,16.4375 -2.24006,0.129478 0.88736,-8.0396 9.1875,-16.15625 6.03941,-5.905896 12.90394,-9.865118 10.28125,-9.5625 l -4.65625,0.53125 c 4.52009,-6.026786 10.3183,-13.059976 8.15625,-12.96875 z"
       id="path3011"
       inkscape:connector-curvature="0"
       sodipodi:nodetypes="scsccccccccscscscscsccccccccccsscccccsccsccccccccccccccccccsccccscscsssscscsccssccccscscscsscccccscscccsscccccccssccsscssssscccsscccccccccccccccsccsccs" />
  </g>
</svg>
