<?xml version="1.0" encoding="UTF-8" standalone="no"?>
<!-- Created with Inkscape (http://www.inkscape.org/) -->
<svg
   xmlns:svg="http://www.w3.org/2000/svg"
   xmlns="http://www.w3.org/2000/svg"
   version="1.0"
   width="750"
   height="750"
   id="svg2">
  <defs
     id="defs4" />
  <g
     id="layer1">
    <path
       d="M 345.0249,666.38219 C 206.07766,652.83517 99.095078,541.24974 87.453795,401.75526 M 87.880559,348.37668 C 102.5062,201.6234 227.19048,86.874531 378.67755,86.874531 C 539.98908,86.874531 670.90861,216.98985 670.90861,377.31051 C 670.90861,516.83652 571.74871,633.48471 439.6937,661.3974 M 253.42997,350.17039 C 266.49222,293.17174 317.55431,250.6124 378.49623,250.6124 C 449.31957,250.6124 506.79939,308.09222 506.79939,378.91554 C 506.79939,431.13751 475.54803,476.10469 430.73931,496.1231 M 348.15783,503.60589 C 297.54675,491.32072 258.63863,448.99634 251.40414,396.60346 M 451.68016,374.07934 L 505.70151,374.07936 M 535.24443,374.07934 L 591.79804,373.23526 M 617.47016,374.07934 C 617.47016,374.07934 666.0774,374.07936 666.92146,374.07936 M 401.64389,223.97647 C 477.14605,235.17529 535.13628,300.31441 535.13628,378.91554 C 535.13628,456.40576 478.17687,520.81181 403.31082,533.58374 L 401.7869,416.23903 L 402.14058,416.53201 C 415.03459,408.86617 423.36298,394.85756 423.36298,378.91554 C 423.36298,354.14911 403.26267,334.04881 378.49623,334.04881 C 353.72978,334.04881 333.62947,354.14911 333.62947,378.91554 C 333.62947,403.682 353.72978,423.78231 377.90601,423.5918 L 377.81788,723.56616 C 425.3865,724.3531 469.96314,715.47086 511.20974,697.48846 C 637.17718,645.8205 724.84577,514.40751 722.97236,378.08948 C 723.04783,324.87395 710.67828,271.69892 686.92305,224.06769 C 628.16289,102.44492 493.44588,23.128421 358.48761,31.886141 C 221.14071,37.065321 93.475225,132.95327 49.274032,262.93028 C 3.5626053,388.33544 39.352679,538.09042 137.18477,628.98614 C 193.35587,683.96709 268.89508,716.42556 346.626,723.32638 L 346.54019,615.15795 C 230.27994,599.17512 139.99403,500.1253 139.99403,378.91554 C 139.99403,257.63824 230.66465,157.40947 347.87091,142.36425 M 323.84596,525.7464 C 264.30212,503.55499 221.85617,446.16203 221.85617,378.91554 C 221.85617,302.14563 277.17583,238.21773 350.10058,224.8465 M 401.68265,141.52771 C 522.46899,153.19769 616.99839,255.08446 616.99839,378.91554 C 616.99839,491.13027 539.37244,585.32468 434.92539,610.69383 M 644.79483,396.02366 C 636.60075,525.32383 537.97416,627.31827 410.43531,641.68038 M 319.7873,639.26643 C 200.70506,612.49709 111.65714,506.04223 111.65714,378.91554 C 111.65714,231.62039 231.20103,112.07648 378.49623,112.07648 C 516.63421,112.07648 630.36419,217.2186 643.97123,351.78783 M 406.0254,61.455291 C 514.18343,71.099851 615.63211,139.07558 663.13826,236.96036 C 685.00222,280.60135 696.38694,329.32171 696.31752,378.07918 C 698.04176,502.97736 617.35294,623.38139 501.41444,670.72094 C 481.82047,679.22479 438.84055,692.72917 409.70194,695.10828 L 409.44232,587.52879 L 409.89545,587.97725 C 513.12892,573.51574 592.14403,485.34559 592.14403,378.91552 C 592.14403,262.0399 496.85797,167.18433 379.4519,167.18433 C 272.21675,167.18433 183.4351,246.31705 168.85752,349.08376 M 320.65777,690.61598 C 259.67851,679.75279 201.78615,651.60057 157.20747,607.96639 C 67.56759,524.68205 34.774481,387.46717 76.658153,272.56311 C 116.13153,156.48856 228.2526,70.085271 350.42814,61.386171 M 378.49623,590.65513 C 267.18836,590.65513 175.85172,504.6252 167.39562,395.4746 M 476.04658,400.84394 C 467.87419,437.31424 439.75365,466.27586 403.75471,475.65907 M 322.52993,461.74296 C 295.98603,443.76495 278.52996,413.3664 278.52996,378.91554 C 278.52996,323.73419 323.31486,278.94929 378.49623,278.94929 C 423.8003,278.94929 462.09668,309.13639 474.35501,350.48019 M 561.56852,352.29145 C 548.64838,262.78391 471.56329,193.93862 378.49623,193.93862 C 276.38895,193.93862 193.51928,276.80829 193.51928,378.91554 C 193.51928,470.91111 260.78843,547.29061 347.72783,561.39577 L 346.66679,444.29131 L 347.02102,444.73869 C 322.51442,433.48237 305.29258,408.19792 305.29258,378.91554 C 305.29258,347.70058 324.8627,321.02867 352.39474,310.50801 M 562.62802,396.69929 C 553.66987,490.4737 474.6049,563.8925 378.49623,563.8925 M 404.69116,310.54378 C 432.17401,321.08904 451.69987,347.7359 451.69987,378.91554 C 451.69987,400.90862 441.98496,420.64645 426.61518,434.06895 M 377.91261,333.87275 L 378.50948,278.36503 M 377.91261,250.31272 L 376.71891,193.6113 M 58.593996,373.26531 L 111.11743,374.45903 M 139.76659,373.26531 L 192.29002,374.45903 M 223.32659,373.26531 L 275.85002,374.45903 M 375.71265,166.43479 L 375.71265,111.56935 M 375.71265,86.246851 L 375.71265,31.381411"
       style="fill:none;stroke:#000000;stroke-width:11.2341795;stroke-linecap:round;stroke-linejoin:round;stroke-miterlimit:4;stroke-opacity:1"
       id="path13121" />
  </g>
</svg>
