<svg
xmlns:svg="http://www.w3.org/2000/svg"
xmlns="http://www.w3.org/2000/svg"
xmlns:xlink="http://www.w3.org/1999/xlink"
version="1.0"
width="270"
height="305"
id="svg2">
  <defs>
 <linearGradient
 id="2867">
<stop
style="stop-color:#ffffff;stop-opacity:1"
offset="0"
/>
<stop
style="stop-color:#ffffff;stop-opacity:0"
offset="1"
/>
 </linearGradient>
 <radialGradient
 cx="16.036171"
 cy="140.05769"
 r="13.005714"
 fx="16.036171"
 fy="140.05769"
 id="2873"
 xlink:href="#2867"
 gradientUnits="userSpaceOnUse" />
 <radialGradient
 cx="16.036171"
 cy="140.05769"
 r="13.005714"
 fx="16.036171"
 fy="140.05769"
 id="2879"
 xlink:href="#2867"
 gradientUnits="userSpaceOnUse" />
 <radialGradient
 cx="16.036171"
 cy="140.05769"
 r="13.005714"
 fx="16.036171"
 fy="140.05769"
 id="2885"
 xlink:href="#2867"
 gradientUnits="userSpaceOnUse" />
 <radialGradient
 cx="16.036171"
 cy="140.05769"
 r="13.005714"
 fx="16.036171"
 fy="140.05769"
 id="2891"
 xlink:href="#2867"
 gradientUnits="userSpaceOnUse" />
 <radialGradient
 cx="16.036171"
 cy="140.05769"
 r="13.005714"
 fx="16.036171"
 fy="140.05769"
 id="2897"
 xlink:href="#2867"
 gradientUnits="userSpaceOnUse" />
 <radialGradient
 cx="16.036171"
 cy="140.05769"
 r="13.005714"
 fx="16.036171"
 fy="140.05769"
 id="2903"
 xlink:href="#2867"
 gradientUnits="userSpaceOnUse" />
 <radialGradient
 cx="16.036171"
 cy="140.05769"
 r="13.005714"
 fx="16.036171"
 fy="140.05769"
 id="2909"
 xlink:href="#2867"
 gradientUnits="userSpaceOnUse" />
 <radialGradient
 cx="16.036171"
 cy="140.05769"
 r="13.005714"
 fx="16.036171"
 fy="140.05769"
 id="2915"
 xlink:href="#2867"
 gradientUnits="userSpaceOnUse" />
 <radialGradient
 cx="16.036171"
 cy="140.05769"
 r="13.005714"
 fx="16.036171"
 fy="140.05769"
 id="2921"
 xlink:href="#2867"
 gradientUnits="userSpaceOnUse" />
 <radialGradient
 cx="16.036171"
 cy="140.05769"
 r="13.005714"
 fx="16.036171"
 fy="140.05769"
 id="2927"
 xlink:href="#2867"
 gradientUnits="userSpaceOnUse" />
 <radialGradient
 cx="16.036171"
 cy="140.05769"
 r="13.005714"
 fx="16.036171"
 fy="140.05769"
 id="2939"
 xlink:href="#2867"
 gradientUnits="userSpaceOnUse" />
  </defs>
  <g
  transform="translate(-1032.857,-763.6479)"
  id="layer1">
 <path
 d="M29.041885 140.05769 A13.005714 13.005714 0 1 1  3.0304565,140.05769 A13.005714 13.005714 0 1 1  29.041885 140.05769z"
 transform="matrix(1.186985,0,0,1.186985,1167.064,737.6632)"
 style="fill:#0707ff;stroke-width:4;stroke-miterlimit:4"
/>
 <path
 d="M29.041885 140.05769 A13.005714 13.005714 0 1 1  3.0304565,140.05769 A13.005714 13.005714 0 1 1  29.041885 140.05769z"
 transform="matrix(1.186985,0,0,1.186985,1170.418,732.9085)"
 style="opacity:0.9;fill:url(#2921);stroke-width:4;stroke-miterlimit:4"
/>
 <path
 d="M29.041885 140.05769 A13.005714 13.005714 0 1 1  3.0304565,140.05769 A13.005714 13.005714 0 1 1  29.041885 140.05769z"
 transform="matrix(1.186985,0,0,1.186985,1148.535,730.1412)"
 style="fill:#ff0000;stroke-width:4;stroke-miterlimit:4"
/>
 <path
 d="M29.041885 140.05769 A13.005714 13.005714 0 1 1  3.0304565,140.05769 A13.005714 13.005714 0 1 1  29.041885 140.05769z"
 transform="matrix(1.186985,0,0,1.186985,1151.889,725.3864)"
 style="opacity:0.9;fill:url(#2897);stroke-width:4;stroke-miterlimit:4"
/>
 <path
 d="M29.041885 140.05769 A13.005714 13.005714 0 1 1  3.0304565,140.05769 A13.005714 13.005714 0 1 1  29.041885 140.05769z"
 transform="matrix(1.186985,0,0,1.186985,1131.289,737.1128)"
 style="fill:#0707ff;stroke-width:4;stroke-miterlimit:4"
/>
 <path
 d="M29.041885 140.05769 A13.005714 13.005714 0 1 1  3.0304565,140.05769 A13.005714 13.005714 0 1 1  29.041885 140.05769z"
 transform="matrix(1.186985,0,0,1.186985,1134.643,732.3581)"
 style="opacity:0.9;fill:url(#2915);stroke-width:4;stroke-miterlimit:4"
/>
 <path
 d="M29.041885 140.05769 A13.005714 13.005714 0 1 1  3.0304565,140.05769 A13.005714 13.005714 0 1 1  29.041885 140.05769z"
 transform="matrix(1.15534,0,0,1.15534,1054.604,734.7448)"
 style="fill:#000000;stroke-width:4;stroke-miterlimit:4"
/>
 <path
 d="M29.041885 140.05769 A13.005714 13.005714 0 1 1  3.0304565,140.05769 A13.005714 13.005714 0 1 1  29.041885 140.05769z"
 transform="matrix(1.15534,0,0,1.15534,1057.869,730.1168)"
 style="opacity:0.9;fill:url(#2873);stroke-width:4;stroke-miterlimit:4"
/>
 <path
 d="M29.041885 140.05769 A13.005714 13.005714 0 1 1  3.0304565,140.05769 A13.005714 13.005714 0 1 1  29.041885 140.05769z"
 transform="matrix(1.15534,0,0,1.15534,1211.825,681.479)"
 style="fill:#000000;stroke-width:4;stroke-miterlimit:4"
/>
 <path
 d="M29.041885 140.05769 A13.005714 13.005714 0 1 1  3.0304565,140.05769 A13.005714 13.005714 0 1 1  29.041885 140.05769z"
 transform="matrix(1.15534,0,0,1.15534,1215.09,676.851)"
 style="opacity:0.9;fill:url(#2879);stroke-width:4;stroke-miterlimit:4"
/>
 <path
 d="M29.041885 140.05769 A13.005714 13.005714 0 1 1  3.0304565,140.05769 A13.005714 13.005714 0 1 1  29.041885 140.05769z"
 transform="matrix(1.15534,0,0,1.15534,1182.182,845.4076)"
 style="fill:#000000;stroke-width:4;stroke-miterlimit:4"
/>
 <path
 d="M29.041885 140.05769 A13.005714 13.005714 0 1 1  3.0304565,140.05769 A13.005714 13.005714 0 1 1  29.041885 140.05769z"
 transform="matrix(1.15534,0,0,1.15534,1185.447,840.7796)"
 style="opacity:0.9;fill:url(#2885);stroke-width:4;stroke-miterlimit:4"
/>
 <path
 d="M29.041885 140.05769 A13.005714 13.005714 0 1 1  3.0304565,140.05769 A13.005714 13.005714 0 1 1  29.041885 140.05769z"
 transform="matrix(1.186985,0,0,1.186985,1130.922,762.0638)"
 style="fill:#ff0000;stroke-width:4;stroke-miterlimit:4"
/>
 <path
 d="M29.041885 140.05769 A13.005714 13.005714 0 1 1  3.0304565,140.05769 A13.005714 13.005714 0 1 1  29.041885 140.05769z"
 transform="matrix(1.186985,0,0,1.186985,1134.277,757.309)"
 style="opacity:0.9;fill:url(#2909);stroke-width:4;stroke-miterlimit:4"
/>
 <path
 d="M29.041885 140.05769 A13.005714 13.005714 0 1 1  3.0304565,140.05769 A13.005714 13.005714 0 1 1  29.041885 140.05769z"
 transform="matrix(1.186985,0,0,1.186985,1150.186,770.6865)"
 style="fill:#0707ff;stroke-width:4;stroke-miterlimit:4"
/>
 <path
 d="M29.041885 140.05769 A13.005714 13.005714 0 1 1  3.0304565,140.05769 A13.005714 13.005714 0 1 1  29.041885 140.05769z"
 transform="matrix(1.186985,0,0,1.186985,1153.54,765.9317)"
 style="opacity:0.9;fill:url(#2927);stroke-width:4;stroke-miterlimit:4"
/>
 <path
 d="M29.041885 140.05769 A13.005714 13.005714 0 1 1  3.0304565,140.05769 A13.005714 13.005714 0 1 1  29.041885 140.05769z"
 transform="matrix(1.186985,0,0,1.186985,1167.614,761.3299)"
 style="fill:#ff0000;stroke-width:4;stroke-miterlimit:4"
/>
 <path
 d="M29.041885 140.05769 A13.005714 13.005714 0 1 1  3.0304565,140.05769 A13.005714 13.005714 0 1 1  29.041885 140.05769z"
 transform="matrix(1.186985,0,0,1.186985,1150.369,747.3867)"
 style="fill:#0707ff;stroke-width:4;stroke-miterlimit:4"
/>
 <path
 d="M29.041885 140.05769 A13.005714 13.005714 0 1 1  3.0304565,140.05769 A13.005714 13.005714 0 1 1  29.041885 140.05769z"
 transform="matrix(1.186985,0,0,1.186985,1170.969,756.5752)"
 style="opacity:0.9;fill:url(#2903);stroke-width:4;stroke-miterlimit:4"
/>
 <path
 d="M29.041885 140.05769 A13.005714 13.005714 0 1 1  3.0304565,140.05769 A13.005714 13.005714 0 1 1  29.041885 140.05769z"
 transform="matrix(1.186985,0,0,1.186985,1153.724,742.6319)"
 style="opacity:0.9;fill:url(#2939);stroke-width:4;stroke-miterlimit:4"
/>
  </g>

<g transform="translate(-1033,-764)">
<path d="M1204.4841,989.19358 C1207.5446,970.20229 1209.1324,951.0181 1208.8668,931.78479 C1210.0475,899.87653 1210.901,867.51816 1203.2307,836.25415 C1198.6257,814.7428 1194.0902,791.2505 1178.4696,774.72115 C1171.3704,766.15221 1159.5738,770.29811 1154.5039,778.65237 C1142.8907,795.4226 1138.2707,815.91346 1133.7696,835.50194 C1128.2638,863.1166 1128.2339,891.41695 1127.0019,919.44855 C1126.0088,949.21418 1130.4302,978.79884 1135.6459,1008.0103 C1139.4941,1025.9914 1145.3222,1044.5081 1157.6004,1058.5505 C1169.5986,1068.7992 1183.2758,1056.4628 1187.929,1044.929 C1191.321,1038.7266 1193.9042,1032.133 1196.6271,1025.6222"
style="fill:none;stroke:#000000;stroke-width:5;stroke-linecap:butt;stroke-linejoin:miter;stroke-miterlimit:4"
id="path2843" />
<path
d="M1086.3529,910.49833 C1101.2696,922.64444 1117.0897,933.61161 1133.879,942.99825 C1160.922,959.9749 1188.5184,976.89323 1219.429,985.88256 C1240.3609,992.65019 1262.9736,1000.4685 1285.0987,995.20532 C1296.0692,993.34171 1298.3771,981.0526 1293.677,972.48481 C1284.9602,954.04237 1269.5246,939.7959 1254.811,926.10359 C1233.6489,907.5281 1209.155,893.35203 1185.4949,878.26929 C1160.2137,862.52642 1132.3819,851.56314 1104.4762,841.47435 C1086.98,835.81644 1068.0301,831.60537 1049.7299,835.2174 C1034.8551,840.4838 1038.7002,858.4968 1046.3621,868.29349 C1050.0376,874.33225 1054.4562,879.86616 1058.7333,885.47966"
style="fill:none;stroke:#000000;stroke-width:5;stroke-linecap:butt;stroke-linejoin:miter;stroke-miterlimit:4"
id="path2847" />
<path
d="M1212.8088,849.16503 C1194.8316,856.01021 1177.4237,864.22723 1160.9,874.0739 C1132.6763,889.00551 1104.2264,904.44554 1080.9861,926.72022 C1064.6592,941.46394 1046.582,957.13795 1040.0775,978.93046 C1036.2062,989.36302 1045.6949,997.50623 1055.4649,997.71976 C1075.7949,999.39197 1095.8505,993.14758 1115.0652,987.2514 C1141.7331,978.21224 1166.2569,964.08796 1191.149,951.1391 C1217.4233,937.11633 1240.8337,918.49496 1263.5237,899.37231 C1277.1717,887.04912 1290.2935,872.74348 1296.3155,855.08904 C1299.1921,839.57394 1281.6698,833.89734 1269.3547,835.63446 C1262.2872,835.79811 1255.2854,836.85779 1248.2854,837.75509"
style="fill:none;stroke:#000000;stroke-width:5;stroke-linecap:butt;stroke-linejoin:miter;stroke-miterlimit:4"
id="path2849" />
  </g>
</svg>
