<?xml version="1.0" encoding="UTF-8" standalone="no"?>
<!-- Created with Inkscape (http://www.inkscape.org/) -->

<svg
   xmlns:dc="http://purl.org/dc/elements/1.1/"
   xmlns:cc="http://creativecommons.org/ns#"
   xmlns:rdf="http://www.w3.org/1999/02/22-rdf-syntax-ns#"
   xmlns:svg="http://www.w3.org/2000/svg"
   xmlns="http://www.w3.org/2000/svg"
   xmlns:xlink="http://www.w3.org/1999/xlink"
   xmlns:sodipodi="http://sodipodi.sourceforge.net/DTD/sodipodi-0.dtd"
   xmlns:inkscape="http://www.inkscape.org/namespaces/inkscape"
   width="389.87766"
   height="671.82819"
   id="svg5351"
   version="1.1"
   inkscape:version="0.48.0 r9654"
   sodipodi:docname="Tree Trunk by Merlin2525.svg">
  <defs
     id="defs5353">
    <linearGradient
       id="linearGradient3941">
      <stop
         style="stop-color:#000000;stop-opacity:1"
         offset="0"
         id="stop3943" />
      <stop
         id="stop3989"
         offset="0.5"
         style="stop-color:#986601;stop-opacity:1" />
      <stop
         style="stop-color:#000400;stop-opacity:1"
         offset="1"
         id="stop3945" />
    </linearGradient>
    <filter
       color-interpolation-filters="sRGB"
       inkscape:collect="always"
       id="filter4481">
      <feGaussianBlur
         inkscape:collect="always"
         stdDeviation="4.0901076"
         id="feGaussianBlur4483" />
    </filter>
    <filter
       color-interpolation-filters="sRGB"
       inkscape:collect="always"
       id="filter4497">
      <feGaussianBlur
         inkscape:collect="always"
         stdDeviation="4.0901076"
         id="feGaussianBlur4499" />
    </filter>
    <filter
       color-interpolation-filters="sRGB"
       inkscape:collect="always"
       id="filter4507">
      <feGaussianBlur
         inkscape:collect="always"
         stdDeviation="4.0901076"
         id="feGaussianBlur4509" />
    </filter>
    <filter
       color-interpolation-filters="sRGB"
       inkscape:collect="always"
       id="filter4527">
      <feGaussianBlur
         inkscape:collect="always"
         stdDeviation="4.0901076"
         id="feGaussianBlur4529" />
    </filter>
    <filter
       color-interpolation-filters="sRGB"
       inkscape:collect="always"
       id="filter4879">
      <feGaussianBlur
         inkscape:collect="always"
         stdDeviation="4.090108"
         id="feGaussianBlur4881" />
    </filter>
    <filter
       color-interpolation-filters="sRGB"
       inkscape:collect="always"
       id="filter4789">
      <feGaussianBlur
         inkscape:collect="always"
         stdDeviation="4.0901076"
         id="feGaussianBlur4791" />
    </filter>
    <filter
       color-interpolation-filters="sRGB"
       inkscape:collect="always"
       id="filter4845">
      <feGaussianBlur
         inkscape:collect="always"
         stdDeviation="4.0901076"
         id="feGaussianBlur4847" />
    </filter>
    <filter
       color-interpolation-filters="sRGB"
       inkscape:collect="always"
       id="filter4709">
      <feGaussianBlur
         inkscape:collect="always"
         stdDeviation="4.0901076"
         id="feGaussianBlur4711" />
    </filter>
    <filter
       color-interpolation-filters="sRGB"
       inkscape:collect="always"
       id="filter4551">
      <feGaussianBlur
         inkscape:collect="always"
         stdDeviation="4.0901076"
         id="feGaussianBlur4553" />
    </filter>
    <filter
       color-interpolation-filters="sRGB"
       inkscape:collect="always"
       id="filter4691">
      <feGaussianBlur
         inkscape:collect="always"
         stdDeviation="4.0901076"
         id="feGaussianBlur4693" />
    </filter>
    <filter
       color-interpolation-filters="sRGB"
       inkscape:collect="always"
       id="filter4897">
      <feGaussianBlur
         inkscape:collect="always"
         stdDeviation="4.0901076"
         id="feGaussianBlur4899" />
    </filter>
    <linearGradient
       id="linearGradient3935"
       inkscape:collect="always">
      <stop
         id="stop3937"
         offset="0"
         style="stop-color:#006400;stop-opacity:1" />
      <stop
         id="stop3939"
         offset="1"
         style="stop-color:#00a000;stop-opacity:1" />
    </linearGradient>
    <filter
       color-interpolation-filters="sRGB"
       inkscape:collect="always"
       id="filter4619">
      <feGaussianBlur
         inkscape:collect="always"
         stdDeviation="4.0901076"
         id="feGaussianBlur4621" />
    </filter>
    <filter
       color-interpolation-filters="sRGB"
       inkscape:collect="always"
       id="filter4733">
      <feGaussianBlur
         inkscape:collect="always"
         stdDeviation="4.0901076"
         id="feGaussianBlur4735" />
    </filter>
    <linearGradient
       inkscape:collect="always"
       id="linearGradient3919">
      <stop
         style="stop-color:#008400;stop-opacity:1;"
         offset="0"
         id="stop3921" />
      <stop
         style="stop-color:#00a000;stop-opacity:1"
         offset="1"
         id="stop3923" />
    </linearGradient>
    <filter
       color-interpolation-filters="sRGB"
       inkscape:collect="always"
       id="filter4673">
      <feGaussianBlur
         inkscape:collect="always"
         stdDeviation="4.0901076"
         id="feGaussianBlur4675" />
    </filter>
    <filter
       color-interpolation-filters="sRGB"
       inkscape:collect="always"
       id="filter4753">
      <feGaussianBlur
         inkscape:collect="always"
         stdDeviation="4.0901076"
         id="feGaussianBlur4755" />
    </filter>
    <filter
       color-interpolation-filters="sRGB"
       inkscape:collect="always"
       id="filter4771">
      <feGaussianBlur
         inkscape:collect="always"
         stdDeviation="4.0901076"
         id="feGaussianBlur4773" />
    </filter>
    <filter
       color-interpolation-filters="sRGB"
       inkscape:collect="always"
       id="filter4655">
      <feGaussianBlur
         inkscape:collect="always"
         stdDeviation="4.0901076"
         id="feGaussianBlur4657" />
    </filter>
    <filter
       color-interpolation-filters="sRGB"
       inkscape:collect="always"
       id="filter4569">
      <feGaussianBlur
         inkscape:collect="always"
         stdDeviation="4.0901076"
         id="feGaussianBlur4571" />
    </filter>
    <filter
       color-interpolation-filters="sRGB"
       inkscape:collect="always"
       id="filter4953">
      <feGaussianBlur
         inkscape:collect="always"
         stdDeviation="4.0901076"
         id="feGaussianBlur4955" />
    </filter>
    <filter
       color-interpolation-filters="sRGB"
       inkscape:collect="always"
       id="filter4917">
      <feGaussianBlur
         inkscape:collect="always"
         stdDeviation="4.0901076"
         id="feGaussianBlur4919" />
    </filter>
    <filter
       color-interpolation-filters="sRGB"
       inkscape:collect="always"
       id="filter4935">
      <feGaussianBlur
         inkscape:collect="always"
         stdDeviation="4.0901076"
         id="feGaussianBlur4937" />
    </filter>
    <filter
       color-interpolation-filters="sRGB"
       inkscape:collect="always"
       id="filter4971">
      <feGaussianBlur
         inkscape:collect="always"
         stdDeviation="4.0901076"
         id="feGaussianBlur4973" />
    </filter>
    <filter
       color-interpolation-filters="sRGB"
       inkscape:collect="always"
       id="filter5025">
      <feGaussianBlur
         inkscape:collect="always"
         stdDeviation="4.0901076"
         id="feGaussianBlur5027" />
    </filter>
    <filter
       color-interpolation-filters="sRGB"
       inkscape:collect="always"
       id="filter5061">
      <feGaussianBlur
         inkscape:collect="always"
         stdDeviation="4.0901076"
         id="feGaussianBlur5063" />
    </filter>
    <filter
       color-interpolation-filters="sRGB"
       inkscape:collect="always"
       id="filter5079">
      <feGaussianBlur
         inkscape:collect="always"
         stdDeviation="4.0901076"
         id="feGaussianBlur5081" />
    </filter>
    <filter
       color-interpolation-filters="sRGB"
       inkscape:collect="always"
       id="filter5043">
      <feGaussianBlur
         inkscape:collect="always"
         stdDeviation="4.0901076"
         id="feGaussianBlur5045" />
    </filter>
    <filter
       color-interpolation-filters="sRGB"
       inkscape:collect="always"
       id="filter5097">
      <feGaussianBlur
         inkscape:collect="always"
         stdDeviation="4.0901076"
         id="feGaussianBlur5099" />
    </filter>
    <filter
       color-interpolation-filters="sRGB"
       inkscape:collect="always"
       id="filter4989">
      <feGaussianBlur
         inkscape:collect="always"
         stdDeviation="4.0901076"
         id="feGaussianBlur4991" />
    </filter>
    <filter
       color-interpolation-filters="sRGB"
       inkscape:collect="always"
       id="filter5007">
      <feGaussianBlur
         inkscape:collect="always"
         stdDeviation="4.0901076"
         id="feGaussianBlur5009" />
    </filter>
    <filter
       color-interpolation-filters="sRGB"
       inkscape:collect="always"
       id="filter4807">
      <feGaussianBlur
         inkscape:collect="always"
         stdDeviation="4.0901076"
         id="feGaussianBlur4809" />
    </filter>
    <filter
       color-interpolation-filters="sRGB"
       inkscape:collect="always"
       id="filter5115">
      <feGaussianBlur
         inkscape:collect="always"
         stdDeviation="4.0901076"
         id="feGaussianBlur5117" />
    </filter>
    <filter
       color-interpolation-filters="sRGB"
       inkscape:collect="always"
       id="filter4825">
      <feGaussianBlur
         inkscape:collect="always"
         stdDeviation="4.0901076"
         id="feGaussianBlur4827" />
    </filter>
    <filter
       color-interpolation-filters="sRGB"
       inkscape:collect="always"
       id="filter4595">
      <feGaussianBlur
         inkscape:collect="always"
         stdDeviation="4.0901076"
         id="feGaussianBlur4597" />
    </filter>
    <filter
       color-interpolation-filters="sRGB"
       inkscape:collect="always"
       id="filter4637">
      <feGaussianBlur
         inkscape:collect="always"
         stdDeviation="4.0901076"
         id="feGaussianBlur4639" />
    </filter>
    <filter
       color-interpolation-filters="sRGB"
       inkscape:collect="always"
       id="filter5133">
      <feGaussianBlur
         inkscape:collect="always"
         stdDeviation="4.0901076"
         id="feGaussianBlur5135" />
    </filter>
    <linearGradient
       inkscape:collect="always"
       xlink:href="#linearGradient3919"
       id="linearGradient6385"
       gradientUnits="userSpaceOnUse"
       x1="28.925541"
       y1="422.46063"
       x2="-112.06905"
       y2="285.42102" />
    <linearGradient
       inkscape:collect="always"
       xlink:href="#linearGradient3919"
       id="linearGradient6387"
       gradientUnits="userSpaceOnUse"
       x1="28.925541"
       y1="422.46063"
       x2="-112.06905"
       y2="285.42102" />
    <linearGradient
       inkscape:collect="always"
       xlink:href="#linearGradient3935"
       id="linearGradient6389"
       gradientUnits="userSpaceOnUse"
       x1="-53.63232"
       y1="456.74637"
       x2="-135.50015"
       y2="216.92702" />
    <linearGradient
       inkscape:collect="always"
       xlink:href="#linearGradient3941"
       id="linearGradient6394"
       gradientUnits="userSpaceOnUse"
       gradientTransform="matrix(0.68660037,0,0,0.68660037,102.24233,96.837601)"
       x1="462.50848"
       y1="1272.6042"
       x2="428.24857"
       y2="323.11603" />
    <filter
       inkscape:collect="always"
       id="filter6551"
       color-interpolation-filters="sRGB">
      <feGaussianBlur
         inkscape:collect="always"
         stdDeviation="11.473013"
         id="feGaussianBlur6553" />
    </filter>
    <linearGradient
       inkscape:collect="always"
       xlink:href="#linearGradient3941"
       id="linearGradient3197"
       gradientUnits="userSpaceOnUse"
       gradientTransform="matrix(0.4430188,0,0,0.4430188,-520.79232,316.12317)"
       x1="462.50848"
       y1="1272.6042"
       x2="428.24857"
       y2="323.11603" />
    <linearGradient
       inkscape:collect="always"
       xlink:href="#linearGradient3941"
       id="linearGradient3308"
       gradientUnits="userSpaceOnUse"
       gradientTransform="matrix(0.4430188,0,0,0.4430188,-520.79232,316.12317)"
       x1="462.50848"
       y1="1272.6042"
       x2="428.24857"
       y2="323.11603" />
  </defs>
  <sodipodi:namedview
     id="base"
     pagecolor="#ffffff"
     bordercolor="#666666"
     borderopacity="1.0"
     inkscape:pageopacity="0.0"
     inkscape:pageshadow="2"
     inkscape:zoom="0.37222682"
     inkscape:cx="689.57087"
     inkscape:cy="333.58756"
     inkscape:document-units="px"
     inkscape:current-layer="layer1"
     showgrid="false"
     inkscape:window-width="1024"
     inkscape:window-height="552"
     inkscape:window-x="0"
     inkscape:window-y="24"
     inkscape:window-maximized="1"
     showborder="false"
     inkscape:showpageshadow="false"
     fit-margin-left="0.9"
     fit-margin-top="0.9"
     fit-margin-right="0.9"
     fit-margin-bottom="0.9" />
  <metadata
     id="metadata5356">
    <rdf:RDF>
      <cc:Work
         rdf:about="">
        <dc:format>image/svg+xml</dc:format>
        <dc:type
           rdf:resource="http://purl.org/dc/dcmitype/StillImage" />
        <dc:title></dc:title>
      </cc:Work>
    </rdf:RDF>
  </metadata>
  <g
     inkscape:label="Layer 1"
     inkscape:groupmode="layer"
     id="layer1"
     transform="translate(544.3466,-282.96119)">
    <g
       id="g3304">
      <path
         style="fill:url(#linearGradient3308);fill-opacity:1;stroke:none"
         d="m -467.63007,865.88005 c 32.87446,-15.78303 70.48915,-26.92008 72.07715,-50.51039 1.58795,-23.59022 22.83566,-34.80843 37.4371,-46.46191 21.30119,-17.00047 19.0114,-118.42919 10.63799,-144.08427 -0.53445,-1.63758 -8.087,-4.50976 -18.62247,-7.90443 -2.16915,-0.69895 -52.79482,22.42026 -55.18163,21.68326 -1.03109,-0.31839 25.93876,-11.85194 32.07681,-15.14516 0.58573,-0.31426 -13.8459,-4.07025 -13.25161,-4.38661 0.91176,-0.48536 16.8519,2.46896 17.75433,1.99165 6.32921,-3.34764 11.99008,-6.30408 10.82645,-6.15722 -7.57923,0.9566 -28.88298,-7.46045 -52.35716,-20.00455 -0.45446,-0.24286 -7.0669,-0.35899 -14.81262,-0.45304 -0.5398,-0.007 -5.17111,3.2558 -5.72022,3.24947 -0.45066,-0.005 3.18212,-3.27924 2.72728,-3.28437 -10.52828,-0.11932 -21.92543,-0.22319 -22.5317,-0.55445 -0.41129,-0.22472 5.3892,-0.58003 12.30928,-0.95981 0.44847,-0.0246 -6.58942,-4.13535 -6.13297,-4.16014 0.44988,-0.0245 8.39407,4.03708 8.84911,4.01254 9.34108,-0.50395 19.48057,-1.02651 18.93861,-1.32845 -8.33023,-4.641 -16.79948,-9.73093 -24.91054,-15.04396 -0.68916,-0.45144 -6.49886,-1.13304 -13.19452,-1.85499 -0.5034,-0.0543 -6.40503,2.58785 -6.91663,2.53319 -0.51873,-0.0554 4.35248,-2.80761 3.82906,-2.86325 -8.70718,-0.92542 -17.80798,-1.86953 -18.66917,-2.44538 -0.55027,-0.36797 4.77898,-0.47295 10.78282,-0.54789 0.63798,-0.008 -5.65058,-5.40887 -5.00355,-5.41644 0.64265,-0.008 8.22088,5.37829 8.86011,5.37063 6.33889,-0.0761 12.20885,-0.17331 11.6409,-0.55888 -5.09109,-3.45601 -10.03438,-7.04984 -14.71496,-10.61672 -0.22798,-0.17374 -4.87099,-0.72806 -10.00301,-1.32452 -0.5034,-0.0585 -4.86382,2.57923 -5.37289,2.52023 -0.52179,-0.0605 2.80768,-2.81767 2.2878,-2.87797 -5.43443,-0.63035 -10.54779,-1.23298 -10.78437,-1.41515 -0.51102,-0.39353 21.32489,1.13966 20.82073,0.74746 -5.72322,-4.45253 -10.99267,-8.80546 -15.58084,-12.73295 -0.55944,-0.47886 -12.28048,-3.2628 -12.81923,-3.72842 -0.35158,-0.30385 10.4731,1.70664 10.13064,1.40885 -9.4786,-8.24187 -15.4318,-14.10244 -15.4318,-14.10244 0,0 4.55928,2.92776 10.38219,6.73077 0.38232,0.2497 -1.54131,-4.8901 -1.14902,-4.63344 0.47102,0.3082 3.26,6.01428 3.74244,6.33068 5.73839,3.7633 12.16912,8.03547 16.57445,11.12392 0.69966,0.4905 -1.28595,-24.97418 -0.58656,-24.48237 0.83359,0.5862 1.71094,8.05197 2.5851,15.04041 0.0657,0.52522 4.75422,-4.73076 4.81987,-4.21405 0.065,0.51187 -4.49278,6.79654 -4.42783,7.29396 0.62842,4.81364 1.25156,8.80811 1.8519,9.2317 9.62999,6.79456 19.55786,13.83202 29.68527,20.40871 0.43753,0.28411 0.0458,-11.04667 -0.39965,-23.13557 -0.031,-0.84027 -15.25136,-18.13919 -15.2826,-18.98314 -0.0469,-1.2681 15.09539,15.84491 15.04936,14.5891 -0.42543,-11.60982 -0.77524,-24.092 -0.35132,-23.82149 0.58199,0.37141 2.35673,17.4297 3.98831,32.47402 0.0723,0.66661 9.00468,-11.76867 9.0763,-11.11159 0.0698,0.64027 -8.72118,14.37319 -8.65225,15.00135 1.11314,10.1452 2.09988,18.51553 2.50726,18.76994 17.38238,10.85513 35.28851,19.9752 53.23177,23.87949 l -4.06295,-19.65496 -8.75898,-3.59514 -13.79054,0.90071 11.40535,-1.87972 -14.95404,-6.13794 -10.79537,0.027 8.17705,-1.10179 -14.03885,-5.7623 20.54494,6.92203 -4.27777,-11.13541 5.664,11.33593 19.64133,6.88412 -16.89583,-26.28894 -13.66122,-7.73699 11.82061,4.87311 -10.97785,-17.08091 6.87443,8.56475 -1.2204,-7.79466 3.16428,10.21652 10.82817,13.49067 1.72175,-6.70213 -2.18903,-7.28739 2.7648,5.04615 2.3923,-9.31233 -2.59925,20.31691 12.38767,18.77585 1.15121,-11.29903 -2.34174,-5.98164 2.58897,3.55522 1.01078,-9.92065 0.78042,15.61643 4.67156,-5.99486 -4.56293,8.16865 0.55032,11.01186 7.70644,20.87547 37.82502,4.90675 c 2.25794,-12.22604 0.51767,-16.39677 -1.57803,-24.14764 -31.50787,-22.99114 -55.19807,-46.63973 -81.63595,-74.70089 -0.33456,-0.3551 -4.74952,-1.64582 -10.72945,-3.29569 -0.35544,-0.0981 -20.73792,7.70224 -21.1039,7.60176 -0.43855,-0.12041 19.13724,-8.14211 18.68525,-8.26561 -13.41523,-3.66539 -32.35531,-8.59922 -33.05683,-9.35568 -0.5003,-0.53948 11.1674,1.70836 22.05317,3.77582 0.28016,0.0532 -7.06744,-12.96897 -6.78855,-12.91605 0.24693,0.0468 8.12053,13.16884 8.36618,13.2154 8.95305,1.69683 16.93321,3.1699 16.52068,2.71883 -5.43963,-5.94779 -14.58439,-17.74102 -24.46467,-30.92918 -0.62895,-0.83957 -39.23397,-9.91229 -39.86814,-10.76202 -0.23729,-0.31791 11.10359,1.72317 21.23632,3.60123 0.61996,0.11491 -5.30223,-10.66684 -4.69423,-10.55374 0.62315,0.11593 6.14166,10.58186 7.0184,10.69467 6.58095,0.84675 13.12797,2.76211 13.12797,2.76211 l -17.66794,-24.02474 -15.73005,-8.38269 c 0,0 14.53797,6.52672 13.85298,5.58599 -6.8835,-9.45318 -14.16008,-19.25623 -17.81951,-24.2127 4.63656,4.30268 16.2323,19.2037 27.44985,33.62503 0.28677,0.36863 0.66519,-1.83783 1.0651,-4.65666 0.0494,-0.34845 -3.3058,-8.60592 -3.25583,-8.96938 0.0485,-0.35263 3.50215,7.18905 3.55089,6.82917 0.56055,-4.14063 1.12943,-8.53708 1.52212,-8.03243 0.50783,0.65253 -1.25348,16.57167 -0.74998,17.21806 8.71829,11.19302 18.31948,23.75999 21.92039,27.34073 0.52853,0.52558 2.95565,-24.89689 3.48407,-24.37098 0.46518,0.46297 0.47625,7.13108 0.47735,13.93562 1.5e-4,0.91037 4.35854,-5.25924 4.3594,-4.35852 4.4e-4,0.55034 -4.35705,8.17861 -4.35563,8.71662 0.0145,5.45871 0.0879,10.11145 0.47377,10.49561 10.4148,10.36887 20.82777,20.73844 31.43289,30.53394 0.63594,0.58739 1.64031,-6.36606 2.6798,-14.02655 0.0619,-0.45593 -5.59657,-14.26203 -5.53452,-14.72153 0.0858,-0.63551 5.89215,12.07462 5.97798,11.43885 1.10995,-8.22135 2.88648,-15.53066 2.88648,-15.53066 0,0 0.2307,4.87086 -0.26449,10.47494 -0.0476,0.53856 4.80594,-4.08757 4.75462,-3.52963 -0.0164,0.17926 -4.93637,5.53502 -4.95318,5.71595 -0.93809,10.09703 -2.35031,22.65668 -1.4873,23.41754 11.91579,10.50546 29.19307,27.07746 41.96716,35.00808 l 7.93793,-14.33882 -4.36631,17.38047 20.98168,12.39321 -1.74854,-26.09433 -42.24817,-64.81138 -7.56761,-2.15517 -12.32611,0.91684 8.00762,-2.1467 -35.41104,-10.08466 25.15045,5.17466 -8.59026,-14.23526 12.87922,15.11771 15.86758,3.26473 -25.49215,-36.36924 -8.2764,-1.5874 -12.76421,3.33965 10.61193,-3.75245 -19.30357,-3.70238 15.83721,1.48997 -5.94515,-7.90477 7.91277,8.46672 10.02298,1.1551 -28.82169,-40.88646 -4.31533,-2.65401 -8.11609,-1.18054 6.24636,0.0306 -9.3498,-5.75032 13.31688,6.40781 -19.57776,-27.77302 13.55722,18.44384 -1.91734,-8.43667 3.53062,10.63142 21.94699,29.8576 0.41544,-4.43075 -3.95942,-10.33939 4.21499,7.61379 1.01858,-10.8632 -0.0225,20.60223 23.42018,32.05183 2.15617,-5.41459 -1.76742,-9.20614 2.53466,7.27943 4.1918,-10.52644 -5.54435,19.84645 61.93851,83.24202 -0.40687,-38.32795 -11.97373,-12.07587 -21.99909,-4.36942 19.54994,1.9315 -19.95039,-26.44732 -19.06588,-9.16058 17.24507,6.74683 -25.96607,-34.422 19.06262,23.19165 -0.19667,-14.49952 1.68121,16.30562 21.38746,26.02009 1.16917,-13.69461 1.60656,17.13664 17.61904,18.12037 -4.68745,-61.69503 -19.75683,-18.07728 -13.45217,-0.17314 -13.07859,5.97874 10.89623,-6.00683 -28.90092,-0.37199 21.43069,-0.67361 -7.76573,-10.67355 9.09821,10.30249 19.40949,-0.89076 -30.62186,-25.44917 -20.88324,-7.5446 17.18599,4.08982 -28.48514,-26.617 19.37428,16.18761 -1.19055,-16.20442 4.39984,18.88585 26.03148,21.74983 -2.86225,-26.32033 -9.19605,-12.99993 8.70984,8.52897 -1.64531,-15.12974 5.36697,26.50821 7.76573,-11.34339 -6.45166,17.35343 1.70898,15.51174 33.64226,28.83745 -1.60351,-26.83539 -23.23358,-24.15475 22.83234,17.43923 -0.86915,-14.54583 -25.86382,-33.30539 12.93622,14.78805 -1.88527,-15.57978 4.79568,18.90678 9.77738,11.17702 -2.32762,-38.95531 -8.8598,-17.8927 8.61999,13.87938 -1.33956,-22.41835 2.89558,34.76246 17.45153,-27.09326 -9.6202,18.34207 12.68018,-5.06791 -14.25839,8.07694 -5.36137,8.39025 2.46314,37.62853 14.91304,-17.95002 -14.57985,21.94991 1.33885,16.07362 21.26181,-18.90245 -6.71966,-34.63995 9.23738,31.96325 31.19389,-30.28955 -16.64807,19.04114 19.08374,-2.87469 -19.98755,5.70006 -36.26473,34.63097 4.67793,57.22981 14.81508,-14.42808 -1.22272,-17.52007 -4.7633,-11.97642 4.51733,8.45236 -1.32534,-18.9898 2.95915,26.49815 5.56484,-9.57751 -5.3245,11.72988 1.03072,9.22997 22.99964,-33.66185 -0.9027,-12.75642 -5.30989,-11.56756 5.07837,8.29586 -1.09461,-15.46812 3.63719,29.43498 14.19153,-20.77055 -0.72124,-15.91986 2.04294,13.98549 7.8308,-11.46105 -15.23059,24.77102 22.59463,-12.53948 -12.68726,7.87017 9.24469,-1.11696 -11.18445,2.32022 -9.43511,5.85281 -22.25762,36.19975 9.57754,-2.08864 6.87396,-7.19779 -4.62356,6.70704 10.0221,-2.1856 -22.36948,7.05047 -23.47491,23.67832 6.13524,65.67352 19.03289,-30.90656 -9.10665,-39.39047 6.11295,18.2028 2.85508,-15.50568 -1.00778,21.00635 3.64197,10.84493 25.94247,-41.33701 -0.54296,-6.9139 -4.71585,-8.84637 4.52451,6.40978 -2.52884,-32.2018 4.16415,25.24519 3.83518,-11.11631 -3.21557,14.09717 2.03182,9.77443 28.96542,-45.77703 -1.56818,-20.8763 3.11835,17.69165 21.23341,-32.82259 -11.34995,19.38546 8.23888,-6.44204 -9.51212,8.61675 -20.79168,35.51175 17.88709,-9.41181 1.79169,-4.29127 -0.3894,-7.28995 1.28543,5.14368 2.58256,-6.1855 -3.67113,11.46641 19.14987,-9.76104 -10.60031,6.53659 7.18586,-0.10466 -8.85676,1.13503 -14.80989,9.13238 21.3798,-2.95099 -11.48009,2.07848 5.97966,1.83407 -8.1852,-1.43475 -9.80584,1.77536 -11.59597,7.15058 -34.49794,60.03331 23.45125,-12.27415 -26.23234,18.82325 -25.67405,42.9685 1.86351,24.92874 17.26954,-12.38125 6.87955,-15.50849 -0.85626,-15.00756 2.81051,10.60204 6.84299,-15.42615 -9.82974,31.5984 c 19.55272,-14.79238 36.29729,-30.98882 52.30978,-47.55128 0.28533,-0.2951 -0.43598,-3.68834 -1.63889,-8.56324 -0.10795,-0.43757 -10.02625,-8.51432 -10.14162,-8.97461 -0.11008,-0.4391 9.58323,6.73923 9.46709,6.28155 -1.39274,-5.4913 -3.1965,-12.24724 -4.84185,-18.51491 -0.19486,-0.74228 -9.78535,-10.87557 -9.97478,-11.60124 -0.15732,-0.60241 9.08545,8.19976 8.93305,7.61248 -2.12347,-8.18435 -3.71785,-14.73892 -3.31851,-15.15543 0.46844,-0.48864 7.03823,21.82935 9.55142,30.15179 0.13659,0.45223 7.4333,-12.96892 7.56938,-12.51888 0.26339,0.87129 -6.63508,15.60879 -6.37724,16.45592 1.99332,6.55067 3.74572,12.06422 4.12524,11.66601 7.37646,-7.73818 21.28083,-22.75945 34.22844,-36.56637 0.26971,-0.2876 0.8812,-6.99123 1.53515,-14.49972 0.0374,-0.43467 -7.51873,-10.99818 -7.4806,-11.43715 0.0708,-0.81622 7.7365,8.48815 7.80754,7.66782 0.74002,-8.54769 1.4712,-16.93944 1.77117,-17.25886 0.18202,-0.19386 0.0497,5.49671 -0.13331,12.14436 -0.008,0.27071 4.88818,-5.44983 4.88056,-5.17627 -0.0103,0.3635 -4.92359,6.72205 -4.93392,7.08921 -0.24667,8.77622 -0.53748,18.37192 -0.30377,18.12335 8.179,-8.6994 15.71244,-16.61306 20.62062,-21.49357 -8.02931,10.25767 -20.48106,25.271 -33.31995,40.31918 -0.30158,0.35348 11.85684,-3.90793 21.86464,-7.37288 0.45056,-0.156 4.4769,-13.28837 4.9174,-13.44063 0.63846,-0.22069 -3.65778,12.54103 -3.04738,12.33069 5.57006,-1.91912 9.80667,-3.34445 9.62678,-3.13407 -0.19189,0.22443 -2.88943,1.87405 -8.27011,4.02012 -2.52094,1.00549 -5.33616,2.11994 -8.18778,3.24785 -0.74602,0.29509 10.58831,3.27621 9.8419,3.57143 -0.43901,0.17365 -12.96026,-2.33807 -13.39689,-2.16532 -8.51439,3.36879 -16.3913,6.50135 -16.66139,6.81638 -12.85135,14.99106 -25.74347,29.61296 -34.66391,39.17163 -0.70473,0.75517 12.66287,-1.53394 26.22449,-3.86727 0.43463,-0.0748 11.16231,-19.39281 11.59681,-19.46758 0.63046,-0.10846 -9.03258,19.0264 -8.4047,18.91846 12.82811,-2.20517 24.84814,-4.23768 24.1698,-3.52721 -0.85739,0.89784 -21.55925,5.33076 -38.48661,9.08734 -0.63755,0.1415 12.60319,6.09974 11.97757,6.23909 -0.57426,0.12793 -15.01604,-5.56286 -15.57817,-5.43711 -9.88269,2.21063 -17.74038,4.05896 -18.26882,4.59921 -16.80725,17.18272 -34.99273,33.33177 -55.42896,47.79273 2.53398,12.26057 1.75205,24.03978 7.45016,31.34618 l 34.50244,-19.95845 -2.63167,-19.49504 -6.6758,-11.4305 6.07711,6.9957 -1.60936,-11.92206 4.85766,21.09577 12.31398,-15.58447 -10.95692,19.32182 3.32942,9.16919 c 11.61925,-3.03933 22.10625,-8.90932 31.98571,-16.29824 0.58523,-0.43769 0.70073,-4.62209 0.67466,-9.92692 -0.006,-0.72819 -13.43528,-10.87534 -13.44335,-11.63896 -0.006,-0.58934 13.41199,8.21064 13.40399,7.60738 -0.12105,-9.14697 -0.40108,-23.56446 0.5209,-24.31276 0.71027,-0.57651 1.75742,11.69883 2.78974,19.62182 0.11575,0.88815 10.07664,-14.33837 10.19149,-13.47127 0.10175,0.76829 -9.64233,17.63385 -9.542,18.36654 0.72641,5.30395 1.40674,9.44006 1.91028,9.00758 8.61654,-7.40104 17.46156,-16.29706 26.35006,-25.15522 0.28752,-0.28658 0.4445,-4.36026 0.58961,-8.78038 0.0206,-0.63537 -5.0216,-6.34097 -5.00089,-6.98044 0.0206,-0.63864 5.10452,3.78884 5.12581,3.16649 0.13537,-3.96287 0.2892,-7.3892 0.55226,-7.65078 0.74183,-0.7378 2.11676,16.87906 2.85897,16.14419 4.3576,-4.31473 8.71874,-8.56354 13.06169,-12.56634 0.6604,-0.60865 5.75053,-19.56525 6.40997,-20.16188 0.44301,-0.40084 -3.54435,17.55482 -3.10184,17.15987 2.67024,-2.38287 16.09042,-18.57835 18.7375,-20.69739 -0.91456,2.79833 -16.51919,22.72634 -22.3656,29.38433 -0.49225,0.56061 14.83048,-5.20298 14.32571,-4.63463 -0.68092,0.76676 -17.19365,7.86802 -17.88973,8.64236 -10.41339,11.584 -22.04337,23.59678 -20.50951,23.5099 8.66564,-0.95072 15.98912,-1.73877 22.12441,-2.38278 0.8579,-0.0901 12.45162,-10.93631 13.26345,-11.0208 0.86062,-0.0895 -9.06349,10.58306 -8.25372,10.49968 64.41881,-6.63336 -30.18275,6.00822 -31.55155,7.34434 -16.15044,15.76439 -35.03944,31.42436 -53.20797,39.07431 -1.09408,0.46066 10.53152,3.02963 24.40221,5.8578 0.36359,0.0741 6.35692,-4.28918 12.44414,-8.72523 0.47663,-0.34739 2.85258,-14.61868 3.3278,-14.96488 0.86487,-0.63009 -1.44159,13.9345 -0.60652,13.32799 4.76029,-3.45761 10.04115,-7.59259 10.34106,-7.53187 0.71279,0.14429 -21.84103,18.63718 -21.12101,18.78206 18.22016,3.66616 38.33782,7.44237 38.33782,7.44237 0,0 -69.86929,-10.86002 -71.94236,-8.89656 -11.43817,10.83346 -29.08666,19.61852 -29.1991,21.62663 -1.6362,29.22586 3.75282,138.60715 32.67016,147.35828 18.60261,5.62962 23.32425,5.38409 28.58298,29.4425 5.2588,24.05839 48.30754,46.44879 82.93803,61.26777 -30.34483,-18.96551 -75.01912,-13.30355 -89.95038,-49.30764 -14.93129,-36.00409 -18.07995,-25.828 -31.56336,-26.63841 13.7435,15.85209 14.88578,26.49093 11.80694,41.67154 -3.07881,15.18066 -2.10962,21.77349 11.12259,39.25603 13.23216,17.48254 14.68633,47.30976 20.10663,70.96467 -8.23488,-24.09238 -11.94389,-56.2984 -29.41998,-71.09828 -17.47616,-14.79989 -16.49767,-24.79789 -12.53185,-39.86177 3.96581,-15.06379 -5.79934,-23.39972 -18.80513,-35.86911 -1.42785,13.49582 -11.31461,30.83606 2.46832,44.82385 13.78294,13.98778 13.63812,17.82986 0.24991,34.68354 -13.38825,16.85368 -1.28693,45.31783 2.34486,68.58746 -4.6825,-21.98374 -24.69844,-46.72453 -12.57767,-66.31854 12.12082,-19.59401 3.31268,-23.53311 -6.81301,-35.92333 -10.12572,-12.39022 -8.29025,-29.06159 -8.4562,-44.58719 -9.35812,11.30589 -18.61039,21.22273 -15.16907,36.06856 3.44133,14.84587 1.30855,23.43738 -16.08508,38.24679 -17.39365,14.80941 -18.80697,40.74788 -25.70543,61.12183 3.08544,-21.48427 1.52398,-47.62456 17.57347,-63.26454 16.04946,-15.63998 18.54601,-26.69583 11.41592,-41.09739 -7.13007,-14.40152 3.10929,-22.04063 8.98363,-32.34104 -15.01882,-7.58355 -28.43062,-3.2374 -40.72001,30.32858 -12.28943,33.56598 -55.30796,29.68891 -80.79367,45.61747 z"
         id="path6383"
         inkscape:connector-curvature="0"
         sodipodi:nodetypes="czssscssssssssssssssssssssssssssssssscssssssssssssssssssccccccccccccccccccccccccccccccccccccccsssssssssssssscccscsssscssssssscssscssscccccccccccccccccccccccccccccccccccccccccccccccccccccccccccccccccccccccccccccccccccccccccccccccccccccccccccccccccccccccccccccccccccccccccccccccccccccccccccccccccccccccccccccccccccccccccccccccccccccccccccccssssssssssssssssssssscssssssssssssssssssscccccccccccsssssssssssssssssscssscssssssssssscssszczczzczzczzczzczzczzczc" />
      <path
         transform="matrix(0.6452353,0,0,0.6452353,-584.07615,248.26707)"
         sodipodi:nodetypes="czssscssssssssssssssssssssssssssssssscssssssssssssssssssccccccccccccccccccccccccccccccccccccccsssssssssssssscccscsssscssssssscssscssscccccccccccccccccccccccccccccccccccccccccccccccccccccccccccccccccccccccccccccccccccccccccccccccccccccccccccccccccccccccccccccccccccccccccccccccccccccccccccccccccccccccccccccccccccccccccccccccccccccccccccccssssssssssssssssssssscssssssssssssssssssscccccccccccsssssssssssssssssscssscssssssssssscssszczczzczzczzczzczzczzczc"
         inkscape:connector-curvature="0"
         id="path6501"
         d="m 168.03479,954.2361 c 50.94956,-24.46089 109.24564,-41.72134 111.70676,-78.28212 2.46105,-36.56065 35.39123,-53.94688 58.02087,-72.0077 33.01305,-26.34772 29.46429,-183.54419 16.48699,-223.30501 -0.82831,-2.53795 -12.53341,-6.98932 -28.86152,-12.25046 -3.3618,-1.08325 -81.82259,34.74742 -85.52172,33.60519 -1.59802,-0.49344 40.20046,-18.3684 49.71335,-23.4723 0.90779,-0.48705 -21.45869,-6.30816 -20.53764,-6.79846 1.41307,-0.75222 26.11746,3.82645 27.51606,3.0867 9.80915,-5.18825 18.58249,-9.77021 16.77908,-9.5426 -11.74647,1.48256 -44.7635,-11.56237 -81.1443,-31.0035 -0.70434,-0.37639 -10.95245,-0.55637 -22.95693,-0.70212 -0.83659,-0.0102 -8.01431,5.04591 -8.86532,5.03609 -0.69845,-0.008 4.93172,-5.08223 4.22679,-5.09019 -16.31696,-0.18491 -33.98051,-0.3459 -34.92012,-0.85929 -0.63744,-0.34827 8.35229,-0.89894 19.07719,-1.48754 0.69504,-0.0382 -10.21243,-6.40905 -9.50502,-6.44747 0.69724,-0.0379 13.00932,6.25676 13.71455,6.21872 14.47701,-0.78104 30.19142,-1.59091 29.35148,-2.05886 -12.91038,-7.19273 -26.03621,-15.08121 -38.60691,-23.31546 -1.06807,-0.69965 -10.07208,-1.75601 -20.44915,-2.87491 -0.78019,-0.0841 -9.92666,4.01071 -10.71955,3.926 -0.80394,-0.0859 6.74557,-4.3513 5.93436,-4.43753 -13.49459,-1.43424 -27.59921,-2.89744 -28.93389,-3.78991 -0.85283,-0.57028 7.40656,-0.73298 16.71144,-0.84913 0.98877,-0.0124 -8.75738,-8.38278 -7.7546,-8.39452 0.99598,-0.0117 12.7409,8.3354 13.73159,8.32353 9.82415,-0.11791 18.92154,-0.26861 18.04132,-0.86617 -7.89028,-5.35621 -15.5515,-10.926 -22.80557,-16.45403 -0.35332,-0.26926 -7.54917,-1.12837 -15.50289,-2.05277 -0.78018,-0.0907 -7.53805,3.99734 -8.32702,3.9059 -0.80868,-0.0937 4.3514,-4.36688 3.54568,-4.46034 -8.42239,-0.97692 -16.3472,-1.9109 -16.71385,-2.19322 -0.79199,-0.6099 33.04978,1.76627 32.26843,1.15842 -8.86998,-6.90062 -17.03668,-13.64689 -24.14753,-19.73381 -0.86703,-0.74214 -19.032557,-5.05675 -19.867527,-5.77838 -0.54489,-0.47092 16.231437,2.64499 15.700687,2.18346 -14.690147,-12.77343 -23.916547,-21.85627 -23.916547,-21.85627 0,0 7.06608,4.53751 16.090547,10.4315 0.59253,0.38699 -2.38876,-7.57879 -1.78077,-7.18101 0.72999,0.47766 5.05242,9.32107 5.80012,9.81143 8.89347,5.83245 18.85996,12.45355 25.68744,17.24009 1.08435,0.7602 -1.99299,-38.70554 -0.90906,-37.94331 1.29191,0.9085 2.65165,12.47911 4.00645,23.30995 0.10183,0.814 7.36819,-7.33183 7.46994,-6.53102 0.10079,0.79331 -6.96302,10.53343 -6.86236,11.30434 0.97394,7.46029 1.93971,13.65101 2.87012,14.30749 14.92477,10.53037 30.31121,21.43717 46.0069,31.62988 0.67808,0.44031 0.071,-17.12038 -0.61939,-35.85603 -0.0481,-1.30227 -23.6369,-28.11251 -23.68531,-29.42048 -0.0727,-1.96534 23.39516,24.55679 23.32382,22.6105 -0.65934,-17.99316 -1.20148,-37.33832 -0.54448,-36.91907 0.90199,0.57562 3.65251,27.01294 6.18117,50.32896 0.11205,1.03313 13.95566,-18.23935 14.06666,-17.22099 0.10815,0.99231 -13.51628,22.27589 -13.40946,23.24943 1.72518,15.72325 3.25445,28.69577 3.88582,29.09006 26.9396,16.82353 54.69091,30.95801 82.49977,37.00896 l -6.29685,-30.46168 -13.57486,-5.57184 -21.37288,1.39594 17.67626,-2.91323 -23.1761,-9.51271 -16.7309,0.0419 12.67297,-1.70758 -21.75773,-8.93053 31.84101,10.72792 -6.62979,-17.25792 8.7782,17.56868 30.44057,10.66917 -26.18553,-40.74319 -21.17247,-11.99096 18.31985,7.55245 -17.01372,-26.47236 10.65414,13.27384 -1.8914,-12.08034 4.90407,15.83379 16.78174,20.90814 2.66841,-10.38712 -3.3926,-11.29415 4.28494,7.82063 3.70764,-14.43246 -4.02837,31.4876 19.19868,29.09923 1.78418,-17.51149 -3.62928,-9.27047 4.01243,5.50995 1.56653,-15.37524 1.20952,24.2027 7.2401,-9.29098 -7.07174,12.65996 0.85289,17.06643 11.94363,32.35327 58.62205,7.60458 c 3.4994,-18.94818 0.8023,-25.41208 -2.44567,-37.42455 -48.8316,-35.63218 -85.5472,-72.28328 -126.52121,-115.77309 -0.51851,-0.55035 -7.36091,-2.55073 -16.62874,-5.10773 -0.55088,-0.15199 -32.1401,11.93709 -32.7073,11.78137 -0.67967,-0.18662 29.65933,-12.61883 28.95882,-12.81022 -20.79123,-5.68071 -50.14498,-13.32727 -51.23221,-14.49964 -0.77538,-0.8361 17.30748,2.64764 34.17849,5.85184 0.4342,0.0825 -10.95327,-20.0996 -10.52105,-20.01758 0.38271,0.0726 12.58538,20.40936 12.9661,20.48152 13.87564,2.62979 26.24346,4.91278 25.60411,4.2137 -8.43046,-9.21802 -22.60321,-27.49542 -37.91588,-47.93472 -0.97477,-1.30119 -60.80568,-15.36229 -61.78854,-16.67922 -0.36775,-0.49271 17.2086,2.67061 32.91253,5.58126 0.96083,0.17809 -8.21751,-16.53171 -7.27522,-16.35642 0.96577,0.17967 9.51848,16.40001 10.87726,16.57484 10.19931,1.31231 20.34603,4.28078 20.34603,4.28078 L 147.24268,296.06672 122.8639,283.07504 c 0,0 22.53127,10.11525 21.46965,8.65728 -10.66819,-14.65074 -21.9456,-29.84372 -27.61706,-37.52537 7.18583,6.66839 25.15718,29.76232 42.54238,52.11282 0.44444,0.57131 1.03093,-2.84831 1.65072,-7.217 0.0766,-0.54004 -5.12341,-13.33764 -5.04596,-13.90094 0.0751,-0.54652 5.42771,11.14175 5.50324,10.584 0.86876,-6.41725 1.75042,-13.23097 2.35902,-12.44885 0.78705,1.01131 -1.94267,25.68314 -1.16234,26.68494 13.51181,17.34719 28.39195,36.82376 33.97271,42.37327 0.81913,0.81455 4.58073,-38.58576 5.39969,-37.77069 0.72095,0.71752 0.73811,11.05191 0.73981,21.59773 2.3e-4,1.41092 6.75496,-8.15089 6.75629,-6.75493 6.9e-4,0.85294 -6.75265,12.6754 -6.75045,13.50921 0.0224,8.46003 0.13625,15.67096 0.73427,16.26634 16.14108,16.0699 32.27933,32.14089 48.71538,47.32218 0.9856,0.91035 2.5422,-9.86627 4.15322,-21.73867 0.0959,-0.70661 -8.67369,-22.10361 -8.57753,-22.81575 0.133,-0.98492 9.13179,18.71351 9.26482,17.72818 1.72022,-12.74163 4.47352,-24.06976 4.47352,-24.06976 0,0 0.35755,7.54897 -0.40991,16.2343 -0.0738,0.83467 7.44835,-6.33501 7.36882,-5.4703 -0.0255,0.27782 -7.6505,8.5783 -7.67655,8.8587 -1.45388,15.64861 -3.64256,35.11383 -2.30506,36.29303 18.46737,16.28159 45.24409,41.96524 65.04166,54.25629 l 12.30237,-22.22262 -6.767,26.93664 32.51788,19.20728 -2.70994,-40.44157 -65.47715,-100.44612 -11.72846,-3.34013 -19.10328,1.42093 12.4104,-3.32699 -54.88082,-15.62944 38.97873,8.01981 -13.31339,-22.06212 19.96051,23.42975 24.59194,5.05976 -39.50832,-56.36586 -12.82695,-2.46018 -19.78225,5.17586 16.4466,-5.81564 -29.91709,-5.73803 24.54486,2.3092 -9.21393,-12.25099 12.26339,13.1219 15.53384,1.7902 -44.6685,-63.36674 -6.688,-4.11324 -12.5785,-1.82963 9.68076,0.0474 -14.49053,-8.91197 20.63879,9.93096 -30.34204,-43.04325 21.01128,28.58468 -2.97154,-13.07534 5.47183,16.47681 34.01393,46.27398 0.64387,-6.86689 -6.13641,-16.02421 6.53249,11.80002 1.57862,-16.83602 -0.0349,31.92978 36.29711,49.67465 3.34168,-8.39165 -2.73918,-14.26788 3.92828,11.28182 6.49653,-16.31412 -8.59275,30.75847 95.99369,129.01034 -0.63057,-59.40151 -18.55716,-18.71545 -34.09468,-6.77183 30.29894,2.99348 -30.91957,-40.98864 -29.54873,-14.19727 26.72681,10.45639 -40.24281,-53.34799 29.54368,35.94294 -0.3048,-22.47168 2.60557,25.27081 33.14676,40.32652 1.81201,-21.22422 2.48989,26.55875 27.30637,28.08336 -7.26471,-95.61634 -30.61957,-28.01656 -20.84847,-0.26834 -20.2695,9.26599 16.88723,-9.30952 -44.7913,-0.57652 33.21376,-1.04398 -12.03551,-16.54211 14.10062,15.96704 30.08126,-1.38053 -47.45844,-39.44168 -32.36531,-11.69279 26.63522,6.33849 -44.1469,-41.25161 30.02669,25.08791 -1.84514,-25.11397 6.81897,29.26971 40.34417,33.70837 -4.43598,-40.79183 -14.25225,-20.14758 13.49872,13.21838 -2.54994,-23.44841 8.31785,41.08302 12.0355,-17.58023 -9.99893,26.89473 2.64862,24.04044 52.13952,44.69292 -2.48515,-41.59009 -36.00792,-37.43557 35.38607,27.02771 -1.34704,-22.54346 -40.08432,-51.61742 20.04884,22.91884 -2.92183,-24.14588 7.43245,29.30214 15.1532,17.32239 -3.6074,-60.37379 -13.73111,-27.730514 13.35946,21.510574 -2.07608,-34.744466 4.48762,53.875636 27.04677,-41.989734 -14.90959,28.426964 19.65202,-7.85438 -22.09797,12.51783 -8.30917,13.00339 3.81743,58.31753 23.11256,-27.81934 -22.59617,34.01847 2.07498,24.91125 32.95202,-29.29544 -10.41428,-53.68576 14.3163,49.53735 48.34498,-46.94342 -25.80155,29.51038 29.57641,-4.45526 -30.97715,8.83409 -56.20388,53.67184 7.24995,88.69603 22.96075,-22.36096 -1.89501,-27.15299 -7.38226,-18.56132 7.00106,13.09966 -2.05404,-29.43082 4.58615,41.06742 8.62452,-14.84344 -8.25204,18.17923 1.59744,14.30482 35.64534,-52.16989 -1.39901,-19.77018 -8.22939,-17.92766 7.87057,12.8571 -1.69645,-23.97283 5.63699,45.61899 21.99435,-32.19066 -1.11779,-24.67295 3.16619,21.67501 12.13635,-17.76259 -23.6047,38.39069 35.01765,-19.43397 -19.663,12.19736 14.32763,-1.73108 -17.33391,3.59592 -14.62274,9.07081 -34.49535,56.10318 14.84348,-3.23701 10.65342,-11.1553 -7.1657,10.39471 15.53248,-3.38728 -34.66872,10.92697 -36.38194,36.69718 9.50854,101.78228 29.49759,-47.89966 -14.11369,-61.04823 9.47399,28.2111 4.42486,-24.03104 -1.56188,32.55611 5.64441,16.8077 40.20622,-64.06501 -0.8415,-10.71531 -7.30873,-13.7103 7.01219,9.93402 -3.91926,-49.90707 6.4537,39.12555 5.94384,-17.2283 -4.98356,21.84811 3.14896,15.14863 44.89123,-70.94626 -2.43043,-32.35456 4.83298,27.41892 32.90793,-50.86918 -17.59036,30.04401 12.76878,-9.98402 -14.74207,13.35444 -32.22338,55.03689 27.72176,-14.58663 2.77675,-6.6507 -0.60346,-11.29812 1.99224,7.97178 4.00247,-9.58642 -5.68958,17.7709 29.67885,-15.12789 -16.42856,10.13056 11.13679,-0.16221 -13.72644,1.7591 -22.95264,14.15357 33.13485,-4.57351 -17.79208,3.22127 9.26739,2.84248 -12.68556,-2.22361 -15.19728,2.75149 -17.97169,11.08213 -53.46571,93.04096 36.34526,-19.02275 -40.65546,29.1727 -39.79021,66.59353 2.88812,38.63511 26.76471,-19.18874 10.66208,-24.03539 -1.32706,-23.25905 4.35579,16.43128 10.60543,-23.90779 -15.23435,48.9719 c 30.30324,-22.92556 56.25434,-48.02717 81.07088,-73.69603 0.44217,-0.45735 -0.67575,-5.71627 -2.54001,-13.2715 -0.16733,-0.67816 -15.53893,-13.19569 -15.71772,-13.90905 -0.17056,-0.68053 14.85226,10.44461 14.6723,9.73528 -2.15846,-8.51053 -4.95403,-18.98105 -7.50399,-28.69481 -0.30197,-1.15041 -15.16555,-16.8552 -15.45914,-17.97987 -0.24381,-0.93362 14.08086,12.70818 13.84467,11.79799 -3.29102,-12.68429 -5.76202,-22.8427 -5.14312,-23.48822 0.72601,-0.7573 10.90795,33.83161 14.80297,46.72992 0.21168,0.70087 11.52033,-20.09953 11.73118,-19.40204 0.40819,1.35034 -10.28314,24.19084 -9.88361,25.50375 3.08936,10.15237 5.80521,18.6974 6.39348,18.08024 11.43218,-11.9928 32.98147,-35.27311 53.04792,-56.67137 0.418,-0.44574 1.36571,-10.83517 2.37927,-22.47199 0.0584,-0.67366 -11.6527,-17.04522 -11.59366,-17.72555 0.10972,-1.26499 11.99024,13.15512 12.1003,11.88375 1.14697,-13.2474 2.28014,-26.25312 2.74503,-26.74816 0.28213,-0.30044 0.0775,8.51892 -0.20659,18.8216 -0.0117,0.41955 7.57581,-8.44626 7.564,-8.0223 -0.0158,0.56337 -7.63067,10.41799 -7.64667,10.98702 -0.3823,13.60158 -0.83305,28.4732 -0.47087,28.08797 12.67601,-13.48252 24.35152,-25.74729 31.95836,-33.31121 -12.44408,15.89756 -31.74201,39.16555 -51.64004,62.48755 -0.46743,0.54784 18.37604,-6.05659 33.88627,-11.42665 0.69834,-0.24177 6.93844,-20.5946 7.62113,-20.83059 0.98946,-0.34203 -5.66892,19.43637 -4.72285,19.11039 8.63256,-2.9743 15.19859,-5.18331 14.91976,-4.85725 -0.29737,0.34782 -4.47815,2.90444 -12.81718,6.23047 -3.90703,1.55832 -8.27017,3.28552 -12.68961,5.03359 -1.15624,0.45733 16.41002,5.07754 15.25323,5.53508 -0.68042,0.26913 -20.08615,-3.6236 -20.76286,-3.35587 -13.19577,5.22103 -25.40359,10.07594 -25.82215,10.56418 -19.91731,23.23348 -39.89786,45.89483 -53.72291,60.70906 -1.09224,1.17039 19.62517,-2.37733 40.64331,-5.99358 0.67356,-0.11589 17.29959,-30.05541 17.973,-30.17128 0.97704,-0.1681 -13.99895,29.48753 -13.02583,29.32024 19.88133,-3.41761 38.51024,-6.56764 37.45885,-5.46655 -1.32871,1.3915 -33.41292,8.26174 -59.64738,14.08377 -0.98808,0.21929 19.53276,9.45351 18.56314,9.66948 -0.89004,0.19826 -23.27218,-8.62145 -24.14341,-8.42656 -15.31641,3.42608 -27.49442,6.29067 -28.3134,7.12796 -26.04825,26.63017 -54.23251,51.65832 -85.90504,74.07024 3.92722,19.0017 2.71537,37.25738 11.54642,48.581 l 53.47265,-30.93204 -4.07862,-30.21385 -10.34631,-17.71525 9.41844,10.84209 -2.49421,-18.47706 7.5285,32.69469 19.08448,-24.15316 -16.98128,29.94539 5.16001,14.2106 c 18.00781,-4.71041 34.2608,-13.80785 49.57219,-25.25936 0.907,-0.67835 1.08593,-7.16342 1.04556,-15.38497 -0.007,-1.12856 -20.82226,-16.85484 -20.83475,-18.03832 -0.01,-0.91337 20.78614,12.72504 20.77378,11.79009 -0.18765,-14.17617 -0.62165,-36.52072 0.80723,-37.68046 1.10083,-0.89348 2.72375,18.13111 4.32366,30.41033 0.17934,1.37648 15.617,-22.22192 15.79497,-20.87806 0.15771,1.19071 -14.94393,27.32933 -14.78841,28.46486 1.12582,8.22019 2.18023,14.63042 2.96062,13.96015 13.3541,-11.4703 27.06235,-25.25754 40.83789,-38.98612 0.4456,-0.44414 0.68894,-6.75763 0.9138,-13.60802 0.0323,-0.98471 -7.78255,-9.82738 -7.75048,-10.81844 0.0323,-0.98978 7.91114,5.87203 7.9441,4.90749 0.20976,-6.14175 0.44821,-11.45195 0.85585,-11.85734 1.14971,-1.14346 3.28064,26.15953 4.4309,25.02061 6.75354,-6.68706 13.51257,-13.27195 20.24339,-19.47559 1.02344,-0.9433 8.91221,-30.32265 9.93421,-31.24732 0.68667,-0.62123 -5.49308,27.20684 -4.80723,26.59475 4.13834,-3.69303 24.93725,-28.79315 29.03976,-32.07729 -1.41735,4.33692 -25.60175,35.2218 -34.66268,45.5405 -0.76295,0.86884 22.98457,-8.0637 22.20233,-7.18286 -1.05531,1.18835 -26.64717,12.19404 -27.72596,13.39413 -16.13888,17.95314 -34.16331,36.5708 -31.78609,36.43616 13.43017,-1.47345 24.7803,-2.69478 34.28896,-3.69289 1.3296,-0.13957 19.29772,-16.94934 20.55599,-17.08027 1.33372,-0.13876 -14.04688,16.40186 -12.79185,16.27263 99.83767,-10.28053 -46.77787,9.31168 -48.89933,11.38242 -25.03029,24.43201 -54.30487,48.70217 -82.46283,60.55824 -1.69563,0.71394 16.32201,4.69538 37.81904,9.07854 0.56349,0.1149 9.85217,-6.64747 19.28619,-13.52255 0.73879,-0.5384 4.42109,-22.65636 5.15754,-23.19291 1.34038,-0.97652 -2.2342,21.59601 -0.94002,20.65602 7.37765,-5.35868 15.562,-11.76716 16.02683,-11.67306 1.10467,0.22362 -33.84974,28.88432 -32.73381,29.10886 28.23802,5.68189 59.41681,11.53434 59.41681,11.53434 0,0 -108.28497,-16.83109 -111.49785,-13.78808 -17.72713,16.78993 -45.07916,30.40522 -45.25342,33.51743 -2.53582,45.29489 5.8162,214.81644 50.63294,228.37913 28.83068,8.72491 36.1484,8.34439 44.29855,45.63064 8.15022,37.28624 74.86807,71.98737 128.53914,94.95415 -47.02903,-29.39316 -116.26622,-20.61813 -139.40706,-76.41807 -23.14083,-55.79994 -28.0207,-40.0288 -48.91759,-41.2848 21.29999,24.56793 23.07032,41.05623 18.29866,64.58348 -4.7716,23.52733 -3.26953,33.74504 17.23799,60.83987 20.50751,27.09483 22.76127,73.32175 31.16169,109.98265 -12.76259,-37.339 -18.51081,-87.25254 -45.59568,-110.18973 -27.08494,-22.93719 -25.56845,-38.43232 -19.42214,-61.77865 6.14631,-23.3462 -8.98794,-36.26541 -29.14461,-55.59074 -2.21291,20.91611 -17.53563,47.79041 3.82547,69.46899 21.3611,21.67858 21.13665,27.63312 0.38731,53.75332 -20.74941,26.12021 -1.99451,70.23461 3.63411,106.29841 -7.25703,-34.0709 -38.27818,-72.4147 -19.49314,-102.78198 18.78511,-30.36724 5.13406,-36.47214 -10.55895,-55.67478 -15.69308,-19.20263 -12.84842,-45.0403 -13.10562,-69.10221 -14.50342,17.52211 -28.84279,32.89146 -23.50935,55.89985 5.33344,23.00846 2.02801,36.32377 -24.92902,59.27572 -26.95706,22.95195 -29.14746,63.1519 -39.83885,94.728 4.78189,-33.2968 2.3619,-73.80962 27.23576,-98.04881 24.87381,-24.23919 28.74301,-41.37379 17.69265,-63.69365 -11.05035,-22.3198 4.81884,-34.15906 13.92302,-50.12286 -23.2765,-11.75316 -44.06241,-5.0174 -63.10877,47.00391 -19.04644,52.0213 -85.71751,46.01252 -125.21584,70.69896 z"
         style="opacity:0.33000004;fill:#000000;fill-opacity:1;stroke:none;filter:url(#filter6551)" />
    </g>
  </g>
</svg>
