<?xml version="1.0" encoding="UTF-8" standalone="no"?>
<!-- Created with Inkscape (http://www.inkscape.org/) -->

<svg
   xmlns:dc="http://purl.org/dc/elements/1.1/"
   xmlns:cc="http://creativecommons.org/ns#"
   xmlns:rdf="http://www.w3.org/1999/02/22-rdf-syntax-ns#"
   xmlns:svg="http://www.w3.org/2000/svg"
   xmlns="http://www.w3.org/2000/svg"
   xmlns:xlink="http://www.w3.org/1999/xlink"
   xmlns:sodipodi="http://sodipodi.sourceforge.net/DTD/sodipodi-0.dtd"
   xmlns:inkscape="http://www.inkscape.org/namespaces/inkscape"
   width="1024"
   height="1024"
   id="svg2"
   sodipodi:version="0.32"
   inkscape:version="0.48.1 r9760"
   version="1.0"
   sodipodi:docname="tux-g2.svg"
   inkscape:output_extension="org.inkscape.output.svg.inkscape">
  <defs
     id="defs4">
    <linearGradient
       inkscape:collect="always"
       id="linearGradient3851">
      <stop
         style="stop-color:#ffffff;stop-opacity:1;"
         offset="0"
         id="stop3853" />
      <stop
         style="stop-color:#ffffff;stop-opacity:0;"
         offset="1"
         id="stop3855" />
    </linearGradient>
    <inkscape:perspective
       sodipodi:type="inkscape:persp3d"
       inkscape:vp_x="0 : 512 : 1"
       inkscape:vp_y="0 : 1000 : 0"
       inkscape:vp_z="1024 : 512 : 1"
       inkscape:persp3d-origin="512 : 341.33333 : 1"
       id="perspective3674" />
    <linearGradient
       inkscape:collect="always"
       id="linearGradient3820">
      <stop
         style="stop-color: rgb(60, 60, 60); stop-opacity: 1;"
         offset="0"
         id="stop3822" />
      <stop
         style="stop-color: rgb(60, 60, 60); stop-opacity: 0;"
         offset="1"
         id="stop3824" />
    </linearGradient>
    <linearGradient
       inkscape:collect="always"
       id="linearGradient3800">
      <stop
         style="stop-color: rgb(60, 60, 60); stop-opacity: 1;"
         offset="0"
         id="stop3802" />
      <stop
         style="stop-color: rgb(160, 160, 160); stop-opacity: 0;"
         offset="1"
         id="stop3804" />
    </linearGradient>
    <linearGradient
       id="linearGradient3614">
      <stop
         style="stop-color: rgb(255, 255, 255); stop-opacity: 1;"
         offset="0"
         id="stop3616" />
      <stop
         style="stop-color: rgb(190, 190, 190); stop-opacity: 1;"
         offset="1"
         id="stop3618" />
    </linearGradient>
    <linearGradient
       id="linearGradient3420">
      <stop
         style="stop-color: rgb(223, 190, 0); stop-opacity: 1;"
         offset="0"
         id="stop3422" />
      <stop
         id="stop3436"
         offset="0.80000001"
         style="stop-color: rgb(222, 175, 0); stop-opacity: 1;" />
      <stop
         style="stop-color: rgb(222, 161, 1); stop-opacity: 1;"
         offset="1"
         id="stop3424" />
    </linearGradient>
    <linearGradient
       id="linearGradient3396">
      <stop
         id="stop3398"
         offset="0"
         style="stop-color: rgb(255, 255, 255); stop-opacity: 1;" />
      <stop
         id="stop3400"
         offset="1"
         style="stop-color: rgb(255, 255, 255); stop-opacity: 0;" />
    </linearGradient>
    <linearGradient
       id="linearGradient3338">
      <stop
         style="stop-color: rgb(0, 0, 0); stop-opacity: 1;"
         offset="0"
         id="stop3340" />
      <stop
         style="stop-color: rgb(255, 255, 255); stop-opacity: 1;"
         offset="1"
         id="stop3342" />
    </linearGradient>
    <linearGradient
       id="linearGradient3330">
      <stop
         style="stop-color: rgb(255, 255, 255); stop-opacity: 1;"
         offset="0"
         id="stop3332" />
      <stop
         style="stop-color: rgb(255, 255, 255); stop-opacity: 0;"
         offset="1"
         id="stop3334" />
    </linearGradient>
    <linearGradient
       id="linearGradient3303">
      <stop
         style="stop-color: rgb(210, 210, 210); stop-opacity: 1;"
         offset="0"
         id="stop3305" />
      <stop
         id="stop3311"
         offset="0.88"
         style="stop-color: rgb(210, 210, 210); stop-opacity: 1;" />
      <stop
         style="stop-color: rgb(128, 128, 128); stop-opacity: 1;"
         offset="1"
         id="stop3307" />
    </linearGradient>
    <linearGradient
       id="linearGradient3285">
      <stop
         style="stop-color: rgb(255, 255, 255); stop-opacity: 1;"
         offset="0"
         id="stop3287" />
      <stop
         style="stop-color: rgb(255, 255, 255); stop-opacity: 0;"
         offset="1"
         id="stop3289" />
    </linearGradient>
    <radialGradient
       inkscape:collect="always"
       xlink:href="#linearGradient3303"
       id="radialGradient3309"
       cx="430.04144"
       cy="269.01694"
       fx="430.04144"
       fy="269.01694"
       r="77.137474"
       gradientTransform="matrix(1,0,0,1.2625,0,-70.617)"
       gradientUnits="userSpaceOnUse" />
    <radialGradient
       inkscape:collect="always"
       xlink:href="#linearGradient3303"
       id="radialGradient3319"
       cx="615.17139"
       cy="306.62146"
       fx="615.17139"
       fy="306.62146"
       r="77.137474"
       gradientTransform="matrix(1,0,0,1.025,0,-7.66553)"
       gradientUnits="userSpaceOnUse" />
    <pattern
       patternUnits="userSpaceOnUse"
       width="412.68549"
       height="374.11677"
       patternTransform="translate(304.693, 17.3559)"
       id="pattern3321">
      <path
         transform="matrix(1.08629, 0, 0, 1.01042, -1434.97, 9.74262)"
         sodipodi:open="true"
         sodipodi:end="6.2831679"
         sodipodi:start="0"
         d="M 1700.8813,175.48776 A 189.95103,185.12994 0 1 1 1700.8813,175.48454"
         sodipodi:ry="185.12994"
         sodipodi:rx="189.95103"
         sodipodi:cy="175.48776"
         sodipodi:cx="1510.9303"
         id="path3283"
         style="opacity: 1; fill: url(#linearGradient3324) rgb(0, 0, 0); fill-opacity: 1; fill-rule: evenodd; stroke: none; stroke-width: 2.702; stroke-linecap: butt; stroke-linejoin: miter; stroke-miterlimit: 4; stroke-dasharray: none; stroke-dashoffset: 0pt; stroke-opacity: 1;"
         sodipodi:type="arc" />
    </pattern>
    <linearGradient
       inkscape:collect="always"
       xlink:href="#linearGradient3285"
       id="linearGradient3324"
       gradientUnits="userSpaceOnUse"
       x1="1510.9303"
       y1="-9.6421814"
       x2="1510.9303"
       y2="360.61771" />
    <linearGradient
       inkscape:collect="always"
       xlink:href="#linearGradient3330"
       id="linearGradient3336"
       x1="1449.6846"
       y1="177.43414"
       x2="1487.1814"
       y2="237.21567"
       gradientUnits="userSpaceOnUse"
       gradientTransform="translate(-1012.43,30.855)" />
    <linearGradient
       inkscape:collect="always"
       xlink:href="#linearGradient3285"
       id="linearGradient3360"
       gradientUnits="userSpaceOnUse"
       x1="1510.9303"
       y1="-9.6421814"
       x2="1510.9303"
       y2="360.61771" />
    <linearGradient
       inkscape:collect="always"
       xlink:href="#linearGradient3330"
       id="linearGradient3382"
       x1="1632.8861"
       y1="197.05765"
       x2="1664.2391"
       y2="249.1969"
       gradientUnits="userSpaceOnUse"
       gradientTransform="translate(-1006.64,26.9981)" />
    <radialGradient
       inkscape:collect="always"
       xlink:href="#linearGradient3396"
       id="radialGradient3394"
       cx="1619.8779"
       cy="319.54004"
       fx="1619.8779"
       fy="319.54004"
       r="89.638496"
       gradientTransform="matrix(-1,-9.17439e-7,3.31191e-7,-0.360996,2230.44,461.02)"
       gradientUnits="userSpaceOnUse" />
    <radialGradient
       inkscape:collect="always"
       xlink:href="#linearGradient3396"
       id="radialGradient3404"
       gradientUnits="userSpaceOnUse"
       gradientTransform="matrix(-0.75176,-0.930754,0.35943,-0.247906,1476.06,1923.79)"
       cx="1619.8779"
       cy="319.54004"
       fx="1619.8779"
       fy="319.54004"
       r="89.638496" />
    <linearGradient
       inkscape:collect="always"
       xlink:href="#linearGradient3330"
       id="linearGradient3414"
       x1="1563.5314"
       y1="341.2269"
       x2="1532.6458"
       y2="393.50894"
       gradientUnits="userSpaceOnUse"
       gradientTransform="translate(-1003.36,24.9934)" />
    <radialGradient
       inkscape:collect="always"
       xlink:href="#linearGradient3420"
       id="radialGradient3434"
       cx="510.06738"
       cy="418.72488"
       fx="510.06738"
       fy="418.72488"
       r="90.911514"
       gradientTransform="matrix(1,-9.77859e-8,7.85719e-8,0.80351,8.24541e-5,82.2754)"
       gradientUnits="userSpaceOnUse" />
    <filter
       inkscape:collect="always"
       x="-0.095135023"
       width="1.19027"
       y="-0.16246186"
       height="1.3249237"
       id="filter3580">
      <feGaussianBlur
         inkscape:collect="always"
         stdDeviation="11.052912"
         id="feGaussianBlur3582" />
    </filter>
    <radialGradient
       inkscape:collect="always"
       xlink:href="#linearGradient3420"
       id="radialGradient3590"
       cx="317.22787"
       cy="898.06708"
       fx="317.22787"
       fy="898.06708"
       r="170.67751"
       gradientTransform="matrix(1,0,0,0.469076,0,457.161)"
       gradientUnits="userSpaceOnUse" />
    <radialGradient
       inkscape:collect="always"
       xlink:href="#linearGradient3420"
       id="radialGradient3598"
       cx="712.55743"
       cy="902.17822"
       fx="712.55743"
       fy="902.17822"
       r="170.67751"
       gradientTransform="matrix(1,0,0,0.469076,0,457.161)"
       gradientUnits="userSpaceOnUse" />
    <linearGradient
       inkscape:collect="always"
       xlink:href="#linearGradient3330"
       id="linearGradient3608"
       x1="1304.5875"
       y1="806.08667"
       x2="1304.5875"
       y2="888.87366"
       gradientUnits="userSpaceOnUse" />
    <linearGradient
       inkscape:collect="always"
       xlink:href="#linearGradient3330"
       id="linearGradient3612"
       gradientUnits="userSpaceOnUse"
       x1="1304.5875"
       y1="806.08667"
       x2="1304.5875"
       y2="888.87366" />
    <filter
       inkscape:collect="always"
       x="-0.088144548"
       width="1.1762891"
       y="-0.1879111"
       height="1.3758222"
       id="filter3736">
      <feGaussianBlur
         inkscape:collect="always"
         stdDeviation="12.536909"
         id="feGaussianBlur3738" />
    </filter>
    <linearGradient
       inkscape:collect="always"
       xlink:href="#linearGradient3330"
       id="linearGradient3750"
       x1="1039.5559"
       y1="551.10175"
       x2="1227.6786"
       y2="402.13937"
       gradientUnits="userSpaceOnUse"
       gradientTransform="translate(-1024,44.354)" />
    <linearGradient
       inkscape:collect="always"
       xlink:href="#linearGradient3330"
       id="linearGradient3758"
       gradientUnits="userSpaceOnUse"
       gradientTransform="matrix(-1,0,0,1,2045.65,42.4256)"
       x1="938.64874"
       y1="638.37286"
       x2="1242.624"
       y2="401.17514" />
    <filter
       inkscape:collect="always"
       x="-0.032727273"
       width="1.0654545"
       y="-0.36"
       height="1.72"
       id="filter3794">
      <feGaussianBlur
         inkscape:collect="always"
         stdDeviation="10.99209"
         id="feGaussianBlur3796" />
    </filter>
    <linearGradient
       inkscape:collect="always"
       xlink:href="#linearGradient3800"
       id="linearGradient3806"
       x1="1522.775"
       y1="892.53217"
       x2="1523.0221"
       y2="916.28113"
       gradientUnits="userSpaceOnUse"
       gradientTransform="translate(-1006.1,24.7961)" />
    <linearGradient
       inkscape:collect="always"
       xlink:href="#linearGradient3396"
       id="linearGradient3832"
       gradientUnits="userSpaceOnUse"
       x1="1498.6023"
       y1="234.49939"
       x2="1506.3561"
       y2="262.63422"
       gradientTransform="translate(-1019.01,27.0816)" />
    <linearGradient
       inkscape:collect="always"
       xlink:href="#linearGradient3820"
       id="linearGradient3834"
       gradientUnits="userSpaceOnUse"
       x1="1466.6725"
       y1="269.99911"
       x2="1484.4534"
       y2="303.3382"
       gradientTransform="translate(-1014.66,22.4875)" />
    <linearGradient
       inkscape:collect="always"
       xlink:href="#linearGradient3396"
       id="linearGradient3840"
       gradientUnits="userSpaceOnUse"
       gradientTransform="translate(-961.795,28.3346)"
       x1="1498.1847"
       y1="231.9935"
       x2="1508.4443"
       y2="262.63425" />
    <linearGradient
       inkscape:collect="always"
       xlink:href="#linearGradient3820"
       id="linearGradient3842"
       gradientUnits="userSpaceOnUse"
       gradientTransform="translate(-955.352,24.5758)"
       x1="1466.6725"
       y1="269.99911"
       x2="1484.4534"
       y2="303.3382" />
    <radialGradient
       inkscape:collect="always"
       xlink:href="#linearGradient3851"
       id="radialGradient3857"
       cx="60.535625"
       cy="634.68073"
       fx="60.535625"
       fy="634.68073"
       r="62.900174"
       gradientTransform="matrix(1.6124309,-0.90509689,0.27917587,0.49735205,-214.26143,351.72624)"
       gradientUnits="userSpaceOnUse" />
    <filter
       inkscape:collect="always"
       id="filter3879">
      <feGaussianBlur
         inkscape:collect="always"
         stdDeviation="9.4550699"
         id="feGaussianBlur3881" />
    </filter>
    <filter
       inkscape:collect="always"
       id="filter3887">
      <feGaussianBlur
         inkscape:collect="always"
         stdDeviation="4.3575008"
         id="feGaussianBlur3889" />
    </filter>
    <filter
       inkscape:collect="always"
       id="filter3891">
      <feGaussianBlur
         inkscape:collect="always"
         stdDeviation="4.0386307"
         id="feGaussianBlur3893" />
    </filter>
    <filter
       inkscape:collect="always"
       id="filter3895"
       x="-0.05761713"
       width="1.1152343"
       y="-0.10102079"
       height="1.2020416">
      <feGaussianBlur
         inkscape:collect="always"
         stdDeviation="3.0201062"
         id="feGaussianBlur3897" />
    </filter>
    <filter
       inkscape:collect="always"
       id="filter3903">
      <feGaussianBlur
         inkscape:collect="always"
         stdDeviation="3.1127701"
         id="feGaussianBlur3905" />
    </filter>
    <filter
       inkscape:collect="always"
       id="filter3911">
      <feGaussianBlur
         inkscape:collect="always"
         stdDeviation="4.4439459"
         id="feGaussianBlur3913" />
    </filter>
    <filter
       inkscape:collect="always"
       id="filter3939"
       x="-0.037399703"
       width="1.0747994"
       y="-0.11232364"
       height="1.2246473">
      <feGaussianBlur
         inkscape:collect="always"
         stdDeviation="2.7781279"
         id="feGaussianBlur3941" />
    </filter>
    <filter
       inkscape:collect="always"
       id="filter3967">
      <feGaussianBlur
         inkscape:collect="always"
         stdDeviation="4.224785"
         id="feGaussianBlur3969" />
    </filter>
    <filter
       inkscape:collect="always"
       id="filter4011"
       x="-0.065684674"
       width="1.1313693"
       y="-0.11647854"
       height="1.2329571">
      <feGaussianBlur
         inkscape:collect="always"
         stdDeviation="3.845313"
         id="feGaussianBlur4013" />
    </filter>
    <filter
       inkscape:collect="always"
       id="filter4047">
      <feGaussianBlur
         inkscape:collect="always"
         stdDeviation="2.9280449"
         id="feGaussianBlur4049" />
    </filter>
    <filter
       inkscape:collect="always"
       id="filter4087"
       x="-0.071838915"
       width="1.1436778"
       y="-0.14464869"
       height="1.2892974">
      <feGaussianBlur
         inkscape:collect="always"
         stdDeviation="3.7901972"
         id="feGaussianBlur4089" />
    </filter>
    <filter
       inkscape:collect="always"
       id="filter4107"
       x="-0.11833338"
       width="1.2366668"
       y="-0.040188674"
       height="1.0803773">
      <feGaussianBlur
         inkscape:collect="always"
         stdDeviation="4.0933883"
         id="feGaussianBlur4109" />
    </filter>
    <filter
       inkscape:collect="always"
       id="filter4127"
       x="-0.11833338"
       width="1.2366668"
       y="-0.040188674"
       height="1.0803773">
      <feGaussianBlur
         inkscape:collect="always"
         stdDeviation="4.0933882"
         id="feGaussianBlur4129" />
    </filter>
    <filter
       inkscape:collect="always"
       id="filter4163"
       x="-0.1090582"
       width="1.2181164"
       y="-0.13553436"
       height="1.2710687">
      <feGaussianBlur
         inkscape:collect="always"
         stdDeviation="9.0836278"
         id="feGaussianBlur4165" />
    </filter>
    <filter
       inkscape:collect="always"
       id="filter4239"
       x="-0.084973526"
       width="1.1699471"
       y="-0.14339282"
       height="1.2867856">
      <feGaussianBlur
         inkscape:collect="always"
         stdDeviation="5.5304802"
         id="feGaussianBlur4241" />
    </filter>
    <filter
       inkscape:collect="always"
       id="filter4307"
       x="-0.094415029"
       width="1.1888301"
       y="-0.15932536"
       height="1.3186507">
      <feGaussianBlur
         inkscape:collect="always"
         stdDeviation="6.144978"
         id="feGaussianBlur4309" />
    </filter>
    <radialGradient
       inkscape:collect="always"
       xlink:href="#linearGradient3614"
       id="radialGradient4311"
       cx="583.65723"
       cy="416.8168"
       fx="583.65723"
       fy="416.8168"
       r="272.86209"
       gradientTransform="matrix(-0.09545332,0.8198233,-1.0542717,-0.12275052,1014.7877,18.42173)"
       gradientUnits="userSpaceOnUse" />
  </defs>
  <sodipodi:namedview
     id="base"
     pagecolor="#ffffff"
     bordercolor="#666666"
     borderopacity="1.0"
     inkscape:pageopacity="0.0"
     inkscape:pageshadow="2"
     inkscape:zoom="0.51855469"
     inkscape:cx="529.30758"
     inkscape:cy="573.99135"
     inkscape:document-units="px"
     inkscape:current-layer="layer1"
     width="1024px"
     height="1024px"
     showguides="true"
     inkscape:guide-bbox="true"
     inkscape:window-width="1366"
     inkscape:window-height="768"
     inkscape:window-x="0"
     inkscape:window-y="0"
     showgrid="false"
     inkscape:window-maximized="0" />
  <metadata
     id="metadata7">
    <rdf:RDF>
      <cc:Work
         rdf:about="">
        <dc:format>image/svg+xml</dc:format>
        <dc:type
           rdf:resource="http://purl.org/dc/dcmitype/StillImage" />
        <dc:title></dc:title>
      </cc:Work>
    </rdf:RDF>
  </metadata>
  <g
     inkscape:label="Capa 1"
     inkscape:groupmode="layer"
     id="layer1">
    <g
       id="g3844">
      <path
         sodipodi:nodetypes="cscsssssssssc"
         d="m 183.83097,565.68896 c -9.4224,66.61937 18.27405,353.64205 329.02612,352.59674 300.7429,-1.01164 337.63856,-246.81665 328.93488,-344.74042 51.44896,19.02555 156.16903,76.93841 173.44023,53.36244 15.1705,-20.70848 -29.23113,-85.80038 -124.99871,-154.33629 -94.35058,-67.52184 -88.60507,-95.62979 -98.9293,-139.66102 -19.82246,-84.5397 -26.66708,-176.3612 -93.0686,-243.208273 -47.70317,-48.023263 -114.0138,-77.130691 -186.807,-77.130691 -73.3372,0 -139.97572,29.712107 -187.86,78.272861 -60.82982,61.689183 -87.71933,160.315703 -89.9985,226.720393 -1.57116,45.77653 -8.69452,89.09707 -102.1415,157.86387 C 49.63439,535.6202 8.8497272,597.92942 23.149545,618.19043 43.48429,647.00215 126.43643,598.61318 183.83097,565.68896 z"
         style="fill:#000000;fill-opacity:1;fill-rule:evenodd;stroke:#000000;stroke-width:2.29999995;stroke-linecap:butt;stroke-linejoin:miter;stroke-miterlimit:4;stroke-opacity:1;stroke-dasharray:none;stroke-dashoffset:0"
         id="path3161"
         inkscape:connector-curvature="0" />
      <path
         transform="matrix(1.08629,0,0,1.01042,-1130.28,27.0986)"
         sodipodi:open="true"
         sodipodi:end="6.2831679"
         sodipodi:start="0"
         d="m 1700.8813,175.48776 c 0,102.24445 -85.0439,185.12995 -189.951,185.12995 -104.9071,0 -189.951,-82.8855 -189.951,-185.12995 0,-102.244442 85.0439,-185.1299414 189.951,-185.1299414 104.9058,0 189.9492,82.8835354 189.951,185.1267214"
         sodipodi:ry="185.12994"
         sodipodi:rx="189.95103"
         sodipodi:cy="175.48776"
         sodipodi:cx="1510.9303"
         id="path3358"
         style="fill:url(#linearGradient3360);fill-opacity:1;fill-rule:evenodd;stroke:none;filter:url(#filter3879)"
         sodipodi:type="arc" />
      <rect
         id="rect3326"
         y="17.355934"
         x="304.69299"
         height="374.11676"
         width="412.68549"
         style="fill:none;stroke:none" />
      <path
         sodipodi:nodetypes="cssssc"
         id="path3170"
         d="m 786.7143,659.55151 c 0,86.75456 -30.5518,167.16744 -79.9407,224.06084 -49.3889,56.8934 -336.4447,56.8934 -385.8335,0 -49.3889,-56.8934 -79.95,-135.47543 -79.95,-222.23 0,-173.50913 122.2443,-314.32814 272.8667,-314.32814 149.5054,0 271.1159,140.28665 272.8575,312.4973 z"
         style="fill:url(#radialGradient4311);fill-opacity:1;fill-rule:evenodd;stroke:none"
         inkscape:connector-curvature="0" />
      <path
         id="path3760"
         d="m 262.40651,547.40114 c -9.72624,84.00483 4.79169,154.60342 25.8287,236.14818 l -26.7511,8.30208 C 235.74066,762.66264 220.069,732.01335 205.21441,693.14885 l 41.5104,32.28588 c -5.15485,-57.26295 -10.92008,-124.12218 15.6817,-178.03359 z"
         style="fill:#ffffff;fill-opacity:1;fill-rule:evenodd;stroke:none;filter:url(#filter4107);opacity:0.63138686"
         inkscape:connector-curvature="0"
         sodipodi:nodetypes="cccccc" />
      <path
         id="path3762"
         d="m 764.29947,551.97826 c 9.72624,84.00483 -4.79169,154.60342 -25.8287,236.14818 l 26.7511,8.30208 c 25.74345,-29.18876 41.41511,-59.83805 56.2697,-98.70255 l -41.5104,32.28588 c 5.15485,-57.26295 10.92008,-124.12218 -15.6817,-178.03359 z"
         style="fill:#ffffff;fill-opacity:1;fill-rule:evenodd;stroke:none;filter:url(#filter4127);opacity:0.49270073"
         inkscape:connector-curvature="0"
         sodipodi:nodetypes="cccccc" />
      <path
         sodipodi:nodetypes="ccsc"
         d="m 869.81542,941.12752 -314.516,0 c -50.16437,-93.12981 67.79961,-149.34555 157.258,-160.12137 105.09826,-12.65974 198.69622,71.74875 157.258,160.12137 z"
         style="fill:url(#radialGradient3598);fill-opacity:1;fill-rule:evenodd;stroke:none"
         id="path3193"
         inkscape:connector-curvature="0" />
      <path
         id="path3200"
         style="fill:url(#radialGradient3590);fill-opacity:1;fill-rule:evenodd;stroke:none"
         d="m 474.48589,941.12752 -314.516,0 c -47.43715,-105.40231 63.93137,-168.83022 157.258,-160.12137 93.32663,8.70885 191.80494,62.43923 157.258,160.12137 z"
         sodipodi:nodetypes="cczc"
         inkscape:connector-curvature="0" />
      <path
         sodipodi:type="arc"
         style="fill:url(#radialGradient3309);fill-opacity:1;fill-rule:evenodd;stroke:#000000;stroke-opacity:1;stroke-width:5.08673191;stroke-miterlimit:4;stroke-dasharray:none"
         id="path3215"
         sodipodi:cx="430.04144"
         sodipodi:cy="269.01694"
         sodipodi:rx="77.137474"
         sodipodi:ry="97.386063"
         d="m 507.17892,269.01694 c 0,53.78483 -34.53563,97.38606 -77.13748,97.38606 -42.60185,0 -77.13747,-43.60123 -77.13747,-97.38606 0,-53.78484 34.53562,-97.38607 77.13747,-97.38607 42.60133,0 77.13674,43.6002 77.13748,97.38437"
         sodipodi:start="0"
         sodipodi:end="6.2831679"
         sodipodi:open="true"
         transform="matrix(1.22167,0,0,1.22509,-116.54,-48.0168)" />
      <path
         transform="matrix(1.32188,0,0,1.10671,-206.152,-47.3256)"
         sodipodi:open="true"
         sodipodi:end="6.2831679"
         sodipodi:start="0"
         d="m 692.30886,306.62146 c 0,43.6669 -34.53562,79.06591 -77.13747,79.06591 -42.60185,0 -77.13748,-35.39901 -77.13748,-79.06591 0,-43.6669 34.53563,-79.06591 77.13748,-79.06591 42.60132,0 77.13673,35.39817 77.13747,79.06453"
         sodipodi:ry="79.06591"
         sodipodi:rx="77.137474"
         sodipodi:cy="306.62146"
         sodipodi:cx="615.17139"
         id="path3229"
         style="fill:url(#radialGradient3319);fill-opacity:1;fill-rule:evenodd;stroke:#000000;stroke-opacity:1;stroke-width:9.26814201;stroke-miterlimit:4;stroke-dasharray:none"
         sodipodi:type="arc" />
      <path
         sodipodi:open="true"
         sodipodi:end="6.2831679"
         sodipodi:start="0"
         d="m 509.10734,296.01508 c 0,21.83344 -12.08747,39.53295 -26.99812,39.53295 -14.91065,0 -26.99812,-17.69951 -26.99812,-39.53295 0,-21.83345 12.08747,-39.53296 26.99812,-39.53296 14.91047,0 26.99786,17.69909 26.99812,39.53227"
         sodipodi:ry="39.532955"
         sodipodi:rx="26.998117"
         sodipodi:cy="296.01508"
         sodipodi:cx="482.10922"
         id="path3231"
         style="fill:#000000;fill-opacity:1;fill-rule:evenodd;stroke:none"
         sodipodi:type="arc"
         transform="translate(50.2298,-3.03579)" />
      <path
         sodipodi:nodetypes="cccc"
         id="path3328"
         d="m 349.04712,202.48588 c 68.34664,-82.74862 142.11299,-13.62761 154.2749,82.92278 13.4991,69.42373 -53.9962,7.71375 -53.9962,7.71375 -7.34898,-62.54588 -65.45419,-94.16203 -100.2787,-90.63653 z"
         style="opacity:0.80000000000000004;fill:url(#linearGradient3336);fill-opacity:1;fill-rule:evenodd;stroke:none;filter:url(#filter3911)"
         inkscape:connector-curvature="0" />
      <path
         transform="translate(-7.78528,-3.85687)"
         sodipodi:open="true"
         sodipodi:end="6.2831679"
         sodipodi:start="0"
         d="m 509.10734,296.01508 c 0,21.83344 -12.08747,39.53295 -26.99812,39.53295 -14.91065,0 -26.99812,-17.69951 -26.99812,-39.53295 0,-21.83345 12.08747,-39.53296 26.99812,-39.53296 14.91047,0 26.99786,17.69909 26.99812,39.53227"
         sodipodi:ry="39.532955"
         sodipodi:rx="26.998117"
         sodipodi:cy="296.01508"
         sodipodi:cx="482.10922"
         id="path3217"
         style="fill:#000000;fill-opacity:1;fill-rule:evenodd;stroke:#000000;stroke-width:2.29999995;stroke-linecap:butt;stroke-linejoin:miter;stroke-miterlimit:4;stroke-opacity:1;stroke-dasharray:none;stroke-dashoffset:0"
         sodipodi:type="arc" />
      <path
         sodipodi:nodetypes="cccc"
         id="path3374"
         d="m 592.03013,212.12806 c 41.30934,-5.12026 93.7622,0.27919 107.9925,80.99435 l -42.4256,1.92844 c 0,0 -26.9982,-61.70998 -65.5669,-82.92279 z"
         style="opacity:0.80000000000000004;fill:url(#linearGradient3382);fill-opacity:1;fill-rule:evenodd;stroke:none;filter:url(#filter3903)"
         inkscape:connector-curvature="0" />
      <path
         sodipodi:nodetypes="ccc"
         id="path3384"
         d="m 521.42603,333.13229 c 63.96507,27.02791 125.38187,35.77057 178.277,-15.61998 -35.67587,73.47019 -137.30848,78.81216 -178.277,15.61998 z"
         style="opacity:0.80000000000000004;fill:url(#radialGradient3394);fill-opacity:1;fill-rule:evenodd;stroke:none;filter:url(#filter3939)"
         inkscape:connector-curvature="0" />
      <path
         style="opacity:0.80000000000000004;fill:url(#radialGradient3404);fill-opacity:1;fill-rule:evenodd;stroke:none;filter:url(#filter3967)"
         d="M 318.6246,245.29756 C 340.46201,326.8849 380.65926,387.08204 468.19843,400.50272 382.17452,413.58614 312.73129,366.90803 318.6246,245.29756 z"
         id="path3402"
         sodipodi:nodetypes="ccc"
         inkscape:connector-curvature="0" />
      <path
         inkscape:connector-curvature="0"
         id="path4131"
         style="opacity:0.32481755;fill:#000000;fill-opacity:1;fill-rule:evenodd;stroke:none;filter:url(#filter4163)"
         d="m 510.94079,514.95454 c 13.00369,-0.26394 116.99273,-97.13943 90.11796,-129.5796 -21.1777,-25.5633 -44.03067,-32.16002 -96.03352,-31.17725 -52.00287,0.98276 -64.72838,11.5316 -92.16644,31.51131 -38.10014,27.74356 85.07831,129.50949 98.082,129.24554 z"
         sodipodi:nodetypes="zsssz"
         transform="matrix(0.93997354,0,0,0.93997354,31.90019,23.356079)" />
      <path
         sodipodi:nodetypes="zsssz"
         d="m 513.1526,491.7732 c 11.84618,-0.24045 106.57874,-88.49266 82.0962,-118.0452 -19.29259,-23.28781 -40.11132,-29.29733 -87.48519,-28.40204 -47.37388,0.89528 -58.96664,10.50513 -83.96233,28.70636 -34.70869,25.274 77.50514,117.98133 89.35132,117.74088 z"
         style="fill:url(#radialGradient3434);fill-opacity:1;fill-rule:evenodd;stroke:none"
         id="path3202"
         inkscape:connector-curvature="0" />
      <path
         id="path3406"
         d="m 452.5581,363.56666 c 47.73336,10.29462 95.27611,15.17882 118.7423,66.01718 0,0 20.45917,-12.3561 21.7103,-37.47741 2.55308,-51.26286 -96.92174,-48.20096 -140.4526,-28.53977 z"
         style="opacity:0.80000000000000004;fill:url(#linearGradient3414);fill-opacity:1;fill-rule:evenodd;stroke:none;filter:url(#filter4011)"
         inkscape:connector-curvature="0"
         sodipodi:nodetypes="ccsc" />
      <path
         sodipodi:nodetypes="ccc"
         id="path3416"
         d="m 431.93304,380.40036 c 8.92559,41.79134 52.226,71.8584 83.9513,102.81377 -44.5379,-10.03782 -117.11701,-104.55064 -83.9513,-102.81377 z"
         style="fill:#ffffff;fill-opacity:0.42857097999999999;fill-rule:evenodd;stroke:none;filter:url(#filter4047)"
         inkscape:connector-curvature="0" />
      <path
         transform="matrix(1.33333,0,0,1.47917,-1450.18,-395.892)"
         sodipodi:open="true"
         sodipodi:end="6.2831679"
         sodipodi:start="0"
         d="m 1382.6892,852.36914 c 0,25.56111 -34.9673,46.28249 -78.1017,46.28249 -43.1343,0 -78.1017,-20.72138 -78.1017,-46.28249 0,-25.56111 34.9674,-46.28249 78.1017,-46.28249 43.1339,0 78.101,20.72089 78.1017,46.28168"
         sodipodi:ry="46.282486"
         sodipodi:rx="78.101692"
         sodipodi:cy="852.36914"
         sodipodi:cx="1304.5875"
         id="path3600"
         style="opacity:0.80000000000000004;fill:url(#linearGradient3608);fill-opacity:1;fill-rule:evenodd;stroke:none;filter:url(#filter4239)"
         sodipodi:type="arc" />
      <path
         sodipodi:type="arc"
         style="opacity:0.80000000000000004;fill:url(#linearGradient3612);fill-opacity:1;fill-rule:evenodd;stroke:none;filter:url(#filter4307)"
         id="path3610"
         sodipodi:cx="1304.5875"
         sodipodi:cy="852.36914"
         sodipodi:rx="78.101692"
         sodipodi:ry="46.282486"
         d="m 1382.6892,852.36914 c 0,25.56111 -34.9673,46.28249 -78.1017,46.28249 -43.1343,0 -78.1017,-20.72138 -78.1017,-46.28249 0,-25.56111 34.9674,-46.28249 78.1017,-46.28249 43.1339,0 78.101,20.72089 78.1017,46.28168"
         sodipodi:start="0"
         sodipodi:end="6.2831679"
         sodipodi:open="true"
         transform="matrix(1.33333,0,0,1.47917,-1000.86,-395.892)" />
      <path
         sodipodi:nodetypes="cccc"
         id="path3742"
         d="M 34.711858,597.81545 C 135.15127,505.57188 179.1839,495.28688 221.7702,474.39548 212.44107,456.38689 215.28303,433.45274 218.39547,410.75707 164.50981,457.57879 29.821402,554.30788 34.711858,597.81545 z"
         style="fill:url(#linearGradient3750);fill-opacity:1;fill-rule:evenodd;stroke:none;filter:url(#filter3891)"
         inkscape:connector-curvature="0" />
      <path
         id="path3752"
         d="M 51.838983,619.15281 C 83.657078,588.39298 149.861,555.97057 170.28052,547.40268 c 0.0577,4.68221 2.43883,12.40429 7.35881,15.40628 -15.88245,-1.99734 -56.61001,13.33986 -125.800347,56.34385 z"
         style="fill:url(#radialGradient3857);fill-opacity:1;fill-rule:evenodd;stroke:none;filter:url(#filter3895)"
         inkscape:connector-curvature="0"
         sodipodi:nodetypes="cccc" />
      <path
         style="fill:url(#linearGradient3758);fill-opacity:1;fill-rule:evenodd;stroke:none;filter:url(#filter3887)"
         d="m 986.94033,595.88701 c 0,0 -161.98874,-104.1356 -187.05834,-123.41997 -25.0697,-19.28437 -1.92847,-80.99435 -1.92847,-80.99435 0,0 23.14127,32.78343 55.92467,65.56686 28.9265,23.14124 52.0678,42.42561 96.4218,79.06591 44.3541,44.35404 36.64034,61.70998 36.64034,59.78155 z"
         id="path3754"
         sodipodi:nodetypes="cscccc"
         inkscape:connector-curvature="0" />
      <path
         style="fill:#ffffff;fill-opacity:0.38571400000000000;fill-rule:evenodd;stroke:none;filter:url(#filter4087)"
         d="m 969.81321,617.22437 c -35.16013,-26.28691 -71.55383,-56.24383 -126.6232,-62.88666 l 2.5495,5.94874 c 42.14279,11.0232 88.27205,45.69134 124.0737,56.93792 z"
         id="path3756"
         inkscape:connector-curvature="0"
         sodipodi:nodetypes="cccc" />
      <path
         style="fill:url(#linearGradient3832);fill-opacity:1;fill-rule:evenodd;stroke:none"
         d="m 468.89806,254.15419 c 0,0 6.6678,19.26258 7.1617,35.56168 14.5704,-4.93912 22.2261,-9.87824 22.2261,-9.87824 0,0 -3.7044,-25.68344 -29.3878,-25.68344 z"
         id="path3828"
         sodipodi:nodetypes="cccc"
         inkscape:connector-curvature="0" />
      <path
         style="fill:url(#linearGradient3834);fill-opacity:1;fill-rule:evenodd;stroke:none"
         d="m 453.74298,267.83483 c 1.1389,24.33379 6.19839,50.59083 34.08,57.04687 -34.33168,16.23485 -49.07838,-29.09202 -34.08,-57.04687 z"
         id="path3830"
         sodipodi:nodetypes="ccc"
         inkscape:connector-curvature="0" />
      <path
         sodipodi:nodetypes="cccc"
         id="path3836"
         d="m 526.11562,255.40714 c 0,0 6.6678,19.26258 7.1617,35.56168 14.5704,-4.93912 22.2261,-9.87824 22.2261,-9.87824 0,0 -3.7044,-25.68344 -29.3878,-25.68344 z"
         style="fill:url(#linearGradient3840);fill-opacity:1;fill-rule:evenodd;stroke:none"
         inkscape:connector-curvature="0" />
      <path
         sodipodi:nodetypes="cscssc"
         id="path3838"
         d="m 513.04877,269.92307 c 0,0 -2.4696,21.48519 6.6678,36.0556 9.1374,14.57041 19.5096,19.26258 27.4122,20.99127 -2.4696,2.22261 -13.5826,8.14955 -23.9548,-0.24696 -10.3722,-8.3965 -15.5582,-16.54606 -15.5582,-27.65908 0,-11.11303 1.9756,-24.94257 5.433,-29.14083 z"
         style="fill:url(#linearGradient3842);fill-opacity:1;fill-rule:evenodd;stroke:none"
         inkscape:connector-curvature="0" />
    </g>
  </g>
</svg>
